<svg xmlns="http://www.w3.org/2000/svg" xmlns:xlink="http://www.w3.org/1999/xlink" width="500" zoomAndPan="magnify" viewBox="0 0 375 374.999991" height="500" preserveAspectRatio="xMidYMid meet" version="1.0"><defs><clipPath id="7b00ff5b34"><path d="M 95 71 L 308.148438 71 L 308.148438 332.796875 L 95 332.796875 Z M 95 71 " clip-rule="nonzero"/></clipPath><clipPath id="8cd4bc666b"><path d="M 66.648438 42.546875 L 280 42.546875 L 280 304 L 66.648438 304 Z M 66.648438 42.546875 " clip-rule="nonzero"/></clipPath><clipPath id="0a74f3fccd"><path d="M 86 42.546875 L 280 42.546875 L 280 285 L 86 285 Z M 86 42.546875 " clip-rule="nonzero"/></clipPath><clipPath id="6788305d67"><path d="M 105 42.546875 L 280 42.546875 L 280 266 L 105 266 Z M 105 42.546875 " clip-rule="nonzero"/></clipPath><clipPath id="0503578278"><path d="M 66.648438 42.546875 L 280 42.546875 L 280 120 L 66.648438 120 Z M 66.648438 42.546875 " clip-rule="nonzero"/></clipPath><clipPath id="ecf178bf94"><path d="M 86 42.546875 L 280 42.546875 L 280 120 L 86 120 Z M 86 42.546875 " clip-rule="nonzero"/></clipPath><clipPath id="39bf93716f"><path d="M 221 42.546875 L 280 42.546875 L 280 101 L 221 101 Z M 221 42.546875 " clip-rule="nonzero"/></clipPath></defs><g clip-path="url(#7b00ff5b34)"><path fill="#3385ca" d="M 95.671875 313.449219 C 95.671875 324.132812 104.316406 332.796875 114.980469 332.796875 L 288.777344 332.796875 C 299.441406 332.796875 308.089844 324.132812 308.089844 313.449219 L 308.089844 90.921875 C 308.089844 80.238281 299.441406 71.574219 288.777344 71.574219 L 114.980469 71.574219 C 104.316406 71.574219 95.671875 80.238281 95.671875 90.921875 Z M 95.671875 313.449219 " fill-opacity="1" fill-rule="nonzero"/></g><g clip-path="url(#8cd4bc666b)"><path fill="#efe7e4" d="M 279.121094 100.597656 L 279.121094 284.421875 C 279.121094 295.109375 270.476562 303.773438 259.8125 303.773438 L 86.015625 303.773438 C 75.351562 303.773438 66.707031 295.109375 66.707031 284.421875 L 66.707031 61.898438 C 66.707031 51.210938 75.351562 42.546875 86.015625 42.546875 L 221.191406 42.546875 Z M 279.121094 100.597656 " fill-opacity="1" fill-rule="nonzero"/></g><g clip-path="url(#0a74f3fccd)"><path fill="#f6f1f1" d="M 221.191406 42.546875 L 86.015625 42.546875 L 86.015625 265.074219 C 86.015625 275.757812 94.664062 284.421875 105.328125 284.421875 L 279.121094 284.421875 L 279.121094 100.597656 Z M 221.191406 42.546875 " fill-opacity="1" fill-rule="nonzero"/></g><g clip-path="url(#6788305d67)"><path fill="#faf7f7" d="M 105.328125 42.546875 L 105.328125 245.722656 C 105.328125 256.410156 113.972656 265.074219 124.636719 265.074219 L 279.121094 265.074219 L 279.121094 100.597656 L 221.191406 42.546875 Z M 105.328125 42.546875 " fill-opacity="1" fill-rule="nonzero"/></g><path fill="#0067bd" d="M 226.019531 255.398438 C 226.019531 263.414062 202.242188 269.910156 172.914062 269.910156 C 143.585938 269.910156 119.808594 263.414062 119.808594 255.398438 L 119.808594 168.324219 C 119.808594 160.308594 143.585938 153.8125 172.914062 153.8125 C 202.242188 153.8125 226.019531 160.308594 226.019531 168.324219 Z M 226.019531 255.398438 " fill-opacity="1" fill-rule="nonzero"/><path fill="#3385ca" d="M 226.019531 226.375 C 226.019531 234.390625 202.242188 240.886719 172.914062 240.886719 C 143.585938 240.886719 119.808594 234.390625 119.808594 226.375 L 119.808594 197.347656 C 119.808594 205.363281 143.585938 211.859375 172.914062 211.859375 C 202.242188 211.859375 226.019531 205.363281 226.019531 197.347656 Z M 226.019531 226.375 " fill-opacity="1" fill-rule="nonzero"/><g clip-path="url(#0503578278)"><path fill="#0067bd" d="M 86.015625 42.546875 C 75.351562 42.546875 66.707031 51.210938 66.707031 61.898438 L 66.707031 119.949219 L 279.121094 119.949219 L 279.121094 100.597656 L 221.191406 42.546875 Z M 86.015625 42.546875 " fill-opacity="1" fill-rule="nonzero"/></g><g clip-path="url(#ecf178bf94)"><path fill="#5c9dd5" d="M 86.015625 61.898438 L 86.015625 119.949219 L 279.121094 119.949219 L 279.121094 100.597656 L 221.191406 42.546875 L 105.328125 42.546875 C 94.664062 42.546875 86.015625 51.210938 86.015625 61.898438 Z M 86.015625 61.898438 " fill-opacity="1" fill-rule="nonzero"/></g><g clip-path="url(#39bf93716f)"><path fill="#7db1dd" d="M 279.121094 100.597656 L 240.5 100.597656 C 229.835938 100.597656 221.191406 91.933594 221.191406 81.25 L 221.191406 42.546875 Z M 279.121094 100.597656 " fill-opacity="1" fill-rule="nonzero"/></g><path fill="#ffffff" d="M 95.671875 105.4375 C 87.6875 105.4375 81.1875 98.925781 81.1875 90.921875 C 81.1875 88.25 83.351562 86.085938 86.015625 86.085938 C 88.679688 86.085938 90.84375 88.25 90.84375 90.921875 C 90.84375 93.59375 93.011719 95.761719 95.671875 95.761719 C 98.332031 95.761719 100.5 93.59375 100.5 90.921875 C 100.5 88.253906 98.332031 86.085938 95.671875 86.085938 C 87.6875 86.085938 81.1875 79.574219 81.1875 71.574219 C 81.1875 63.570312 87.6875 57.0625 95.671875 57.0625 C 103.65625 57.0625 110.152344 63.570312 110.152344 71.574219 C 110.152344 74.25 107.992188 76.410156 105.328125 76.410156 C 102.660156 76.410156 100.5 74.25 100.5 71.574219 C 100.5 68.902344 98.332031 66.734375 95.671875 66.734375 C 93.011719 66.734375 90.84375 68.902344 90.84375 71.574219 C 90.84375 74.242188 93.011719 76.410156 95.671875 76.410156 C 103.65625 76.410156 110.152344 82.921875 110.152344 90.921875 C 110.152344 98.925781 103.65625 105.4375 95.671875 105.4375 Z M 95.671875 105.4375 " fill-opacity="1" fill-rule="nonzero"/><path fill="#ffffff" d="M 182.570312 105.4375 L 163.257812 105.4375 C 160.59375 105.4375 158.429688 103.273438 158.429688 100.597656 L 158.429688 61.898438 C 158.429688 59.222656 160.59375 57.0625 163.257812 57.0625 C 165.921875 57.0625 168.085938 59.222656 168.085938 61.898438 L 168.085938 95.761719 L 182.570312 95.761719 C 185.234375 95.761719 187.398438 97.921875 187.398438 100.597656 C 187.398438 103.273438 185.234375 105.4375 182.570312 105.4375 Z M 182.570312 105.4375 " fill-opacity="1" fill-rule="nonzero"/><path fill="#ffffff" d="M 153.601562 76.410156 C 153.601562 65.738281 144.941406 57.0625 134.292969 57.0625 C 123.644531 57.0625 114.980469 65.738281 114.980469 76.410156 L 114.980469 86.085938 C 114.980469 96.757812 123.644531 105.4375 134.292969 105.4375 C 137.863281 105.4375 141.167969 104.394531 144.039062 102.691406 L 145.363281 104.019531 C 146.304688 104.960938 147.539062 105.4375 148.773438 105.4375 C 150.011719 105.4375 151.246094 104.960938 152.1875 104.019531 C 154.074219 102.128906 154.074219 99.070312 152.1875 97.179688 L 150.867188 95.851562 C 152.566406 92.972656 153.601562 89.664062 153.601562 86.085938 Z M 142.535156 87.503906 C 140.644531 85.613281 137.59375 85.613281 135.707031 87.503906 C 133.820312 89.394531 133.820312 92.453125 135.707031 94.34375 L 136.757812 95.398438 C 135.96875 95.609375 135.152344 95.761719 134.292969 95.761719 C 128.96875 95.761719 124.636719 91.421875 124.636719 86.085938 L 124.636719 76.410156 C 124.636719 71.074219 128.96875 66.734375 134.292969 66.734375 C 139.617188 66.734375 143.949219 71.074219 143.949219 76.410156 L 143.949219 86.085938 C 143.949219 86.945312 143.796875 87.765625 143.585938 88.558594 Z M 142.535156 87.503906 " fill-opacity="1" fill-rule="nonzero"/><path fill="#66a4d7" d="M 172.914062 153.8125 C 143.585938 153.8125 119.808594 160.308594 119.808594 168.324219 L 119.808594 197.347656 C 119.808594 205.363281 143.585938 211.859375 172.914062 211.859375 C 202.242188 211.859375 226.019531 205.363281 226.019531 197.347656 L 226.019531 168.324219 C 226.019531 160.308594 202.242188 153.8125 172.914062 153.8125 Z M 172.914062 153.8125 " fill-opacity="1" fill-rule="nonzero"/><path fill="#a3c8e7" d="M 226.019531 168.324219 C 226.019531 168.796875 225.933594 169.273438 225.761719 169.746094 C 225.589844 170.21875 225.335938 170.6875 224.996094 171.15625 C 224.65625 171.621094 224.234375 172.082031 223.730469 172.535156 C 223.226562 172.992188 222.640625 173.4375 221.976562 173.878906 C 221.308594 174.316406 220.566406 174.746094 219.746094 175.164062 C 218.925781 175.582031 218.035156 175.992188 217.066406 176.386719 C 216.101562 176.78125 215.066406 177.164062 213.964844 177.53125 C 212.859375 177.898438 211.695312 178.25 210.464844 178.585938 C 209.234375 178.921875 207.945312 179.238281 206.601562 179.542969 C 205.257812 179.84375 203.863281 180.125 202.417969 180.390625 C 200.96875 180.652344 199.480469 180.898438 197.945312 181.121094 C 196.414062 181.347656 194.84375 181.550781 193.234375 181.730469 C 191.628906 181.914062 189.992188 182.074219 188.328125 182.210938 C 186.664062 182.347656 184.980469 182.464844 183.273438 182.558594 C 181.566406 182.648438 179.851562 182.71875 178.117188 182.765625 C 176.386719 182.8125 174.652344 182.835938 172.914062 182.835938 C 171.175781 182.835938 169.4375 182.8125 167.707031 182.765625 C 165.976562 182.71875 164.257812 182.648438 162.554688 182.558594 C 160.847656 182.464844 159.164062 182.347656 157.5 182.210938 C 155.832031 182.074219 154.199219 181.914062 152.589844 181.730469 C 150.984375 181.550781 149.414062 181.347656 147.878906 181.121094 C 146.347656 180.898438 144.855469 180.652344 143.410156 180.390625 C 141.964844 180.125 140.570312 179.84375 139.226562 179.542969 C 137.878906 179.238281 136.59375 178.921875 135.363281 178.585938 C 134.132812 178.25 132.96875 177.898438 131.863281 177.53125 C 130.761719 177.164062 129.726562 176.78125 128.757812 176.386719 C 127.792969 175.992188 126.898438 175.582031 126.078125 175.164062 C 125.261719 174.746094 124.515625 174.316406 123.851562 173.878906 C 123.1875 173.4375 122.601562 172.992188 122.097656 172.535156 C 121.589844 172.082031 121.167969 171.621094 120.828125 171.15625 C 120.492188 170.6875 120.234375 170.21875 120.066406 169.746094 C 119.894531 169.273438 119.808594 168.796875 119.808594 168.324219 C 119.808594 167.847656 119.894531 167.375 120.066406 166.902344 C 120.234375 166.429688 120.492188 165.957031 120.828125 165.492188 C 121.167969 165.027344 121.589844 164.566406 122.097656 164.109375 C 122.601562 163.65625 123.1875 163.207031 123.851562 162.769531 C 124.515625 162.332031 125.261719 161.902344 126.078125 161.480469 C 126.898438 161.0625 127.792969 160.65625 128.757812 160.261719 C 129.726562 159.867188 130.761719 159.484375 131.863281 159.117188 C 132.96875 158.75 134.132812 158.398438 135.363281 158.0625 C 136.59375 157.726562 137.878906 157.40625 139.226562 157.105469 C 140.570312 156.804688 141.964844 156.519531 143.410156 156.257812 C 144.855469 155.992188 146.347656 155.75 147.878906 155.523438 C 149.414062 155.300781 150.984375 155.097656 152.589844 154.914062 C 154.199219 154.734375 155.832031 154.574219 157.5 154.4375 C 159.164062 154.296875 160.847656 154.183594 162.554688 154.089844 C 164.257812 153.996094 165.976562 153.925781 167.707031 153.878906 C 169.4375 153.835938 171.175781 153.8125 172.914062 153.8125 C 174.652344 153.8125 176.386719 153.835938 178.117188 153.878906 C 179.851562 153.925781 181.566406 153.996094 183.273438 154.089844 C 184.980469 154.183594 186.664062 154.296875 188.328125 154.4375 C 189.992188 154.574219 191.628906 154.734375 193.234375 154.914062 C 194.84375 155.097656 196.414062 155.300781 197.945312 155.523438 C 199.480469 155.75 200.96875 155.992188 202.417969 156.257812 C 203.863281 156.519531 205.257812 156.804688 206.601562 157.105469 C 207.945312 157.40625 209.234375 157.726562 210.464844 158.0625 C 211.695312 158.398438 212.859375 158.75 213.964844 159.117188 C 215.066406 159.484375 216.101562 159.867188 217.066406 160.261719 C 218.035156 160.65625 218.925781 161.0625 219.746094 161.480469 C 220.566406 161.902344 221.308594 162.332031 221.976562 162.769531 C 222.640625 163.207031 223.226562 163.65625 223.730469 164.109375 C 224.234375 164.566406 224.65625 165.027344 224.996094 165.492188 C 225.335938 165.957031 225.589844 166.429688 225.761719 166.902344 C 225.933594 167.375 226.019531 167.847656 226.019531 168.324219 Z M 226.019531 168.324219 " fill-opacity="1" fill-rule="nonzero"/></svg>