<svg xmlns="http://www.w3.org/2000/svg" xmlns:xlink="http://www.w3.org/1999/xlink" width="500" zoomAndPan="magnify" viewBox="0 0 375 374.999991" height="500" preserveAspectRatio="xMidYMid meet" version="1.0"><defs><clipPath id="ec790bffe2"><path d="M 27.730469 158 L 36 158 L 36 213 L 27.730469 213 Z M 27.730469 158 " clip-rule="nonzero"/></clipPath><clipPath id="82b3a8740b"><path d="M 141 273 L 304 273 L 304 344.777344 L 141 344.777344 Z M 141 273 " clip-rule="nonzero"/></clipPath><clipPath id="ce445c4ae8"><path d="M 293 212 L 347.230469 212 L 347.230469 267 L 293 267 Z M 293 212 " clip-rule="nonzero"/></clipPath></defs><path fill="#000000" d="M 276.984375 85.691406 C 276.613281 85.691406 276.242188 85.5625 275.945312 85.292969 C 272.019531 81.765625 267.878906 78.429688 263.632812 75.375 C 263.628906 75.371094 263.621094 75.367188 263.617188 75.363281 C 263.03125 74.929688 262.40625 74.484375 261.710938 74 C 261.007812 73.507812 260.832031 72.535156 261.324219 71.828125 C 261.816406 71.125 262.785156 70.949219 263.492188 71.441406 C 264.207031 71.941406 264.851562 72.402344 265.457031 72.851562 C 269.789062 75.96875 274.019531 79.371094 278.027344 82.976562 C 278.664062 83.550781 278.71875 84.535156 278.144531 85.175781 C 277.835938 85.519531 277.410156 85.691406 276.984375 85.691406 Z M 246.921875 64.730469 C 246.675781 64.730469 246.429688 64.671875 246.199219 64.550781 C 240.851562 61.730469 235.28125 59.222656 229.636719 57.09375 C 228.832031 56.789062 228.425781 55.890625 228.730469 55.085938 C 229.03125 54.28125 229.929688 53.875 230.734375 54.179688 C 236.5 56.351562 242.1875 58.914062 247.648438 61.792969 C 248.410156 62.195312 248.699219 63.136719 248.300781 63.898438 C 248.019531 64.425781 247.480469 64.730469 246.921875 64.730469 Z M 212.648438 51.796875 C 212.527344 51.796875 212.402344 51.785156 212.28125 51.753906 C 206.417969 50.34375 200.402344 49.289062 194.398438 48.617188 C 193.542969 48.519531 192.929688 47.75 193.023438 46.894531 C 193.121094 46.039062 193.890625 45.425781 194.746094 45.519531 C 200.875 46.207031 207.019531 47.285156 213.007812 48.726562 C 213.84375 48.925781 214.359375 49.765625 214.160156 50.605469 C 213.988281 51.316406 213.351562 51.796875 212.648438 51.796875 Z M 157.933594 49.046875 C 157.167969 49.046875 156.5 48.480469 156.394531 47.699219 C 156.277344 46.847656 156.875 46.0625 157.726562 45.945312 C 162.40625 45.316406 167.179688 44.898438 171.925781 44.710938 C 173.351562 44.652344 174.796875 44.617188 176.222656 44.597656 C 177.085938 44.589844 177.789062 45.277344 177.796875 46.136719 C 177.808594 47 177.117188 47.703125 176.257812 47.714844 C 174.863281 47.730469 173.445312 47.769531 172.046875 47.824219 C 167.402344 48.007812 162.722656 48.417969 158.144531 49.035156 C 158.074219 49.042969 158.003906 49.046875 157.933594 49.046875 Z M 157.933594 49.046875 " fill-opacity="1" fill-rule="nonzero"/><g clip-path="url(#ec790bffe2)"><path fill="#000000" d="M 30.242188 212.328125 C 29.457031 212.328125 28.785156 211.734375 28.699219 210.9375 C 28.132812 205.660156 27.84375 200.28125 27.84375 194.9375 C 27.84375 194.527344 27.847656 194.117188 27.847656 193.703125 C 27.855469 192.84375 28.5625 192.148438 29.417969 192.160156 C 30.277344 192.164062 30.96875 192.867188 30.960938 193.730469 C 30.957031 194.132812 30.957031 194.535156 30.957031 194.9375 C 30.957031 200.167969 31.238281 205.4375 31.792969 210.601562 C 31.886719 211.457031 31.265625 212.226562 30.410156 212.320312 C 30.355469 212.324219 30.300781 212.328125 30.242188 212.328125 Z M 30.511719 178.238281 C 30.449219 178.238281 30.386719 178.234375 30.320312 178.226562 C 29.46875 178.121094 28.863281 177.34375 28.964844 176.488281 C 29.660156 170.785156 30.691406 165.074219 32.03125 159.511719 C 32.234375 158.675781 33.074219 158.160156 33.910156 158.363281 C 34.746094 158.5625 35.257812 159.40625 35.058594 160.242188 C 33.746094 165.6875 32.738281 171.28125 32.054688 176.867188 C 31.960938 177.65625 31.289062 178.238281 30.511719 178.238281 Z M 30.511719 178.238281 " fill-opacity="1" fill-rule="nonzero"/></g><g clip-path="url(#82b3a8740b)"><path fill="#000000" d="M 177.867188 344.78125 C 177.324219 344.78125 176.773438 344.777344 176.226562 344.773438 C 175.367188 344.761719 174.675781 344.058594 174.6875 343.199219 C 174.695312 342.34375 175.390625 341.65625 176.242188 341.65625 C 176.246094 341.65625 176.253906 341.65625 176.257812 341.65625 C 181.71875 341.714844 187.25 341.46875 192.664062 340.929688 C 193.519531 340.84375 194.28125 341.46875 194.367188 342.324219 C 194.453125 343.179688 193.828125 343.941406 192.972656 344.027344 C 187.988281 344.527344 182.90625 344.78125 177.867188 344.78125 Z M 159.6875 343.675781 C 159.625 343.675781 159.558594 343.671875 159.496094 343.664062 C 155.785156 343.207031 152.046875 342.605469 148.394531 341.875 C 146.59375 341.515625 144.777344 341.121094 142.992188 340.695312 C 142.15625 340.496094 141.640625 339.65625 141.839844 338.820312 C 142.039062 337.984375 142.878906 337.464844 143.714844 337.664062 C 145.457031 338.078125 147.238281 338.46875 149 338.816406 C 152.582031 339.535156 156.242188 340.125 159.875 340.570312 C 160.726562 340.675781 161.335938 341.453125 161.230469 342.308594 C 161.132812 343.097656 160.460938 343.675781 159.6875 343.675781 Z M 209.207031 341.460938 C 208.488281 341.460938 207.84375 340.960938 207.6875 340.230469 C 207.503906 339.390625 208.039062 338.558594 208.878906 338.378906 C 214.210938 337.230469 219.535156 335.765625 224.703125 334.027344 C 225.515625 333.753906 226.398438 334.191406 226.671875 335.007812 C 226.949219 335.824219 226.507812 336.707031 225.695312 336.980469 C 220.417969 338.757812 214.980469 340.253906 209.535156 341.425781 C 209.425781 341.449219 209.3125 341.460938 209.207031 341.460938 Z M 240.597656 330.890625 C 240.011719 330.890625 239.449219 330.558594 239.1875 329.992188 C 238.824219 329.210938 239.160156 328.285156 239.9375 327.917969 C 244.875 325.609375 249.738281 322.992188 254.394531 320.140625 C 255.128906 319.691406 256.085938 319.921875 256.535156 320.65625 C 256.984375 321.390625 256.753906 322.347656 256.019531 322.796875 C 251.265625 325.710938 246.296875 328.382812 241.253906 330.742188 C 241.042969 330.84375 240.816406 330.890625 240.597656 330.890625 Z M 268.851562 313.578125 C 268.390625 313.578125 267.929688 313.371094 267.625 312.976562 C 267.097656 312.296875 267.21875 311.320312 267.898438 310.789062 C 272.203125 307.441406 276.367188 303.808594 280.277344 299.996094 C 280.894531 299.394531 281.878906 299.410156 282.480469 300.027344 C 283.078125 300.644531 283.066406 301.628906 282.449219 302.230469 C 278.457031 306.121094 274.203125 309.828125 269.808594 313.25 C 269.523438 313.472656 269.1875 313.578125 268.851562 313.578125 Z M 292.589844 290.441406 C 292.242188 290.441406 291.890625 290.324219 291.601562 290.085938 C 290.9375 289.539062 290.84375 288.558594 291.386719 287.894531 C 294.851562 283.667969 298.113281 279.207031 301.085938 274.628906 C 301.550781 273.90625 302.515625 273.703125 303.238281 274.171875 C 303.957031 274.640625 304.164062 275.605469 303.695312 276.324219 C 300.664062 281 297.332031 285.558594 293.792969 289.871094 C 293.484375 290.246094 293.039062 290.441406 292.589844 290.441406 Z M 292.589844 290.441406 " fill-opacity="1" fill-rule="nonzero"/></g><path fill="#7bcafa" d="M 286.792969 194.703125 C 286.792969 196.484375 286.75 198.269531 286.660156 200.050781 C 286.574219 201.835938 286.441406 203.613281 286.269531 205.390625 C 286.09375 207.164062 285.875 208.9375 285.613281 210.703125 C 285.351562 212.46875 285.046875 214.222656 284.699219 215.976562 C 284.351562 217.726562 283.960938 219.464844 283.527344 221.195312 C 283.09375 222.929688 282.621094 224.648438 282.101562 226.355469 C 281.585938 228.0625 281.027344 229.757812 280.425781 231.4375 C 279.824219 233.117188 279.183594 234.78125 278.5 236.429688 C 277.820312 238.078125 277.097656 239.710938 276.335938 241.324219 C 275.574219 242.9375 274.769531 244.53125 273.929688 246.105469 C 273.089844 247.679688 272.210938 249.230469 271.296875 250.761719 C 270.378906 252.292969 269.425781 253.800781 268.433594 255.28125 C 267.445312 256.765625 266.417969 258.226562 265.355469 259.660156 C 264.296875 261.09375 263.199219 262.5 262.066406 263.878906 C 260.9375 265.257812 259.773438 266.609375 258.574219 267.929688 C 257.378906 269.253906 256.148438 270.546875 254.890625 271.808594 C 253.628906 273.070312 252.339844 274.300781 251.015625 275.496094 C 249.695312 276.695312 248.347656 277.859375 246.96875 278.992188 C 245.589844 280.125 244.1875 281.222656 242.753906 282.285156 C 241.320312 283.347656 239.863281 284.375 238.382812 285.367188 C 236.902344 286.359375 235.394531 287.3125 233.867188 288.230469 C 232.335938 289.148438 230.785156 290.027344 229.214844 290.871094 C 227.640625 291.710938 226.050781 292.511719 224.4375 293.277344 C 222.828125 294.039062 221.199219 294.761719 219.550781 295.445312 C 217.902344 296.128906 216.242188 296.769531 214.5625 297.371094 C 212.882812 297.972656 211.191406 298.53125 209.488281 299.050781 C 207.78125 299.566406 206.0625 300.042969 204.332031 300.476562 C 202.605469 300.910156 200.867188 301.300781 199.117188 301.648438 C 197.367188 301.996094 195.613281 302.304688 193.851562 302.566406 C 192.085938 302.828125 190.316406 303.046875 188.542969 303.21875 C 186.769531 303.394531 184.992188 303.527344 183.210938 303.613281 C 181.429688 303.703125 179.648438 303.746094 177.867188 303.746094 C 176.085938 303.746094 174.300781 303.703125 172.523438 303.613281 C 170.742188 303.527344 168.964844 303.394531 167.191406 303.21875 C 165.417969 303.046875 163.648438 302.828125 161.882812 302.566406 C 160.121094 302.304688 158.363281 302 156.617188 301.648438 C 154.867188 301.300781 153.128906 300.910156 151.398438 300.476562 C 149.671875 300.042969 147.953125 299.566406 146.246094 299.050781 C 144.542969 298.53125 142.847656 297.972656 141.171875 297.371094 C 139.492188 296.769531 137.828125 296.128906 136.183594 295.445312 C 134.535156 294.761719 132.90625 294.039062 131.296875 293.277344 C 129.683594 292.511719 128.089844 291.710938 126.519531 290.871094 C 124.949219 290.027344 123.398438 289.148438 121.867188 288.230469 C 120.339844 287.3125 118.832031 286.359375 117.351562 285.367188 C 115.867188 284.375 114.410156 283.347656 112.980469 282.285156 C 111.546875 281.222656 110.144531 280.125 108.765625 278.992188 C 107.386719 277.859375 106.039062 276.695312 104.714844 275.496094 C 103.394531 274.300781 102.105469 273.070312 100.84375 271.808594 C 99.585938 270.546875 98.355469 269.253906 97.15625 267.929688 C 95.960938 266.609375 94.796875 265.257812 93.667969 263.878906 C 92.535156 262.5 91.4375 261.09375 90.375 259.660156 C 89.316406 258.226562 88.289062 256.765625 87.296875 255.28125 C 86.308594 253.800781 85.355469 252.292969 84.4375 250.761719 C 83.523438 249.230469 82.644531 247.679688 81.804688 246.105469 C 80.960938 244.53125 80.160156 242.9375 79.398438 241.324219 C 78.636719 239.710938 77.914062 238.078125 77.234375 236.429688 C 76.550781 234.78125 75.910156 233.117188 75.308594 231.4375 C 74.707031 229.757812 74.148438 228.0625 73.632812 226.355469 C 73.113281 224.648438 72.636719 222.929688 72.207031 221.195312 C 71.773438 219.464844 71.382812 217.726562 71.035156 215.976562 C 70.6875 214.222656 70.382812 212.46875 70.121094 210.703125 C 69.859375 208.9375 69.640625 207.164062 69.464844 205.390625 C 69.289062 203.613281 69.160156 201.835938 69.070312 200.050781 C 68.984375 198.269531 68.941406 196.484375 68.941406 194.703125 C 68.941406 192.917969 68.984375 191.132812 69.070312 189.351562 C 69.160156 187.570312 69.289062 185.789062 69.464844 184.011719 C 69.640625 182.238281 69.859375 180.464844 70.121094 178.703125 C 70.382812 176.9375 70.6875 175.179688 71.035156 173.429688 C 71.382812 171.679688 71.773438 169.9375 72.207031 168.207031 C 72.636719 166.476562 73.113281 164.753906 73.632812 163.046875 C 74.148438 161.339844 74.707031 159.644531 75.308594 157.964844 C 75.910156 156.285156 76.550781 154.621094 77.234375 152.972656 C 77.914062 151.324219 78.636719 149.691406 79.398438 148.078125 C 80.160156 146.464844 80.960938 144.871094 81.804688 143.296875 C 82.644531 141.726562 83.523438 140.171875 84.4375 138.640625 C 85.355469 137.109375 86.308594 135.605469 87.296875 134.121094 C 88.289062 132.636719 89.316406 131.175781 90.375 129.746094 C 91.4375 128.3125 92.535156 126.90625 93.667969 125.523438 C 94.796875 124.144531 95.960938 122.792969 97.15625 121.472656 C 98.355469 120.148438 99.585938 118.859375 100.84375 117.597656 C 102.105469 116.335938 103.394531 115.105469 104.714844 113.90625 C 106.039062 112.707031 107.386719 111.542969 108.765625 110.410156 C 110.144531 109.277344 111.546875 108.179688 112.980469 107.117188 C 114.410156 106.054688 115.867188 105.027344 117.351562 104.035156 C 118.832031 103.042969 120.339844 102.089844 121.867188 101.171875 C 123.398438 100.253906 124.949219 99.375 126.519531 98.535156 C 128.089844 97.691406 129.683594 96.890625 131.296875 96.128906 C 132.90625 95.363281 134.535156 94.640625 136.183594 93.957031 C 137.828125 93.277344 139.492188 92.632812 141.171875 92.03125 C 142.847656 91.429688 144.542969 90.871094 146.246094 90.351562 C 147.953125 89.835938 149.671875 89.359375 151.398438 88.925781 C 153.128906 88.492188 154.867188 88.101562 156.617188 87.753906 C 158.363281 87.40625 160.121094 87.101562 161.882812 86.839844 C 163.648438 86.578125 165.417969 86.359375 167.191406 86.183594 C 168.964844 86.007812 170.742188 85.875 172.523438 85.789062 C 174.300781 85.703125 176.085938 85.65625 177.867188 85.65625 C 179.648438 85.65625 181.429688 85.703125 183.210938 85.789062 C 184.992188 85.875 186.769531 86.007812 188.542969 86.183594 C 190.316406 86.359375 192.085938 86.578125 193.851562 86.839844 C 195.613281 87.101562 197.367188 87.40625 199.117188 87.753906 C 200.867188 88.101562 202.605469 88.492188 204.332031 88.925781 C 206.0625 89.359375 207.78125 89.835938 209.488281 90.351562 C 211.191406 90.871094 212.882812 91.429688 214.5625 92.03125 C 216.242188 92.632812 217.902344 93.277344 219.550781 93.957031 C 221.199219 94.640625 222.828125 95.363281 224.4375 96.128906 C 226.050781 96.890625 227.640625 97.691406 229.214844 98.535156 C 230.785156 99.375 232.335938 100.253906 233.867188 101.171875 C 235.394531 102.089844 236.902344 103.042969 238.382812 104.035156 C 239.863281 105.027344 241.320312 106.054688 242.753906 107.117188 C 244.1875 108.179688 245.589844 109.277344 246.96875 110.410156 C 248.347656 111.542969 249.695312 112.707031 251.015625 113.90625 C 252.339844 115.105469 253.628906 116.335938 254.890625 117.597656 C 256.148438 118.859375 257.378906 120.148438 258.574219 121.472656 C 259.773438 122.792969 260.9375 124.144531 262.066406 125.523438 C 263.199219 126.90625 264.296875 128.3125 265.355469 129.746094 C 266.417969 131.175781 267.445312 132.636719 268.433594 134.121094 C 269.425781 135.605469 270.378906 137.109375 271.296875 138.640625 C 272.210938 140.171875 273.089844 141.726562 273.929688 143.296875 C 274.769531 144.871094 275.574219 146.464844 276.335938 148.078125 C 277.097656 149.691406 277.820312 151.324219 278.5 152.972656 C 279.183594 154.621094 279.824219 156.285156 280.425781 157.964844 C 281.027344 159.644531 281.585938 161.339844 282.101562 163.046875 C 282.621094 164.753906 283.09375 166.476562 283.527344 168.207031 C 283.960938 169.9375 284.351562 171.679688 284.699219 173.429688 C 285.046875 175.179688 285.351562 176.9375 285.613281 178.703125 C 285.875 180.464844 286.09375 182.238281 286.269531 184.011719 C 286.441406 185.789062 286.574219 187.570312 286.660156 189.351562 C 286.75 191.132812 286.792969 192.917969 286.792969 194.703125 Z M 286.792969 194.703125 " fill-opacity="1" fill-rule="nonzero"/><path fill="#ffffff" d="M 169.660156 141.933594 C 169.058594 147.203125 164.601562 151.144531 159.175781 151.144531 C 154.308594 151.144531 150.238281 147.914062 149.015625 143.429688 L 148.210938 143.449219 C 146.996094 147.949219 142.921875 151.234375 138.042969 151.144531 C 133.472656 151.0625 129.671875 148.410156 128.214844 144.480469 L 120.9375 121.667969 C 120.9375 121.667969 130.082031 94.335938 147.179688 91.816406 C 164.273438 89.296875 179.914062 113.574219 179.914062 113.574219 L 169.707031 126.976562 Z M 169.660156 141.933594 " fill-opacity="1" fill-rule="nonzero"/><path fill="#000000" d="M 138.234375 152.703125 C 138.160156 152.703125 138.089844 152.703125 138.015625 152.703125 C 132.871094 152.609375 128.453125 149.59375 126.753906 145.023438 C 126.746094 145 126.738281 144.976562 126.730469 144.953125 L 119.457031 122.140625 C 119.355469 121.828125 119.355469 121.488281 119.460938 121.171875 C 119.558594 120.886719 121.855469 114.085938 126.324219 106.867188 C 128.972656 102.589844 131.832031 99.0625 134.828125 96.382812 C 138.667969 92.949219 142.746094 90.894531 146.953125 90.273438 C 151.171875 89.652344 155.628906 90.488281 160.199219 92.757812 C 163.761719 94.527344 167.40625 97.171875 171.027344 100.621094 C 177.140625 106.4375 181.058594 112.476562 181.222656 112.730469 C 181.578125 113.28125 181.546875 113.996094 181.152344 114.519531 L 171.261719 127.503906 L 171.21875 141.9375 C 171.21875 141.996094 171.214844 142.054688 171.207031 142.109375 C 170.871094 145.046875 169.46875 147.738281 167.253906 149.683594 C 165.042969 151.632812 162.175781 152.703125 159.175781 152.703125 C 156.464844 152.703125 153.90625 151.839844 151.78125 150.207031 C 150.492188 149.214844 149.417969 147.960938 148.625 146.550781 C 146.558594 150.292969 142.617188 152.703125 138.234375 152.703125 Z M 129.683594 143.96875 C 130.941406 147.3125 134.230469 149.515625 138.074219 149.585938 C 142.097656 149.65625 145.644531 146.96875 146.707031 143.042969 C 146.886719 142.375 147.484375 141.90625 148.175781 141.890625 L 148.976562 141.875 C 149.6875 141.859375 150.324219 142.332031 150.515625 143.019531 C 151.570312 146.886719 155.132812 149.585938 159.175781 149.585938 C 163.734375 149.585938 167.558594 146.261719 168.105469 141.839844 L 168.152344 126.96875 C 168.152344 126.628906 168.265625 126.300781 168.46875 126.03125 L 177.996094 113.523438 C 175.003906 109.253906 161.503906 91.28125 147.40625 93.359375 C 132.648438 95.535156 123.875 118.132812 122.582031 121.695312 Z M 169.660156 141.933594 L 169.664062 141.933594 Z M 169.660156 141.933594 " fill-opacity="1" fill-rule="nonzero"/><path fill="#ffc180" d="M 104.40625 35.101562 C 108.042969 32.292969 113.34375 32.988281 116.1875 36.644531 L 187.300781 128.039062 C 187.621094 128.453125 187.902344 128.894531 188.128906 129.347656 L 199.289062 156.515625 C 199.546875 157.03125 199.261719 157.253906 198.824219 156.878906 L 175.195312 139.425781 C 174.8125 139.097656 174.453125 138.714844 174.128906 138.300781 L 102.972656 46.851562 C 100.128906 43.195312 100.773438 37.90625 104.40625 35.101562 Z M 104.40625 35.101562 " fill-opacity="1" fill-rule="nonzero"/><path fill="#000000" d="M 199.199219 158.625 C 198.785156 158.625 198.320312 158.480469 197.859375 158.101562 L 174.273438 140.683594 C 174.238281 140.65625 174.207031 140.632812 174.179688 140.605469 C 173.71875 140.207031 173.289062 139.753906 172.902344 139.257812 L 101.746094 47.808594 C 100.105469 45.699219 99.386719 43.078125 99.722656 40.425781 C 100.054688 37.800781 101.378906 35.472656 103.457031 33.867188 C 107.777344 30.53125 114.039062 31.347656 117.414062 35.6875 L 188.527344 127.082031 C 188.914062 127.578125 189.246094 128.105469 189.519531 128.648438 C 189.539062 128.683594 189.554688 128.71875 189.570312 128.757812 L 200.710938 155.878906 C 201.230469 156.980469 200.804688 157.847656 200.273438 158.261719 C 200.003906 158.472656 199.625 158.625 199.199219 158.625 Z M 176.171875 138.210938 L 196.144531 152.960938 L 186.714844 130 C 186.535156 129.652344 186.320312 129.316406 186.070312 128.996094 L 114.960938 37.601562 C 112.632812 34.613281 108.324219 34.042969 105.359375 36.335938 C 103.941406 37.429688 103.039062 39.019531 102.808594 40.816406 C 102.578125 42.640625 103.074219 44.445312 104.203125 45.894531 L 175.359375 137.34375 C 175.609375 137.664062 175.878906 137.953125 176.171875 138.210938 Z M 176.171875 138.210938 " fill-opacity="1" fill-rule="nonzero"/><path fill="#ffc180" d="M 104.40625 35.101562 C 108.042969 32.292969 113.34375 32.988281 116.1875 36.644531 L 124.40625 47.210938 C 124.382812 47.230469 124.347656 47.261719 124.347656 47.261719 L 111.433594 57.328125 L 111.1875 57.40625 L 102.972656 46.851562 C 100.128906 43.195312 100.773438 37.90625 104.40625 35.101562 Z M 104.40625 35.101562 " fill-opacity="1" fill-rule="nonzero"/><path fill="#000000" d="M 111.1875 58.964844 C 110.714844 58.964844 110.257812 58.75 109.957031 58.363281 L 101.746094 47.808594 C 100.105469 45.699219 99.386719 43.078125 99.722656 40.425781 C 100.054688 37.800781 101.378906 35.472656 103.457031 33.867188 C 107.777344 30.53125 114.039062 31.347656 117.414062 35.6875 L 125.632812 46.253906 C 126.132812 46.894531 126.054688 47.8125 125.457031 48.359375 L 125.40625 48.40625 C 125.371094 48.4375 125.339844 48.464844 125.304688 48.492188 L 112.390625 58.558594 C 112.242188 58.671875 112.074219 58.761719 111.898438 58.816406 L 111.648438 58.894531 C 111.496094 58.941406 111.339844 58.964844 111.1875 58.964844 Z M 109.492188 34.929688 C 108.042969 34.929688 106.585938 35.386719 105.359375 36.335938 C 103.941406 37.429688 103.039062 39.019531 102.808594 40.816406 C 102.578125 42.640625 103.074219 44.445312 104.203125 45.894531 L 111.515625 55.289062 L 122.226562 46.941406 L 114.960938 37.601562 C 113.59375 35.851562 111.550781 34.929688 109.492188 34.929688 Z M 104.40625 35.101562 L 104.410156 35.101562 Z M 104.40625 35.101562 " fill-opacity="1" fill-rule="nonzero"/><path fill="#ffffff" d="M 174.480469 138.710938 L 187.652344 128.539062 C 187.828125 128.800781 187.992188 129.070312 188.128906 129.347656 L 199.289062 156.515625 C 199.546875 157.03125 199.261719 157.253906 198.824219 156.875 L 175.195312 139.429688 C 174.945312 139.210938 174.707031 138.964844 174.480469 138.710938 Z M 174.480469 138.710938 " fill-opacity="1" fill-rule="nonzero"/><path fill="#000000" d="M 199.199219 158.625 C 198.785156 158.625 198.320312 158.480469 197.859375 158.101562 L 174.273438 140.683594 C 174.238281 140.65625 174.207031 140.632812 174.179688 140.605469 C 173.902344 140.367188 173.628906 140.09375 173.320312 139.746094 C 173.03125 139.421875 172.890625 138.996094 172.933594 138.566406 C 172.972656 138.132812 173.1875 137.738281 173.53125 137.476562 L 186.699219 127.304688 C 187.042969 127.039062 187.476562 126.929688 187.90625 127 C 188.332031 127.070312 188.707031 127.316406 188.949219 127.675781 C 189.179688 128.027344 189.367188 128.347656 189.519531 128.648438 C 189.539062 128.683594 189.554688 128.71875 189.570312 128.757812 L 200.707031 155.878906 C 201.230469 156.980469 200.804688 157.847656 200.273438 158.261719 C 200.003906 158.472656 199.625 158.625 199.199219 158.625 Z M 176.941406 138.777344 L 196.144531 152.960938 L 187.097656 130.933594 Z M 176.941406 138.777344 " fill-opacity="1" fill-rule="nonzero"/><path fill="#ffffff" d="M 192.375 122.972656 C 189.597656 124.816406 186.878906 125 184.308594 124.195312 L 132.222656 57.253906 C 138.910156 57.394531 147.363281 63.265625 154.96875 69.25 C 165.019531 77.15625 190.566406 100.921875 193.742188 107.027344 C 198.296875 113.792969 197.960938 119.265625 192.375 122.972656 Z M 192.375 122.972656 " fill-opacity="1" fill-rule="nonzero"/><path fill="#000000" d="M 187.164062 126.210938 C 186.074219 126.210938 184.964844 126.035156 183.847656 125.683594 C 183.542969 125.589844 183.277344 125.402344 183.082031 125.152344 L 130.992188 58.210938 C 130.625 57.738281 130.5625 57.09375 130.832031 56.554688 C 131.101562 56.015625 131.65625 55.6875 132.253906 55.695312 C 139.496094 55.847656 148.289062 62.015625 155.933594 68.027344 C 161.070312 72.066406 169.941406 79.96875 178.007812 87.6875 C 183.492188 92.933594 192.964844 102.285156 195.078125 106.226562 C 197.839844 110.351562 198.910156 114.105469 198.257812 117.382812 C 197.71875 120.097656 196.03125 122.414062 193.234375 124.269531 C 191.289062 125.5625 189.257812 126.210938 187.164062 126.210938 Z M 185.226562 122.839844 C 187.425781 123.402344 189.488281 123.019531 191.515625 121.675781 C 193.59375 120.292969 194.835938 118.644531 195.207031 116.777344 C 195.691406 114.324219 194.765625 111.335938 192.449219 107.898438 C 192.417969 107.847656 192.386719 107.796875 192.359375 107.746094 C 189.480469 102.210938 164.890625 79.035156 154.007812 70.476562 C 148.445312 66.101562 141.671875 61.1875 135.910156 59.457031 Z M 185.226562 122.839844 " fill-opacity="1" fill-rule="nonzero"/><path fill="#ffffff" d="M 70.328125 86.703125 C 82.992188 82.621094 89.972656 79.394531 110.703125 63.539062 C 111.707031 62.769531 112.914062 62.074219 114.320312 61.433594 L 146.871094 103.265625 C 133.648438 106.261719 130.84375 119.789062 130.890625 119.792969 L 130.941406 119.792969 L 162.867188 118.671875 C 164.09375 118.625 165.316406 118.773438 166.546875 118.757812 C 175.34375 118.660156 178.890625 125.144531 179.0625 131.808594 C 179.210938 137.511719 174.203125 141.625 165.820312 142.648438 L 165.40625 142.699219 L 130.09375 144.199219 C 128.851562 144.253906 127.632812 144.554688 126.515625 145.101562 C 120.484375 148.054688 97.9375 157.621094 72.3125 149.96875 L 72.289062 149.9375 L 60.523438 151.328125 L 57.914062 86.945312 C 57.914062 86.945312 66.019531 88.09375 70.328125 86.703125 Z M 70.328125 86.703125 " fill-opacity="1" fill-rule="nonzero"/><path fill="#000000" d="M 92.429688 154.433594 C 86.070312 154.433594 79.199219 153.625 72.09375 151.527344 L 60.707031 152.875 C 60.277344 152.925781 59.84375 152.792969 59.515625 152.511719 C 59.183594 152.230469 58.988281 151.824219 58.96875 151.390625 L 56.359375 87.011719 C 56.339844 86.546875 56.527344 86.101562 56.867188 85.792969 C 57.210938 85.480469 57.671875 85.339844 58.128906 85.402344 C 58.207031 85.414062 65.9375 86.480469 69.851562 85.21875 C 82.320312 81.199219 88.992188 78.183594 109.757812 62.300781 C 110.851562 61.464844 112.136719 60.714844 113.679688 60.015625 C 114.332031 59.71875 115.105469 59.910156 115.550781 60.476562 L 148.097656 102.308594 C 148.425781 102.726562 148.515625 103.285156 148.335938 103.789062 C 148.15625 104.292969 147.734375 104.667969 147.214844 104.785156 C 142.292969 105.898438 138.339844 108.695312 135.464844 113.097656 C 134.207031 115.023438 133.425781 116.867188 132.972656 118.164062 L 162.8125 117.113281 C 163.542969 117.085938 164.25 117.121094 164.9375 117.15625 C 165.492188 117.179688 166.011719 117.207031 166.527344 117.199219 C 171.042969 117.15625 174.75 118.726562 177.242188 121.757812 C 179.902344 124.996094 180.546875 128.988281 180.617188 131.769531 C 180.785156 138.316406 175.1875 143.074219 166.007812 144.195312 L 165.605469 144.246094 C 165.5625 144.25 165.519531 144.253906 165.472656 144.257812 L 130.160156 145.757812 C 129.109375 145.800781 128.113281 146.050781 127.199219 146.5 C 122.570312 148.765625 109.292969 154.433594 92.429688 154.433594 Z M 72.988281 148.542969 C 97.863281 155.878906 119.710938 146.695312 125.832031 143.699219 C 127.136719 143.0625 128.546875 142.707031 130.027344 142.644531 L 165.273438 141.148438 L 165.621094 141.101562 C 169.449219 140.636719 172.570312 139.488281 174.652344 137.777344 C 176.605469 136.175781 177.566406 134.183594 177.507812 131.847656 C 177.4375 129.132812 176.453125 120.316406 166.742188 120.316406 C 166.683594 120.316406 166.621094 120.316406 166.5625 120.316406 C 165.953125 120.324219 165.359375 120.296875 164.789062 120.265625 C 164.136719 120.234375 163.523438 120.207031 162.921875 120.226562 L 130.996094 121.351562 C 130.976562 121.351562 130.957031 121.351562 130.941406 121.351562 L 130.890625 121.351562 C 130.828125 121.351562 130.765625 121.347656 130.703125 121.339844 C 129.949219 121.25 129.375 120.628906 129.335938 119.871094 C 129.304688 119.246094 130.273438 115.496094 132.636719 111.746094 C 135.480469 107.226562 139.457031 104.03125 144.222656 102.398438 L 113.867188 63.386719 C 113.023438 63.828125 112.28125 64.292969 111.648438 64.777344 C 90.589844 80.882812 83.375 84.132812 70.808594 88.1875 C 67.484375 89.257812 62.292969 88.964844 59.542969 88.699219 L 62.011719 149.582031 L 72.105469 148.390625 C 72.414062 148.355469 72.71875 148.410156 72.988281 148.542969 Z M 70.328125 86.703125 L 70.332031 86.703125 Z M 70.328125 86.703125 " fill-opacity="1" fill-rule="nonzero"/><path fill="#026bbf" d="M 42.007812 82.609375 L 56.734375 80.800781 C 60.183594 80.816406 63.097656 83.695312 63.246094 87.222656 L 65.789062 147.613281 C 65.9375 151.144531 63.265625 153.992188 59.816406 153.972656 L 44.835938 153.820312 Z M 42.007812 82.609375 " fill-opacity="1" fill-rule="nonzero"/><path fill="#000000" d="M 59.851562 155.53125 C 59.835938 155.53125 59.824219 155.53125 59.808594 155.53125 L 44.820312 155.378906 L 44.851562 152.265625 L 59.832031 152.414062 C 61.027344 152.421875 62.15625 151.953125 62.980469 151.097656 C 63.84375 150.199219 64.289062 148.984375 64.234375 147.679688 L 61.691406 87.289062 C 61.578125 84.617188 59.402344 82.421875 56.820312 82.359375 L 42.199219 84.15625 L 41.820312 81.0625 L 56.546875 79.253906 C 56.613281 79.246094 56.675781 79.242188 56.746094 79.242188 C 61.003906 79.265625 64.617188 82.816406 64.800781 87.160156 L 67.34375 147.546875 C 67.433594 149.714844 66.683594 151.742188 65.222656 153.257812 C 63.808594 154.726562 61.902344 155.53125 59.851562 155.53125 Z M 59.851562 155.53125 " fill-opacity="1" fill-rule="nonzero"/><path fill="#ffffff" d="M 166.261719 142.589844 L 163.5625 142.777344 Z M 166.261719 142.589844 " fill-opacity="1" fill-rule="nonzero"/><path fill="#000000" d="M 163.5625 144.335938 C 162.753906 144.335938 162.070312 143.707031 162.011719 142.886719 C 161.953125 142.027344 162.597656 141.285156 163.457031 141.222656 L 166.15625 141.035156 C 167.011719 140.976562 167.757812 141.621094 167.816406 142.480469 C 167.875 143.339844 167.230469 144.085938 166.371094 144.144531 L 163.671875 144.332031 C 163.636719 144.335938 163.597656 144.335938 163.5625 144.335938 Z M 163.5625 144.335938 " fill-opacity="1" fill-rule="nonzero"/><path fill="#ffffff" d="M 335.097656 231.109375 L 335.097656 105.398438 C 335.097656 102.21875 332.519531 99.640625 329.34375 99.640625 L 257.828125 99.640625 L 217.882812 139.625 L 217.882812 258.289062 C 217.882812 261.46875 220.460938 264.046875 223.636719 264.046875 L 322.582031 264.046875 Z M 335.097656 231.109375 " fill-opacity="1" fill-rule="nonzero"/><path fill="#000000" d="M 322.582031 265.605469 L 223.636719 265.605469 C 219.605469 265.605469 216.328125 262.324219 216.328125 258.289062 L 216.328125 139.625 C 216.328125 139.214844 216.492188 138.816406 216.78125 138.523438 L 256.726562 98.539062 C 257.019531 98.246094 257.414062 98.082031 257.828125 98.082031 L 329.34375 98.082031 C 333.375 98.082031 336.652344 101.363281 336.652344 105.398438 L 336.652344 231.109375 C 336.652344 231.972656 335.957031 232.667969 335.097656 232.667969 C 334.238281 232.667969 333.539062 231.972656 333.539062 231.109375 L 333.539062 105.398438 C 333.539062 103.082031 331.65625 101.199219 329.34375 101.199219 L 258.472656 101.199219 L 219.441406 140.273438 L 219.441406 258.289062 C 219.441406 260.605469 221.320312 262.488281 223.636719 262.488281 L 322.582031 262.488281 C 323.441406 262.488281 324.140625 263.1875 324.140625 264.046875 C 324.140625 264.90625 323.441406 265.605469 322.582031 265.605469 Z M 322.582031 265.605469 " fill-opacity="1" fill-rule="nonzero"/><path fill="#026bbf" d="M 252.074219 139.625 L 217.882812 139.625 L 257.828125 99.640625 L 257.828125 133.867188 C 257.828125 137.046875 255.253906 139.625 252.074219 139.625 Z M 252.074219 139.625 " fill-opacity="1" fill-rule="nonzero"/><path fill="#000000" d="M 252.074219 141.183594 L 217.882812 141.183594 C 217.253906 141.183594 216.6875 140.804688 216.445312 140.222656 C 216.203125 139.640625 216.339844 138.96875 216.785156 138.523438 L 256.726562 98.539062 C 257.171875 98.089844 257.839844 97.957031 258.421875 98.199219 C 259.003906 98.441406 259.382812 99.007812 259.382812 99.640625 L 259.382812 133.867188 C 259.382812 137.902344 256.105469 141.183594 252.074219 141.183594 Z M 221.640625 138.066406 L 252.074219 138.066406 C 254.390625 138.066406 256.269531 136.183594 256.269531 133.867188 L 256.269531 103.402344 Z M 221.640625 138.066406 " fill-opacity="1" fill-rule="nonzero"/><path fill="#ffc180" d="M 307.449219 214.332031 L 344.363281 251.285156 C 345.625 252.546875 345.820312 254.398438 344.800781 255.417969 L 336.070312 264.15625 C 335.050781 265.179688 333.199219 264.984375 331.941406 263.722656 L 295.027344 226.769531 Z M 307.449219 214.332031 " fill-opacity="1" fill-rule="nonzero"/><g clip-path="url(#ce445c4ae8)"><path fill="#000000" d="M 334.40625 266.363281 C 333.164062 266.363281 331.855469 265.84375 330.839844 264.824219 L 293.925781 227.871094 C 293.316406 227.261719 293.316406 226.277344 293.925781 225.667969 C 294.535156 225.058594 295.519531 225.058594 296.128906 225.667969 L 333.039062 262.621094 C 333.71875 263.296875 334.617188 263.410156 334.96875 263.054688 L 343.699219 254.316406 C 343.910156 254.109375 343.910156 253.78125 343.890625 253.605469 C 343.84375 253.183594 343.617188 252.738281 343.265625 252.386719 L 306.351562 215.433594 C 305.742188 214.824219 305.742188 213.835938 306.351562 213.230469 C 306.957031 212.621094 307.945312 212.621094 308.550781 213.230469 L 345.464844 250.183594 C 346.328125 251.042969 346.867188 252.144531 346.984375 253.277344 C 347.117188 254.519531 346.71875 255.699219 345.902344 256.519531 L 337.171875 265.257812 C 336.433594 266 335.441406 266.363281 334.40625 266.363281 Z M 334.40625 266.363281 " fill-opacity="1" fill-rule="nonzero"/></g><path fill="#026bbf" d="M 315.460938 195.773438 C 315.460938 197.050781 315.398438 198.328125 315.273438 199.597656 C 315.148438 200.871094 314.960938 202.132812 314.710938 203.386719 C 314.464844 204.636719 314.152344 205.875 313.78125 207.097656 C 313.414062 208.320312 312.984375 209.523438 312.496094 210.703125 C 312.007812 211.882812 311.460938 213.039062 310.859375 214.164062 C 310.257812 215.292969 309.601562 216.386719 308.894531 217.449219 C 308.183594 218.511719 307.425781 219.535156 306.613281 220.523438 C 305.804688 221.511719 304.949219 222.457031 304.046875 223.359375 C 303.144531 224.265625 302.199219 225.121094 301.214844 225.929688 C 300.226562 226.742188 299.203125 227.503906 298.140625 228.210938 C 297.078125 228.921875 295.988281 229.578125 294.859375 230.179688 C 293.734375 230.78125 292.582031 231.328125 291.402344 231.816406 C 290.222656 232.304688 289.023438 232.734375 287.804688 233.105469 C 286.582031 233.476562 285.34375 233.789062 284.09375 234.039062 C 282.839844 234.285156 281.582031 234.472656 280.308594 234.597656 C 279.039062 234.722656 277.765625 234.785156 276.488281 234.785156 C 275.214844 234.785156 273.941406 234.722656 272.671875 234.597656 C 271.398438 234.472656 270.140625 234.285156 268.886719 234.039062 C 267.636719 233.789062 266.398438 233.476562 265.175781 233.105469 C 263.957031 232.734375 262.757812 232.304688 261.578125 231.816406 C 260.398438 231.328125 259.246094 230.78125 258.121094 230.179688 C 256.992188 229.578125 255.902344 228.921875 254.839844 228.210938 C 253.777344 227.503906 252.753906 226.742188 251.765625 225.929688 C 250.78125 225.121094 249.835938 224.265625 248.933594 223.359375 C 248.03125 222.457031 247.175781 221.511719 246.367188 220.523438 C 245.554688 219.535156 244.796875 218.511719 244.085938 217.449219 C 243.378906 216.386719 242.722656 215.292969 242.121094 214.164062 C 241.519531 213.039062 240.972656 211.882812 240.484375 210.703125 C 239.996094 209.523438 239.566406 208.320312 239.199219 207.097656 C 238.828125 205.875 238.515625 204.636719 238.269531 203.386719 C 238.019531 202.132812 237.832031 200.871094 237.707031 199.597656 C 237.582031 198.328125 237.519531 197.050781 237.519531 195.773438 C 237.519531 194.496094 237.582031 193.222656 237.707031 191.949219 C 237.832031 190.679688 238.019531 189.417969 238.269531 188.164062 C 238.515625 186.910156 238.828125 185.671875 239.199219 184.449219 C 239.566406 183.226562 239.996094 182.023438 240.484375 180.84375 C 240.972656 179.664062 241.519531 178.511719 242.121094 177.382812 C 242.722656 176.257812 243.378906 175.160156 244.085938 174.101562 C 244.796875 173.039062 245.554688 172.011719 246.367188 171.023438 C 247.175781 170.035156 248.03125 169.089844 248.933594 168.1875 C 249.835938 167.285156 250.78125 166.425781 251.765625 165.617188 C 252.753906 164.804688 253.777344 164.046875 254.839844 163.335938 C 255.902344 162.625 256.992188 161.96875 258.121094 161.367188 C 259.246094 160.765625 260.398438 160.21875 261.578125 159.730469 C 262.757812 159.242188 263.957031 158.8125 265.175781 158.441406 C 266.398438 158.070312 267.636719 157.761719 268.886719 157.511719 C 270.140625 157.261719 271.398438 157.074219 272.671875 156.949219 C 273.941406 156.824219 275.214844 156.761719 276.488281 156.761719 C 277.765625 156.761719 279.039062 156.824219 280.308594 156.949219 C 281.582031 157.074219 282.839844 157.261719 284.09375 157.511719 C 285.34375 157.761719 286.582031 158.070312 287.804688 158.441406 C 289.023438 158.8125 290.222656 159.242188 291.402344 159.730469 C 292.582031 160.21875 293.734375 160.765625 294.859375 161.367188 C 295.988281 161.96875 297.078125 162.625 298.140625 163.335938 C 299.203125 164.046875 300.226562 164.804688 301.214844 165.617188 C 302.199219 166.425781 303.144531 167.285156 304.046875 168.1875 C 304.949219 169.089844 305.804688 170.035156 306.613281 171.023438 C 307.425781 172.011719 308.183594 173.039062 308.894531 174.101562 C 309.601562 175.160156 310.257812 176.257812 310.859375 177.382812 C 311.460938 178.511719 312.007812 179.664062 312.496094 180.84375 C 312.984375 182.023438 313.414062 183.226562 313.78125 184.449219 C 314.152344 185.671875 314.464844 186.910156 314.710938 188.164062 C 314.960938 189.417969 315.148438 190.679688 315.273438 191.949219 C 315.398438 193.222656 315.460938 194.496094 315.460938 195.773438 Z M 315.460938 195.773438 " fill-opacity="1" fill-rule="nonzero"/><path fill="#000000" d="M 276.488281 236.34375 C 265.664062 236.34375 255.488281 232.125 247.832031 224.460938 C 240.179688 216.800781 235.964844 206.609375 235.964844 195.773438 C 235.964844 184.9375 240.179688 174.75 247.832031 167.085938 C 255.488281 159.421875 265.664062 155.203125 276.488281 155.203125 C 287.316406 155.203125 297.492188 159.421875 305.148438 167.085938 C 312.800781 174.75 317.015625 184.9375 317.015625 195.773438 C 317.015625 206.609375 312.800781 216.800781 305.148438 224.460938 C 297.492188 232.125 287.316406 236.34375 276.488281 236.34375 Z M 276.488281 158.320312 C 266.496094 158.320312 257.101562 162.214844 250.035156 169.289062 C 242.96875 176.363281 239.074219 185.769531 239.074219 195.773438 C 239.074219 205.777344 242.96875 215.183594 250.035156 222.257812 C 257.101562 229.332031 266.496094 233.230469 276.488281 233.230469 C 286.484375 233.230469 295.878906 229.332031 302.945312 222.257812 C 317.535156 207.65625 317.535156 183.894531 302.945312 169.289062 C 295.878906 162.214844 286.484375 158.320312 276.488281 158.320312 Z M 276.488281 158.320312 " fill-opacity="1" fill-rule="nonzero"/><path fill="#000000" d="M 302.464844 246.285156 L 231.449219 246.285156 C 230.589844 246.285156 229.894531 245.585938 229.894531 244.726562 C 229.894531 243.867188 230.589844 243.167969 231.449219 243.167969 L 302.464844 243.167969 C 303.324219 243.167969 304.019531 243.867188 304.019531 244.726562 C 304.019531 245.585938 303.324219 246.285156 302.464844 246.285156 Z M 302.464844 246.285156 " fill-opacity="1" fill-rule="nonzero"/><path fill="#000000" d="M 320.820312 162.46875 L 306.765625 162.46875 C 305.90625 162.46875 305.210938 161.773438 305.210938 160.910156 C 305.210938 160.050781 305.90625 159.351562 306.765625 159.351562 L 320.820312 159.351562 C 321.679688 159.351562 322.378906 160.050781 322.378906 160.910156 C 322.378906 161.773438 321.679688 162.46875 320.820312 162.46875 Z M 320.820312 162.46875 " fill-opacity="1" fill-rule="nonzero"/><path fill="#000000" d="M 245.714844 162.46875 L 231.449219 162.46875 C 230.589844 162.46875 229.894531 161.773438 229.894531 160.910156 C 229.894531 160.050781 230.589844 159.351562 231.449219 159.351562 L 245.714844 159.351562 C 246.574219 159.351562 247.269531 160.050781 247.269531 160.910156 C 247.269531 161.773438 246.574219 162.46875 245.714844 162.46875 Z M 245.714844 162.46875 " fill-opacity="1" fill-rule="nonzero"/><path fill="#000000" d="M 283.691406 140.613281 L 263.15625 140.613281 C 262.296875 140.613281 261.601562 139.914062 261.601562 139.054688 C 261.601562 138.195312 262.296875 137.496094 263.15625 137.496094 L 283.691406 137.496094 C 284.550781 137.496094 285.246094 138.195312 285.246094 139.054688 C 285.246094 139.914062 284.550781 140.613281 283.691406 140.613281 Z M 283.691406 140.613281 " fill-opacity="1" fill-rule="nonzero"/><path fill="#000000" d="M 239.609375 225.332031 L 231.449219 225.332031 C 230.589844 225.332031 229.894531 224.632812 229.894531 223.773438 C 229.894531 222.914062 230.589844 222.214844 231.449219 222.214844 L 239.609375 222.214844 C 240.46875 222.214844 241.164062 222.914062 241.164062 223.773438 C 241.164062 224.632812 240.46875 225.332031 239.609375 225.332031 Z M 239.609375 225.332031 " fill-opacity="1" fill-rule="nonzero"/><path fill="#000000" d="M 283.691406 121.246094 L 264.144531 121.246094 C 263.285156 121.246094 262.585938 120.550781 262.585938 119.691406 C 262.585938 118.828125 263.285156 118.132812 264.144531 118.132812 L 283.691406 118.132812 C 284.550781 118.132812 285.246094 118.828125 285.246094 119.691406 C 285.246094 120.550781 284.550781 121.246094 283.691406 121.246094 Z M 283.691406 121.246094 " fill-opacity="1" fill-rule="nonzero"/><path fill="#ffc180" d="M 298.878906 146.941406 L 313.445312 146.941406 C 317.519531 146.941406 320.820312 143.632812 320.820312 139.554688 L 320.820312 120.8125 C 320.820312 116.734375 317.519531 113.425781 313.445312 113.425781 L 298.878906 113.425781 C 294.804688 113.425781 291.5 116.734375 291.5 120.8125 L 291.5 139.554688 C 291.5 143.632812 294.804688 146.941406 298.878906 146.941406 Z M 298.878906 146.941406 " fill-opacity="1" fill-rule="nonzero"/><path fill="#000000" d="M 313.445312 148.5 L 298.878906 148.5 C 293.953125 148.5 289.945312 144.488281 289.945312 139.554688 L 289.945312 120.8125 C 289.945312 115.882812 293.953125 111.867188 298.878906 111.867188 L 313.445312 111.867188 C 318.371094 111.867188 322.378906 115.882812 322.378906 120.8125 L 322.378906 139.554688 C 322.378906 144.484375 318.371094 148.5 313.445312 148.5 Z M 298.878906 114.984375 C 295.671875 114.984375 293.058594 117.601562 293.058594 120.8125 L 293.058594 139.554688 C 293.058594 142.769531 295.671875 145.382812 298.878906 145.382812 L 313.445312 145.382812 C 316.652344 145.382812 319.265625 142.769531 319.265625 139.554688 L 319.265625 120.8125 C 319.265625 117.597656 316.652344 114.984375 313.445312 114.984375 Z M 298.878906 114.984375 " fill-opacity="1" fill-rule="nonzero"/><path fill="#ffffff" d="M 276.488281 213.234375 C 287.734375 213.234375 297.261719 205.914062 300.589844 195.773438 C 297.261719 185.636719 287.734375 178.3125 276.488281 178.3125 C 265.246094 178.3125 255.71875 185.636719 252.390625 195.773438 C 255.71875 205.914062 265.246094 213.234375 276.488281 213.234375 Z M 276.488281 213.234375 " fill-opacity="1" fill-rule="nonzero"/><path fill="#000000" d="M 276.488281 214.792969 C 270.707031 214.792969 265.195312 212.984375 260.550781 209.5625 C 256 206.210938 252.667969 201.609375 250.910156 196.261719 C 250.808594 195.945312 250.808594 195.605469 250.910156 195.289062 C 252.667969 189.9375 256 185.339844 260.550781 181.988281 C 265.195312 178.5625 270.707031 176.753906 276.488281 176.753906 C 282.273438 176.753906 287.785156 178.5625 292.429688 181.988281 C 296.980469 185.339844 300.3125 189.9375 302.070312 195.289062 C 302.171875 195.605469 302.171875 195.945312 302.070312 196.261719 C 300.3125 201.609375 296.980469 206.210938 292.429688 209.5625 C 287.785156 212.984375 282.273438 214.792969 276.488281 214.792969 Z M 254.035156 195.773438 C 257.390625 205.308594 266.351562 211.675781 276.488281 211.675781 C 286.628906 211.675781 295.589844 205.308594 298.945312 195.773438 C 295.589844 186.242188 286.628906 179.871094 276.488281 179.871094 C 266.351562 179.871094 257.390625 186.242188 254.035156 195.773438 Z M 254.035156 195.773438 " fill-opacity="1" fill-rule="nonzero"/><path fill="#026bbf" d="M 286.671875 195.773438 C 286.671875 196.441406 286.605469 197.105469 286.476562 197.761719 C 286.347656 198.417969 286.152344 199.054688 285.898438 199.675781 C 285.640625 200.292969 285.328125 200.878906 284.957031 201.4375 C 284.585938 201.992188 284.164062 202.507812 283.691406 202.980469 C 283.21875 203.457031 282.703125 203.878906 282.148438 204.25 C 281.589844 204.621094 281.003906 204.933594 280.386719 205.191406 C 279.769531 205.449219 279.132812 205.640625 278.476562 205.773438 C 277.820312 205.902344 277.160156 205.96875 276.488281 205.96875 C 275.820312 205.96875 275.160156 205.902344 274.503906 205.773438 C 273.847656 205.640625 273.210938 205.449219 272.59375 205.191406 C 271.976562 204.933594 271.390625 204.621094 270.832031 204.25 C 270.277344 203.878906 269.761719 203.457031 269.289062 202.980469 C 268.816406 202.507812 268.394531 201.992188 268.023438 201.4375 C 267.652344 200.878906 267.339844 200.292969 267.082031 199.675781 C 266.828125 199.054688 266.632812 198.417969 266.503906 197.761719 C 266.375 197.105469 266.308594 196.441406 266.308594 195.773438 C 266.308594 195.105469 266.375 194.441406 266.503906 193.785156 C 266.632812 193.128906 266.828125 192.492188 267.082031 191.875 C 267.339844 191.253906 267.652344 190.667969 268.023438 190.109375 C 268.394531 189.554688 268.816406 189.039062 269.289062 188.566406 C 269.761719 188.09375 270.277344 187.671875 270.832031 187.296875 C 271.390625 186.925781 271.976562 186.613281 272.59375 186.355469 C 273.210938 186.101562 273.847656 185.90625 274.503906 185.777344 C 275.160156 185.644531 275.820312 185.582031 276.488281 185.582031 C 277.160156 185.582031 277.820312 185.644531 278.476562 185.777344 C 279.132812 185.90625 279.769531 186.101562 280.386719 186.355469 C 281.003906 186.613281 281.589844 186.925781 282.148438 187.296875 C 282.703125 187.671875 283.21875 188.09375 283.691406 188.566406 C 284.164062 189.039062 284.585938 189.554688 284.957031 190.109375 C 285.328125 190.667969 285.640625 191.253906 285.898438 191.875 C 286.152344 192.492188 286.347656 193.128906 286.476562 193.785156 C 286.605469 194.441406 286.671875 195.105469 286.671875 195.773438 Z M 286.671875 195.773438 " fill-opacity="1" fill-rule="nonzero"/><path fill="#000000" d="M 276.488281 207.527344 C 270.015625 207.527344 264.75 202.253906 264.75 195.773438 C 264.75 189.292969 270.015625 184.023438 276.488281 184.023438 C 282.964844 184.023438 288.230469 189.292969 288.230469 195.773438 C 288.230469 202.253906 282.960938 207.527344 276.488281 207.527344 Z M 276.488281 187.140625 C 271.734375 187.140625 267.863281 191.011719 267.863281 195.773438 C 267.863281 200.535156 271.734375 204.410156 276.488281 204.410156 C 281.246094 204.410156 285.117188 200.535156 285.117188 195.773438 C 285.117188 191.011719 281.246094 187.140625 276.488281 187.140625 Z M 276.488281 187.140625 " fill-opacity="1" fill-rule="nonzero"/><path fill="#ffffff" d="M 194.523438 231.023438 C 194.523438 232.59375 194.445312 234.164062 194.289062 235.726562 C 194.136719 237.292969 193.90625 238.847656 193.601562 240.390625 C 193.292969 241.933594 192.914062 243.457031 192.457031 244.960938 C 192 246.464844 191.472656 247.945312 190.871094 249.398438 C 190.269531 250.851562 189.597656 252.269531 188.859375 253.65625 C 188.117188 255.042969 187.3125 256.390625 186.4375 257.699219 C 185.566406 259.007812 184.632812 260.269531 183.632812 261.484375 C 182.636719 262.699219 181.585938 263.863281 180.472656 264.976562 C 179.363281 266.085938 178.199219 267.140625 176.984375 268.140625 C 175.769531 269.136719 174.511719 270.074219 173.203125 270.945312 C 171.898438 271.820312 170.554688 272.628906 169.167969 273.367188 C 167.78125 274.109375 166.363281 274.78125 164.914062 275.382812 C 163.460938 275.984375 161.984375 276.515625 160.480469 276.972656 C 158.976562 277.425781 157.457031 277.808594 155.914062 278.117188 C 154.375 278.421875 152.820312 278.652344 151.257812 278.808594 C 149.695312 278.960938 148.128906 279.039062 146.558594 279.039062 C 144.988281 279.039062 143.417969 278.960938 141.855469 278.808594 C 140.292969 278.652344 138.742188 278.421875 137.199219 278.117188 C 135.660156 277.808594 134.136719 277.425781 132.632812 276.972656 C 131.128906 276.515625 129.652344 275.984375 128.203125 275.382812 C 126.75 274.78125 125.332031 274.109375 123.945312 273.367188 C 122.5625 272.628906 121.214844 271.820312 119.910156 270.945312 C 118.601562 270.074219 117.34375 269.136719 116.128906 268.140625 C 114.914062 267.140625 113.753906 266.085938 112.640625 264.976562 C 111.53125 263.863281 110.476562 262.699219 109.480469 261.484375 C 108.484375 260.269531 107.550781 259.007812 106.675781 257.699219 C 105.804688 256.390625 104.996094 255.042969 104.257812 253.65625 C 103.515625 252.269531 102.84375 250.851562 102.242188 249.398438 C 101.644531 247.945312 101.113281 246.464844 100.65625 244.960938 C 100.203125 243.457031 99.820312 241.933594 99.515625 240.390625 C 99.207031 238.847656 98.976562 237.292969 98.824219 235.726562 C 98.667969 234.164062 98.59375 232.59375 98.59375 231.023438 C 98.59375 229.449219 98.667969 227.878906 98.824219 226.316406 C 98.976562 224.75 99.207031 223.195312 99.515625 221.65625 C 99.820312 220.113281 100.203125 218.589844 100.65625 217.082031 C 101.113281 215.578125 101.644531 214.101562 102.242188 212.648438 C 102.84375 211.195312 103.515625 209.773438 104.257812 208.386719 C 104.996094 207 105.804688 205.652344 106.675781 204.34375 C 107.550781 203.039062 108.484375 201.777344 109.480469 200.5625 C 110.476562 199.34375 111.53125 198.179688 112.640625 197.070312 C 113.753906 195.957031 114.914062 194.902344 116.128906 193.90625 C 117.34375 192.90625 118.601562 191.972656 119.910156 191.097656 C 121.214844 190.222656 122.5625 189.417969 123.945312 188.675781 C 125.332031 187.933594 126.75 187.261719 128.203125 186.660156 C 129.652344 186.058594 131.128906 185.53125 132.632812 185.074219 C 134.136719 184.617188 135.660156 184.234375 137.199219 183.929688 C 138.742188 183.621094 140.292969 183.390625 141.855469 183.238281 C 143.417969 183.082031 144.988281 183.003906 146.558594 183.003906 C 148.128906 183.003906 149.695312 183.082031 151.257812 183.238281 C 152.820312 183.390625 154.375 183.621094 155.914062 183.929688 C 157.457031 184.234375 158.976562 184.617188 160.480469 185.074219 C 161.984375 185.53125 163.460938 186.058594 164.914062 186.660156 C 166.363281 187.261719 167.78125 187.933594 169.167969 188.675781 C 170.554688 189.417969 171.898438 190.222656 173.203125 191.097656 C 174.511719 191.972656 175.769531 192.90625 176.984375 193.90625 C 178.199219 194.902344 179.363281 195.957031 180.472656 197.070312 C 181.585938 198.179688 182.636719 199.34375 183.632812 200.5625 C 184.632812 201.777344 185.566406 203.039062 186.4375 204.34375 C 187.3125 205.652344 188.117188 207 188.859375 208.386719 C 189.597656 209.773438 190.269531 211.195312 190.871094 212.648438 C 191.472656 214.101562 192 215.578125 192.457031 217.082031 C 192.914062 218.589844 193.292969 220.113281 193.601562 221.65625 C 193.90625 223.195312 194.136719 224.75 194.289062 226.316406 C 194.445312 227.878906 194.523438 229.449219 194.523438 231.023438 Z M 194.523438 231.023438 " fill-opacity="1" fill-rule="nonzero"/><path fill="#000000" d="M 146.628906 280.597656 C 145.441406 280.597656 144.25 280.558594 143.050781 280.472656 C 136.382812 280 130.007812 278.230469 124.097656 275.21875 C 118.394531 272.308594 113.363281 268.371094 109.148438 263.507812 C 104.933594 258.644531 101.75 253.101562 99.679688 247.035156 C 97.535156 240.757812 96.6875 234.1875 97.160156 227.511719 C 97.632812 220.835938 99.398438 214.453125 102.40625 208.539062 C 105.3125 202.828125 109.25 197.792969 114.109375 193.574219 C 118.964844 189.355469 124.5 186.164062 130.558594 184.09375 C 136.832031 181.945312 143.394531 181.097656 150.0625 181.570312 C 156.730469 182.046875 163.109375 183.8125 169.015625 186.824219 C 174.722656 189.734375 179.75 193.675781 183.964844 198.539062 C 188.179688 203.402344 191.367188 208.941406 193.4375 215.007812 C 195.578125 221.289062 196.425781 227.855469 195.953125 234.53125 C 195.480469 241.207031 193.714844 247.589844 190.707031 253.503906 C 187.800781 259.214844 183.863281 264.25 179.007812 268.46875 C 174.148438 272.6875 168.613281 275.878906 162.554688 277.953125 C 157.40625 279.710938 152.066406 280.597656 146.628906 280.597656 Z M 146.488281 184.5625 C 135.328125 184.5625 124.660156 188.535156 116.148438 195.925781 C 106.785156 204.058594 101.144531 215.355469 100.265625 227.734375 C 99.386719 240.109375 103.378906 252.089844 111.5 261.464844 C 119.625 270.839844 130.90625 276.484375 143.269531 277.363281 C 144.382812 277.441406 145.492188 277.480469 146.589844 277.480469 C 170.699219 277.480469 191.117188 258.75 192.847656 234.3125 C 194.660156 208.757812 175.367188 186.492188 149.84375 184.679688 C 148.722656 184.601562 147.601562 184.5625 146.488281 184.5625 Z M 146.488281 184.5625 " fill-opacity="1" fill-rule="nonzero"/><path fill="#000000" d="M 163.574219 330.476562 L 128.246094 330.476562 C 127.386719 330.476562 126.691406 329.777344 126.691406 328.917969 C 126.691406 328.058594 127.386719 327.359375 128.246094 327.359375 L 163.574219 327.359375 C 174.964844 327.359375 184.230469 318.945312 184.230469 308.605469 L 184.230469 287.960938 C 184.230469 287.101562 184.925781 286.402344 185.785156 286.402344 C 186.644531 286.402344 187.34375 287.101562 187.34375 287.960938 L 187.34375 308.605469 C 187.34375 320.664062 176.679688 330.476562 163.574219 330.476562 Z M 163.574219 330.476562 " fill-opacity="1" fill-rule="nonzero"/><path fill="#ffc180" d="M 185.785156 272.566406 L 176.066406 287.960938 L 195.507812 287.960938 Z M 185.785156 272.566406 " fill-opacity="1" fill-rule="nonzero"/><path fill="#000000" d="M 195.507812 289.519531 L 176.066406 289.519531 C 175.496094 289.519531 174.976562 289.210938 174.703125 288.714844 C 174.429688 288.214844 174.445312 287.609375 174.75 287.128906 L 184.472656 271.734375 C 184.757812 271.28125 185.253906 271.007812 185.785156 271.007812 C 186.320312 271.007812 186.816406 271.28125 187.101562 271.734375 L 196.824219 287.128906 C 197.125 287.609375 197.144531 288.214844 196.871094 288.714844 C 196.597656 289.210938 196.074219 289.519531 195.507812 289.519531 Z M 178.890625 286.402344 L 192.683594 286.402344 L 185.785156 275.480469 Z M 178.890625 286.402344 " fill-opacity="1" fill-rule="nonzero"/><path fill="#000000" d="M 48.8125 232.300781 C 47.953125 232.300781 47.257812 231.601562 47.257812 230.742188 L 47.257812 209.023438 C 47.257812 196.964844 57.917969 187.152344 71.027344 187.152344 L 106.351562 187.152344 C 107.210938 187.152344 107.90625 187.851562 107.90625 188.710938 C 107.90625 189.574219 107.210938 190.269531 106.351562 190.269531 L 71.027344 190.269531 C 59.636719 190.269531 50.367188 198.683594 50.367188 209.023438 L 50.367188 230.742188 C 50.367188 231.601562 49.671875 232.300781 48.8125 232.300781 Z M 48.8125 232.300781 " fill-opacity="1" fill-rule="nonzero"/><path fill="#ffc180" d="M 48.8125 246.136719 L 58.535156 230.742188 L 39.089844 230.742188 Z M 48.8125 246.136719 " fill-opacity="1" fill-rule="nonzero"/><path fill="#000000" d="M 48.8125 247.695312 C 48.277344 247.695312 47.78125 247.421875 47.496094 246.96875 L 37.773438 231.574219 C 37.472656 231.09375 37.453125 230.488281 37.726562 229.988281 C 38 229.492188 38.523438 229.183594 39.089844 229.183594 L 58.535156 229.183594 C 59.101562 229.183594 59.625 229.492188 59.898438 229.988281 C 60.171875 230.488281 60.152344 231.09375 59.847656 231.574219 L 50.128906 246.96875 C 49.84375 247.421875 49.347656 247.695312 48.8125 247.695312 Z M 41.914062 232.300781 L 48.8125 243.222656 L 55.707031 232.300781 Z M 41.914062 232.300781 " fill-opacity="1" fill-rule="nonzero"/><path fill="#ffffff" d="M 134.683594 286.757812 C 134.683594 288.292969 134.609375 289.828125 134.460938 291.355469 C 134.308594 292.882812 134.085938 294.398438 133.785156 295.90625 C 133.484375 297.410156 133.113281 298.898438 132.667969 300.367188 C 132.222656 301.839844 131.707031 303.28125 131.121094 304.699219 C 130.53125 306.121094 129.878906 307.503906 129.15625 308.859375 C 128.433594 310.214844 127.644531 311.53125 126.792969 312.804688 C 125.941406 314.082031 125.027344 315.316406 124.054688 316.5 C 123.082031 317.6875 122.050781 318.824219 120.96875 319.910156 C 119.882812 320.996094 118.746094 322.027344 117.5625 323 C 116.375 323.976562 115.144531 324.886719 113.871094 325.742188 C 112.59375 326.59375 111.28125 327.382812 109.929688 328.105469 C 108.574219 328.832031 107.191406 329.488281 105.773438 330.074219 C 104.355469 330.660156 102.914062 331.179688 101.445312 331.625 C 99.980469 332.070312 98.492188 332.441406 96.988281 332.742188 C 95.484375 333.042969 93.96875 333.265625 92.441406 333.417969 C 90.914062 333.566406 89.386719 333.644531 87.851562 333.644531 C 86.316406 333.644531 84.789062 333.566406 83.261719 333.417969 C 81.734375 333.265625 80.21875 333.042969 78.714844 332.742188 C 77.210938 332.441406 75.726562 332.070312 74.257812 331.625 C 72.789062 331.179688 71.347656 330.660156 69.929688 330.074219 C 68.511719 329.488281 67.128906 328.832031 65.773438 328.105469 C 64.421875 327.382812 63.109375 326.59375 61.832031 325.742188 C 60.558594 324.886719 59.328125 323.976562 58.140625 323 C 56.957031 322.027344 55.820312 320.996094 54.734375 319.910156 C 53.652344 318.824219 52.621094 317.6875 51.648438 316.5 C 50.675781 315.316406 49.765625 314.082031 48.910156 312.804688 C 48.058594 311.53125 47.273438 310.214844 46.550781 308.859375 C 45.824219 307.503906 45.171875 306.121094 44.582031 304.699219 C 43.996094 303.28125 43.480469 301.839844 43.035156 300.367188 C 42.589844 298.898438 42.21875 297.410156 41.917969 295.90625 C 41.621094 294.398438 41.394531 292.882812 41.246094 291.355469 C 41.09375 289.828125 41.019531 288.292969 41.019531 286.757812 C 41.019531 285.222656 41.09375 283.691406 41.246094 282.164062 C 41.394531 280.636719 41.621094 279.117188 41.917969 277.613281 C 42.21875 276.105469 42.589844 274.617188 43.035156 273.148438 C 43.480469 271.679688 43.996094 270.238281 44.582031 268.816406 C 45.171875 267.398438 45.824219 266.011719 46.550781 264.660156 C 47.273438 263.304688 48.058594 261.988281 48.910156 260.710938 C 49.765625 259.433594 50.675781 258.203125 51.648438 257.015625 C 52.621094 255.828125 53.652344 254.695312 54.734375 253.609375 C 55.820312 252.523438 56.957031 251.492188 58.140625 250.519531 C 59.328125 249.542969 60.558594 248.628906 61.832031 247.777344 C 63.109375 246.925781 64.421875 246.136719 65.773438 245.410156 C 67.128906 244.6875 68.511719 244.03125 69.929688 243.445312 C 71.347656 242.855469 72.789062 242.339844 74.257812 241.894531 C 75.726562 241.449219 77.210938 241.078125 78.714844 240.777344 C 80.21875 240.476562 81.734375 240.253906 83.261719 240.101562 C 84.789062 239.949219 86.316406 239.875 87.851562 239.875 C 89.386719 239.875 90.914062 239.949219 92.441406 240.101562 C 93.96875 240.253906 95.484375 240.476562 96.988281 240.777344 C 98.492188 241.078125 99.980469 241.449219 101.445312 241.894531 C 102.914062 242.339844 104.355469 242.855469 105.773438 243.445312 C 107.191406 244.03125 108.574219 244.6875 109.929688 245.410156 C 111.28125 246.136719 112.59375 246.925781 113.871094 247.777344 C 115.144531 248.628906 116.375 249.542969 117.5625 250.519531 C 118.746094 251.492188 119.882812 252.523438 120.96875 253.609375 C 122.050781 254.695312 123.082031 255.828125 124.054688 257.015625 C 125.027344 258.203125 125.941406 259.433594 126.792969 260.710938 C 127.644531 261.988281 128.433594 263.304688 129.15625 264.660156 C 129.878906 266.011719 130.53125 267.398438 131.121094 268.816406 C 131.707031 270.238281 132.222656 271.679688 132.667969 273.148438 C 133.113281 274.617188 133.484375 276.105469 133.785156 277.613281 C 134.085938 279.117188 134.308594 280.636719 134.460938 282.164062 C 134.609375 283.691406 134.683594 285.222656 134.683594 286.757812 Z M 134.683594 286.757812 " fill-opacity="1" fill-rule="nonzero"/><path fill="#000000" d="M 87.851562 335.199219 C 81.320312 335.199219 74.984375 333.917969 69.015625 331.394531 C 63.253906 328.953125 58.078125 325.460938 53.636719 321.011719 C 49.191406 316.5625 45.703125 311.382812 43.265625 305.617188 C 40.742188 299.640625 39.460938 293.296875 39.460938 286.757812 C 39.460938 280.21875 40.742188 273.875 43.265625 267.902344 C 45.703125 262.132812 49.191406 256.953125 53.636719 252.507812 C 58.078125 248.058594 63.253906 244.566406 69.015625 242.125 C 74.984375 239.597656 81.320312 238.316406 87.851562 238.316406 C 94.382812 238.316406 100.722656 239.597656 106.6875 242.125 C 112.449219 244.566406 117.625 248.058594 122.066406 252.507812 C 126.511719 256.953125 130 262.132812 132.4375 267.902344 C 134.960938 273.875 136.242188 280.21875 136.242188 286.757812 C 136.242188 293.296875 134.960938 299.640625 132.4375 305.617188 C 130 311.382812 126.511719 316.5625 122.066406 321.011719 C 117.625 325.460938 112.449219 328.953125 106.6875 331.394531 C 100.722656 333.917969 94.382812 335.199219 87.851562 335.199219 Z M 87.851562 241.433594 C 62.886719 241.433594 42.574219 261.765625 42.574219 286.757812 C 42.574219 311.75 62.886719 332.085938 87.851562 332.085938 C 112.816406 332.085938 133.128906 311.75 133.128906 286.757812 C 133.128906 261.765625 112.816406 241.433594 87.851562 241.433594 Z M 87.851562 241.433594 " fill-opacity="1" fill-rule="nonzero"/><path fill="#ffc180" d="M 67.164062 306.390625 L 108.539062 306.390625 C 109.289062 306.390625 109.894531 305.785156 109.894531 305.035156 L 109.894531 273.804688 C 109.894531 273.054688 109.289062 272.449219 108.539062 272.449219 L 67.164062 272.449219 C 66.417969 272.449219 65.808594 273.054688 65.808594 273.804688 L 65.808594 305.035156 C 65.808594 305.785156 66.417969 306.390625 67.164062 306.390625 Z M 67.164062 306.390625 " fill-opacity="1" fill-rule="nonzero"/><path fill="#000000" d="M 108.539062 307.949219 L 67.164062 307.949219 C 65.558594 307.949219 64.253906 306.640625 64.253906 305.035156 L 64.253906 273.804688 C 64.253906 272.195312 65.558594 270.890625 67.164062 270.890625 L 108.539062 270.890625 C 110.144531 270.890625 111.449219 272.195312 111.449219 273.804688 L 111.449219 305.035156 C 111.449219 306.640625 110.144531 307.949219 108.539062 307.949219 Z M 67.367188 304.832031 L 108.335938 304.832031 L 108.335938 274.007812 L 67.367188 274.007812 Z M 67.367188 304.832031 " fill-opacity="1" fill-rule="nonzero"/><path fill="#ffc180" d="M 65.808594 277.933594 L 70.347656 287.316406 L 71.234375 289.246094 C 72.5625 292.167969 75.40625 294.058594 78.554688 294.058594 L 97.148438 294.058594 C 100.28125 294.058594 103.113281 292.183594 104.449219 289.292969 L 105.375 287.273438 L 109.894531 277.933594 Z M 65.808594 277.933594 " fill-opacity="1" fill-rule="nonzero"/><path fill="#000000" d="M 97.148438 295.617188 L 78.554688 295.617188 C 74.832031 295.617188 71.402344 293.371094 69.816406 289.894531 L 68.941406 287.980469 L 64.410156 278.613281 C 64.035156 277.839844 64.359375 276.90625 65.132812 276.53125 C 65.90625 276.15625 66.835938 276.480469 67.210938 277.253906 L 71.75 286.636719 C 71.753906 286.644531 71.757812 286.65625 71.761719 286.664062 L 72.648438 288.597656 C 73.730469 290.96875 76.046875 292.5 78.554688 292.5 L 97.148438 292.5 C 99.640625 292.5 101.953125 290.984375 103.035156 288.636719 L 103.960938 286.621094 C 103.964844 286.613281 103.972656 286.601562 103.976562 286.59375 L 108.492188 277.253906 C 108.867188 276.480469 109.796875 276.15625 110.574219 276.53125 C 111.347656 276.90625 111.667969 277.839844 111.292969 278.613281 L 106.785156 287.9375 L 105.863281 289.941406 C 104.269531 293.390625 100.847656 295.617188 97.148438 295.617188 Z M 97.148438 295.617188 " fill-opacity="1" fill-rule="nonzero"/><path fill="#ffffff" d="M 79.332031 272.449219 L 96.84375 272.449219 L 96.84375 264.777344 C 96.84375 264.054688 96.257812 263.472656 95.539062 263.472656 L 80.636719 263.472656 C 79.917969 263.472656 79.332031 264.054688 79.332031 264.777344 Z M 79.332031 272.449219 " fill-opacity="1" fill-rule="nonzero"/><path fill="#000000" d="M 96.84375 274.007812 L 79.332031 274.007812 C 78.472656 274.007812 77.777344 273.308594 77.777344 272.449219 L 77.777344 264.777344 C 77.777344 263.195312 79.058594 261.914062 80.636719 261.914062 L 95.539062 261.914062 C 97.117188 261.914062 98.398438 263.195312 98.398438 264.777344 L 98.398438 272.449219 C 98.398438 273.308594 97.703125 274.007812 96.84375 274.007812 Z M 80.890625 270.890625 L 95.285156 270.890625 L 95.285156 265.027344 L 80.890625 265.027344 Z M 80.890625 270.890625 " fill-opacity="1" fill-rule="nonzero"/><path fill="#026bbf" d="M 127.867188 229.671875 L 127.867188 241.230469 C 127.867188 246.273438 136.222656 250.363281 146.527344 250.363281 C 156.835938 250.363281 165.191406 246.273438 165.191406 241.230469 L 165.191406 229.710938 Z M 127.867188 229.671875 " fill-opacity="1" fill-rule="nonzero"/><path fill="#000000" d="M 146.527344 251.921875 C 141.3125 251.921875 136.382812 250.914062 132.648438 249.085938 C 128.5625 247.085938 126.308594 244.296875 126.308594 241.230469 L 126.308594 229.671875 C 126.308594 228.808594 127.007812 228.113281 127.867188 228.113281 C 128.726562 228.113281 129.421875 228.808594 129.421875 229.671875 L 129.421875 241.230469 C 129.421875 243.015625 131.097656 244.859375 134.015625 246.289062 C 137.332031 247.910156 141.777344 248.804688 146.527344 248.804688 C 151.28125 248.804688 155.726562 247.910156 159.042969 246.289062 C 161.960938 244.859375 163.632812 243.015625 163.632812 241.230469 L 163.632812 229.710938 C 163.632812 228.851562 164.332031 228.152344 165.191406 228.152344 C 166.050781 228.152344 166.746094 228.851562 166.746094 229.710938 L 166.746094 241.230469 C 166.746094 244.296875 164.496094 247.085938 160.40625 249.085938 C 156.675781 250.914062 151.746094 251.921875 146.527344 251.921875 Z M 146.527344 251.921875 " fill-opacity="1" fill-rule="nonzero"/><path fill="#026bbf" d="M 146.507812 237.148438 L 178.035156 224.535156 L 146.605469 211.683594 L 115.082031 224.296875 Z M 146.507812 237.148438 " fill-opacity="1" fill-rule="nonzero"/><path fill="#000000" d="M 146.507812 238.707031 C 146.308594 238.707031 146.109375 238.667969 145.917969 238.59375 L 114.492188 225.738281 C 113.90625 225.496094 113.523438 224.925781 113.523438 224.289062 C 113.527344 223.652344 113.914062 223.085938 114.503906 222.847656 L 146.027344 210.234375 C 146.402344 210.085938 146.820312 210.085938 147.195312 210.238281 L 178.621094 223.09375 C 179.210938 223.335938 179.59375 223.90625 179.589844 224.542969 C 179.585938 225.179688 179.199219 225.746094 178.609375 225.984375 L 147.085938 238.597656 C 146.902344 238.671875 146.703125 238.707031 146.507812 238.707031 Z M 119.234375 224.3125 L 146.515625 235.46875 L 173.878906 224.519531 L 146.597656 213.363281 Z M 119.234375 224.3125 " fill-opacity="1" fill-rule="nonzero"/></svg>