<svg xmlns="http://www.w3.org/2000/svg" xmlns:xlink="http://www.w3.org/1999/xlink" width="500" zoomAndPan="magnify" viewBox="0 0 375 374.999991" height="500" preserveAspectRatio="xMidYMid meet" version="1.0"><path fill="#252f3e" d="M 118.1875 161.476562 C 118.1875 165.382812 118.609375 168.546875 119.347656 170.867188 C 120.195312 173.1875 121.25 175.71875 122.726562 178.464844 C 123.253906 179.308594 123.464844 180.152344 123.464844 180.890625 C 123.464844 181.945312 122.832031 183 121.460938 184.054688 L 114.8125 188.484375 C 113.863281 189.117188 112.914062 189.433594 112.070312 189.433594 C 111.015625 189.433594 109.960938 188.90625 108.90625 187.957031 C 107.429688 186.375 106.160156 184.6875 105.105469 183 C 104.050781 181.207031 102.996094 179.203125 101.835938 176.773438 C 93.609375 186.480469 83.269531 191.332031 70.820312 191.332031 C 61.957031 191.332031 54.890625 188.800781 49.71875 183.738281 C 44.550781 178.675781 41.914062 171.921875 41.914062 163.484375 C 41.914062 154.515625 45.078125 147.238281 51.511719 141.75 C 57.949219 136.265625 66.492188 133.523438 77.359375 133.523438 C 80.949219 133.523438 84.640625 133.839844 88.542969 134.367188 C 92.445312 134.894531 96.457031 135.738281 100.675781 136.6875 L 100.675781 128.984375 C 100.675781 120.96875 98.988281 115.378906 95.71875 112.105469 C 92.339844 108.835938 86.644531 107.253906 78.519531 107.253906 C 74.828125 107.253906 71.03125 107.675781 67.128906 108.625 C 63.222656 109.574219 59.425781 110.734375 55.734375 112.210938 C 54.046875 112.949219 52.777344 113.371094 52.039062 113.585938 C 51.300781 113.796875 50.773438 113.902344 50.351562 113.902344 C 48.875 113.902344 48.136719 112.84375 48.136719 110.628906 L 48.136719 105.460938 C 48.136719 103.773438 48.347656 102.507812 48.875 101.769531 C 49.402344 101.03125 50.351562 100.292969 51.828125 99.554688 C 55.523438 97.65625 59.953125 96.070312 65.121094 94.804688 C 70.292969 93.433594 75.777344 92.800781 81.582031 92.800781 C 94.136719 92.800781 103.3125 95.648438 109.222656 101.347656 C 115.023438 107.042969 117.976562 115.695312 117.976562 127.296875 L 117.976562 161.476562 Z M 75.355469 177.511719 C 78.835938 177.511719 82.425781 176.878906 86.222656 175.613281 C 90.019531 174.347656 93.398438 172.027344 96.246094 168.863281 C 97.933594 166.859375 99.199219 164.644531 99.832031 162.113281 C 100.464844 159.578125 100.886719 156.519531 100.886719 152.933594 L 100.886719 148.503906 C 97.828125 147.765625 94.558594 147.132812 91.179688 146.710938 C 87.804688 146.289062 84.535156 146.078125 81.265625 146.078125 C 74.195312 146.078125 69.027344 147.449219 65.542969 150.296875 C 62.0625 153.144531 60.375 157.152344 60.375 162.429688 C 60.375 167.386719 61.640625 171.078125 64.277344 173.609375 C 66.8125 176.246094 70.503906 177.511719 75.355469 177.511719 Z M 160.074219 188.90625 C 158.171875 188.90625 156.90625 188.589844 156.0625 187.851562 C 155.21875 187.21875 154.480469 185.742188 153.847656 183.738281 L 129.054688 102.191406 C 128.421875 100.082031 128.105469 98.710938 128.105469 97.972656 C 128.105469 96.28125 128.949219 95.332031 130.636719 95.332031 L 140.976562 95.332031 C 142.980469 95.332031 144.351562 95.648438 145.089844 96.386719 C 145.933594 97.019531 146.570312 98.5 147.203125 100.503906 L 164.925781 170.339844 L 181.382812 100.503906 C 181.910156 98.394531 182.542969 97.019531 183.386719 96.386719 C 184.230469 95.753906 185.707031 95.332031 187.609375 95.332031 L 196.046875 95.332031 C 198.050781 95.332031 199.425781 95.648438 200.269531 96.386719 C 201.113281 97.019531 201.851562 98.5 202.273438 100.503906 L 218.941406 171.183594 L 237.191406 100.503906 C 237.824219 98.394531 238.5625 97.019531 239.304688 96.386719 C 240.148438 95.753906 241.519531 95.332031 243.417969 95.332031 L 253.230469 95.332031 C 254.917969 95.332031 255.867188 96.175781 255.867188 97.972656 C 255.867188 98.5 255.761719 99.027344 255.65625 99.660156 C 255.550781 100.292969 255.339844 101.136719 254.917969 102.296875 L 229.492188 183.84375 C 228.859375 185.953125 228.121094 187.324219 227.277344 187.957031 C 226.433594 188.589844 225.058594 189.011719 223.265625 189.011719 L 214.195312 189.011719 C 212.1875 189.011719 210.816406 188.695312 209.972656 187.957031 C 209.128906 187.21875 208.390625 185.847656 207.96875 183.738281 L 191.617188 115.695312 L 175.371094 183.632812 C 174.84375 185.742188 174.210938 187.113281 173.367188 187.851562 C 172.519531 188.589844 171.042969 188.90625 169.144531 188.90625 Z M 295.640625 191.753906 C 290.152344 191.753906 284.667969 191.121094 279.394531 189.855469 C 274.117188 188.589844 270.003906 187.21875 267.261719 185.636719 C 265.574219 184.6875 264.410156 183.632812 263.988281 182.683594 C 263.566406 181.734375 263.355469 180.679688 263.355469 179.730469 L 263.355469 174.347656 C 263.355469 172.132812 264.199219 171.078125 265.785156 171.078125 C 266.417969 171.078125 267.050781 171.183594 267.683594 171.394531 C 268.316406 171.605469 269.265625 172.027344 270.320312 172.449219 C 273.90625 174.03125 277.808594 175.296875 281.925781 176.140625 C 286.144531 176.984375 290.257812 177.40625 294.480469 177.40625 C 301.125 177.40625 306.296875 176.246094 309.882812 173.925781 C 313.46875 171.605469 315.367188 168.230469 315.367188 163.90625 C 315.367188 160.949219 314.417969 158.523438 312.519531 156.519531 C 310.621094 154.515625 307.035156 152.722656 301.863281 151.035156 L 286.566406 146.289062 C 278.867188 143.859375 273.167969 140.273438 269.6875 135.527344 C 266.207031 130.886719 264.410156 125.714844 264.410156 120.230469 C 264.410156 115.800781 265.359375 111.894531 267.261719 108.519531 C 269.160156 105.144531 271.691406 102.191406 274.855469 99.871094 C 278.019531 97.441406 281.609375 95.648438 285.828125 94.382812 C 290.046875 93.117188 294.480469 92.589844 299.121094 92.589844 C 301.441406 92.589844 303.867188 92.695312 306.191406 93.011719 C 308.617188 93.328125 310.832031 93.75 313.046875 94.171875 C 315.15625 94.699219 317.160156 95.226562 319.0625 95.859375 C 320.960938 96.492188 322.4375 97.125 323.492188 97.761719 C 324.96875 98.605469 326.023438 99.449219 326.65625 100.398438 C 327.289062 101.242188 327.605469 102.402344 327.605469 103.878906 L 327.605469 108.835938 C 327.605469 111.050781 326.761719 112.210938 325.179688 112.210938 C 324.335938 112.210938 322.964844 111.789062 321.171875 110.945312 C 315.15625 108.203125 308.40625 106.832031 300.914062 106.832031 C 294.902344 106.832031 290.152344 107.78125 286.882812 109.785156 C 283.613281 111.789062 281.925781 114.851562 281.925781 119.175781 C 281.925781 122.128906 282.980469 124.660156 285.089844 126.664062 C 287.199219 128.667969 291.101562 130.675781 296.695312 132.46875 L 311.675781 137.214844 C 319.273438 139.640625 324.757812 143.015625 328.027344 147.34375 C 331.296875 151.667969 332.882812 156.625 332.882812 162.113281 C 332.882812 166.648438 331.933594 170.761719 330.136719 174.347656 C 328.238281 177.9375 325.707031 181.101562 322.4375 183.632812 C 319.167969 186.269531 315.261719 188.167969 310.726562 189.539062 C 305.980469 191.015625 301.019531 191.753906 295.640625 191.753906 Z M 295.640625 191.753906 " fill-opacity="1" fill-rule="nonzero"/><path fill="#ff9900" d="M 315.578125 243.027344 C 280.871094 268.660156 230.441406 282.269531 187.082031 282.269531 C 126.3125 282.269531 71.558594 259.800781 30.203125 222.453125 C 26.933594 219.5 29.886719 215.492188 33.789062 217.8125 C 78.519531 243.765625 133.699219 259.484375 190.773438 259.484375 C 229.28125 259.484375 271.585938 251.464844 310.515625 235.007812 C 316.316406 232.371094 321.277344 238.804688 315.578125 243.027344 Z M 315.578125 243.027344 " fill-opacity="1" fill-rule="evenodd"/><path fill="#ff9900" d="M 330.03125 226.570312 C 325.601562 220.871094 300.703125 223.824219 289.414062 225.195312 C 286.039062 225.621094 285.511719 222.664062 288.570312 220.449219 C 308.40625 206.523438 341.003906 210.535156 344.800781 215.175781 C 348.601562 219.921875 343.746094 252.519531 325.179688 268.132812 C 322.332031 270.558594 319.589844 269.292969 320.855469 266.128906 C 325.074219 255.683594 334.464844 232.160156 330.03125 226.570312 Z M 330.03125 226.570312 " fill-opacity="1" fill-rule="evenodd"/></svg>