<svg xmlns="http://www.w3.org/2000/svg" xmlns:xlink="http://www.w3.org/1999/xlink" width="192" zoomAndPan="magnify" viewBox="0 0 144 143.999998" height="192" preserveAspectRatio="xMidYMid meet" version="1.0"><defs><g/></defs><rect x="-14.4" width="172.8" fill="#ffffff" y="-14.4" height="172.799997" fill-opacity="1"/><rect x="-14.4" width="172.8" fill="#ffffff" y="-14.4" height="172.799997" fill-opacity="1"/><rect x="-14.4" width="172.8" fill="#000000" y="-14.4" height="172.799997" fill-opacity="1"/><g fill="#ffffff" fill-opacity="1"><g transform="translate(34.421465, 88.88725)"><g><path d="M 58.40625 -12.078125 C 58.65625 -11.992188 58.867188 -11.882812 59.046875 -11.75 C 59.234375 -11.625 59.34375 -11.410156 59.375 -11.109375 C 59.375 -10.796875 59.28125 -10.5625 59.09375 -10.40625 C 58.914062 -10.257812 58.703125 -10.171875 58.453125 -10.140625 C 55.847656 -9.597656 53.28125 -8.847656 50.75 -7.890625 C 49.757812 -7.523438 48.773438 -7.1875 47.796875 -6.875 C 46.648438 -6.507812 45.515625 -6.109375 44.390625 -5.671875 C 43.578125 -5.367188 42.765625 -5.078125 41.953125 -4.796875 C 41.179688 -4.492188 40.726562 -3.921875 40.59375 -3.078125 C 40.050781 -0.410156 39.457031 2.257812 38.8125 4.9375 C 37.820312 8.863281 36.226562 12.789062 34.03125 16.71875 C 31.832031 20.65625 29.128906 24.210938 25.921875 27.390625 C 22.722656 30.566406 19.144531 32.984375 15.1875 34.640625 C 11.226562 36.304688 7 36.816406 2.5 36.171875 C -0.0078125 35.804688 -2.195312 34.773438 -4.0625 33.078125 C -6.46875 30.742188 -7.191406 27.953125 -6.234375 24.703125 C -5.328125 21.796875 -3.484375 18.941406 -0.703125 16.140625 C 2.078125 13.347656 5.289062 10.734375 8.9375 8.296875 C 12.59375 5.859375 16.210938 3.707031 19.796875 1.84375 C 23.390625 -0.0195312 26.476562 -1.488281 29.0625 -2.5625 C 31.15625 -3.488281 33.25 -4.359375 35.34375 -5.171875 C 36.363281 -5.503906 36.925781 -6.195312 37.03125 -7.25 C 37.425781 -10.050781 37.742188 -13.5 37.984375 -17.59375 C 38.222656 -21.695312 38.257812 -25.984375 38.09375 -30.453125 C 37.925781 -34.929688 37.410156 -39.125 36.546875 -43.03125 C 35.679688 -46.9375 34.347656 -50.09375 32.546875 -52.5 C 29.804688 -56.050781 26.253906 -57.457031 21.890625 -56.71875 C 18.835938 -56.101562 15.875 -54.957031 13 -53.28125 C 10.125 -51.601562 7.578125 -49.546875 5.359375 -47.109375 C 3.140625 -44.671875 1.488281 -42.003906 0.40625 -39.109375 C -0.675781 -36.210938 -0.953125 -33.234375 -0.421875 -30.171875 C 0.109375 -27.109375 1.6875 -24.125 4.3125 -21.21875 C 5.4375 -19.925781 6.640625 -18.769531 7.921875 -17.75 C 9.210938 -16.738281 10.703125 -16.015625 12.390625 -15.578125 C 12.597656 -15.535156 12.773438 -15.441406 12.921875 -15.296875 C 13.078125 -15.148438 13.15625 -14.96875 13.15625 -14.75 C 13.1875 -14.488281 13.109375 -14.273438 12.921875 -14.109375 C 12.742188 -13.941406 12.539062 -13.816406 12.3125 -13.734375 C 11.925781 -13.609375 11.53125 -13.546875 11.125 -13.546875 C 10.757812 -13.546875 10.390625 -13.59375 10.015625 -13.6875 C 9.972656 -13.6875 9.9375 -13.6875 9.90625 -13.6875 C 9.363281 -13.820312 8.835938 -14.03125 8.328125 -14.3125 C 3.648438 -16.945312 0.316406 -19.957031 -1.671875 -23.34375 C -3.660156 -26.726562 -4.554688 -30.238281 -4.359375 -33.875 C -4.160156 -37.519531 -3.0625 -41.007812 -1.0625 -44.34375 C 0.9375 -47.6875 3.609375 -50.609375 6.953125 -53.109375 C 10.304688 -55.609375 14.097656 -57.421875 18.328125 -58.546875 C 21.117188 -59.285156 23.953125 -59.472656 26.828125 -59.109375 C 31.628906 -58.421875 35.210938 -55.960938 37.578125 -51.734375 C 39.015625 -49.191406 40.101562 -46.09375 40.84375 -42.4375 C 41.582031 -38.789062 42.0625 -34.925781 42.28125 -30.84375 C 42.507812 -26.757812 42.535156 -22.820312 42.359375 -19.03125 C 42.191406 -15.238281 41.910156 -11.953125 41.515625 -9.171875 C 41.398438 -8.535156 41.4375 -8.117188 41.625 -7.921875 C 41.8125 -7.734375 42.09375 -7.679688 42.46875 -7.765625 C 42.84375 -7.847656 43.234375 -7.976562 43.640625 -8.15625 C 43.941406 -8.289062 44.222656 -8.394531 44.484375 -8.46875 C 48.253906 -9.582031 52.019531 -10.710938 55.78125 -11.859375 C 56.65625 -12.203125 57.53125 -12.273438 58.40625 -12.078125 Z M 35.921875 -0.953125 C 36.085938 -2.066406 35.640625 -2.40625 34.578125 -1.96875 C 31.921875 -0.882812 28.78125 0.539062 25.15625 2.3125 C 21.53125 4.09375 17.863281 6.132812 14.15625 8.4375 C 10.445312 10.75 7.132812 13.238281 4.21875 15.90625 C 1.3125 18.582031 -0.769531 21.359375 -2.03125 24.234375 C -2.84375 26.179688 -2.929688 27.945312 -2.296875 29.53125 C -1.671875 31.113281 -0.394531 32.351562 1.53125 33.25 C 4.40625 34.488281 7.195312 34.820312 9.90625 34.25 C 12.613281 33.675781 15.175781 32.457031 17.59375 30.59375 C 20.019531 28.726562 22.253906 26.445312 24.296875 23.75 C 26.347656 21.0625 28.171875 18.210938 29.765625 15.203125 C 31.359375 12.191406 32.671875 9.28125 33.703125 6.46875 C 34.734375 3.664062 35.472656 1.191406 35.921875 -0.953125 Z M 35.921875 -0.953125 "/></g></g><g transform="translate(91.356572, 88.88725)"><g><path d="M 20.359375 -11.5625 C 20.941406 -11.457031 21.265625 -11.140625 21.328125 -10.609375 C 21.390625 -10.085938 21.125 -9.5625 20.53125 -9.03125 C 19.9375 -8.519531 19.375 -8.039062 18.84375 -7.59375 C 17.488281 -6.488281 16.03125 -5.304688 14.46875 -4.046875 C 13.257812 -3.054688 12.144531 -1.96875 11.125 -0.78125 C 10.375 0.0195312 9.8125 0.925781 9.4375 1.9375 C 9.039062 3.257812 8.363281 4.445312 7.40625 5.5 C 6.875 6.113281 6.257812 6.488281 5.5625 6.625 C 4.875 6.757812 4.148438 6.722656 3.390625 6.515625 C 3.023438 6.421875 2.75 6.226562 2.5625 5.9375 C 2.375 5.644531 2.335938 5.3125 2.453125 4.9375 C 2.566406 4.375 2.78125 3.835938 3.09375 3.328125 C 3.539062 2.679688 4.019531 2.050781 4.53125 1.4375 C 4.5625 1.375 4.601562 1.3125 4.65625 1.25 C 6.425781 -0.957031 6.535156 -3.210938 4.984375 -5.515625 C 4.597656 -6.023438 4.175781 -6.519531 3.71875 -7 C 3.582031 -7.164062 3.425781 -7.332031 3.25 -7.5 C 2.976562 -7.84375 2.6875 -8.164062 2.375 -8.46875 C 1.8125 -9.070312 1.257812 -9.710938 0.71875 -10.390625 C -0.800781 -12.523438 -0.703125 -14.570312 1.015625 -16.53125 C 2.503906 -18.300781 4.367188 -19.523438 6.609375 -20.203125 C 7.992188 -20.597656 9.332031 -20.472656 10.625 -19.828125 C 11.863281 -19.148438 12.4375 -18.101562 12.34375 -16.6875 C 12.207031 -15.738281 11.734375 -15.175781 10.921875 -15 C 9.867188 -14.800781 9.125 -15.125 8.6875 -15.96875 C 8.539062 -16.3125 8.4375 -16.609375 8.375 -16.859375 C 8.3125 -17.117188 8.226562 -17.316406 8.125 -17.453125 C 8.019531 -17.585938 7.847656 -17.628906 7.609375 -17.578125 C 7.378906 -17.523438 7.015625 -17.34375 6.515625 -17.03125 C 5.722656 -16.570312 5.046875 -15.96875 4.484375 -15.21875 C 3.554688 -14.101562 3.5 -12.914062 4.3125 -11.65625 C 4.59375 -11.257812 4.898438 -10.890625 5.234375 -10.546875 C 5.609375 -10.128906 5.960938 -9.722656 6.296875 -9.328125 C 6.972656 -8.648438 7.613281 -7.957031 8.21875 -7.25 C 8.832031 -6.539062 9.363281 -5.78125 9.8125 -4.96875 C 10.144531 -5.03125 10.734375 -5.347656 11.578125 -5.921875 C 12.429688 -6.492188 13.351562 -7.160156 14.34375 -7.921875 C 15.34375 -8.691406 16.25 -9.382812 17.0625 -10 C 17.738281 -10.53125 18.21875 -10.898438 18.5 -11.109375 C 18.726562 -11.273438 19.007812 -11.398438 19.34375 -11.484375 C 19.6875 -11.566406 20.023438 -11.59375 20.359375 -11.5625 Z M 20.359375 -11.5625 "/></g></g></g></svg>