<svg xmlns="http://www.w3.org/2000/svg" xmlns:xlink="http://www.w3.org/1999/xlink" width="500" zoomAndPan="magnify" viewBox="0 0 375 374.999991" height="500" preserveAspectRatio="xMidYMid meet" version="1.0"><defs><clipPath id="3db7f23906"><path d="M 70 37.5 L 136 37.5 L 136 85 L 70 85 Z M 70 37.5 " clip-rule="nonzero"/></clipPath><clipPath id="7cb689fb79"><path d="M 287 162 L 329.25 162 L 329.25 181 L 287 181 Z M 287 162 " clip-rule="nonzero"/></clipPath><clipPath id="429d8eafc0"><path d="M 153 334 L 167 334 L 167 347.25 L 153 347.25 Z M 153 334 " clip-rule="nonzero"/></clipPath></defs><path fill="#000000" d="M 252.304688 303.570312 C 251.835938 303.570312 251.375 303.335938 251.109375 302.910156 C 250.699219 302.25 250.902344 301.382812 251.5625 300.972656 C 255.746094 298.371094 259.832031 295.503906 263.707031 292.449219 C 264.316406 291.96875 265.203125 292.074219 265.683594 292.683594 C 266.164062 293.292969 266.058594 294.175781 265.449219 294.660156 C 261.492188 297.777344 257.320312 300.703125 253.046875 303.359375 C 252.816406 303.503906 252.558594 303.570312 252.304688 303.570312 Z M 275.816406 285.039062 C 275.453125 285.039062 275.089844 284.898438 274.816406 284.621094 C 274.269531 284.066406 274.277344 283.179688 274.828125 282.632812 C 278.335938 279.167969 281.6875 275.472656 284.789062 271.640625 C 285.277344 271.039062 286.164062 270.945312 286.769531 271.433594 C 287.371094 271.921875 287.464844 272.808594 286.976562 273.410156 C 283.808594 277.320312 280.386719 281.097656 276.804688 284.632812 C 276.53125 284.902344 276.175781 285.039062 275.816406 285.039062 Z M 294.652344 261.777344 C 294.390625 261.777344 294.128906 261.707031 293.894531 261.554688 C 293.238281 261.136719 293.046875 260.269531 293.46875 259.613281 C 296.125 255.460938 298.574219 251.113281 300.746094 246.695312 C 301.089844 246 301.929688 245.710938 302.628906 246.054688 C 303.324219 246.394531 303.613281 247.238281 303.269531 247.933594 C 301.050781 252.445312 298.550781 256.886719 295.835938 261.128906 C 295.570312 261.546875 295.113281 261.777344 294.652344 261.777344 Z M 307.851562 234.925781 C 307.695312 234.925781 307.535156 234.898438 307.378906 234.84375 C 306.644531 234.582031 306.265625 233.777344 306.527344 233.046875 C 308.191406 228.410156 309.605469 223.628906 310.738281 218.835938 C 310.914062 218.078125 311.671875 217.609375 312.429688 217.789062 C 313.183594 217.96875 313.652344 218.722656 313.476562 219.480469 C 312.320312 224.375 310.875 229.257812 309.175781 233.992188 C 308.96875 234.566406 308.429688 234.925781 307.851562 234.925781 Z M 314.722656 205.808594 C 314.664062 205.808594 314.609375 205.804688 314.550781 205.796875 C 313.78125 205.707031 313.230469 205.003906 313.324219 204.234375 C 313.898438 199.425781 314.214844 194.515625 314.261719 189.644531 C 314.269531 188.871094 314.898438 188.253906 315.671875 188.253906 C 315.675781 188.253906 315.679688 188.253906 315.683594 188.253906 C 316.460938 188.261719 317.085938 188.894531 317.078125 189.671875 C 317.027344 194.644531 316.703125 199.660156 316.117188 204.570312 C 316.03125 205.28125 315.425781 205.808594 314.722656 205.808594 Z M 314.722656 205.808594 " fill-opacity="1" fill-rule="nonzero"/><path fill="#000000" d="M 73.875 269.5 C 73.445312 269.5 73.023438 269.304688 72.746094 268.933594 C 69.65625 264.777344 66.78125 260.398438 64.191406 255.921875 C 63.804688 255.25 64.035156 254.390625 64.707031 254.003906 C 65.378906 253.613281 66.242188 253.84375 66.628906 254.515625 C 69.164062 258.898438 71.980469 263.1875 75.003906 267.257812 C 75.46875 267.878906 75.335938 268.757812 74.714844 269.222656 C 74.460938 269.410156 74.167969 269.5 73.875 269.5 Z M 58.484375 242.867188 C 57.941406 242.867188 57.421875 242.550781 57.191406 242.019531 C 55.136719 237.269531 53.335938 232.351562 51.84375 227.398438 C 51.621094 226.65625 52.039062 225.871094 52.785156 225.648438 C 53.527344 225.421875 54.3125 225.84375 54.539062 226.585938 C 56 231.433594 57.761719 236.25 59.773438 240.902344 C 60.082031 241.613281 59.753906 242.441406 59.042969 242.75 C 58.859375 242.828125 58.671875 242.867188 58.484375 242.867188 Z M 49.605469 213.417969 C 48.9375 213.417969 48.34375 212.9375 48.222656 212.257812 C 47.3125 207.175781 46.691406 201.976562 46.367188 196.800781 C 46.320312 196.027344 46.910156 195.359375 47.683594 195.3125 C 48.460938 195.265625 49.128906 195.851562 49.175781 196.628906 C 49.492188 201.695312 50.101562 206.789062 50.992188 211.761719 C 51.128906 212.527344 50.617188 213.257812 49.855469 213.394531 C 49.769531 213.410156 49.6875 213.417969 49.605469 213.417969 Z M 49.605469 213.417969 " fill-opacity="1" fill-rule="nonzero"/><path fill="#000000" d="M 152.738281 58.8125 C 152.09375 58.8125 151.511719 58.367188 151.367188 57.710938 C 151.199219 56.953125 151.675781 56.203125 152.433594 56.035156 C 157.65625 54.882812 163.007812 54.03125 168.335938 53.511719 C 169.109375 53.4375 169.800781 54 169.875 54.773438 C 169.949219 55.546875 169.382812 56.234375 168.613281 56.308594 C 163.390625 56.820312 158.152344 57.652344 153.042969 58.78125 C 152.941406 58.800781 152.839844 58.8125 152.738281 58.8125 Z M 200.28125 56.984375 C 200.214844 56.984375 200.148438 56.980469 200.085938 56.972656 C 197.257812 56.578125 194.382812 56.269531 191.527344 56.058594 C 189.148438 55.878906 186.738281 55.765625 184.367188 55.714844 C 183.589844 55.695312 182.972656 55.054688 182.988281 54.277344 C 183.007812 53.503906 183.652344 52.886719 184.425781 52.902344 C 186.851562 52.953125 189.308594 53.074219 191.738281 53.253906 C 194.648438 53.472656 197.589844 53.785156 200.472656 54.1875 C 201.242188 54.296875 201.777344 55.003906 201.671875 55.773438 C 201.574219 56.476562 200.972656 56.984375 200.28125 56.984375 Z M 200.28125 56.984375 " fill-opacity="1" fill-rule="nonzero"/><path fill="#7bcafa" d="M 280.046875 188.292969 C 280.046875 189.902344 280.003906 191.511719 279.925781 193.121094 C 279.847656 194.726562 279.730469 196.332031 279.570312 197.9375 C 279.414062 199.539062 279.214844 201.136719 278.980469 202.730469 C 278.742188 204.320312 278.46875 205.90625 278.152344 207.484375 C 277.839844 209.066406 277.488281 210.636719 277.09375 212.199219 C 276.703125 213.757812 276.273438 215.3125 275.804688 216.851562 C 275.339844 218.390625 274.832031 219.921875 274.289062 221.4375 C 273.746094 222.953125 273.167969 224.453125 272.550781 225.941406 C 271.933594 227.429688 271.28125 228.902344 270.59375 230.355469 C 269.90625 231.8125 269.179688 233.25 268.421875 234.671875 C 267.660156 236.089844 266.867188 237.492188 266.039062 238.871094 C 265.210938 240.253906 264.347656 241.613281 263.453125 242.953125 C 262.558594 244.289062 261.632812 245.605469 260.671875 246.898438 C 259.710938 248.191406 258.722656 249.460938 257.699219 250.707031 C 256.675781 251.949219 255.625 253.167969 254.542969 254.363281 C 253.460938 255.554688 252.351562 256.722656 251.210938 257.859375 C 250.070312 259 248.90625 260.109375 247.710938 261.191406 C 246.519531 262.269531 245.296875 263.320312 244.050781 264.34375 C 242.808594 265.363281 241.539062 266.355469 240.242188 267.316406 C 238.949219 268.273438 237.632812 269.199219 236.292969 270.09375 C 234.953125 270.988281 233.59375 271.851562 232.210938 272.679688 C 230.828125 273.507812 229.425781 274.300781 228.007812 275.058594 C 226.585938 275.816406 225.144531 276.542969 223.691406 277.230469 C 222.234375 277.917969 220.761719 278.570312 219.273438 279.1875 C 217.785156 279.800781 216.28125 280.382812 214.765625 280.925781 C 213.246094 281.46875 211.71875 281.972656 210.175781 282.4375 C 208.632812 282.90625 207.082031 283.335938 205.519531 283.726562 C 203.957031 284.117188 202.386719 284.472656 200.804688 284.785156 C 199.222656 285.097656 197.636719 285.375 196.042969 285.609375 C 194.449219 285.847656 192.851562 286.042969 191.25 286.203125 C 189.644531 286.359375 188.039062 286.476562 186.429688 286.558594 C 184.820312 286.636719 183.210938 286.675781 181.597656 286.675781 C 179.988281 286.675781 178.378906 286.636719 176.769531 286.558594 C 175.160156 286.476562 173.550781 286.359375 171.949219 286.203125 C 170.347656 286.042969 168.746094 285.847656 167.152344 285.609375 C 165.558594 285.375 163.972656 285.097656 162.394531 284.785156 C 160.8125 284.472656 159.242188 284.117188 157.679688 283.726562 C 156.113281 283.335938 154.5625 282.90625 153.019531 282.4375 C 151.480469 281.972656 149.949219 281.46875 148.433594 280.925781 C 146.914062 280.382812 145.414062 279.800781 143.925781 279.1875 C 142.4375 278.570312 140.964844 277.917969 139.507812 277.230469 C 138.050781 276.542969 136.613281 275.816406 135.191406 275.058594 C 133.769531 274.300781 132.367188 273.507812 130.988281 272.679688 C 129.605469 271.851562 128.246094 270.988281 126.90625 270.09375 C 125.566406 269.199219 124.246094 268.273438 122.953125 267.316406 C 121.660156 266.355469 120.390625 265.363281 119.144531 264.34375 C 117.898438 263.320312 116.679688 262.269531 115.484375 261.191406 C 114.292969 260.109375 113.125 259 111.984375 257.859375 C 110.847656 256.722656 109.738281 255.554688 108.65625 254.363281 C 107.574219 253.167969 106.519531 251.949219 105.5 250.707031 C 104.476562 249.460938 103.484375 248.191406 102.527344 246.898438 C 101.566406 245.605469 100.636719 244.289062 99.742188 242.953125 C 98.847656 241.613281 97.984375 240.253906 97.15625 238.871094 C 96.328125 237.492188 95.535156 236.089844 94.777344 234.671875 C 94.015625 233.25 93.292969 231.8125 92.605469 230.355469 C 91.914062 228.902344 91.261719 227.429688 90.644531 225.941406 C 90.027344 224.453125 89.449219 222.953125 88.90625 221.4375 C 88.363281 219.921875 87.859375 218.390625 87.390625 216.851562 C 86.921875 215.3125 86.492188 213.757812 86.101562 212.199219 C 85.710938 210.636719 85.359375 209.066406 85.042969 207.484375 C 84.730469 205.90625 84.453125 204.320312 84.21875 202.730469 C 83.980469 201.136719 83.785156 199.539062 83.625 197.9375 C 83.46875 196.332031 83.347656 194.726562 83.269531 193.121094 C 83.191406 191.511719 83.152344 189.902344 83.152344 188.292969 C 83.152344 186.683594 83.191406 185.074219 83.269531 183.464844 C 83.347656 181.855469 83.46875 180.25 83.625 178.648438 C 83.785156 177.046875 83.980469 175.449219 84.21875 173.855469 C 84.453125 172.265625 84.730469 170.679688 85.042969 169.097656 C 85.359375 167.519531 85.710938 165.949219 86.101562 164.386719 C 86.492188 162.824219 86.921875 161.273438 87.390625 159.734375 C 87.859375 158.191406 88.363281 156.664062 88.90625 155.148438 C 89.449219 153.632812 90.027344 152.132812 90.644531 150.644531 C 91.261719 149.15625 91.914062 147.683594 92.605469 146.230469 C 93.292969 144.773438 94.015625 143.335938 94.777344 141.914062 C 95.535156 140.496094 96.328125 139.09375 97.15625 137.714844 C 97.984375 136.332031 98.847656 134.972656 99.742188 133.632812 C 100.636719 132.296875 101.566406 130.980469 102.527344 129.6875 C 103.484375 128.394531 104.476562 127.125 105.5 125.878906 C 106.519531 124.636719 107.574219 123.414062 108.65625 122.222656 C 109.738281 121.03125 110.847656 119.863281 111.984375 118.726562 C 113.125 117.585938 114.292969 116.476562 115.484375 115.394531 C 116.679688 114.316406 117.898438 113.261719 119.144531 112.242188 C 120.390625 111.21875 121.660156 110.230469 122.953125 109.269531 C 124.246094 108.3125 125.566406 107.386719 126.90625 106.492188 C 128.246094 105.597656 129.605469 104.734375 130.988281 103.90625 C 132.367188 103.078125 133.769531 102.285156 135.191406 101.527344 C 136.613281 100.769531 138.050781 100.042969 139.507812 99.355469 C 140.964844 98.667969 142.4375 98.015625 143.925781 97.398438 C 145.414062 96.78125 146.914062 96.203125 148.433594 95.660156 C 149.949219 95.117188 151.480469 94.613281 153.019531 94.144531 C 154.5625 93.679688 156.113281 93.25 157.679688 92.859375 C 159.242188 92.46875 160.8125 92.113281 162.394531 91.800781 C 163.972656 91.484375 165.558594 91.210938 167.152344 90.976562 C 168.746094 90.738281 170.347656 90.542969 171.949219 90.382812 C 173.550781 90.226562 175.160156 90.109375 176.769531 90.027344 C 178.378906 89.949219 179.988281 89.910156 181.597656 89.910156 C 183.210938 89.910156 184.820312 89.949219 186.429688 90.027344 C 188.039062 90.109375 189.644531 90.226562 191.25 90.382812 C 192.851562 90.542969 194.449219 90.738281 196.042969 90.976562 C 197.636719 91.210938 199.222656 91.484375 200.804688 91.800781 C 202.386719 92.113281 203.957031 92.46875 205.519531 92.859375 C 207.082031 93.25 208.632812 93.679688 210.175781 94.144531 C 211.71875 94.613281 213.246094 95.117188 214.765625 95.660156 C 216.28125 96.203125 217.785156 96.78125 219.273438 97.398438 C 220.761719 98.015625 222.234375 98.667969 223.691406 99.355469 C 225.144531 100.042969 226.585938 100.769531 228.007812 101.527344 C 229.425781 102.285156 230.828125 103.078125 232.210938 103.90625 C 233.59375 104.734375 234.953125 105.597656 236.292969 106.492188 C 237.632812 107.386719 238.949219 108.3125 240.242188 109.269531 C 241.539062 110.230469 242.808594 111.21875 244.050781 112.242188 C 245.296875 113.261719 246.519531 114.316406 247.710938 115.394531 C 248.90625 116.476562 250.070312 117.585938 251.210938 118.726562 C 252.351562 119.863281 253.460938 121.03125 254.542969 122.222656 C 255.625 123.414062 256.675781 124.632812 257.699219 125.878906 C 258.722656 127.125 259.710938 128.394531 260.671875 129.6875 C 261.632812 130.980469 262.558594 132.296875 263.453125 133.632812 C 264.347656 134.972656 265.210938 136.332031 266.039062 137.714844 C 266.867188 139.09375 267.660156 140.496094 268.421875 141.914062 C 269.179688 143.335938 269.90625 144.773438 270.59375 146.230469 C 271.28125 147.683594 271.933594 149.15625 272.550781 150.644531 C 273.167969 152.128906 273.746094 153.632812 274.289062 155.148438 C 274.832031 156.664062 275.339844 158.191406 275.804688 159.734375 C 276.273438 161.273438 276.703125 162.824219 277.09375 164.386719 C 277.488281 165.949219 277.839844 167.519531 278.152344 169.097656 C 278.46875 170.679688 278.742188 172.265625 278.980469 173.855469 C 279.214844 175.449219 279.414062 177.046875 279.570312 178.648438 C 279.730469 180.25 279.847656 181.855469 279.925781 183.464844 C 280.003906 185.074219 280.046875 186.683594 280.046875 188.292969 Z M 280.046875 188.292969 " fill-opacity="1" fill-rule="nonzero"/><path fill="#026bbf" d="M 120.800781 113.511719 L 141.964844 124.632812 C 146.109375 126.859375 149.296875 130.507812 150.949219 134.910156 L 162.730469 166.429688 C 165.019531 172.535156 163.132812 179.417969 158.054688 183.503906 L 155.035156 185.9375 C 154.105469 186.6875 152.949219 187.09375 151.753906 187.09375 L 52.335938 187.09375 C 51.140625 187.09375 49.984375 186.6875 49.054688 185.9375 L 46.035156 183.503906 C 40.957031 179.417969 39.078125 172.535156 41.359375 166.429688 L 53.140625 134.910156 C 54.792969 130.507812 57.980469 126.859375 62.125 124.632812 L 83.289062 113.511719 Z M 120.800781 113.511719 " fill-opacity="1" fill-rule="nonzero"/><path fill="#000000" d="M 151.753906 188.5 L 52.335938 188.5 C 50.828125 188.5 49.347656 187.980469 48.171875 187.03125 L 45.152344 184.597656 C 39.597656 180.125 37.542969 172.628906 40.042969 165.9375 L 51.820312 134.417969 C 53.59375 129.695312 57.015625 125.78125 61.457031 123.394531 C 61.460938 123.390625 61.464844 123.390625 61.46875 123.386719 L 82.636719 112.269531 C 83.324219 111.90625 84.175781 112.171875 84.535156 112.859375 C 84.898438 113.546875 84.632812 114.394531 83.945312 114.757812 L 62.785156 125.871094 C 58.945312 127.9375 55.988281 131.324219 54.457031 135.402344 L 42.675781 166.921875 C 40.601562 172.472656 42.304688 178.699219 46.917969 182.410156 L 49.9375 184.84375 C 50.613281 185.386719 51.464844 185.6875 52.335938 185.6875 L 151.753906 185.6875 C 152.621094 185.6875 153.472656 185.386719 154.152344 184.84375 L 157.171875 182.410156 C 161.789062 178.691406 163.492188 172.46875 161.414062 166.921875 L 149.632812 135.402344 C 148.101562 131.324219 145.144531 127.9375 141.304688 125.871094 L 120.144531 114.757812 C 119.457031 114.394531 119.191406 113.546875 119.554688 112.859375 C 119.914062 112.171875 120.765625 111.90625 121.453125 112.269531 L 142.621094 123.386719 C 142.625 123.390625 142.628906 123.390625 142.632812 123.394531 C 147.074219 125.78125 150.496094 129.695312 152.265625 134.417969 L 164.046875 165.9375 C 166.554688 172.621094 164.5 180.121094 158.9375 184.597656 L 155.917969 187.03125 C 154.742188 187.976562 153.261719 188.5 151.753906 188.5 Z M 151.753906 188.5 " fill-opacity="1" fill-rule="nonzero"/><path fill="#ffffff" d="M 127.773438 81.5 C 133.289062 82.320312 133.417969 89.484375 131.84375 93.535156 C 130.675781 96.589844 128.480469 98.546875 125.132812 98.546875 C 125.097656 98.546875 125.027344 100.179688 125.027344 100.179688 C 125.027344 106.738281 122.277344 112.652344 117.863281 116.84375 C 117.554688 117.140625 117.242188 117.421875 116.910156 117.699219 C 112.898438 121.117188 107.699219 123.167969 102.027344 123.167969 C 96.347656 123.167969 91.144531 121.117188 87.136719 117.699219 C 86.8125 117.421875 86.488281 117.140625 86.183594 116.84375 C 81.777344 112.652344 79.023438 106.738281 79.023438 100.179688 C 79.023438 100.179688 78.945312 98.546875 78.910156 98.546875 C 75.574219 98.546875 73.378906 96.589844 72.199219 93.535156 C 70.636719 89.484375 70.039062 83.859375 75.5625 83.039062 L 75.296875 70.558594 C 75.296875 70.558594 80.320312 54.78125 101.542969 54.78125 C 122.765625 54.78125 127.773438 81.5 127.773438 81.5 Z M 127.773438 81.5 " fill-opacity="1" fill-rule="nonzero"/><path fill="#000000" d="M 102.027344 124.574219 C 96.230469 124.574219 90.617188 122.511719 86.222656 118.769531 C 86.21875 118.769531 86.214844 118.765625 86.214844 118.761719 C 85.882812 118.476562 85.539062 118.179688 85.207031 117.859375 C 82.835938 115.601562 80.972656 112.945312 79.664062 109.964844 C 78.3125 106.882812 77.621094 103.605469 77.617188 100.214844 C 77.613281 100.101562 77.605469 99.980469 77.601562 99.863281 C 74.535156 99.417969 72.179688 97.390625 70.886719 94.039062 C 70.027344 91.816406 68.855469 87.632812 70.632812 84.585938 C 71.175781 83.652344 72.210938 82.503906 74.132812 81.917969 L 73.890625 70.589844 C 73.886719 70.433594 73.910156 70.28125 73.957031 70.132812 C 74.011719 69.957031 75.363281 65.816406 79.460938 61.679688 C 81.859375 59.261719 84.710938 57.332031 87.933594 55.953125 C 91.929688 54.242188 96.507812 53.375 101.542969 53.375 C 106.683594 53.375 111.355469 54.867188 115.417969 57.816406 C 118.632812 60.148438 121.464844 63.382812 123.832031 67.429688 C 127 72.855469 128.464844 78.21875 128.957031 80.320312 C 130.621094 80.804688 131.957031 81.847656 132.851562 83.386719 C 134.679688 86.535156 134.292969 91.117188 133.15625 94.042969 C 131.875 97.386719 129.519531 99.417969 126.453125 99.859375 C 126.445312 99.980469 126.441406 100.097656 126.433594 100.210938 C 126.429688 103.601562 125.742188 106.882812 124.386719 109.964844 C 123.078125 112.945312 121.210938 115.601562 118.835938 117.859375 C 118.53125 118.15625 118.195312 118.453125 117.816406 118.777344 C 113.425781 122.511719 107.816406 124.574219 102.027344 124.574219 Z M 76.707031 70.785156 L 76.96875 83.007812 C 76.984375 83.714844 76.472656 84.324219 75.769531 84.425781 C 74.453125 84.625 73.566406 85.140625 73.0625 86.003906 C 72.210938 87.464844 72.378906 90.089844 73.511719 93.027344 C 74.566406 95.757812 76.382812 97.140625 78.910156 97.140625 C 79.515625 97.140625 80.210938 97.550781 80.324219 98.445312 C 80.328125 98.503906 80.339844 98.589844 80.347656 98.691406 C 80.359375 98.851562 80.371094 99.066406 80.386719 99.28125 C 80.410156 99.699219 80.429688 100.113281 80.429688 100.113281 C 80.429688 100.136719 80.433594 100.160156 80.433594 100.179688 C 80.433594 106.144531 82.820312 111.703125 87.152344 115.828125 C 87.15625 115.832031 87.160156 115.832031 87.164062 115.835938 C 87.4375 116.105469 87.738281 116.363281 88.054688 116.636719 C 91.933594 119.941406 96.898438 121.761719 102.027344 121.761719 C 107.148438 121.761719 112.109375 119.941406 115.996094 116.632812 C 116.335938 116.347656 116.625 116.085938 116.882812 115.835938 C 116.886719 115.832031 116.890625 115.828125 116.894531 115.828125 C 121.234375 111.703125 123.621094 106.148438 123.621094 100.179688 C 123.621094 100.160156 123.621094 100.140625 123.625 100.121094 C 123.625 100.121094 123.640625 99.707031 123.664062 99.289062 C 123.675781 99.074219 123.6875 98.859375 123.699219 98.699219 C 123.707031 98.597656 123.714844 98.511719 123.722656 98.453125 C 123.828125 97.554688 124.527344 97.140625 125.132812 97.140625 C 127.671875 97.140625 129.488281 95.757812 130.53125 93.03125 C 131.464844 90.632812 131.722656 87.039062 130.417969 84.800781 C 129.78125 83.707031 128.851562 83.082031 127.566406 82.890625 C 126.972656 82.800781 126.5 82.347656 126.390625 81.757812 C 126.371094 81.652344 125.105469 75.15625 121.363281 68.785156 C 116.453125 60.425781 109.785156 56.1875 101.542969 56.1875 C 93.128906 56.1875 86.375 58.699219 81.460938 63.660156 C 78.320312 66.828125 77.011719 69.972656 76.707031 70.785156 Z M 76.707031 70.785156 " fill-opacity="1" fill-rule="nonzero"/><path fill="#ffffff" d="M 142.964844 187.09375 L 61.25 187.09375 L 61.25 140.3125 C 61.25 137.429688 63.589844 135.089844 66.476562 135.089844 L 137.734375 135.089844 C 140.625 135.089844 142.964844 137.429688 142.964844 140.3125 Z M 142.964844 187.09375 " fill-opacity="1" fill-rule="nonzero"/><path fill="#000000" d="M 142.964844 188.5 L 61.25 188.5 C 60.472656 188.5 59.84375 187.871094 59.84375 187.09375 L 59.84375 140.3125 C 59.84375 136.65625 62.820312 133.683594 66.476562 133.683594 L 137.734375 133.683594 C 141.394531 133.683594 144.371094 136.65625 144.371094 140.3125 L 144.371094 187.09375 C 144.371094 187.871094 143.742188 188.5 142.964844 188.5 Z M 62.65625 185.6875 L 141.558594 185.6875 L 141.558594 140.3125 C 141.558594 138.207031 139.84375 136.496094 137.734375 136.496094 L 66.476562 136.496094 C 64.371094 136.496094 62.65625 138.207031 62.65625 140.3125 Z M 62.65625 185.6875 " fill-opacity="1" fill-rule="nonzero"/><path fill="#000000" d="M 118.308594 95.570312 L 109.691406 95.570312 C 107.824219 95.570312 106.160156 94.382812 105.558594 92.613281 C 105.554688 92.605469 105.550781 92.59375 105.546875 92.582031 L 103.640625 86.539062 L 100.445312 86.539062 L 98.820312 92.375 C 98.296875 94.257812 96.566406 95.570312 94.609375 95.570312 L 85.996094 95.570312 C 84.125 95.570312 82.460938 94.382812 81.859375 92.613281 C 81.855469 92.605469 81.851562 92.59375 81.847656 92.582031 L 79.632812 85.554688 C 79.496094 85.128906 79.574219 84.664062 79.839844 84.300781 C 80.105469 83.941406 80.527344 83.726562 80.972656 83.726562 L 99.34375 83.726562 C 99.363281 83.726562 99.386719 83.726562 99.40625 83.726562 L 104.640625 83.726562 C 104.664062 83.726562 104.683594 83.726562 104.707031 83.726562 L 123.074219 83.726562 C 123.515625 83.726562 123.929688 83.933594 124.195312 84.28125 C 124.460938 84.632812 124.546875 85.085938 124.429688 85.511719 L 122.519531 92.375 C 121.996094 94.257812 120.265625 95.570312 118.308594 95.570312 Z M 108.222656 91.71875 C 108.441406 92.34375 109.03125 92.761719 109.691406 92.761719 L 118.308594 92.761719 C 119.007812 92.761719 119.625 92.292969 119.808594 91.621094 L 121.222656 86.539062 L 106.589844 86.539062 Z M 84.523438 91.71875 C 84.742188 92.34375 85.332031 92.761719 85.992188 92.761719 L 94.609375 92.761719 C 95.308594 92.761719 95.925781 92.292969 96.109375 91.621094 L 97.523438 86.539062 L 82.890625 86.539062 Z M 84.523438 91.71875 " fill-opacity="1" fill-rule="nonzero"/><path fill="#000000" d="M 61.246094 168.410156 C 61 168.410156 60.746094 168.34375 60.519531 168.203125 L 53.039062 163.671875 C 52.375 163.269531 52.164062 162.40625 52.566406 161.742188 C 52.96875 161.078125 53.832031 160.863281 54.496094 161.269531 L 61.976562 165.800781 C 62.644531 166.203125 62.855469 167.066406 62.453125 167.730469 C 62.1875 168.167969 61.722656 168.410156 61.246094 168.410156 Z M 61.246094 168.410156 " fill-opacity="1" fill-rule="nonzero"/><path fill="#000000" d="M 142.964844 168.410156 C 142.488281 168.410156 142.023438 168.167969 141.757812 167.730469 C 141.355469 167.066406 141.566406 166.203125 142.234375 165.800781 L 149.714844 161.269531 C 150.378906 160.863281 151.242188 161.078125 151.644531 161.742188 C 152.046875 162.40625 151.835938 163.269531 151.171875 163.671875 L 143.691406 168.203125 C 143.464844 168.34375 143.210938 168.410156 142.964844 168.410156 Z M 142.964844 168.410156 " fill-opacity="1" fill-rule="nonzero"/><path fill="#ffc180" d="M 88.492188 65.066406 C 88.492188 65.066406 109.855469 83.957031 134.511719 81.28125 C 134.511719 81.28125 132.050781 73.207031 125.65625 66.714844 L 134.511719 68.777344 C 134.511719 68.777344 133.863281 60.3125 127.96875 54.710938 C 123.296875 50.273438 115.121094 49.617188 115.121094 49.617188 L 123.941406 44.933594 C 123.941406 44.933594 110.808594 38.828125 98.164062 45.5625 L 99.574219 39.070312 C 99.574219 39.070312 83.1875 38.359375 76.171875 53.207031 C 69.15625 68.050781 73.632812 78.546875 75.558594 83.035156 Z M 88.492188 65.066406 " fill-opacity="1" fill-rule="nonzero"/><g clip-path="url(#3db7f23906)"><path fill="#000000" d="M 75.558594 84.441406 C 75.507812 84.441406 75.457031 84.4375 75.40625 84.433594 C 74.902344 84.378906 74.464844 84.054688 74.265625 83.589844 C 73.277344 81.28125 71.617188 77.414062 71.113281 72.140625 C 70.503906 65.785156 71.777344 59.214844 74.898438 52.605469 C 77.9375 46.183594 83.175781 41.558594 90.054688 39.238281 C 95.21875 37.5 99.457031 37.660156 99.636719 37.667969 C 100.050781 37.6875 100.433594 37.886719 100.6875 38.214844 C 100.941406 38.542969 101.035156 38.964844 100.949219 39.371094 L 100.140625 43.089844 C 104.957031 41.148438 110.378906 40.539062 115.992188 41.332031 C 121.003906 42.035156 124.394531 43.59375 124.535156 43.660156 C 125.019531 43.882812 125.335938 44.363281 125.347656 44.894531 C 125.363281 45.429688 125.074219 45.925781 124.601562 46.175781 L 119.394531 48.941406 C 122.304688 49.65625 126.152344 51.046875 128.9375 53.691406 C 135.152344 59.597656 135.886719 68.304688 135.914062 68.671875 C 135.949219 69.117188 135.765625 69.554688 135.425781 69.847656 C 135.085938 70.136719 134.628906 70.25 134.191406 70.148438 L 129.554688 69.066406 C 133.980469 74.839844 135.769531 80.582031 135.855469 80.871094 C 135.980469 81.269531 135.917969 81.703125 135.683594 82.054688 C 135.453125 82.402344 135.078125 82.632812 134.664062 82.675781 C 128.871094 83.304688 122.785156 82.820312 116.570312 81.238281 C 111.628906 79.976562 106.59375 78.019531 101.605469 75.421875 C 95.347656 72.160156 90.796875 68.753906 88.753906 67.109375 L 76.703125 83.855469 C 76.4375 84.226562 76.007812 84.441406 75.558594 84.441406 Z M 97.816406 40.527344 C 96.226562 40.640625 93.679688 40.972656 90.859375 41.9375 C 84.683594 44.046875 80.171875 48.039062 77.445312 53.808594 C 71.703125 65.957031 73.957031 75.058594 75.898438 80.15625 L 87.351562 64.246094 C 87.582031 63.921875 87.941406 63.710938 88.335938 63.667969 C 88.730469 63.625 89.128906 63.75 89.425781 64.011719 C 89.503906 64.082031 94.800781 68.714844 102.972656 72.964844 C 110.105469 76.671875 120.886719 80.796875 132.558594 80.039062 C 131.507812 77.414062 129.023438 72.140625 124.652344 67.699219 C 124.210938 67.253906 124.121094 66.570312 124.425781 66.027344 C 124.734375 65.480469 125.363281 65.203125 125.972656 65.34375 L 132.800781 66.9375 C 132.246094 64.242188 130.769531 59.3125 126.996094 55.730469 C 122.738281 51.683594 115.085938 51.027344 115.007812 51.019531 C 114.386719 50.96875 113.871094 50.515625 113.742188 49.902344 C 113.617188 49.292969 113.910156 48.671875 114.460938 48.378906 L 120.480469 45.179688 C 119.167969 44.789062 117.464844 44.371094 115.507812 44.101562 C 109.386719 43.257812 103.773438 44.167969 98.824219 46.800781 C 98.339844 47.058594 97.75 47.011719 97.3125 46.683594 C 96.875 46.351562 96.671875 45.796875 96.789062 45.261719 Z M 97.816406 40.527344 " fill-opacity="1" fill-rule="nonzero"/></g><path fill="#000000" d="M 177.078125 108.003906 C 176.675781 108.003906 176.277344 107.832031 175.996094 107.5 C 175.5 106.902344 175.582031 106.015625 176.179688 105.519531 L 183.546875 99.390625 L 176.179688 93.261719 C 175.582031 92.765625 175.5 91.878906 175.996094 91.28125 C 176.496094 90.683594 177.382812 90.605469 177.976562 91.101562 L 186.648438 98.308594 C 186.96875 98.578125 187.152344 98.972656 187.152344 99.390625 C 187.152344 99.808594 186.96875 100.203125 186.648438 100.472656 L 177.976562 107.679688 C 177.714844 107.898438 177.398438 108.003906 177.078125 108.003906 Z M 177.078125 108.003906 " fill-opacity="1" fill-rule="nonzero"/><path fill="#000000" d="M 160.285156 108.003906 C 159.96875 108.003906 159.648438 107.898438 159.386719 107.679688 L 150.71875 100.472656 C 150.398438 100.203125 150.210938 99.808594 150.210938 99.390625 C 150.210938 98.972656 150.398438 98.578125 150.71875 98.308594 L 159.386719 91.101562 C 159.984375 90.605469 160.871094 90.683594 161.367188 91.28125 C 161.863281 91.878906 161.78125 92.765625 161.1875 93.261719 L 153.816406 99.390625 L 161.1875 105.519531 C 161.78125 106.015625 161.863281 106.902344 161.367188 107.5 C 161.089844 107.832031 160.6875 108.003906 160.285156 108.003906 Z M 160.285156 108.003906 " fill-opacity="1" fill-rule="nonzero"/><path fill="#000000" d="M 165.984375 110.621094 C 165.875 110.621094 165.761719 110.609375 165.648438 110.582031 C 164.894531 110.398438 164.433594 109.636719 164.617188 108.882812 L 169.40625 89.316406 C 169.589844 88.5625 170.351562 88.101562 171.105469 88.285156 C 171.859375 88.46875 172.320312 89.230469 172.136719 89.984375 L 167.347656 109.550781 C 167.191406 110.191406 166.617188 110.621094 165.984375 110.621094 Z M 165.984375 110.621094 " fill-opacity="1" fill-rule="nonzero"/><path fill="#ffc180" d="M 217.984375 108.726562 L 297.242188 108.726562 L 297.242188 134.089844 L 217.984375 134.089844 Z M 217.984375 108.726562 " fill-opacity="1" fill-rule="nonzero"/><path fill="#000000" d="M 297.242188 135.492188 L 217.984375 135.492188 C 217.207031 135.492188 216.578125 134.863281 216.578125 134.089844 L 216.578125 108.726562 C 216.578125 107.949219 217.207031 107.320312 217.984375 107.320312 L 297.242188 107.320312 C 298.019531 107.320312 298.648438 107.949219 298.648438 108.726562 L 298.648438 134.089844 C 298.648438 134.863281 298.019531 135.492188 297.242188 135.492188 Z M 219.390625 132.683594 L 295.835938 132.683594 L 295.835938 110.128906 L 219.390625 110.128906 Z M 219.390625 132.683594 " fill-opacity="1" fill-rule="nonzero"/><path fill="#ffffff" d="M 217.984375 84.636719 L 297.242188 84.636719 L 297.242188 108.726562 L 217.984375 108.726562 Z M 217.984375 84.636719 " fill-opacity="1" fill-rule="nonzero"/><path fill="#000000" d="M 297.242188 110.128906 L 217.984375 110.128906 C 217.207031 110.128906 216.578125 109.5 216.578125 108.726562 L 216.578125 84.636719 C 216.578125 83.859375 217.207031 83.230469 217.984375 83.230469 L 297.242188 83.230469 C 298.019531 83.230469 298.648438 83.859375 298.648438 84.636719 L 298.648438 108.726562 C 298.648438 109.5 298.019531 110.128906 297.242188 110.128906 Z M 219.390625 107.320312 L 295.835938 107.320312 L 295.835938 86.042969 L 219.390625 86.042969 Z M 219.390625 107.320312 " fill-opacity="1" fill-rule="nonzero"/><path fill="#026bbf" d="M 217.984375 59.410156 L 297.242188 59.410156 L 297.242188 84.636719 L 217.984375 84.636719 Z M 217.984375 59.410156 " fill-opacity="1" fill-rule="nonzero"/><path fill="#000000" d="M 297.242188 86.042969 L 217.984375 86.042969 C 217.207031 86.042969 216.578125 85.414062 216.578125 84.636719 L 216.578125 59.410156 C 216.578125 58.632812 217.207031 58.003906 217.984375 58.003906 L 297.242188 58.003906 C 298.019531 58.003906 298.648438 58.632812 298.648438 59.410156 L 298.648438 84.636719 C 298.648438 85.414062 298.019531 86.042969 297.242188 86.042969 Z M 219.390625 83.230469 L 295.835938 83.230469 L 295.835938 60.816406 L 219.390625 60.816406 Z M 219.390625 83.230469 " fill-opacity="1" fill-rule="nonzero"/><path fill="#000000" d="M 308.5625 164.914062 C 307.785156 164.914062 307.15625 164.285156 307.15625 163.507812 L 307.15625 149.929688 C 307.15625 149.457031 306.773438 149.070312 306.300781 149.070312 L 208.925781 149.070312 C 208.453125 149.070312 208.070312 149.457031 208.070312 149.929688 L 208.070312 163.507812 C 208.070312 164.285156 207.441406 164.914062 206.664062 164.914062 C 205.886719 164.914062 205.257812 164.285156 205.257812 163.507812 L 205.257812 149.929688 C 205.257812 147.90625 206.902344 146.261719 208.925781 146.261719 L 306.300781 146.261719 C 308.324219 146.261719 309.96875 147.90625 309.96875 149.929688 L 309.96875 163.507812 C 309.96875 164.285156 309.339844 164.914062 308.5625 164.914062 Z M 308.5625 164.914062 " fill-opacity="1" fill-rule="nonzero"/><path fill="#000000" d="M 257.613281 164.914062 C 256.835938 164.914062 256.207031 164.285156 256.207031 163.507812 L 256.207031 134.089844 C 256.207031 133.3125 256.835938 132.683594 257.613281 132.683594 C 258.390625 132.683594 259.019531 133.3125 259.019531 134.089844 L 259.019531 163.507812 C 259.019531 164.285156 258.390625 164.914062 257.613281 164.914062 Z M 257.613281 164.914062 " fill-opacity="1" fill-rule="nonzero"/><path fill="#ffc180" d="M 238.367188 163.507812 L 276.859375 163.507812 L 276.859375 179.347656 L 238.367188 179.347656 Z M 238.367188 163.507812 " fill-opacity="1" fill-rule="nonzero"/><path fill="#000000" d="M 276.863281 180.753906 L 238.367188 180.753906 C 237.589844 180.753906 236.957031 180.125 236.957031 179.347656 L 236.957031 163.507812 C 236.957031 162.730469 237.589844 162.101562 238.367188 162.101562 L 276.863281 162.101562 C 277.636719 162.101562 278.269531 162.730469 278.269531 163.507812 L 278.269531 179.347656 C 278.269531 180.125 277.636719 180.753906 276.863281 180.753906 Z M 239.773438 177.941406 L 275.453125 177.941406 L 275.453125 164.914062 L 239.773438 164.914062 Z M 239.773438 177.941406 " fill-opacity="1" fill-rule="nonzero"/><path fill="#ffc180" d="M 187.414062 163.507812 L 225.910156 163.507812 L 225.910156 179.347656 L 187.414062 179.347656 Z M 187.414062 163.507812 " fill-opacity="1" fill-rule="nonzero"/><path fill="#000000" d="M 225.910156 180.753906 L 187.414062 180.753906 C 186.636719 180.753906 186.007812 180.125 186.007812 179.347656 L 186.007812 163.507812 C 186.007812 162.730469 186.636719 162.101562 187.414062 162.101562 L 225.910156 162.101562 C 226.6875 162.101562 227.316406 162.730469 227.316406 163.507812 L 227.316406 179.347656 C 227.316406 180.125 226.6875 180.753906 225.910156 180.753906 Z M 188.820312 177.941406 L 224.503906 177.941406 L 224.503906 164.914062 L 188.820312 164.914062 Z M 188.820312 177.941406 " fill-opacity="1" fill-rule="nonzero"/><path fill="#026bbf" d="M 289.316406 163.507812 L 327.8125 163.507812 L 327.8125 179.347656 L 289.316406 179.347656 Z M 289.316406 163.507812 " fill-opacity="1" fill-rule="nonzero"/><g clip-path="url(#7cb689fb79)"><path fill="#000000" d="M 327.8125 180.753906 L 289.316406 180.753906 C 288.539062 180.753906 287.910156 180.125 287.910156 179.347656 L 287.910156 163.507812 C 287.910156 162.730469 288.539062 162.101562 289.316406 162.101562 L 327.8125 162.101562 C 328.589844 162.101562 329.21875 162.730469 329.21875 163.507812 L 329.21875 179.347656 C 329.21875 180.125 328.589844 180.753906 327.8125 180.753906 Z M 290.722656 177.941406 L 326.40625 177.941406 L 326.40625 164.914062 L 290.722656 164.914062 Z M 290.722656 177.941406 " fill-opacity="1" fill-rule="nonzero"/></g><path fill="#000000" d="M 271.199219 76.65625 C 270.421875 76.65625 269.792969 76.027344 269.792969 75.25 L 269.792969 68.460938 C 269.792969 67.683594 270.421875 67.054688 271.199219 67.054688 C 271.976562 67.054688 272.605469 67.683594 272.605469 68.460938 L 272.605469 75.25 C 272.605469 76.027344 271.976562 76.65625 271.199219 76.65625 Z M 271.199219 76.65625 " fill-opacity="1" fill-rule="nonzero"/><path fill="#000000" d="M 257.613281 76.65625 C 256.835938 76.65625 256.207031 76.027344 256.207031 75.25 L 256.207031 68.460938 C 256.207031 67.683594 256.835938 67.054688 257.613281 67.054688 C 258.390625 67.054688 259.019531 67.683594 259.019531 68.460938 L 259.019531 75.25 C 259.019531 76.027344 258.390625 76.65625 257.613281 76.65625 Z M 257.613281 76.65625 " fill-opacity="1" fill-rule="nonzero"/><path fill="#000000" d="M 244.027344 76.65625 C 243.25 76.65625 242.621094 76.027344 242.621094 75.25 L 242.621094 68.460938 C 242.621094 67.683594 243.25 67.054688 244.027344 67.054688 C 244.804688 67.054688 245.433594 67.683594 245.433594 68.460938 L 245.433594 75.25 C 245.433594 76.027344 244.804688 76.65625 244.027344 76.65625 Z M 244.027344 76.65625 " fill-opacity="1" fill-rule="nonzero"/><path fill="#000000" d="M 271.199219 76.65625 C 270.421875 76.65625 269.792969 76.027344 269.792969 75.25 L 269.792969 68.460938 C 269.792969 67.683594 270.421875 67.054688 271.199219 67.054688 C 271.976562 67.054688 272.605469 67.683594 272.605469 68.460938 L 272.605469 75.25 C 272.605469 76.027344 271.976562 76.65625 271.199219 76.65625 Z M 271.199219 76.65625 " fill-opacity="1" fill-rule="nonzero"/><path fill="#000000" d="M 257.613281 76.65625 C 256.835938 76.65625 256.207031 76.027344 256.207031 75.25 L 256.207031 68.460938 C 256.207031 67.683594 256.835938 67.054688 257.613281 67.054688 C 258.390625 67.054688 259.019531 67.683594 259.019531 68.460938 L 259.019531 75.25 C 259.019531 76.027344 258.390625 76.65625 257.613281 76.65625 Z M 257.613281 76.65625 " fill-opacity="1" fill-rule="nonzero"/><path fill="#000000" d="M 244.027344 76.65625 C 243.25 76.65625 242.621094 76.027344 242.621094 75.25 L 242.621094 68.460938 C 242.621094 67.683594 243.25 67.054688 244.027344 67.054688 C 244.804688 67.054688 245.433594 67.683594 245.433594 68.460938 L 245.433594 75.25 C 245.433594 76.027344 244.804688 76.65625 244.027344 76.65625 Z M 244.027344 76.65625 " fill-opacity="1" fill-rule="nonzero"/><path fill="#000000" d="M 271.199219 101.550781 C 270.421875 101.550781 269.792969 100.917969 269.792969 100.144531 L 269.792969 93.355469 C 269.792969 92.578125 270.421875 91.949219 271.199219 91.949219 C 271.976562 91.949219 272.605469 92.578125 272.605469 93.355469 L 272.605469 100.144531 C 272.605469 100.917969 271.976562 101.550781 271.199219 101.550781 Z M 271.199219 101.550781 " fill-opacity="1" fill-rule="nonzero"/><path fill="#000000" d="M 257.613281 101.550781 C 256.835938 101.550781 256.207031 100.917969 256.207031 100.144531 L 256.207031 93.355469 C 256.207031 92.578125 256.835938 91.949219 257.613281 91.949219 C 258.390625 91.949219 259.019531 92.578125 259.019531 93.355469 L 259.019531 100.144531 C 259.019531 100.917969 258.390625 101.550781 257.613281 101.550781 Z M 257.613281 101.550781 " fill-opacity="1" fill-rule="nonzero"/><path fill="#000000" d="M 244.027344 101.550781 C 243.25 101.550781 242.621094 100.917969 242.621094 100.144531 L 242.621094 93.355469 C 242.621094 92.578125 243.25 91.949219 244.027344 91.949219 C 244.804688 91.949219 245.433594 92.578125 245.433594 93.355469 L 245.433594 100.144531 C 245.433594 100.917969 244.804688 101.550781 244.027344 101.550781 Z M 244.027344 101.550781 " fill-opacity="1" fill-rule="nonzero"/><path fill="#000000" d="M 271.199219 126.441406 C 270.421875 126.441406 269.792969 125.8125 269.792969 125.035156 L 269.792969 118.246094 C 269.792969 117.472656 270.421875 116.839844 271.199219 116.839844 C 271.976562 116.839844 272.605469 117.472656 272.605469 118.246094 L 272.605469 125.035156 C 272.605469 125.8125 271.976562 126.441406 271.199219 126.441406 Z M 271.199219 126.441406 " fill-opacity="1" fill-rule="nonzero"/><path fill="#000000" d="M 257.613281 126.441406 C 256.835938 126.441406 256.207031 125.8125 256.207031 125.035156 L 256.207031 118.246094 C 256.207031 117.472656 256.835938 116.839844 257.613281 116.839844 C 258.390625 116.839844 259.019531 117.472656 259.019531 118.246094 L 259.019531 125.035156 C 259.019531 125.8125 258.390625 126.441406 257.613281 126.441406 Z M 257.613281 126.441406 " fill-opacity="1" fill-rule="nonzero"/><path fill="#000000" d="M 244.027344 126.441406 C 243.25 126.441406 242.621094 125.8125 242.621094 125.035156 L 242.621094 118.246094 C 242.621094 117.472656 243.25 116.839844 244.027344 116.839844 C 244.804688 116.839844 245.433594 117.472656 245.433594 118.246094 L 245.433594 125.035156 C 245.433594 125.8125 244.804688 126.441406 244.027344 126.441406 Z M 244.027344 126.441406 " fill-opacity="1" fill-rule="nonzero"/><path fill="#000000" d="M 154.589844 341.558594 L 127.902344 341.558594 C 125.046875 341.558594 122.726562 339.238281 122.726562 336.386719 L 122.726562 322.074219 C 122.726562 321.296875 123.355469 320.667969 124.132812 320.667969 C 124.910156 320.667969 125.539062 321.296875 125.539062 322.074219 L 125.539062 336.386719 C 125.539062 337.6875 126.597656 338.746094 127.902344 338.746094 L 154.589844 338.746094 C 155.363281 338.746094 155.996094 339.375 155.996094 340.152344 C 155.996094 340.929688 155.363281 341.558594 154.589844 341.558594 Z M 154.589844 341.558594 " fill-opacity="1" fill-rule="nonzero"/><path fill="#000000" d="M 100.308594 296.710938 L 91.472656 296.710938 C 88.617188 296.710938 86.296875 294.390625 86.296875 291.539062 L 86.296875 243.066406 C 86.296875 242.289062 86.925781 241.660156 87.703125 241.660156 C 88.480469 241.660156 89.109375 242.289062 89.109375 243.066406 L 89.109375 291.539062 C 89.109375 292.839844 90.167969 293.902344 91.472656 293.902344 L 100.308594 293.902344 C 101.085938 293.902344 101.714844 294.53125 101.714844 295.304688 C 101.714844 296.082031 101.085938 296.710938 100.308594 296.710938 Z M 100.308594 296.710938 " fill-opacity="1" fill-rule="nonzero"/><path fill="#000000" d="M 100.308594 331.460938 C 99.53125 331.460938 98.902344 330.832031 98.902344 330.058594 L 98.902344 266.375 C 98.902344 263.519531 101.222656 261.199219 104.078125 261.199219 L 114.46875 261.199219 C 115.246094 261.199219 115.875 261.828125 115.875 262.605469 C 115.875 263.382812 115.246094 264.011719 114.46875 264.011719 L 104.078125 264.011719 C 102.773438 264.011719 101.714844 265.070312 101.714844 266.375 L 101.714844 330.058594 C 101.714844 330.832031 101.085938 331.460938 100.308594 331.460938 Z M 100.308594 331.460938 " fill-opacity="1" fill-rule="nonzero"/><path fill="#026bbf" d="M 165.089844 340.753906 C 165.089844 341.089844 165.058594 341.417969 164.992188 341.746094 C 164.925781 342.074219 164.832031 342.390625 164.703125 342.699219 C 164.574219 343.007812 164.417969 343.300781 164.230469 343.578125 C 164.046875 343.855469 163.835938 344.113281 163.597656 344.351562 C 163.363281 344.585938 163.105469 344.796875 162.828125 344.980469 C 162.550781 345.167969 162.257812 345.324219 161.949219 345.453125 C 161.640625 345.578125 161.320312 345.675781 160.992188 345.742188 C 160.667969 345.808594 160.335938 345.839844 160 345.839844 C 159.667969 345.839844 159.335938 345.808594 159.007812 345.742188 C 158.679688 345.675781 158.363281 345.578125 158.054688 345.453125 C 157.746094 345.324219 157.453125 345.167969 157.175781 344.980469 C 156.894531 344.796875 156.640625 344.585938 156.402344 344.351562 C 156.167969 344.113281 155.957031 343.855469 155.769531 343.578125 C 155.585938 343.300781 155.429688 343.007812 155.300781 342.699219 C 155.171875 342.390625 155.074219 342.074219 155.011719 341.746094 C 154.945312 341.417969 154.914062 341.089844 154.914062 340.753906 C 154.914062 340.421875 154.945312 340.089844 155.011719 339.761719 C 155.074219 339.433594 155.171875 339.117188 155.300781 338.808594 C 155.429688 338.5 155.585938 338.207031 155.769531 337.929688 C 155.957031 337.652344 156.167969 337.394531 156.402344 337.15625 C 156.640625 336.921875 156.894531 336.710938 157.175781 336.527344 C 157.453125 336.339844 157.746094 336.183594 158.054688 336.054688 C 158.363281 335.929688 158.679688 335.832031 159.007812 335.765625 C 159.335938 335.703125 159.667969 335.667969 160 335.667969 C 160.335938 335.667969 160.667969 335.703125 160.992188 335.765625 C 161.320312 335.832031 161.640625 335.929688 161.949219 336.054688 C 162.257812 336.183594 162.550781 336.339844 162.828125 336.527344 C 163.105469 336.710938 163.363281 336.921875 163.597656 337.15625 C 163.835938 337.394531 164.046875 337.652344 164.230469 337.929688 C 164.417969 338.207031 164.574219 338.5 164.703125 338.808594 C 164.832031 339.117188 164.925781 339.433594 164.992188 339.761719 C 165.058594 340.089844 165.089844 340.421875 165.089844 340.753906 Z M 165.089844 340.753906 " fill-opacity="1" fill-rule="nonzero"/><g clip-path="url(#429d8eafc0)"><path fill="#000000" d="M 160 347.246094 C 156.417969 347.246094 153.507812 344.332031 153.507812 340.753906 C 153.507812 337.175781 156.417969 334.261719 160 334.261719 C 163.582031 334.261719 166.496094 337.175781 166.496094 340.753906 C 166.496094 344.332031 163.582031 347.246094 160 347.246094 Z M 160 337.074219 C 157.972656 337.074219 156.320312 338.726562 156.320312 340.753906 C 156.320312 342.78125 157.972656 344.433594 160 344.433594 C 162.03125 344.433594 163.683594 342.78125 163.683594 340.753906 C 163.683594 338.726562 162.03125 337.074219 160 337.074219 Z M 160 337.074219 " fill-opacity="1" fill-rule="nonzero"/></g><path fill="#026bbf" d="M 105.394531 334.296875 C 105.394531 334.628906 105.363281 334.960938 105.296875 335.285156 C 105.234375 335.613281 105.136719 335.933594 105.007812 336.242188 C 104.882812 336.550781 104.722656 336.84375 104.539062 337.121094 C 104.351562 337.398438 104.140625 337.65625 103.90625 337.890625 C 103.667969 338.125 103.414062 338.335938 103.136719 338.523438 C 102.855469 338.707031 102.5625 338.867188 102.253906 338.992188 C 101.945312 339.121094 101.628906 339.21875 101.300781 339.28125 C 100.972656 339.347656 100.640625 339.378906 100.308594 339.378906 C 99.972656 339.378906 99.644531 339.347656 99.316406 339.28125 C 98.988281 339.21875 98.667969 339.121094 98.359375 338.992188 C 98.050781 338.867188 97.757812 338.707031 97.480469 338.523438 C 97.203125 338.335938 96.945312 338.125 96.710938 337.890625 C 96.472656 337.65625 96.261719 337.398438 96.078125 337.121094 C 95.890625 336.84375 95.734375 336.550781 95.605469 336.242188 C 95.480469 335.933594 95.382812 335.613281 95.316406 335.285156 C 95.25 334.960938 95.21875 334.628906 95.21875 334.296875 C 95.21875 333.960938 95.25 333.628906 95.316406 333.304688 C 95.382812 332.976562 95.480469 332.65625 95.605469 332.347656 C 95.734375 332.039062 95.890625 331.746094 96.078125 331.46875 C 96.261719 331.191406 96.472656 330.933594 96.710938 330.699219 C 96.945312 330.464844 97.203125 330.253906 97.480469 330.066406 C 97.757812 329.882812 98.050781 329.722656 98.359375 329.597656 C 98.667969 329.46875 98.988281 329.371094 99.316406 329.308594 C 99.644531 329.242188 99.972656 329.210938 100.308594 329.210938 C 100.640625 329.210938 100.972656 329.242188 101.300781 329.308594 C 101.628906 329.371094 101.945312 329.46875 102.253906 329.597656 C 102.5625 329.722656 102.855469 329.882812 103.136719 330.066406 C 103.414062 330.253906 103.667969 330.464844 103.90625 330.699219 C 104.140625 330.933594 104.351562 331.191406 104.539062 331.46875 C 104.722656 331.746094 104.882812 332.039062 105.007812 332.347656 C 105.136719 332.65625 105.234375 332.976562 105.296875 333.304688 C 105.363281 333.628906 105.394531 333.960938 105.394531 334.296875 Z M 105.394531 334.296875 " fill-opacity="1" fill-rule="nonzero"/><path fill="#000000" d="M 100.308594 340.785156 C 96.726562 340.785156 93.8125 337.875 93.8125 334.296875 C 93.8125 330.714844 96.726562 327.804688 100.308594 327.804688 C 103.890625 327.804688 106.804688 330.714844 106.804688 334.296875 C 106.804688 337.875 103.890625 340.785156 100.308594 340.785156 Z M 100.308594 330.617188 C 98.277344 330.617188 96.625 332.265625 96.625 334.296875 C 96.625 336.324219 98.277344 337.972656 100.308594 337.972656 C 102.339844 337.972656 103.988281 336.324219 103.988281 334.296875 C 103.988281 332.265625 102.339844 330.617188 100.308594 330.617188 Z M 100.308594 330.617188 " fill-opacity="1" fill-rule="nonzero"/><path fill="#026bbf" d="M 92.789062 238.828125 C 92.789062 239.160156 92.757812 239.492188 92.691406 239.820312 C 92.628906 240.148438 92.53125 240.464844 92.402344 240.773438 C 92.277344 241.082031 92.117188 241.375 91.933594 241.652344 C 91.746094 241.929688 91.535156 242.1875 91.300781 242.421875 C 91.0625 242.660156 90.808594 242.871094 90.527344 243.054688 C 90.25 243.242188 89.957031 243.398438 89.648438 243.527344 C 89.339844 243.652344 89.023438 243.75 88.695312 243.816406 C 88.367188 243.878906 88.035156 243.914062 87.703125 243.914062 C 87.367188 243.914062 87.035156 243.878906 86.710938 243.816406 C 86.382812 243.75 86.0625 243.652344 85.753906 243.527344 C 85.445312 243.398438 85.152344 243.242188 84.875 243.054688 C 84.597656 242.871094 84.339844 242.660156 84.105469 242.421875 C 83.867188 242.1875 83.65625 241.929688 83.472656 241.652344 C 83.285156 241.375 83.128906 241.082031 83 240.773438 C 82.871094 240.464844 82.777344 240.148438 82.710938 239.820312 C 82.644531 239.492188 82.613281 239.160156 82.613281 238.828125 C 82.613281 238.492188 82.644531 238.164062 82.710938 237.835938 C 82.777344 237.507812 82.871094 237.191406 83 236.882812 C 83.128906 236.574219 83.285156 236.28125 83.472656 236.003906 C 83.65625 235.726562 83.867188 235.46875 84.105469 235.230469 C 84.339844 234.996094 84.597656 234.785156 84.875 234.597656 C 85.152344 234.414062 85.445312 234.257812 85.753906 234.128906 C 86.0625 234 86.382812 233.90625 86.710938 233.839844 C 87.035156 233.773438 87.367188 233.742188 87.703125 233.742188 C 88.035156 233.742188 88.367188 233.773438 88.695312 233.839844 C 89.023438 233.90625 89.339844 234 89.648438 234.128906 C 89.957031 234.257812 90.25 234.414062 90.527344 234.597656 C 90.808594 234.785156 91.0625 234.996094 91.300781 235.230469 C 91.535156 235.46875 91.746094 235.726562 91.933594 236.003906 C 92.117188 236.28125 92.277344 236.574219 92.402344 236.882812 C 92.53125 237.191406 92.628906 237.507812 92.691406 237.835938 C 92.757812 238.164062 92.789062 238.492188 92.789062 238.828125 Z M 92.789062 238.828125 " fill-opacity="1" fill-rule="nonzero"/><path fill="#000000" d="M 87.703125 245.320312 C 84.121094 245.320312 81.207031 242.40625 81.207031 238.828125 C 81.207031 235.25 84.121094 232.335938 87.703125 232.335938 C 91.285156 232.335938 94.199219 235.25 94.199219 238.828125 C 94.199219 242.40625 91.285156 245.320312 87.703125 245.320312 Z M 87.703125 235.148438 C 85.671875 235.148438 84.019531 236.796875 84.019531 238.828125 C 84.019531 240.855469 85.671875 242.507812 87.703125 242.507812 C 89.730469 242.507812 91.382812 240.855469 91.382812 238.828125 C 91.382812 236.796875 89.730469 235.148438 87.703125 235.148438 Z M 87.703125 235.148438 " fill-opacity="1" fill-rule="nonzero"/><path fill="#ffffff" d="M 241.984375 230.714844 L 241.984375 310.9375 C 241.984375 316.269531 237.65625 320.59375 232.324219 320.59375 L 124.128906 320.59375 C 118.792969 320.59375 114.464844 316.269531 114.464844 310.9375 L 114.464844 230.714844 Z M 241.984375 230.714844 " fill-opacity="1" fill-rule="nonzero"/><path fill="#000000" d="M 232.324219 322 L 124.128906 322 C 118.023438 322 113.058594 317.039062 113.058594 310.9375 L 113.058594 230.714844 C 113.058594 229.9375 113.6875 229.308594 114.464844 229.308594 L 241.988281 229.308594 C 242.761719 229.308594 243.394531 229.9375 243.394531 230.714844 L 243.394531 310.9375 C 243.394531 317.039062 238.425781 322 232.324219 322 Z M 115.871094 232.121094 L 115.871094 310.9375 C 115.871094 315.488281 119.574219 319.191406 124.128906 319.191406 L 232.324219 319.191406 C 236.875 319.191406 240.578125 315.488281 240.578125 310.9375 L 240.578125 232.121094 Z M 115.871094 232.121094 " fill-opacity="1" fill-rule="nonzero"/><path fill="#026bbf" d="M 241.984375 220.34375 L 241.984375 230.714844 L 114.464844 230.714844 L 114.464844 220.34375 C 114.464844 214.996094 118.792969 210.683594 124.128906 210.683594 L 232.324219 210.683594 C 237.65625 210.683594 241.984375 214.996094 241.984375 220.34375 Z M 241.984375 220.34375 " fill-opacity="1" fill-rule="nonzero"/><path fill="#000000" d="M 241.984375 232.121094 L 114.464844 232.121094 C 113.6875 232.121094 113.058594 231.492188 113.058594 230.714844 L 113.058594 220.34375 C 113.058594 214.242188 118.023438 209.277344 124.128906 209.277344 L 232.324219 209.277344 C 238.425781 209.277344 243.394531 214.242188 243.394531 220.34375 L 243.394531 230.714844 C 243.394531 231.492188 242.761719 232.121094 241.984375 232.121094 Z M 115.871094 229.308594 L 240.578125 229.308594 L 240.578125 220.34375 C 240.578125 215.792969 236.875 212.089844 232.324219 212.089844 L 124.128906 212.089844 C 119.574219 212.089844 115.871094 215.792969 115.871094 220.34375 Z M 115.871094 229.308594 " fill-opacity="1" fill-rule="nonzero"/><path fill="#ffc180" d="M 160.585938 273.238281 L 183.164062 273.238281 C 183.164062 285.613281 172.972656 295.800781 160.585938 295.800781 C 148.199219 295.800781 138.007812 285.613281 138.007812 273.238281 C 138.007812 260.859375 148.199219 250.671875 160.585938 250.671875 Z M 160.585938 273.238281 " fill-opacity="1" fill-rule="nonzero"/><path fill="#000000" d="M 160.585938 297.207031 C 154.21875 297.207031 148.207031 294.703125 143.65625 290.152344 C 139.109375 285.605469 136.601562 279.597656 136.601562 273.238281 C 136.601562 266.875 139.109375 260.867188 143.65625 256.320312 C 148.207031 251.773438 154.21875 249.265625 160.585938 249.265625 C 161.363281 249.265625 161.992188 249.898438 161.992188 250.671875 L 161.992188 271.832031 L 183.164062 271.832031 C 183.941406 271.832031 184.570312 272.460938 184.570312 273.238281 C 184.570312 279.597656 182.066406 285.605469 177.515625 290.152344 C 172.964844 294.703125 166.953125 297.207031 160.585938 297.207031 Z M 159.179688 252.125 C 148.160156 252.851562 139.414062 262.042969 139.414062 273.238281 C 139.414062 284.902344 148.914062 294.394531 160.585938 294.394531 C 171.789062 294.394531 180.984375 285.65625 181.710938 274.640625 L 160.585938 274.640625 C 159.808594 274.640625 159.179688 274.011719 159.179688 273.238281 Z M 159.179688 252.125 " fill-opacity="1" fill-rule="nonzero"/><path fill="#ffc180" d="M 169.808594 264.363281 L 169.808594 248.550781 C 174 248.550781 178.027344 250.21875 180.992188 253.183594 C 183.960938 256.144531 185.628906 260.171875 185.628906 264.363281 Z M 169.808594 264.363281 " fill-opacity="1" fill-rule="nonzero"/><path fill="#000000" d="M 185.628906 265.765625 L 169.808594 265.765625 C 169.03125 265.765625 168.402344 265.136719 168.402344 264.363281 L 168.402344 248.550781 C 168.402344 247.777344 169.03125 247.144531 169.808594 247.144531 C 174.34375 247.144531 178.78125 248.984375 181.988281 252.1875 C 185.195312 255.394531 187.035156 259.828125 187.035156 264.363281 C 187.035156 265.136719 186.402344 265.765625 185.628906 265.765625 Z M 171.214844 262.957031 L 184.148438 262.957031 C 183.820312 259.664062 182.347656 256.523438 180 254.175781 C 177.648438 251.828125 174.507812 250.355469 171.214844 250.027344 Z M 171.214844 262.957031 " fill-opacity="1" fill-rule="nonzero"/><path fill="#026bbf" d="M 187.871094 283.78125 L 199.070312 283.78125 L 199.070312 295.800781 L 187.871094 295.800781 Z M 187.871094 283.78125 " fill-opacity="1" fill-rule="nonzero"/><path fill="#000000" d="M 199.070312 297.207031 C 198.292969 297.207031 197.664062 296.578125 197.664062 295.800781 L 197.664062 285.1875 L 189.28125 285.1875 L 189.28125 295.800781 C 189.28125 296.578125 188.648438 297.207031 187.871094 297.207031 C 187.097656 297.207031 186.464844 296.578125 186.464844 295.800781 L 186.464844 283.78125 C 186.464844 283.003906 187.097656 282.375 187.871094 282.375 L 199.070312 282.375 C 199.847656 282.375 200.476562 283.003906 200.476562 283.78125 L 200.476562 295.800781 C 200.476562 296.578125 199.847656 297.207031 199.070312 297.207031 Z M 199.070312 297.207031 " fill-opacity="1" fill-rule="nonzero"/><path fill="#026bbf" d="M 205.84375 266.351562 L 217.03125 266.351562 L 217.03125 295.800781 L 205.84375 295.800781 Z M 205.84375 266.351562 " fill-opacity="1" fill-rule="nonzero"/><path fill="#000000" d="M 217.03125 297.207031 C 216.253906 297.207031 215.621094 296.578125 215.621094 295.800781 L 215.621094 267.757812 L 207.25 267.757812 L 207.25 295.800781 C 207.25 296.578125 206.617188 297.207031 205.84375 297.207031 C 205.066406 297.207031 204.433594 296.578125 204.433594 295.800781 L 204.433594 266.351562 C 204.433594 265.578125 205.066406 264.945312 205.84375 264.945312 L 217.03125 264.945312 C 217.804688 264.945312 218.4375 265.578125 218.4375 266.351562 L 218.4375 295.800781 C 218.4375 296.578125 217.804688 297.207031 217.03125 297.207031 Z M 217.03125 297.207031 " fill-opacity="1" fill-rule="nonzero"/><path fill="#000000" d="M 217.03125 297.207031 L 187.871094 297.207031 C 187.097656 297.207031 186.464844 296.578125 186.464844 295.800781 C 186.464844 295.023438 187.097656 294.394531 187.871094 294.394531 L 217.03125 294.394531 C 217.804688 294.394531 218.4375 295.023438 218.4375 295.800781 C 218.4375 296.578125 217.804688 297.207031 217.03125 297.207031 Z M 217.03125 297.207031 " fill-opacity="1" fill-rule="nonzero"/><path fill="#000000" d="M 132.453125 221.9375 L 124.132812 221.9375 C 123.355469 221.9375 122.726562 221.308594 122.726562 220.53125 C 122.726562 219.753906 123.355469 219.125 124.132812 219.125 L 132.453125 219.125 C 133.230469 219.125 133.859375 219.753906 133.859375 220.53125 C 133.859375 221.308594 133.230469 221.9375 132.453125 221.9375 Z M 132.453125 221.9375 " fill-opacity="1" fill-rule="nonzero"/></svg>