<svg xmlns="http://www.w3.org/2000/svg" xmlns:xlink="http://www.w3.org/1999/xlink" width="500" zoomAndPan="magnify" viewBox="0 0 375 374.999991" height="500" preserveAspectRatio="xMidYMid meet" version="1.0"><defs><clipPath id="8cd92be126"><path d="M 136 31.933594 L 230 31.933594 L 230 44 L 136 44 Z M 136 31.933594 " clip-rule="nonzero"/></clipPath><clipPath id="28acdaac90"><path d="M 170 301 L 212 301 L 212 343.183594 L 170 343.183594 Z M 170 301 " clip-rule="nonzero"/></clipPath><clipPath id="09235ce8ff"><path d="M 21.339844 74 L 56 74 L 56 109 L 21.339844 109 Z M 21.339844 74 " clip-rule="nonzero"/></clipPath><clipPath id="fe94d83316"><path d="M 21.339844 135 L 56 135 L 56 170 L 21.339844 170 Z M 21.339844 135 " clip-rule="nonzero"/></clipPath><clipPath id="a35d2b38c7"><path d="M 202 129 L 353.589844 129 L 353.589844 208 L 202 208 Z M 202 129 " clip-rule="nonzero"/></clipPath><clipPath id="07832a9be3"><path d="M 202 108 L 353.589844 108 L 353.589844 187 L 202 187 Z M 202 108 " clip-rule="nonzero"/></clipPath></defs><g clip-path="url(#8cd92be126)"><path fill="#000000" d="M 138.429688 43.105469 C 138.40625 43.105469 138.382812 43.105469 138.359375 43.105469 C 137.492188 43.066406 136.816406 42.332031 136.851562 41.464844 C 136.882812 40.757812 137.371094 40.183594 138.019531 40.011719 C 143.773438 38.046875 149.707031 36.417969 155.652344 35.164062 C 156.5 34.988281 157.335938 35.53125 157.511719 36.378906 C 157.691406 37.230469 157.148438 38.0625 156.300781 38.242188 C 150.445312 39.472656 144.601562 41.082031 138.9375 43.023438 C 138.773438 43.078125 138.601562 43.105469 138.429688 43.105469 Z M 228.113281 40.828125 C 227.96875 40.828125 227.824219 40.808594 227.679688 40.765625 C 221.929688 39.125 216.007812 37.820312 210.082031 36.890625 C 209.226562 36.753906 208.640625 35.949219 208.773438 35.09375 C 208.910156 34.234375 209.714844 33.648438 210.570312 33.785156 C 216.621094 34.734375 222.667969 36.066406 228.542969 37.742188 C 229.378906 37.980469 229.859375 38.851562 229.621094 39.6875 C 229.425781 40.375 228.796875 40.828125 228.113281 40.828125 Z M 173.992188 35.621094 C 173.183594 35.621094 172.496094 35.003906 172.425781 34.183594 C 172.351562 33.316406 172.992188 32.558594 173.859375 32.484375 C 178.136719 32.117188 182.492188 31.933594 186.804688 31.933594 C 188.609375 31.933594 190.445312 31.964844 192.253906 32.027344 C 193.121094 32.058594 193.796875 32.789062 193.765625 33.65625 C 193.738281 34.523438 193.007812 35.199219 192.140625 35.171875 C 190.371094 35.105469 188.574219 35.074219 186.804688 35.074219 C 182.582031 35.074219 178.316406 35.257812 174.125 35.613281 C 174.082031 35.617188 174.035156 35.621094 173.992188 35.621094 Z M 173.992188 35.621094 " fill-opacity="1" fill-rule="nonzero"/></g><path fill="#000000" d="M 154.144531 331.136719 C 154.03125 331.136719 153.917969 331.125 153.800781 331.097656 C 147.867188 329.769531 141.953125 328.0625 136.222656 326.019531 C 135.402344 325.730469 134.976562 324.828125 135.269531 324.011719 C 135.558594 323.195312 136.457031 322.765625 137.273438 323.058594 C 142.886719 325.054688 148.675781 326.730469 154.488281 328.03125 C 155.332031 328.21875 155.867188 329.058594 155.675781 329.90625 C 155.511719 330.636719 154.863281 331.136719 154.144531 331.136719 Z M 120.128906 318.933594 C 119.875 318.933594 119.613281 318.871094 119.375 318.738281 L 107.417969 312.164062 C 107.394531 312.148438 107.371094 312.136719 107.347656 312.121094 C 106.070312 311.332031 104.789062 310.511719 103.539062 309.683594 C 102.816406 309.203125 102.617188 308.230469 103.097656 307.503906 C 103.574219 306.78125 104.550781 306.582031 105.273438 307.0625 C 106.488281 307.863281 107.730469 308.660156 108.96875 309.429688 L 120.886719 315.984375 C 121.648438 316.402344 121.925781 317.359375 121.507812 318.117188 C 121.222656 318.640625 120.683594 318.933594 120.128906 318.933594 Z M 89.933594 299.058594 C 89.574219 299.058594 89.210938 298.9375 88.917969 298.683594 C 84.285156 294.742188 79.84375 290.480469 75.71875 286.011719 C 75.128906 285.371094 75.167969 284.378906 75.804688 283.789062 C 76.441406 283.199219 77.4375 283.238281 78.023438 283.875 C 82.066406 288.253906 86.414062 292.429688 90.953125 296.289062 C 91.613281 296.851562 91.691406 297.84375 91.128906 298.503906 C 90.820312 298.871094 90.378906 299.058594 89.933594 299.058594 Z M 65.410156 272.492188 C 64.921875 272.492188 64.441406 272.265625 64.132812 271.839844 C 60.570312 266.902344 57.277344 261.699219 54.34375 256.375 C 53.921875 255.617188 54.199219 254.660156 54.960938 254.242188 C 55.71875 253.820312 56.675781 254.097656 57.09375 254.859375 C 59.96875 260.070312 63.191406 265.164062 66.683594 270 C 67.191406 270.703125 67.03125 271.6875 66.328125 272.195312 C 66.050781 272.394531 65.726562 272.492188 65.410156 272.492188 Z M 47.953125 240.824219 C 47.332031 240.824219 46.742188 240.453125 46.496094 239.839844 C 44.226562 234.195312 42.28125 228.351562 40.714844 222.46875 C 40.492188 221.628906 40.988281 220.769531 41.828125 220.546875 C 42.667969 220.324219 43.527344 220.820312 43.75 221.660156 C 45.285156 227.417969 47.1875 233.140625 49.410156 238.667969 C 49.734375 239.472656 49.34375 240.386719 48.539062 240.710938 C 48.347656 240.789062 48.148438 240.824219 47.953125 240.824219 Z M 38.636719 205.878906 C 37.867188 205.878906 37.195312 205.3125 37.082031 204.527344 C 36.402344 199.648438 35.949219 194.667969 35.738281 189.71875 C 35.683594 188.414062 35.652344 187.320312 35.636719 186.273438 C 35.625 185.40625 36.316406 184.691406 37.183594 184.679688 C 38.046875 184.667969 38.765625 185.359375 38.777344 186.226562 C 38.792969 187.242188 38.824219 188.3125 38.878906 189.585938 C 39.082031 194.433594 39.527344 199.3125 40.195312 204.089844 C 40.316406 204.949219 39.714844 205.742188 38.855469 205.863281 C 38.785156 205.875 38.710938 205.878906 38.636719 205.878906 Z M 38.636719 205.878906 " fill-opacity="1" fill-rule="nonzero"/><path fill="#000000" d="M 230.730469 328.210938 C 230.058594 328.210938 229.4375 327.777344 229.230469 327.101562 C 228.976562 326.269531 229.441406 325.390625 230.273438 325.136719 C 235.902344 323.414062 241.484375 321.332031 246.863281 318.949219 C 247.660156 318.597656 248.585938 318.957031 248.9375 319.75 C 249.289062 320.542969 248.929688 321.472656 248.136719 321.824219 C 242.640625 324.257812 236.9375 326.386719 231.191406 328.144531 C 231.039062 328.191406 230.882812 328.210938 230.730469 328.210938 Z M 263.324219 313.605469 C 262.800781 313.605469 262.292969 313.347656 261.992188 312.871094 C 261.53125 312.136719 261.75 311.167969 262.484375 310.703125 L 272.210938 304.566406 C 273.90625 303.367188 275.601562 302.117188 277.25 300.847656 C 277.9375 300.316406 278.921875 300.445312 279.453125 301.132812 C 279.980469 301.820312 279.855469 302.808594 279.167969 303.339844 C 277.476562 304.644531 275.730469 305.929688 273.988281 307.160156 C 273.964844 307.171875 273.941406 307.1875 273.921875 307.203125 L 264.160156 313.363281 C 263.898438 313.527344 263.609375 313.605469 263.324219 313.605469 Z M 291.710938 291.910156 C 291.304688 291.910156 290.898438 291.753906 290.589844 291.4375 C 289.984375 290.820312 289.992188 289.824219 290.613281 289.214844 C 294.816406 285.09375 298.816406 280.675781 302.503906 276.085938 C 303.046875 275.40625 304.035156 275.300781 304.710938 275.84375 C 305.386719 276.386719 305.496094 277.375 304.953125 278.054688 C 301.191406 282.742188 297.105469 287.253906 292.8125 291.460938 C 292.503906 291.761719 292.109375 291.910156 291.710938 291.910156 Z M 314.082031 264.039062 C 313.796875 264.039062 313.507812 263.960938 313.25 263.800781 C 312.515625 263.339844 312.289062 262.371094 312.75 261.632812 C 315.863281 256.632812 318.707031 251.394531 321.199219 246.066406 C 321.566406 245.28125 322.5 244.941406 323.289062 245.308594 C 324.074219 245.675781 324.414062 246.613281 324.042969 247.398438 C 321.5 252.839844 318.597656 258.1875 315.414062 263.296875 C 315.117188 263.773438 314.605469 264.039062 314.082031 264.039062 Z M 329.214844 231.664062 C 329.054688 231.664062 328.886719 231.636719 328.726562 231.585938 C 327.902344 231.3125 327.453125 230.425781 327.722656 229.601562 C 329.558594 224.007812 331.070312 218.246094 332.222656 212.472656 C 332.390625 211.621094 333.21875 211.066406 334.070312 211.238281 C 334.921875 211.40625 335.472656 212.234375 335.304688 213.085938 C 334.128906 218.984375 332.582031 224.871094 330.707031 230.582031 C 330.492188 231.242188 329.875 231.664062 329.214844 231.664062 Z M 336.203125 196.613281 C 336.164062 196.613281 336.121094 196.609375 336.082031 196.605469 C 335.214844 196.539062 334.570312 195.785156 334.636719 194.917969 C 334.929688 191.105469 335.078125 187.226562 335.078125 183.382812 C 335.078125 182.511719 335.070312 181.625 335.054688 180.746094 C 335.035156 179.5625 335 178.371094 334.953125 177.199219 C 334.917969 176.332031 335.59375 175.601562 336.460938 175.566406 C 337.324219 175.53125 338.058594 176.203125 338.09375 177.070312 C 338.140625 178.265625 338.175781 179.484375 338.199219 180.691406 C 338.214844 181.585938 338.222656 182.492188 338.222656 183.386719 C 338.222656 187.308594 338.070312 191.269531 337.769531 195.160156 C 337.703125 195.984375 337.015625 196.613281 336.203125 196.613281 Z M 336.203125 196.613281 " fill-opacity="1" fill-rule="nonzero"/><path fill="#7bcafa" d="M 296.851562 183.335938 C 296.851562 185.136719 296.808594 186.933594 296.71875 188.730469 C 296.632812 190.53125 296.5 192.324219 296.324219 194.117188 C 296.144531 195.910156 295.925781 197.695312 295.664062 199.476562 C 295.398438 201.257812 295.089844 203.03125 294.738281 204.796875 C 294.386719 206.5625 293.996094 208.316406 293.558594 210.0625 C 293.121094 211.808594 292.640625 213.542969 292.117188 215.265625 C 291.597656 216.988281 291.03125 218.699219 290.425781 220.394531 C 289.820312 222.089844 289.171875 223.769531 288.484375 225.429688 C 287.796875 227.09375 287.066406 228.738281 286.296875 230.367188 C 285.527344 231.996094 284.71875 233.601562 283.871094 235.191406 C 283.023438 236.777344 282.136719 238.34375 281.210938 239.886719 C 280.285156 241.433594 279.324219 242.953125 278.324219 244.449219 C 277.324219 245.945312 276.289062 247.417969 275.21875 248.863281 C 274.144531 250.308594 273.039062 251.730469 271.898438 253.121094 C 270.753906 254.511719 269.582031 255.875 268.371094 257.207031 C 267.164062 258.542969 265.925781 259.847656 264.652344 261.117188 C 263.378906 262.390625 262.078125 263.632812 260.742188 264.84375 C 259.410156 266.050781 258.046875 267.226562 256.65625 268.367188 C 255.265625 269.511719 253.847656 270.617188 252.402344 271.691406 C 250.957031 272.761719 249.488281 273.800781 247.992188 274.800781 C 246.496094 275.800781 244.976562 276.761719 243.433594 277.6875 C 241.890625 278.613281 240.324219 279.5 238.738281 280.347656 C 237.152344 281.199219 235.542969 282.007812 233.917969 282.777344 C 232.292969 283.546875 230.648438 284.277344 228.984375 284.964844 C 227.324219 285.652344 225.644531 286.300781 223.949219 286.90625 C 222.257812 287.515625 220.546875 288.078125 218.828125 288.601562 C 217.105469 289.125 215.371094 289.605469 213.625 290.042969 C 211.882812 290.480469 210.125 290.875 208.359375 291.226562 C 206.597656 291.574219 204.824219 291.882812 203.042969 292.148438 C 201.265625 292.410156 199.480469 292.632812 197.6875 292.808594 C 195.898438 292.984375 194.105469 293.117188 192.308594 293.207031 C 190.511719 293.292969 188.710938 293.339844 186.914062 293.339844 C 185.113281 293.339844 183.316406 293.292969 181.519531 293.207031 C 179.722656 293.117188 177.929688 292.984375 176.136719 292.808594 C 174.347656 292.632812 172.5625 292.410156 170.78125 292.148438 C 169.003906 291.882812 167.230469 291.574219 165.464844 291.222656 C 163.699219 290.875 161.945312 290.480469 160.199219 290.042969 C 158.457031 289.605469 156.722656 289.125 155 288.601562 C 153.277344 288.078125 151.570312 287.515625 149.875 286.90625 C 148.183594 286.300781 146.503906 285.652344 144.839844 284.964844 C 143.179688 284.277344 141.535156 283.546875 139.910156 282.777344 C 138.28125 282.007812 136.675781 281.199219 135.089844 280.347656 C 133.5 279.5 131.9375 278.613281 130.394531 277.6875 C 128.851562 276.761719 127.332031 275.800781 125.835938 274.800781 C 124.339844 273.800781 122.867188 272.761719 121.421875 271.691406 C 119.976562 270.617188 118.558594 269.511719 117.167969 268.367188 C 115.777344 267.226562 114.417969 266.050781 113.082031 264.84375 C 111.75 263.632812 110.445312 262.390625 109.175781 261.117188 C 107.902344 259.847656 106.664062 258.542969 105.453125 257.207031 C 104.246094 255.875 103.070312 254.511719 101.929688 253.121094 C 100.789062 251.730469 99.679688 250.308594 98.609375 248.863281 C 97.539062 247.417969 96.503906 245.945312 95.503906 244.449219 C 94.503906 242.953125 93.539062 241.433594 92.617188 239.886719 C 91.691406 238.34375 90.804688 236.777344 89.957031 235.191406 C 89.109375 233.601562 88.300781 231.996094 87.53125 230.367188 C 86.761719 228.738281 86.03125 227.09375 85.34375 225.429688 C 84.65625 223.769531 84.007812 222.089844 83.402344 220.394531 C 82.796875 218.699219 82.230469 216.988281 81.707031 215.265625 C 81.1875 213.542969 80.707031 211.808594 80.269531 210.0625 C 79.832031 208.316406 79.4375 206.5625 79.085938 204.796875 C 78.734375 203.03125 78.429688 201.257812 78.164062 199.476562 C 77.902344 197.695312 77.679688 195.910156 77.503906 194.117188 C 77.328125 192.324219 77.195312 190.53125 77.105469 188.730469 C 77.019531 186.933594 76.972656 185.136719 76.972656 183.335938 C 76.972656 181.535156 77.019531 179.734375 77.105469 177.9375 C 77.195312 176.140625 77.328125 174.34375 77.503906 172.550781 C 77.679688 170.761719 77.902344 168.972656 78.164062 167.195312 C 78.429688 165.414062 78.734375 163.640625 79.085938 161.875 C 79.4375 160.109375 79.832031 158.351562 80.269531 156.605469 C 80.707031 154.859375 81.1875 153.125 81.707031 151.402344 C 82.230469 149.679688 82.796875 147.96875 83.402344 146.277344 C 84.007812 144.582031 84.65625 142.902344 85.34375 141.238281 C 86.03125 139.574219 86.761719 137.929688 87.53125 136.300781 C 88.300781 134.675781 89.109375 133.066406 89.957031 131.480469 C 90.804688 129.890625 91.691406 128.324219 92.617188 126.78125 C 93.539062 125.238281 94.503906 123.714844 95.503906 122.21875 C 96.503906 120.722656 97.539062 119.25 98.609375 117.804688 C 99.679688 116.359375 100.789062 114.941406 101.929688 113.550781 C 103.070312 112.15625 104.246094 110.792969 105.453125 109.460938 C 106.664062 108.125 107.902344 106.824219 109.175781 105.550781 C 110.445312 104.277344 111.75 103.035156 113.082031 101.828125 C 114.417969 100.617188 115.777344 99.441406 117.167969 98.300781 C 118.558594 97.160156 119.976562 96.050781 121.421875 94.980469 C 122.867188 93.90625 124.339844 92.871094 125.835938 91.871094 C 127.332031 90.871094 128.851562 89.90625 130.394531 88.980469 C 131.9375 88.054688 133.5 87.167969 135.089844 86.320312 C 136.675781 85.472656 138.28125 84.664062 139.910156 83.890625 C 141.535156 83.121094 143.179688 82.394531 144.839844 81.703125 C 146.503906 81.015625 148.183594 80.367188 149.875 79.761719 C 151.570312 79.15625 153.277344 78.589844 155 78.066406 C 156.722656 77.546875 158.457031 77.066406 160.199219 76.628906 C 161.945312 76.191406 163.699219 75.796875 165.464844 75.445312 C 167.230469 75.09375 169.003906 74.785156 170.78125 74.523438 C 172.5625 74.257812 174.347656 74.035156 176.136719 73.859375 C 177.929688 73.683594 179.722656 73.550781 181.519531 73.464844 C 183.316406 73.375 185.113281 73.332031 186.914062 73.332031 C 188.710938 73.332031 190.511719 73.375 192.308594 73.464844 C 194.105469 73.550781 195.898438 73.683594 197.6875 73.859375 C 199.480469 74.035156 201.265625 74.257812 203.042969 74.523438 C 204.824219 74.785156 206.597656 75.09375 208.359375 75.445312 C 210.125 75.796875 211.882812 76.191406 213.625 76.628906 C 215.371094 77.066406 217.105469 77.546875 218.828125 78.066406 C 220.546875 78.589844 222.257812 79.15625 223.949219 79.761719 C 225.644531 80.367188 227.324219 81.015625 228.984375 81.703125 C 230.648438 82.394531 232.292969 83.121094 233.917969 83.890625 C 235.542969 84.664062 237.152344 85.472656 238.738281 86.320312 C 240.324219 87.167969 241.890625 88.054688 243.433594 88.980469 C 244.976562 89.90625 246.496094 90.871094 247.992188 91.871094 C 249.488281 92.871094 250.957031 93.90625 252.402344 94.980469 C 253.847656 96.050781 255.265625 97.160156 256.65625 98.300781 C 258.046875 99.441406 259.410156 100.617188 260.742188 101.828125 C 262.078125 103.035156 263.378906 104.277344 264.652344 105.550781 C 265.925781 106.824219 267.164062 108.125 268.371094 109.460938 C 269.582031 110.792969 270.753906 112.15625 271.898438 113.550781 C 273.039062 114.941406 274.144531 116.359375 275.21875 117.804688 C 276.289062 119.25 277.324219 120.722656 278.324219 122.21875 C 279.324219 123.714844 280.285156 125.238281 281.210938 126.78125 C 282.136719 128.324219 283.023438 129.890625 283.871094 131.480469 C 284.71875 133.066406 285.527344 134.675781 286.296875 136.300781 C 287.066406 137.929688 287.796875 139.574219 288.484375 141.238281 C 289.171875 142.902344 289.820312 144.582031 290.425781 146.277344 C 291.03125 147.96875 291.597656 149.679688 292.117188 151.402344 C 292.640625 153.125 293.121094 154.859375 293.558594 156.605469 C 293.996094 158.351562 294.390625 160.109375 294.738281 161.875 C 295.089844 163.640625 295.398438 165.414062 295.664062 167.195312 C 295.925781 168.972656 296.144531 170.761719 296.324219 172.550781 C 296.5 174.34375 296.632812 176.140625 296.71875 177.9375 C 296.808594 179.734375 296.851562 181.535156 296.851562 183.335938 Z M 296.851562 183.335938 " fill-opacity="1" fill-rule="nonzero"/><path fill="#ffc180" d="M 180.839844 184.019531 C 178.058594 181.398438 174.488281 180.125 170.789062 180.441406 C 170.683594 180.449219 170.390625 180.476562 170.023438 180.53125 C 168.441406 180.757812 164.445312 181.679688 161.492188 185.238281 C 160.511719 186.417969 159.835938 187.660156 159.371094 188.871094 C 156.695312 189.035156 149.644531 190.035156 145.648438 195.910156 C 145.039062 196.808594 143.183594 199.539062 143.003906 203.554688 C 142.875 206.378906 143.605469 208.707031 144.398438 210.371094 C 141.011719 213.289062 138.757812 217.167969 138.269531 221.398438 C 137.609375 227.152344 140.207031 232.6875 144.78125 236.53125 C 143.820312 238.382812 142.738281 241.347656 143.003906 245 C 143.097656 246.25 143.535156 249.488281 145.648438 252.605469 C 149.519531 258.320312 156.082031 259.386719 158.835938 259.578125 C 159.21875 260.894531 159.8125 262.160156 160.617188 263.335938 C 162.796875 266.523438 166.226562 268.664062 170.027344 269.203125 C 170.28125 269.242188 170.535156 269.269531 170.789062 269.292969 C 171.160156 269.324219 171.53125 269.339844 171.898438 269.339844 C 175.199219 269.339844 178.335938 268.074219 180.835938 265.714844 C 183.6875 263.023438 185.320312 259.203125 185.320312 255.226562 L 185.320312 194.503906 C 185.320312 190.53125 183.6875 186.710938 180.839844 184.019531 Z M 180.839844 184.019531 " fill-opacity="1" fill-rule="nonzero"/><path fill="#000000" d="M 171.898438 270.910156 C 171.488281 270.910156 171.070312 270.894531 170.65625 270.859375 C 170.375 270.835938 170.085938 270.800781 169.804688 270.761719 C 165.570312 270.15625 161.75 267.773438 159.320312 264.222656 C 158.640625 263.226562 158.085938 262.164062 157.667969 261.046875 C 154.332031 260.644531 148.167969 259.128906 144.347656 253.488281 C 142.023438 250.054688 141.539062 246.488281 141.4375 245.117188 C 141.195312 241.761719 141.980469 238.941406 142.855469 236.921875 C 140.820312 235.007812 139.195312 232.742188 138.125 230.316406 C 136.847656 227.417969 136.359375 224.273438 136.710938 221.21875 C 137.1875 217.066406 139.234375 213.109375 142.511719 209.964844 C 141.695312 207.890625 141.332031 205.714844 141.433594 203.488281 C 141.632812 199.023438 143.679688 196.015625 144.351562 195.027344 C 148.296875 189.222656 154.839844 187.75 158.292969 187.386719 C 158.820312 186.25 159.488281 185.191406 160.28125 184.234375 C 163.582031 180.253906 168.035156 179.230469 169.796875 178.972656 C 170.214844 178.914062 170.546875 178.886719 170.65625 178.875 C 174.808594 178.523438 178.808594 179.941406 181.917969 182.878906 C 185.078125 185.863281 186.890625 190.101562 186.890625 194.503906 L 186.890625 255.230469 C 186.890625 259.632812 185.078125 263.871094 181.917969 266.855469 C 179.148438 269.472656 175.589844 270.910156 171.898438 270.910156 Z M 171.890625 181.96875 C 171.570312 181.96875 171.246094 181.980469 170.921875 182.007812 C 170.832031 182.015625 170.574219 182.039062 170.25 182.085938 C 168.847656 182.289062 165.304688 183.101562 162.699219 186.242188 C 161.914062 187.191406 161.285156 188.265625 160.835938 189.433594 C 160.617188 190.007812 160.082031 190.402344 159.46875 190.441406 C 156.894531 190.597656 150.527344 191.535156 146.949219 196.796875 C 146.402344 197.601562 144.730469 200.054688 144.570312 203.625 C 144.476562 205.726562 144.898438 207.765625 145.816406 209.691406 C 146.121094 210.332031 145.960938 211.097656 145.425781 211.5625 C 142.246094 214.300781 140.257812 217.859375 139.832031 221.578125 C 139.25 226.648438 141.421875 231.65625 145.792969 235.324219 C 146.355469 235.800781 146.515625 236.601562 146.175781 237.253906 C 145.3125 238.921875 144.332031 241.597656 144.570312 244.886719 C 144.652344 246.007812 145.050781 248.917969 146.949219 251.722656 C 150.449219 256.890625 156.503906 257.84375 158.945312 258.011719 C 159.601562 258.054688 160.160156 258.507812 160.34375 259.140625 C 160.6875 260.3125 161.214844 261.425781 161.914062 262.449219 C 163.84375 265.273438 166.882812 267.167969 170.246094 267.648438 C 170.472656 267.679688 170.699219 267.707031 170.921875 267.726562 C 171.246094 267.753906 171.574219 267.765625 171.898438 267.765625 C 174.824219 267.765625 177.542969 266.660156 179.761719 264.570312 C 182.296875 262.175781 183.75 258.769531 183.75 255.230469 L 183.75 194.503906 C 183.75 190.964844 182.296875 187.558594 179.761719 185.164062 C 177.554688 183.082031 174.792969 181.96875 171.890625 181.96875 Z M 171.890625 181.96875 " fill-opacity="1" fill-rule="nonzero"/><path fill="#026bbf" d="M 191.402344 190.289062 L 191.402344 182.386719 C 191.402344 181.285156 192.292969 180.394531 193.390625 180.394531 L 202.210938 180.394531 C 203.308594 180.394531 204.203125 181.285156 204.203125 182.386719 L 204.203125 192.734375 C 207.496094 194.046875 210.546875 195.855469 213.253906 198.0625 L 219.359375 191.949219 C 220.117188 191.195312 221.339844 191.195312 222.097656 191.949219 L 228.410156 198.269531 C 229.167969 199.023438 229.167969 200.25 228.410156 201.007812 L 221.542969 207.878906 C 223.046875 210.539062 224.214844 213.421875 224.976562 216.457031 L 234.988281 216.457031 C 235.816406 216.457031 236.488281 217.128906 236.488281 217.960938 L 236.488281 227.765625 C 236.488281 228.59375 235.816406 229.265625 234.988281 229.265625 L 225.753906 229.265625 C 225.277344 233.070312 224.1875 236.683594 222.578125 240 L 229.714844 247.136719 C 230.5 247.925781 230.5 249.199219 229.714844 249.988281 L 223.511719 256.195312 C 222.726562 256.980469 221.449219 256.980469 220.664062 256.195312 L 214.867188 250.398438 C 211.777344 253.246094 208.171875 255.542969 204.203125 257.121094 L 204.203125 267.613281 C 204.203125 268.722656 203.304688 269.621094 202.195312 269.621094 L 193.40625 269.621094 C 192.300781 269.621094 191.402344 268.722656 191.402344 267.613281 Z M 191.402344 190.289062 " fill-opacity="1" fill-rule="nonzero"/><path fill="#000000" d="M 202.195312 271.191406 L 193.40625 271.191406 C 191.433594 271.191406 189.828125 269.585938 189.828125 267.613281 L 189.828125 259.5625 C 189.828125 258.695312 190.535156 257.992188 191.402344 257.992188 C 192.269531 257.992188 192.972656 258.695312 192.972656 259.5625 L 192.972656 267.613281 C 192.972656 267.851562 193.167969 268.046875 193.40625 268.046875 L 202.195312 268.046875 C 202.433594 268.046875 202.628906 267.851562 202.628906 267.613281 L 202.628906 257.121094 C 202.628906 256.476562 203.023438 255.894531 203.621094 255.660156 C 207.371094 254.171875 210.792969 252.011719 213.800781 249.242188 C 214.421875 248.671875 215.378906 248.691406 215.976562 249.289062 L 221.773438 255.082031 C 221.945312 255.257812 222.226562 255.257812 222.402344 255.082031 L 228.605469 248.875 C 228.777344 248.703125 228.777344 248.421875 228.605469 248.25 L 221.46875 241.109375 C 220.996094 240.636719 220.875 239.914062 221.167969 239.3125 C 222.726562 236.089844 223.746094 232.644531 224.195312 229.070312 C 224.292969 228.285156 224.960938 227.695312 225.753906 227.695312 L 234.914062 227.695312 L 234.914062 218.03125 L 224.976562 218.03125 C 224.257812 218.03125 223.628906 217.539062 223.453125 216.839844 C 222.738281 213.988281 221.636719 211.234375 220.175781 208.652344 C 219.828125 208.039062 219.933594 207.265625 220.433594 206.769531 L 227.300781 199.894531 C 227.441406 199.753906 227.441406 199.523438 227.300781 199.378906 L 220.984375 193.0625 C 220.898438 192.972656 220.796875 192.957031 220.726562 192.957031 C 220.660156 192.957031 220.558594 192.972656 220.46875 193.0625 L 214.363281 199.171875 C 213.792969 199.742188 212.882812 199.789062 212.257812 199.28125 C 209.648438 197.152344 206.742188 195.441406 203.621094 194.195312 C 203.023438 193.957031 202.628906 193.378906 202.628906 192.734375 L 202.628906 182.386719 C 202.628906 182.15625 202.441406 181.96875 202.210938 181.96875 L 193.390625 181.96875 C 193.160156 181.96875 192.972656 182.15625 192.972656 182.386719 L 192.972656 190.289062 C 192.972656 191.15625 192.269531 191.859375 191.402344 191.859375 C 190.535156 191.859375 189.832031 191.15625 189.832031 190.289062 L 189.832031 182.386719 C 189.832031 180.421875 191.429688 178.824219 193.390625 178.824219 L 202.210938 178.824219 C 204.175781 178.824219 205.773438 180.421875 205.773438 182.386719 L 205.773438 191.6875 C 208.382812 192.816406 210.847656 194.253906 213.125 195.964844 L 218.25 190.839844 C 218.910156 190.175781 219.792969 189.8125 220.726562 189.8125 C 221.664062 189.8125 222.546875 190.175781 223.207031 190.839844 L 229.519531 197.15625 C 230.886719 198.523438 230.886719 200.75 229.523438 202.117188 L 223.484375 208.160156 C 224.609375 210.3125 225.511719 212.566406 226.179688 214.886719 L 234.988281 214.886719 C 236.679688 214.886719 238.058594 216.265625 238.058594 217.960938 L 238.058594 227.765625 C 238.058594 229.460938 236.679688 230.839844 234.988281 230.839844 L 227.113281 230.839844 C 226.613281 233.890625 225.726562 236.851562 224.46875 239.664062 L 230.824219 246.027344 C 232.222656 247.425781 232.222656 249.699219 230.824219 251.097656 L 224.621094 257.304688 C 223.226562 258.703125 220.953125 258.703125 219.554688 257.308594 L 214.800781 252.554688 C 212.0625 254.878906 209.035156 256.761719 205.773438 258.167969 L 205.773438 267.613281 C 205.773438 269.585938 204.167969 271.191406 202.195312 271.191406 Z M 202.195312 271.191406 " fill-opacity="1" fill-rule="nonzero"/><path fill="#ffffff" d="M 190.753906 209.828125 C 199.496094 209.828125 206.585938 216.921875 206.585938 225.671875 C 206.585938 234.417969 199.496094 241.511719 190.753906 241.511719 Z M 190.753906 209.828125 " fill-opacity="1" fill-rule="nonzero"/><path fill="#000000" d="M 190.753906 243.082031 C 189.882812 243.082031 189.179688 242.378906 189.179688 241.511719 C 189.179688 240.644531 189.882812 239.941406 190.753906 239.941406 C 198.617188 239.941406 205.015625 233.539062 205.015625 225.671875 C 205.015625 217.800781 198.617188 211.398438 190.753906 211.398438 C 189.882812 211.398438 189.179688 210.695312 189.179688 209.828125 C 189.179688 208.960938 189.882812 208.257812 190.753906 208.257812 C 200.347656 208.257812 208.15625 216.066406 208.15625 225.671875 C 208.15625 235.273438 200.347656 243.082031 190.753906 243.082031 Z M 190.753906 243.082031 " fill-opacity="1" fill-rule="nonzero"/><path fill="#000000" d="M 222.820312 286.925781 L 215.71875 286.925781 C 215.265625 286.925781 214.832031 286.726562 214.535156 286.382812 L 204.890625 275.300781 C 204.320312 274.644531 204.390625 273.652344 205.042969 273.082031 C 205.699219 272.511719 206.691406 272.582031 207.261719 273.234375 L 216.433594 283.78125 L 222.820312 283.78125 C 223.6875 283.78125 224.390625 284.484375 224.390625 285.351562 C 224.390625 286.222656 223.6875 286.925781 222.820312 286.925781 Z M 222.820312 286.925781 " fill-opacity="1" fill-rule="nonzero"/><path fill="#000000" d="M 158.039062 286.925781 L 150.9375 286.925781 C 150.070312 286.925781 149.367188 286.222656 149.367188 285.355469 C 149.367188 284.488281 150.070312 283.785156 150.9375 283.785156 L 157.324219 283.785156 L 166.179688 273.601562 C 166.75 272.945312 167.742188 272.875 168.394531 273.445312 C 169.050781 274.015625 169.117188 275.007812 168.550781 275.664062 L 159.222656 286.386719 C 158.925781 286.730469 158.492188 286.925781 158.039062 286.925781 Z M 158.039062 286.925781 " fill-opacity="1" fill-rule="nonzero"/><path fill="#ffffff" d="M 150.9375 281.207031 L 150.9375 298.574219 C 150.9375 299.753906 149.984375 300.707031 148.804688 300.707031 L 115.300781 300.707031 C 114.121094 300.707031 113.171875 299.753906 113.171875 298.574219 L 113.171875 263.84375 C 113.171875 262.664062 114.121094 261.710938 115.300781 261.710938 L 132.054688 261.710938 Z M 150.9375 281.207031 " fill-opacity="1" fill-rule="nonzero"/><path fill="#000000" d="M 148.804688 302.28125 L 115.300781 302.28125 C 113.261719 302.28125 111.597656 300.617188 111.597656 298.574219 L 111.597656 263.84375 C 111.597656 261.804688 113.261719 260.140625 115.300781 260.140625 L 132.054688 260.140625 C 132.921875 260.140625 133.625 260.84375 133.625 261.710938 C 133.625 262.582031 132.921875 263.285156 132.054688 263.285156 L 115.300781 263.285156 C 114.992188 263.285156 114.742188 263.535156 114.742188 263.84375 L 114.742188 298.574219 C 114.742188 298.886719 114.992188 299.136719 115.300781 299.136719 L 148.804688 299.136719 C 149.113281 299.136719 149.367188 298.886719 149.367188 298.574219 L 149.367188 281.207031 C 149.367188 280.339844 150.070312 279.632812 150.9375 279.632812 C 151.804688 279.632812 152.507812 280.339844 152.507812 281.207031 L 152.507812 298.574219 C 152.507812 300.617188 150.847656 302.28125 148.804688 302.28125 Z M 148.804688 302.28125 " fill-opacity="1" fill-rule="nonzero"/><path fill="#ffffff" d="M 150.9375 281.210938 L 133.507812 281.210938 C 132.703125 281.210938 132.054688 280.558594 132.054688 279.757812 L 132.054688 261.710938 Z M 150.9375 281.210938 " fill-opacity="1" fill-rule="nonzero"/><path fill="#000000" d="M 150.9375 282.78125 L 133.507812 282.78125 C 131.839844 282.78125 130.484375 281.425781 130.484375 279.757812 L 130.484375 261.714844 C 130.484375 261.074219 130.871094 260.496094 131.464844 260.257812 C 132.058594 260.015625 132.738281 260.160156 133.183594 260.621094 L 152.066406 280.117188 C 152.503906 280.570312 152.628906 281.242188 152.382812 281.824219 C 152.136719 282.40625 151.566406 282.78125 150.9375 282.78125 Z M 133.625 279.640625 L 147.226562 279.640625 L 133.625 265.59375 Z M 133.625 279.640625 " fill-opacity="1" fill-rule="nonzero"/><path fill="#ffc180" d="M 158.945312 254.503906 C 157.382812 261.652344 162.953125 268.230469 170.234375 269.214844 C 170.488281 269.25 170.738281 269.273438 170.992188 269.296875 C 178.757812 269.921875 185.320312 263.695312 185.320312 256.121094 L 185.320312 193.378906 C 185.320312 185.800781 178.757812 179.578125 170.992188 180.203125 C 170.894531 180.210938 170.601562 180.234375 170.234375 180.285156 C 169.195312 180.429688 164.898438 181.148438 161.804688 184.6875 C 158.058594 188.964844 158.820312 194.21875 158.945312 194.992188 Z M 158.945312 254.503906 " fill-opacity="1" fill-rule="nonzero"/><path fill="#000000" d="M 172.089844 270.910156 C 171.683594 270.910156 171.277344 270.894531 170.867188 270.863281 C 170.585938 270.839844 170.304688 270.808594 170.027344 270.773438 C 165.757812 270.195312 161.9375 267.898438 159.535156 264.464844 C 157.386719 261.394531 156.632812 257.738281 157.410156 254.171875 C 157.59375 253.320312 158.433594 252.785156 159.28125 252.96875 C 160.128906 253.15625 160.664062 253.992188 160.480469 254.839844 C 159.890625 257.542969 160.46875 260.320312 162.109375 262.664062 C 164.007812 265.378906 167.046875 267.195312 170.445312 267.65625 C 170.667969 267.6875 170.894531 267.710938 171.117188 267.730469 C 174.398438 267.992188 177.542969 266.902344 179.976562 264.65625 C 182.375 262.441406 183.75 259.332031 183.75 256.121094 L 183.75 193.378906 C 183.75 190.167969 182.375 187.058594 179.976562 184.84375 C 177.542969 182.597656 174.394531 181.503906 171.117188 181.769531 C 171.019531 181.777344 170.765625 181.800781 170.449219 181.84375 C 169.058594 182.035156 165.546875 182.796875 162.984375 185.722656 C 159.8125 189.347656 160.355469 193.871094 160.496094 194.742188 C 160.632812 195.597656 160.054688 196.40625 159.195312 196.546875 C 158.339844 196.683594 157.535156 196.101562 157.394531 195.246094 C 157.140625 193.679688 156.625 188.21875 160.621094 183.648438 C 163.878906 179.925781 168.28125 178.96875 170.023438 178.726562 C 170.425781 178.671875 170.753906 178.644531 170.859375 178.636719 C 175.027344 178.300781 179.019531 179.683594 182.105469 182.53125 C 185.148438 185.339844 186.890625 189.292969 186.890625 193.378906 L 186.890625 256.121094 C 186.890625 260.203125 185.148438 264.160156 182.105469 266.964844 C 179.324219 269.535156 175.804688 270.910156 172.089844 270.910156 Z M 172.089844 270.910156 " fill-opacity="1" fill-rule="nonzero"/><path fill="#ffc180" d="M 155.117188 240.449219 C 144.351562 238.601562 137.140625 230.011719 138.167969 221.300781 C 139.035156 213.929688 145.667969 207.609375 154.578125 205.976562 Z M 155.117188 240.449219 " fill-opacity="1" fill-rule="nonzero"/><path fill="#000000" d="M 155.117188 242.023438 C 155.03125 242.023438 154.941406 242.015625 154.851562 242 C 143.472656 240.046875 135.457031 230.875 136.609375 221.117188 C 137.074219 217.167969 139.089844 213.34375 142.28125 210.339844 C 145.492188 207.328125 149.644531 205.28125 154.292969 204.429688 C 155.148438 204.273438 155.964844 204.839844 156.121094 205.695312 C 156.277344 206.546875 155.710938 207.367188 154.859375 207.523438 C 146.742188 209.011719 140.519531 214.75 139.726562 221.484375 C 138.773438 229.582031 145.652344 237.230469 155.382812 238.902344 C 156.238281 239.046875 156.8125 239.859375 156.664062 240.714844 C 156.535156 241.480469 155.871094 242.023438 155.117188 242.023438 Z M 155.117188 242.023438 " fill-opacity="1" fill-rule="nonzero"/><path fill="#000000" d="M 168.269531 232.929688 C 168.050781 232.929688 167.828125 232.882812 167.617188 232.785156 C 166.828125 232.421875 166.480469 231.488281 166.84375 230.699219 C 168.191406 227.757812 167.890625 224.429688 166.074219 222.222656 C 164.601562 220.433594 162.570312 219.871094 161.492188 219.695312 C 160.636719 219.554688 160.054688 218.746094 160.195312 217.886719 C 160.335938 217.03125 161.144531 216.453125 162 216.589844 C 163.515625 216.839844 166.371094 217.640625 168.5 220.226562 C 171.074219 223.355469 171.546875 227.980469 169.699219 232.011719 C 169.433594 232.589844 168.867188 232.929688 168.269531 232.929688 Z M 168.269531 232.929688 " fill-opacity="1" fill-rule="nonzero"/><path fill="#000000" d="M 186.113281 304.191406 C 185.246094 304.191406 184.542969 303.488281 184.542969 302.621094 L 184.542969 272.5625 C 184.542969 271.695312 185.246094 270.988281 186.113281 270.988281 C 186.980469 270.988281 187.683594 271.695312 187.683594 272.5625 L 187.683594 302.621094 C 187.683594 303.488281 186.980469 304.191406 186.113281 304.191406 Z M 186.113281 304.191406 " fill-opacity="1" fill-rule="nonzero"/><path fill="#ffffff" d="M 210.125 322.113281 L 210.125 339.480469 C 210.125 340.660156 209.171875 341.613281 207.992188 341.613281 L 174.488281 341.613281 C 173.308594 341.613281 172.355469 340.660156 172.355469 339.480469 L 172.355469 304.75 C 172.355469 303.570312 173.308594 302.617188 174.488281 302.617188 L 191.238281 302.617188 Z M 210.125 322.113281 " fill-opacity="1" fill-rule="nonzero"/><g clip-path="url(#28acdaac90)"><path fill="#000000" d="M 207.992188 343.1875 L 174.488281 343.1875 C 172.445312 343.1875 170.785156 341.523438 170.785156 339.480469 L 170.785156 304.75 C 170.785156 302.707031 172.445312 301.046875 174.488281 301.046875 L 191.238281 301.046875 C 192.105469 301.046875 192.8125 301.75 192.8125 302.617188 C 192.8125 303.488281 192.105469 304.191406 191.238281 304.191406 L 174.488281 304.191406 C 174.179688 304.191406 173.925781 304.441406 173.925781 304.75 L 173.925781 339.480469 C 173.925781 339.789062 174.179688 340.042969 174.488281 340.042969 L 207.992188 340.042969 C 208.300781 340.042969 208.550781 339.789062 208.550781 339.480469 L 208.550781 322.113281 C 208.550781 321.242188 209.253906 320.539062 210.121094 320.539062 C 210.992188 320.539062 211.695312 321.242188 211.695312 322.113281 L 211.695312 339.480469 C 211.695312 341.523438 210.03125 343.1875 207.992188 343.1875 Z M 207.992188 343.1875 " fill-opacity="1" fill-rule="nonzero"/></g><path fill="#ffffff" d="M 210.125 322.117188 L 192.691406 322.117188 C 191.890625 322.117188 191.242188 321.464844 191.242188 320.664062 L 191.242188 302.617188 Z M 210.125 322.117188 " fill-opacity="1" fill-rule="nonzero"/><path fill="#000000" d="M 210.125 323.6875 L 192.691406 323.6875 C 191.027344 323.6875 189.671875 322.332031 189.671875 320.664062 L 189.671875 302.617188 C 189.671875 301.980469 190.058594 301.402344 190.652344 301.160156 C 191.246094 300.921875 191.925781 301.066406 192.371094 301.523438 L 211.253906 321.023438 C 211.691406 321.476562 211.816406 322.148438 211.570312 322.730469 C 211.324219 323.3125 210.753906 323.6875 210.125 323.6875 Z M 192.8125 320.542969 L 206.414062 320.542969 L 192.8125 306.5 Z M 192.8125 320.542969 " fill-opacity="1" fill-rule="nonzero"/><path fill="#ffffff" d="M 260.636719 281.203125 L 260.636719 298.574219 C 260.636719 299.753906 259.683594 300.707031 258.503906 300.707031 L 225 300.707031 C 223.820312 300.707031 222.871094 299.753906 222.871094 298.574219 L 222.871094 263.84375 C 222.871094 262.664062 223.820312 261.710938 225 261.710938 L 241.753906 261.710938 Z M 260.636719 281.203125 " fill-opacity="1" fill-rule="nonzero"/><path fill="#000000" d="M 258.503906 302.277344 L 225 302.277344 C 222.960938 302.277344 221.296875 300.617188 221.296875 298.574219 L 221.296875 263.84375 C 221.296875 261.800781 222.960938 260.140625 225 260.140625 L 241.753906 260.140625 C 242.621094 260.140625 243.324219 260.84375 243.324219 261.710938 C 243.324219 262.578125 242.621094 263.28125 241.753906 263.28125 L 225 263.28125 C 224.691406 263.28125 224.441406 263.535156 224.441406 263.84375 L 224.441406 298.574219 C 224.441406 298.882812 224.691406 299.132812 225 299.132812 L 258.503906 299.132812 C 258.8125 299.132812 259.066406 298.882812 259.066406 298.574219 L 259.066406 281.203125 C 259.066406 280.335938 259.769531 279.632812 260.636719 279.632812 C 261.503906 279.632812 262.207031 280.335938 262.207031 281.203125 L 262.207031 298.574219 C 262.207031 300.617188 260.546875 302.277344 258.503906 302.277344 Z M 258.503906 302.277344 " fill-opacity="1" fill-rule="nonzero"/><path fill="#ffffff" d="M 260.636719 281.207031 L 243.207031 281.207031 C 242.402344 281.207031 241.753906 280.558594 241.753906 279.757812 L 241.753906 261.710938 Z M 260.636719 281.207031 " fill-opacity="1" fill-rule="nonzero"/><path fill="#000000" d="M 260.636719 282.78125 L 243.207031 282.78125 C 241.539062 282.78125 240.183594 281.421875 240.183594 279.757812 L 240.183594 261.710938 C 240.183594 261.070312 240.570312 260.492188 241.164062 260.253906 C 241.757812 260.011719 242.4375 260.15625 242.882812 260.617188 L 261.765625 280.113281 C 262.203125 280.566406 262.328125 281.238281 262.082031 281.820312 C 261.835938 282.402344 261.265625 282.78125 260.636719 282.78125 Z M 243.324219 279.636719 L 256.925781 279.636719 L 243.324219 265.589844 Z M 243.324219 279.636719 " fill-opacity="1" fill-rule="nonzero"/><path fill="#000000" d="M 106.089844 194.078125 C 105.816406 194.078125 105.542969 194.007812 105.292969 193.863281 L 37.816406 154.140625 C 37.230469 153.796875 36.933594 153.117188 37.078125 152.453125 C 37.222656 151.789062 37.773438 151.292969 38.445312 151.222656 L 102.132812 144.425781 L 37.628906 92.691406 C 37.226562 92.371094 37.007812 91.871094 37.046875 91.355469 C 37.082031 90.839844 37.371094 90.375 37.816406 90.113281 L 105.292969 50.390625 C 105.9375 50.007812 106.765625 50.136719 107.261719 50.699219 L 169.855469 121.082031 C 170.382812 121.675781 170.382812 122.574219 169.855469 123.171875 L 107.261719 193.550781 C 106.957031 193.898438 106.523438 194.078125 106.089844 194.078125 Z M 43.507812 153.84375 L 105.773438 190.5 L 166.578125 122.125 L 105.773438 53.753906 L 41.371094 91.664062 L 107.070312 144.359375 C 107.570312 144.757812 107.777344 145.417969 107.597656 146.027344 C 107.417969 146.640625 106.890625 147.082031 106.257812 147.148438 Z M 43.507812 153.84375 " fill-opacity="1" fill-rule="nonzero"/><path fill="#000000" d="M 106.089844 147.160156 C 105.453125 147.160156 104.855469 146.769531 104.617188 146.136719 C 104.3125 145.324219 104.726562 144.417969 105.539062 144.113281 L 164.203125 122.125 L 105.726562 100.207031 L 38.445312 93.03125 C 37.582031 92.9375 36.960938 92.164062 37.050781 91.300781 C 37.144531 90.4375 37.917969 89.8125 38.78125 89.902344 L 106.257812 97.101562 C 106.386719 97.117188 106.515625 97.144531 106.640625 97.191406 L 169.230469 120.652344 C 169.84375 120.882812 170.25 121.46875 170.25 122.125 C 170.25 122.78125 169.84375 123.367188 169.230469 123.597656 L 106.640625 147.058594 C 106.457031 147.125 106.273438 147.160156 106.089844 147.160156 Z M 106.089844 147.160156 " fill-opacity="1" fill-rule="nonzero"/><path fill="#000000" d="M 38.613281 154.355469 C 38.152344 154.355469 37.699219 154.15625 37.386719 153.765625 C 36.84375 153.089844 36.953125 152.101562 37.628906 151.558594 L 105.105469 97.4375 C 105.785156 96.894531 106.773438 97.003906 107.316406 97.683594 C 107.859375 98.359375 107.75 99.347656 107.070312 99.890625 L 39.59375 154.011719 C 39.304688 154.242188 38.957031 154.355469 38.613281 154.355469 Z M 38.613281 154.355469 " fill-opacity="1" fill-rule="nonzero"/><path fill="#026bbf" d="M 184.3125 122.125 C 184.3125 123.152344 184.214844 124.167969 184.011719 125.175781 C 183.8125 126.183594 183.515625 127.164062 183.125 128.113281 C 182.730469 129.058594 182.25 129.960938 181.679688 130.816406 C 181.109375 131.671875 180.460938 132.460938 179.734375 133.1875 C 179.007812 133.914062 178.21875 134.5625 177.367188 135.132812 C 176.511719 135.703125 175.613281 136.183594 174.664062 136.578125 C 173.714844 136.96875 172.738281 137.265625 171.730469 137.46875 C 170.722656 137.667969 169.707031 137.769531 168.679688 137.769531 C 167.65625 137.769531 166.636719 137.667969 165.632812 137.46875 C 164.625 137.265625 163.648438 136.96875 162.699219 136.578125 C 161.75 136.183594 160.847656 135.703125 159.996094 135.132812 C 159.140625 134.5625 158.351562 133.914062 157.625 133.1875 C 156.902344 132.460938 156.253906 131.671875 155.683594 130.816406 C 155.113281 129.960938 154.628906 129.058594 154.238281 128.113281 C 153.84375 127.164062 153.546875 126.183594 153.347656 125.175781 C 153.148438 124.167969 153.046875 123.152344 153.046875 122.125 C 153.046875 121.097656 153.148438 120.082031 153.347656 119.074219 C 153.546875 118.066406 153.84375 117.089844 154.238281 116.140625 C 154.628906 115.191406 155.113281 114.289062 155.683594 113.433594 C 156.253906 112.582031 156.902344 111.789062 157.625 111.066406 C 158.351562 110.339844 159.140625 109.691406 159.996094 109.121094 C 160.847656 108.546875 161.75 108.066406 162.699219 107.671875 C 163.648438 107.28125 164.625 106.984375 165.632812 106.785156 C 166.636719 106.582031 167.65625 106.484375 168.679688 106.484375 C 169.707031 106.484375 170.722656 106.582031 171.730469 106.785156 C 172.738281 106.984375 173.714844 107.28125 174.664062 107.671875 C 175.613281 108.066406 176.511719 108.546875 177.367188 109.121094 C 178.21875 109.691406 179.007812 110.339844 179.734375 111.066406 C 180.460938 111.789062 181.109375 112.582031 181.679688 113.433594 C 182.25 114.289062 182.730469 115.191406 183.125 116.140625 C 183.515625 117.089844 183.8125 118.066406 184.015625 119.074219 C 184.214844 120.082031 184.3125 121.097656 184.3125 122.125 Z M 184.3125 122.125 " fill-opacity="1" fill-rule="nonzero"/><path fill="#000000" d="M 168.679688 139.339844 C 159.195312 139.339844 151.476562 131.617188 151.476562 122.125 C 151.476562 112.632812 159.195312 104.910156 168.679688 104.910156 C 178.167969 104.910156 185.886719 112.632812 185.886719 122.125 C 185.886719 131.617188 178.167969 139.339844 168.679688 139.339844 Z M 168.679688 108.054688 C 160.925781 108.054688 154.617188 114.367188 154.617188 122.125 C 154.617188 129.882812 160.925781 136.195312 168.679688 136.195312 C 176.433594 136.195312 182.742188 129.882812 182.742188 122.125 C 182.742188 114.367188 176.433594 108.054688 168.679688 108.054688 Z M 168.679688 108.054688 " fill-opacity="1" fill-rule="nonzero"/><path fill="#ffffff" d="M 54.246094 91.464844 C 54.246094 92.492188 54.144531 93.511719 53.945312 94.519531 C 53.746094 95.527344 53.449219 96.503906 53.054688 97.453125 C 52.664062 98.402344 52.183594 99.304688 51.613281 100.15625 C 51.042969 101.011719 50.394531 101.800781 49.667969 102.527344 C 48.941406 103.253906 48.152344 103.902344 47.296875 104.472656 C 46.445312 105.042969 45.542969 105.523438 44.59375 105.917969 C 43.648438 106.3125 42.667969 106.609375 41.664062 106.808594 C 40.65625 107.007812 39.640625 107.109375 38.613281 107.109375 C 37.585938 107.109375 36.570312 107.007812 35.5625 106.808594 C 34.554688 106.609375 33.578125 106.3125 32.628906 105.917969 C 31.683594 105.523438 30.78125 105.042969 29.925781 104.472656 C 29.074219 103.902344 28.285156 103.253906 27.558594 102.527344 C 26.832031 101.800781 26.183594 101.011719 25.613281 100.15625 C 25.042969 99.304688 24.5625 98.402344 24.167969 97.453125 C 23.777344 96.503906 23.480469 95.527344 23.28125 94.519531 C 23.078125 93.511719 22.980469 92.492188 22.980469 91.464844 C 22.980469 90.441406 23.078125 89.421875 23.28125 88.414062 C 23.480469 87.40625 23.777344 86.429688 24.167969 85.480469 C 24.5625 84.53125 25.042969 83.628906 25.613281 82.777344 C 26.183594 81.921875 26.832031 81.132812 27.558594 80.40625 C 28.285156 79.679688 29.074219 79.03125 29.925781 78.460938 C 30.78125 77.890625 31.683594 77.40625 32.628906 77.015625 C 33.578125 76.621094 34.554688 76.324219 35.5625 76.125 C 36.570312 75.925781 37.585938 75.824219 38.613281 75.824219 C 39.640625 75.824219 40.65625 75.925781 41.664062 76.125 C 42.667969 76.324219 43.648438 76.621094 44.59375 77.015625 C 45.542969 77.40625 46.445312 77.890625 47.296875 78.460938 C 48.152344 79.03125 48.941406 79.679688 49.667969 80.40625 C 50.394531 81.132812 51.042969 81.921875 51.613281 82.777344 C 52.183594 83.628906 52.664062 84.53125 53.054688 85.480469 C 53.449219 86.429688 53.746094 87.40625 53.945312 88.414062 C 54.144531 89.421875 54.246094 90.441406 54.246094 91.464844 Z M 54.246094 91.464844 " fill-opacity="1" fill-rule="nonzero"/><g clip-path="url(#09235ce8ff)"><path fill="#000000" d="M 38.613281 108.679688 C 29.125 108.679688 21.410156 100.957031 21.410156 91.464844 C 21.410156 81.972656 29.125 74.253906 38.613281 74.253906 C 48.097656 74.253906 55.816406 81.972656 55.816406 91.464844 C 55.816406 100.957031 48.097656 108.679688 38.613281 108.679688 Z M 38.613281 77.394531 C 30.859375 77.394531 24.550781 83.707031 24.550781 91.464844 C 24.550781 99.226562 30.859375 105.539062 38.613281 105.539062 C 46.367188 105.539062 52.675781 99.226562 52.675781 91.464844 C 52.675781 83.707031 46.367188 77.394531 38.613281 77.394531 Z M 38.613281 77.394531 " fill-opacity="1" fill-rule="nonzero"/></g><path fill="#ffffff" d="M 54.246094 152.785156 C 54.246094 153.8125 54.144531 154.828125 53.945312 155.835938 C 53.746094 156.84375 53.449219 157.820312 53.054688 158.769531 C 52.664062 159.71875 52.183594 160.621094 51.613281 161.476562 C 51.042969 162.328125 50.394531 163.117188 49.667969 163.84375 C 48.941406 164.570312 48.152344 165.21875 47.296875 165.789062 C 46.445312 166.359375 45.542969 166.84375 44.59375 167.234375 C 43.648438 167.628906 42.667969 167.925781 41.664062 168.125 C 40.65625 168.328125 39.640625 168.425781 38.613281 168.425781 C 37.585938 168.425781 36.570312 168.328125 35.5625 168.125 C 34.554688 167.925781 33.578125 167.628906 32.628906 167.234375 C 31.683594 166.84375 30.78125 166.359375 29.925781 165.789062 C 29.074219 165.21875 28.285156 164.570312 27.558594 163.84375 C 26.832031 163.117188 26.183594 162.328125 25.613281 161.476562 C 25.042969 160.621094 24.5625 159.71875 24.167969 158.769531 C 23.777344 157.820312 23.480469 156.84375 23.28125 155.835938 C 23.078125 154.828125 22.980469 153.8125 22.980469 152.785156 C 22.980469 151.757812 23.078125 150.738281 23.28125 149.734375 C 23.480469 148.726562 23.777344 147.746094 24.167969 146.796875 C 24.5625 145.847656 25.042969 144.949219 25.613281 144.09375 C 26.183594 143.238281 26.832031 142.449219 27.558594 141.722656 C 28.285156 140.996094 29.074219 140.347656 29.925781 139.777344 C 30.78125 139.207031 31.683594 138.726562 32.628906 138.332031 C 33.578125 137.941406 34.554688 137.644531 35.5625 137.441406 C 36.570312 137.242188 37.585938 137.140625 38.613281 137.140625 C 39.640625 137.140625 40.65625 137.242188 41.664062 137.441406 C 42.667969 137.644531 43.648438 137.941406 44.59375 138.332031 C 45.542969 138.726562 46.445312 139.207031 47.296875 139.777344 C 48.152344 140.347656 48.941406 140.996094 49.667969 141.722656 C 50.394531 142.449219 51.042969 143.238281 51.613281 144.09375 C 52.183594 144.949219 52.664062 145.847656 53.054688 146.796875 C 53.449219 147.746094 53.746094 148.726562 53.945312 149.734375 C 54.144531 150.738281 54.246094 151.757812 54.246094 152.785156 Z M 54.246094 152.785156 " fill-opacity="1" fill-rule="nonzero"/><g clip-path="url(#fe94d83316)"><path fill="#000000" d="M 38.613281 170 C 29.125 170 21.410156 162.277344 21.410156 152.785156 C 21.410156 143.292969 29.125 135.570312 38.613281 135.570312 C 48.097656 135.570312 55.816406 143.292969 55.816406 152.785156 C 55.816406 162.277344 48.097656 170 38.613281 170 Z M 38.613281 138.714844 C 30.859375 138.714844 24.550781 145.027344 24.550781 152.785156 C 24.550781 160.542969 30.859375 166.855469 38.613281 166.855469 C 46.367188 166.855469 52.675781 160.542969 52.675781 152.785156 C 52.675781 145.027344 46.367188 138.714844 38.613281 138.714844 Z M 38.613281 138.714844 " fill-opacity="1" fill-rule="nonzero"/></g><path fill="#ffc180" d="M 121.722656 51.742188 C 121.722656 52.769531 121.621094 53.789062 121.421875 54.796875 C 121.222656 55.800781 120.925781 56.78125 120.53125 57.730469 C 120.140625 58.679688 119.660156 59.578125 119.089844 60.433594 C 118.519531 61.289062 117.871094 62.078125 117.144531 62.804688 C 116.417969 63.53125 115.628906 64.179688 114.773438 64.75 C 113.921875 65.320312 113.019531 65.800781 112.070312 66.195312 C 111.125 66.589844 110.144531 66.886719 109.140625 67.085938 C 108.132812 67.285156 107.117188 67.386719 106.089844 67.386719 C 105.0625 67.386719 104.046875 67.285156 103.039062 67.085938 C 102.03125 66.886719 101.054688 66.589844 100.105469 66.195312 C 99.160156 65.800781 98.257812 65.320312 97.402344 64.75 C 96.550781 64.179688 95.761719 63.53125 95.035156 62.804688 C 94.308594 62.078125 93.660156 61.289062 93.089844 60.433594 C 92.519531 59.578125 92.039062 58.679688 91.644531 57.730469 C 91.253906 56.78125 90.957031 55.800781 90.757812 54.796875 C 90.554688 53.789062 90.457031 52.769531 90.457031 51.742188 C 90.457031 50.714844 90.554688 49.699219 90.757812 48.691406 C 90.957031 47.683594 91.253906 46.707031 91.644531 45.757812 C 92.039062 44.808594 92.519531 43.90625 93.089844 43.054688 C 93.660156 42.199219 94.308594 41.410156 95.035156 40.683594 C 95.761719 39.957031 96.550781 39.308594 97.402344 38.738281 C 98.257812 38.167969 99.160156 37.683594 100.105469 37.292969 C 101.054688 36.898438 102.03125 36.601562 103.039062 36.402344 C 104.046875 36.203125 105.0625 36.101562 106.089844 36.101562 C 107.117188 36.101562 108.132812 36.203125 109.140625 36.402344 C 110.144531 36.601562 111.125 36.898438 112.070312 37.292969 C 113.019531 37.683594 113.921875 38.167969 114.773438 38.738281 C 115.628906 39.308594 116.417969 39.957031 117.144531 40.683594 C 117.871094 41.410156 118.519531 42.199219 119.089844 43.054688 C 119.660156 43.90625 120.140625 44.808594 120.53125 45.757812 C 120.925781 46.707031 121.222656 47.683594 121.421875 48.691406 C 121.621094 49.699219 121.722656 50.714844 121.722656 51.742188 Z M 121.722656 51.742188 " fill-opacity="1" fill-rule="nonzero"/><path fill="#000000" d="M 106.089844 68.957031 C 96.601562 68.957031 88.886719 61.234375 88.886719 51.742188 C 88.886719 42.25 96.601562 34.527344 106.089844 34.527344 C 115.574219 34.527344 123.292969 42.25 123.292969 51.742188 C 123.292969 61.234375 115.574219 68.957031 106.089844 68.957031 Z M 106.089844 37.671875 C 98.335938 37.671875 92.027344 43.984375 92.027344 51.742188 C 92.027344 59.503906 98.335938 65.8125 106.089844 65.8125 C 113.84375 65.8125 120.152344 59.503906 120.152344 51.742188 C 120.152344 43.984375 113.84375 37.671875 106.089844 37.671875 Z M 106.089844 37.671875 " fill-opacity="1" fill-rule="nonzero"/><path fill="#ffc180" d="M 121.722656 98.664062 C 121.722656 99.691406 121.621094 100.710938 121.421875 101.714844 C 121.222656 102.722656 120.925781 103.703125 120.53125 104.652344 C 120.140625 105.601562 119.660156 106.5 119.089844 107.355469 C 118.519531 108.210938 117.871094 109 117.144531 109.726562 C 116.417969 110.453125 115.628906 111.101562 114.773438 111.671875 C 113.921875 112.242188 113.019531 112.722656 112.070312 113.117188 C 111.125 113.507812 110.144531 113.804688 109.140625 114.007812 C 108.132812 114.207031 107.117188 114.308594 106.089844 114.308594 C 105.0625 114.308594 104.046875 114.207031 103.039062 114.007812 C 102.03125 113.804688 101.054688 113.507812 100.105469 113.117188 C 99.160156 112.722656 98.257812 112.242188 97.402344 111.671875 C 96.550781 111.101562 95.761719 110.453125 95.035156 109.726562 C 94.308594 109 93.660156 108.210938 93.089844 107.355469 C 92.519531 106.5 92.039062 105.601562 91.644531 104.652344 C 91.253906 103.703125 90.957031 102.722656 90.757812 101.714844 C 90.554688 100.710938 90.457031 99.691406 90.457031 98.664062 C 90.457031 97.636719 90.554688 96.621094 90.757812 95.613281 C 90.957031 94.605469 91.253906 93.628906 91.644531 92.679688 C 92.039062 91.730469 92.519531 90.828125 93.089844 89.972656 C 93.660156 89.121094 94.308594 88.332031 95.035156 87.605469 C 95.761719 86.878906 96.550781 86.230469 97.402344 85.660156 C 98.257812 85.089844 99.160156 84.605469 100.105469 84.214844 C 101.054688 83.820312 102.03125 83.523438 103.039062 83.324219 C 104.046875 83.121094 105.0625 83.023438 106.089844 83.023438 C 107.117188 83.023438 108.132812 83.121094 109.140625 83.324219 C 110.144531 83.523438 111.125 83.820312 112.070312 84.214844 C 113.019531 84.605469 113.921875 85.089844 114.773438 85.660156 C 115.628906 86.230469 116.417969 86.878906 117.144531 87.605469 C 117.871094 88.332031 118.519531 89.121094 119.089844 89.972656 C 119.660156 90.828125 120.140625 91.730469 120.53125 92.679688 C 120.925781 93.628906 121.222656 94.605469 121.421875 95.613281 C 121.621094 96.621094 121.722656 97.636719 121.722656 98.664062 Z M 121.722656 98.664062 " fill-opacity="1" fill-rule="nonzero"/><path fill="#000000" d="M 106.089844 115.878906 C 96.601562 115.878906 88.886719 108.15625 88.886719 98.664062 C 88.886719 89.171875 96.601562 81.449219 106.089844 81.449219 C 115.574219 81.449219 123.292969 89.171875 123.292969 98.664062 C 123.292969 108.15625 115.574219 115.878906 106.089844 115.878906 Z M 106.089844 84.59375 C 98.335938 84.59375 92.027344 90.90625 92.027344 98.664062 C 92.027344 106.421875 98.335938 112.734375 106.089844 112.734375 C 113.84375 112.734375 120.152344 106.421875 120.152344 98.664062 C 120.152344 90.90625 113.84375 84.59375 106.089844 84.59375 Z M 106.089844 84.59375 " fill-opacity="1" fill-rule="nonzero"/><path fill="#ffc180" d="M 121.722656 145.585938 C 121.722656 146.613281 121.621094 147.628906 121.421875 148.636719 C 121.222656 149.644531 120.925781 150.625 120.53125 151.574219 C 120.140625 152.519531 119.660156 153.421875 119.089844 154.277344 C 118.519531 155.128906 117.871094 155.921875 117.144531 156.648438 C 116.417969 157.375 115.628906 158.023438 114.773438 158.59375 C 113.921875 159.164062 113.019531 159.644531 112.070312 160.039062 C 111.125 160.429688 110.144531 160.726562 109.140625 160.929688 C 108.132812 161.128906 107.117188 161.230469 106.089844 161.230469 C 105.0625 161.230469 104.046875 161.128906 103.039062 160.929688 C 102.03125 160.726562 101.054688 160.429688 100.105469 160.039062 C 99.160156 159.644531 98.257812 159.164062 97.402344 158.59375 C 96.550781 158.023438 95.761719 157.375 95.035156 156.648438 C 94.308594 155.921875 93.660156 155.128906 93.089844 154.277344 C 92.519531 153.421875 92.039062 152.519531 91.644531 151.574219 C 91.253906 150.625 90.957031 149.644531 90.757812 148.636719 C 90.554688 147.628906 90.457031 146.613281 90.457031 145.585938 C 90.457031 144.558594 90.554688 143.542969 90.757812 142.535156 C 90.957031 141.527344 91.253906 140.550781 91.644531 139.601562 C 92.039062 138.652344 92.519531 137.75 93.089844 136.894531 C 93.660156 136.042969 94.308594 135.25 95.035156 134.523438 C 95.761719 133.800781 96.550781 133.152344 97.402344 132.578125 C 98.257812 132.007812 99.160156 131.527344 100.105469 131.132812 C 101.054688 130.742188 102.03125 130.445312 103.039062 130.246094 C 104.046875 130.042969 105.0625 129.945312 106.089844 129.945312 C 107.117188 129.945312 108.132812 130.042969 109.140625 130.246094 C 110.144531 130.445312 111.125 130.742188 112.070312 131.132812 C 113.019531 131.527344 113.921875 132.007812 114.773438 132.578125 C 115.628906 133.152344 116.417969 133.800781 117.144531 134.523438 C 117.871094 135.25 118.519531 136.042969 119.089844 136.894531 C 119.660156 137.75 120.140625 138.652344 120.53125 139.601562 C 120.925781 140.550781 121.222656 141.527344 121.421875 142.535156 C 121.621094 143.542969 121.722656 144.558594 121.722656 145.585938 Z M 121.722656 145.585938 " fill-opacity="1" fill-rule="nonzero"/><path fill="#000000" d="M 106.089844 162.800781 C 96.601562 162.800781 88.886719 155.078125 88.886719 145.585938 C 88.886719 136.09375 96.601562 128.371094 106.089844 128.371094 C 115.574219 128.371094 123.292969 136.09375 123.292969 145.585938 C 123.292969 155.078125 115.574219 162.800781 106.089844 162.800781 Z M 106.089844 131.515625 C 98.335938 131.515625 92.027344 137.828125 92.027344 145.585938 C 92.027344 153.34375 98.335938 159.65625 106.089844 159.65625 C 113.84375 159.65625 120.152344 153.34375 120.152344 145.585938 C 120.152344 137.828125 113.84375 131.515625 106.089844 131.515625 Z M 106.089844 131.515625 " fill-opacity="1" fill-rule="nonzero"/><path fill="#ffc180" d="M 121.722656 192.507812 C 121.722656 193.535156 121.621094 194.550781 121.421875 195.558594 C 121.222656 196.566406 120.925781 197.542969 120.53125 198.492188 C 120.140625 199.441406 119.660156 200.34375 119.089844 201.199219 C 118.519531 202.050781 117.871094 202.84375 117.144531 203.570312 C 116.417969 204.292969 115.628906 204.941406 114.773438 205.515625 C 113.921875 206.085938 113.019531 206.566406 112.070312 206.960938 C 111.125 207.351562 110.144531 207.648438 109.140625 207.847656 C 108.132812 208.050781 107.117188 208.148438 106.089844 208.148438 C 105.0625 208.148438 104.046875 208.050781 103.039062 207.847656 C 102.03125 207.648438 101.054688 207.351562 100.105469 206.960938 C 99.160156 206.566406 98.257812 206.085938 97.402344 205.515625 C 96.550781 204.941406 95.761719 204.292969 95.035156 203.570312 C 94.308594 202.84375 93.660156 202.050781 93.089844 201.199219 C 92.519531 200.34375 92.039062 199.441406 91.644531 198.492188 C 91.253906 197.542969 90.957031 196.566406 90.757812 195.558594 C 90.554688 194.550781 90.457031 193.535156 90.457031 192.507812 C 90.457031 191.480469 90.554688 190.464844 90.757812 189.457031 C 90.957031 188.449219 91.253906 187.46875 91.644531 186.519531 C 92.039062 185.574219 92.519531 184.671875 93.089844 183.816406 C 93.660156 182.964844 94.308594 182.171875 95.035156 181.445312 C 95.761719 180.71875 96.550781 180.070312 97.402344 179.5 C 98.257812 178.929688 99.160156 178.449219 100.105469 178.054688 C 101.054688 177.664062 102.03125 177.367188 103.039062 177.164062 C 104.046875 176.964844 105.0625 176.863281 106.089844 176.863281 C 107.117188 176.863281 108.132812 176.964844 109.140625 177.164062 C 110.144531 177.367188 111.125 177.664062 112.070312 178.054688 C 113.019531 178.449219 113.921875 178.929688 114.773438 179.5 C 115.628906 180.070312 116.417969 180.71875 117.144531 181.445312 C 117.871094 182.171875 118.519531 182.964844 119.089844 183.816406 C 119.660156 184.671875 120.140625 185.574219 120.53125 186.519531 C 120.925781 187.46875 121.222656 188.449219 121.421875 189.457031 C 121.621094 190.464844 121.722656 191.480469 121.722656 192.507812 Z M 121.722656 192.507812 " fill-opacity="1" fill-rule="nonzero"/><path fill="#000000" d="M 106.089844 209.722656 C 96.601562 209.722656 88.886719 202 88.886719 192.507812 C 88.886719 183.015625 96.601562 175.292969 106.089844 175.292969 C 115.574219 175.292969 123.292969 183.015625 123.292969 192.507812 C 123.292969 202 115.574219 209.722656 106.089844 209.722656 Z M 106.089844 178.4375 C 98.335938 178.4375 92.027344 184.75 92.027344 192.507812 C 92.027344 200.265625 98.335938 206.578125 106.089844 206.578125 C 113.84375 206.578125 120.152344 200.265625 120.152344 192.507812 C 120.152344 184.75 113.84375 178.4375 106.089844 178.4375 Z M 106.089844 178.4375 " fill-opacity="1" fill-rule="nonzero"/><path fill="#026bbf" d="M 340.324219 130.660156 L 351.953125 140.496094 L 277.832031 205.570312 L 203.714844 140.496094 L 214.9375 131 Z M 340.324219 130.660156 " fill-opacity="1" fill-rule="nonzero"/><g clip-path="url(#a35d2b38c7)"><path fill="#000000" d="M 277.832031 207.140625 C 277.464844 207.140625 277.09375 207.011719 276.796875 206.75 L 202.675781 141.675781 C 202.335938 141.375 202.140625 140.9375 202.144531 140.480469 C 202.148438 140.023438 202.351562 139.589844 202.699219 139.296875 L 213.921875 129.800781 C 214.585938 129.242188 215.578125 129.324219 216.136719 129.988281 C 216.699219 130.648438 216.613281 131.640625 215.953125 132.203125 L 206.121094 140.519531 L 277.832031 203.480469 L 349.546875 140.519531 L 339.3125 131.859375 C 338.648438 131.300781 338.566406 130.308594 339.125 129.644531 C 339.6875 128.984375 340.675781 128.898438 341.339844 129.460938 L 352.96875 139.296875 C 353.316406 139.589844 353.519531 140.023438 353.523438 140.480469 C 353.527344 140.9375 353.332031 141.375 352.988281 141.675781 L 278.871094 206.75 C 278.574219 207.011719 278.203125 207.140625 277.832031 207.140625 Z M 277.832031 207.140625 " fill-opacity="1" fill-rule="nonzero"/></g><path fill="#ffffff" d="M 340.324219 110.0625 L 351.953125 119.898438 L 277.832031 184.972656 L 203.714844 119.898438 L 214.9375 110.402344 Z M 340.324219 110.0625 " fill-opacity="1" fill-rule="nonzero"/><g clip-path="url(#07832a9be3)"><path fill="#000000" d="M 277.832031 186.542969 C 277.464844 186.542969 277.09375 186.414062 276.796875 186.152344 L 202.675781 121.078125 C 202.335938 120.777344 202.140625 120.339844 202.144531 119.882812 C 202.148438 119.425781 202.351562 118.992188 202.699219 118.695312 L 213.921875 109.203125 C 214.585938 108.640625 215.578125 108.726562 216.136719 109.386719 C 216.699219 110.050781 216.613281 111.042969 215.953125 111.601562 L 206.121094 119.917969 L 277.832031 182.878906 L 349.546875 119.917969 L 339.3125 111.261719 C 338.648438 110.703125 338.566406 109.710938 339.125 109.046875 C 339.6875 108.382812 340.675781 108.300781 341.339844 108.863281 L 352.96875 118.695312 C 353.316406 118.992188 353.519531 119.425781 353.523438 119.882812 C 353.527344 120.339844 353.332031 120.777344 352.988281 121.078125 L 278.871094 186.152344 C 278.574219 186.414062 278.203125 186.542969 277.832031 186.542969 Z M 277.832031 186.542969 " fill-opacity="1" fill-rule="nonzero"/></g><path fill="#ffc180" d="M 277.832031 165.253906 L 210.613281 106.238281 L 277.832031 49.382812 L 345.050781 106.238281 Z M 277.832031 165.253906 " fill-opacity="1" fill-rule="nonzero"/><path fill="#000000" d="M 277.832031 166.828125 C 277.464844 166.828125 277.09375 166.695312 276.796875 166.4375 L 209.578125 107.421875 C 209.234375 107.121094 209.039062 106.683594 209.042969 106.226562 C 209.046875 105.769531 209.25 105.335938 209.601562 105.039062 L 276.820312 48.179688 C 277.40625 47.6875 278.261719 47.6875 278.847656 48.179688 L 346.066406 105.039062 C 346.414062 105.335938 346.617188 105.769531 346.621094 106.226562 C 346.628906 106.683594 346.433594 107.121094 346.089844 107.421875 L 278.871094 166.4375 C 278.574219 166.695312 278.203125 166.828125 277.832031 166.828125 Z M 213.019531 106.261719 L 277.832031 163.164062 L 342.644531 106.261719 L 277.832031 51.4375 Z M 213.019531 106.261719 " fill-opacity="1" fill-rule="nonzero"/><path fill="#026bbf" d="M 327.359375 86.066406 L 327.359375 76.910156 C 327.359375 75.210938 325.980469 73.832031 324.28125 73.832031 L 317.570312 73.832031 C 316.585938 68.726562 314.679688 64.28125 312.046875 60.25 L 316.320312 55.933594 C 317.511719 54.730469 317.507812 52.789062 316.3125 51.589844 L 309.609375 44.867188 C 308.382812 43.636719 306.378906 43.664062 305.1875 44.929688 L 301.355469 48.996094 C 297.324219 46.324219 291.648438 44.367188 288.246094 43.359375 L 288.246094 37.777344 C 288.246094 36.078125 286.871094 34.699219 285.167969 34.699219 L 274.320312 34.699219 C 272.621094 34.699219 271.242188 36.078125 271.242188 37.777344 L 271.242188 43.359375 C 266.140625 44.367188 262.054688 46.308594 258.023438 48.980469 L 253.945312 44.8125 C 252.746094 43.589844 250.777344 43.582031 249.570312 44.796875 L 242.875 51.535156 C 241.6875 52.734375 241.683594 54.667969 242.867188 55.871094 L 247.1875 60.25 C 244.554688 64.28125 242.679688 68.726562 241.695312 73.832031 L 235.210938 73.832031 C 233.511719 73.832031 232.132812 75.210938 232.132812 76.914062 L 232.132812 86.066406 C 232.132812 87.765625 233.507812 89.144531 235.210938 89.144531 L 241.765625 89.144531 C 242.785156 94.25 244.707031 98.570312 247.347656 102.558594 L 242.957031 106.980469 C 241.761719 108.183594 241.761719 110.128906 242.960938 111.328125 L 249.679688 118.0625 C 250.898438 119.285156 252.882812 119.265625 254.078125 118.023438 L 258.222656 113.707031 C 262.203125 116.3125 266.140625 118.21875 271.242188 119.210938 L 271.242188 125.199219 C 271.242188 126.902344 272.621094 128.28125 274.320312 128.28125 L 285.167969 128.28125 C 286.871094 128.28125 288.246094 126.902344 288.246094 125.199219 L 288.246094 119.214844 C 291.648438 118.21875 297.175781 116.320312 301.15625 113.714844 L 305.371094 118.058594 C 306.570312 119.292969 308.550781 119.304688 309.765625 118.082031 L 316.414062 111.371094 C 317.605469 110.167969 317.605469 108.230469 316.410156 107.027344 L 311.964844 102.558594 C 314.605469 98.570312 316.480469 94.25 317.5 89.144531 C 317.5 89.144531 321.390625 89.144531 324.28125 89.144531 C 325.984375 89.144531 327.359375 87.765625 327.359375 86.066406 Z M 327.359375 86.066406 " fill-opacity="1" fill-rule="nonzero"/><path fill="#000000" d="M 285.167969 129.851562 L 274.320312 129.851562 C 271.757812 129.851562 269.671875 127.765625 269.671875 125.199219 L 269.671875 120.484375 C 265.773438 119.585938 262.304688 118.113281 258.460938 115.722656 L 255.210938 119.109375 C 254.335938 120.019531 253.164062 120.527344 251.902344 120.539062 C 251.886719 120.539062 251.871094 120.539062 251.855469 120.539062 C 250.613281 120.539062 249.445312 120.054688 248.566406 119.175781 L 241.847656 112.4375 C 240.042969 110.632812 240.042969 107.6875 241.839844 105.875 L 245.34375 102.347656 C 243.054688 98.652344 241.460938 94.828125 240.5 90.71875 L 235.210938 90.71875 C 232.648438 90.71875 230.5625 88.628906 230.5625 86.066406 L 230.5625 76.914062 C 230.5625 74.347656 232.648438 72.261719 235.210938 72.261719 L 240.421875 72.261719 C 241.371094 68.035156 242.941406 64.152344 245.195312 60.464844 L 241.75 56.972656 C 239.96875 55.164062 239.972656 52.230469 241.761719 50.425781 L 248.453125 43.691406 C 249.332031 42.804688 250.503906 42.320312 251.75 42.320312 C 251.753906 42.320312 251.761719 42.320312 251.765625 42.320312 C 253.019531 42.324219 254.191406 42.820312 255.066406 43.714844 L 258.25 46.964844 C 262.078125 44.5625 265.6875 43.019531 269.671875 42.089844 L 269.671875 37.777344 C 269.671875 35.210938 271.757812 33.125 274.320312 33.125 L 285.167969 33.125 C 287.734375 33.125 289.820312 35.210938 289.820312 37.777344 L 289.820312 42.195312 C 292.851562 43.144531 297.402344 44.78125 301.097656 46.980469 L 304.046875 43.851562 C 304.917969 42.925781 306.09375 42.40625 307.363281 42.390625 C 308.636719 42.367188 309.824219 42.855469 310.71875 43.757812 L 317.421875 50.480469 C 319.222656 52.285156 319.226562 55.230469 317.433594 57.039062 L 314.042969 60.46875 C 316.316406 64.1875 317.898438 68.070312 318.847656 72.261719 L 324.28125 72.261719 C 326.84375 72.261719 328.929688 74.347656 328.929688 76.910156 L 328.929688 86.066406 C 328.929688 88.628906 326.84375 90.71875 324.28125 90.71875 L 318.769531 90.71875 C 317.800781 94.875 316.222656 98.699219 313.96875 102.34375 L 317.523438 105.921875 C 319.320312 107.726562 319.324219 110.667969 317.53125 112.476562 L 310.882812 119.1875 C 310 120.074219 308.828125 120.5625 307.582031 120.5625 C 307.574219 120.5625 307.5625 120.5625 307.554688 120.5625 C 306.296875 120.558594 305.121094 120.054688 304.246094 119.152344 L 300.910156 115.71875 C 297.246094 117.875 292.789062 119.460938 289.820312 120.382812 L 289.820312 125.199219 C 289.820312 127.765625 287.734375 129.851562 285.167969 129.851562 Z M 258.222656 112.132812 C 258.519531 112.132812 258.816406 112.21875 259.082031 112.390625 C 263.433594 115.238281 267.160156 116.816406 271.542969 117.667969 C 272.28125 117.8125 272.8125 118.460938 272.8125 119.210938 L 272.8125 125.199219 C 272.8125 126.03125 273.492188 126.707031 274.320312 126.707031 L 285.167969 126.707031 C 286 126.707031 286.675781 126.03125 286.675781 125.199219 L 286.675781 119.214844 C 286.675781 118.515625 287.136719 117.898438 287.808594 117.703125 C 290.765625 116.839844 296.324219 115 300.296875 112.402344 C 300.929688 111.988281 301.761719 112.082031 302.285156 112.621094 L 306.5 116.964844 C 306.78125 117.253906 307.164062 117.417969 307.570312 117.421875 C 307.976562 117.425781 308.363281 117.265625 308.648438 116.972656 L 315.300781 110.261719 C 315.878906 109.675781 315.878906 108.722656 315.296875 108.136719 L 310.851562 103.667969 C 310.324219 103.140625 310.242188 102.3125 310.65625 101.691406 C 313.292969 97.707031 315.03125 93.5 315.960938 88.835938 C 316.105469 88.101562 316.75 87.574219 317.5 87.574219 L 324.28125 87.574219 C 325.113281 87.574219 325.789062 86.898438 325.789062 86.066406 L 325.789062 76.914062 C 325.789062 76.082031 325.113281 75.402344 324.28125 75.402344 L 317.570312 75.402344 C 316.816406 75.402344 316.171875 74.871094 316.027344 74.128906 C 315.125 69.441406 313.390625 65.183594 310.730469 61.109375 C 310.324219 60.488281 310.40625 59.671875 310.929688 59.144531 L 315.203125 54.828125 C 315.785156 54.242188 315.78125 53.285156 315.199219 52.703125 L 308.496094 45.976562 C 308.207031 45.683594 307.820312 45.527344 307.40625 45.53125 C 306.996094 45.539062 306.613281 45.707031 306.332031 46.007812 L 302.5 50.074219 C 301.972656 50.632812 301.125 50.730469 300.488281 50.308594 C 296.507812 47.667969 290.832031 45.765625 287.800781 44.863281 C 287.132812 44.667969 286.675781 44.054688 286.675781 43.359375 L 286.675781 37.777344 C 286.675781 36.945312 286 36.269531 285.167969 36.269531 L 274.320312 36.269531 C 273.492188 36.269531 272.8125 36.945312 272.8125 37.777344 L 272.8125 43.359375 C 272.8125 44.109375 272.285156 44.753906 271.546875 44.898438 C 267.089844 45.78125 263.183594 47.445312 258.890625 50.292969 C 258.261719 50.707031 257.425781 50.621094 256.902344 50.082031 L 252.824219 45.914062 C 252.539062 45.625 252.160156 45.464844 251.753906 45.460938 C 251.753906 45.460938 251.75 45.460938 251.75 45.460938 C 251.347656 45.460938 250.96875 45.621094 250.683594 45.90625 L 243.992188 52.644531 C 243.410156 53.226562 243.410156 54.179688 243.988281 54.765625 L 248.304688 59.144531 C 248.824219 59.671875 248.90625 60.492188 248.503906 61.109375 C 245.875 65.132812 244.152344 69.394531 243.238281 74.128906 C 243.097656 74.867188 242.449219 75.402344 241.695312 75.402344 L 235.210938 75.402344 C 234.378906 75.402344 233.703125 76.082031 233.703125 76.910156 L 233.703125 86.066406 C 233.703125 86.898438 234.378906 87.574219 235.210938 87.574219 L 241.765625 87.574219 C 242.515625 87.574219 243.160156 88.101562 243.304688 88.835938 C 244.222656 93.433594 245.972656 97.636719 248.660156 101.691406 C 249.070312 102.3125 248.988281 103.136719 248.460938 103.667969 L 244.070312 108.089844 C 243.488281 108.675781 243.488281 109.632812 244.074219 110.21875 L 250.792969 116.953125 C 251.078125 117.242188 251.464844 117.398438 251.871094 117.394531 C 252.28125 117.390625 252.660156 117.226562 252.945312 116.933594 L 257.089844 112.617188 C 257.394531 112.300781 257.804688 112.132812 258.222656 112.132812 Z M 258.222656 112.132812 " fill-opacity="1" fill-rule="nonzero"/><path fill="#ffffff" d="M 298.640625 81.488281 C 298.640625 82.109375 298.609375 82.726562 298.546875 83.339844 C 298.488281 83.957031 298.398438 84.570312 298.277344 85.175781 C 298.15625 85.785156 298.003906 86.382812 297.824219 86.976562 C 297.644531 87.570312 297.4375 88.152344 297.199219 88.722656 C 296.964844 89.296875 296.699219 89.855469 296.40625 90.398438 C 296.117188 90.945312 295.796875 91.476562 295.453125 91.992188 C 295.109375 92.507812 294.742188 93.003906 294.351562 93.480469 C 293.957031 93.960938 293.542969 94.417969 293.105469 94.855469 C 292.667969 95.292969 292.210938 95.710938 291.730469 96.101562 C 291.253906 96.496094 290.757812 96.863281 290.242188 97.207031 C 289.726562 97.550781 289.199219 97.867188 288.652344 98.160156 C 288.105469 98.453125 287.546875 98.71875 286.976562 98.953125 C 286.402344 99.191406 285.820312 99.398438 285.230469 99.578125 C 284.636719 99.757812 284.039062 99.910156 283.429688 100.03125 C 282.824219 100.152344 282.214844 100.242188 281.597656 100.300781 C 280.980469 100.363281 280.363281 100.394531 279.746094 100.394531 C 279.125 100.394531 278.507812 100.363281 277.894531 100.300781 C 277.277344 100.242188 276.667969 100.152344 276.058594 100.03125 C 275.453125 99.910156 274.851562 99.757812 274.261719 99.578125 C 273.667969 99.398438 273.085938 99.191406 272.515625 98.953125 C 271.945312 98.71875 271.386719 98.453125 270.839844 98.160156 C 270.292969 97.867188 269.761719 97.550781 269.25 97.207031 C 268.734375 96.863281 268.238281 96.496094 267.757812 96.101562 C 267.28125 95.710938 266.824219 95.292969 266.386719 94.855469 C 265.949219 94.417969 265.535156 93.960938 265.140625 93.480469 C 264.75 93.003906 264.378906 92.507812 264.035156 91.992188 C 263.691406 91.476562 263.375 90.945312 263.082031 90.398438 C 262.792969 89.855469 262.527344 89.296875 262.289062 88.722656 C 262.054688 88.152344 261.84375 87.570312 261.664062 86.976562 C 261.484375 86.382812 261.335938 85.785156 261.214844 85.175781 C 261.09375 84.570312 261.003906 83.957031 260.941406 83.339844 C 260.882812 82.726562 260.851562 82.109375 260.851562 81.488281 C 260.851562 80.871094 260.882812 80.25 260.941406 79.636719 C 261.003906 79.019531 261.09375 78.40625 261.214844 77.800781 C 261.335938 77.191406 261.484375 76.59375 261.664062 76 C 261.84375 75.410156 262.054688 74.828125 262.289062 74.253906 C 262.527344 73.683594 262.792969 73.125 263.082031 72.578125 C 263.375 72.03125 263.691406 71.5 264.035156 70.984375 C 264.378906 70.472656 264.75 69.972656 265.140625 69.496094 C 265.535156 69.015625 265.949219 68.558594 266.386719 68.121094 C 266.824219 67.683594 267.28125 67.269531 267.757812 66.875 C 268.238281 66.484375 268.734375 66.113281 269.25 65.769531 C 269.761719 65.425781 270.292969 65.109375 270.839844 64.816406 C 271.386719 64.523438 271.945312 64.261719 272.515625 64.023438 C 273.085938 63.785156 273.667969 63.578125 274.261719 63.398438 C 274.851562 63.21875 275.453125 63.066406 276.058594 62.949219 C 276.667969 62.828125 277.277344 62.734375 277.894531 62.675781 C 278.507812 62.613281 279.125 62.585938 279.746094 62.585938 C 280.363281 62.585938 280.980469 62.613281 281.597656 62.675781 C 282.214844 62.734375 282.824219 62.828125 283.429688 62.949219 C 284.039062 63.066406 284.636719 63.21875 285.230469 63.398438 C 285.820312 63.578125 286.402344 63.785156 286.976562 64.023438 C 287.546875 64.261719 288.105469 64.523438 288.652344 64.816406 C 289.199219 65.109375 289.726562 65.425781 290.242188 65.769531 C 290.757812 66.113281 291.253906 66.484375 291.730469 66.875 C 292.210938 67.269531 292.667969 67.683594 293.105469 68.121094 C 293.542969 68.558594 293.957031 69.015625 294.351562 69.496094 C 294.742188 69.972656 295.109375 70.472656 295.453125 70.984375 C 295.796875 71.5 296.117188 72.03125 296.40625 72.578125 C 296.699219 73.125 296.964844 73.683594 297.199219 74.253906 C 297.4375 74.828125 297.644531 75.410156 297.824219 76 C 298.003906 76.59375 298.15625 77.191406 298.277344 77.800781 C 298.398438 78.40625 298.488281 79.019531 298.546875 79.636719 C 298.609375 80.25 298.640625 80.871094 298.640625 81.488281 Z M 298.640625 81.488281 " fill-opacity="1" fill-rule="nonzero"/><path fill="#000000" d="M 279.746094 101.964844 C 268.460938 101.964844 259.28125 92.78125 259.28125 81.488281 C 259.28125 70.199219 268.460938 61.011719 279.746094 61.011719 C 291.03125 61.011719 300.210938 70.199219 300.210938 81.488281 C 300.210938 92.78125 291.03125 101.964844 279.746094 101.964844 Z M 279.746094 64.15625 C 270.195312 64.15625 262.421875 71.929688 262.421875 81.488281 C 262.421875 91.046875 270.195312 98.820312 279.746094 98.820312 C 289.296875 98.820312 297.066406 91.046875 297.066406 81.488281 C 297.066406 71.929688 289.296875 64.15625 279.746094 64.15625 Z M 279.746094 64.15625 " fill-opacity="1" fill-rule="nonzero"/></svg>