<svg xmlns="http://www.w3.org/2000/svg" xmlns:xlink="http://www.w3.org/1999/xlink" width="500" zoomAndPan="magnify" viewBox="0 0 375 374.999991" height="500" preserveAspectRatio="xMidYMid meet" version="1.0"><defs><clipPath id="cf5c355f37"><path d="M 37.5 180 L 47 180 L 47 231 L 37.5 231 Z M 37.5 180 " clip-rule="nonzero"/></clipPath><clipPath id="3b33598b0c"><path d="M 45 261 L 98 261 L 98 344.25 L 45 344.25 Z M 45 261 " clip-rule="nonzero"/></clipPath><clipPath id="b7817f29bb"><path d="M 137 261 L 189 261 L 189 344.25 L 137 344.25 Z M 137 261 " clip-rule="nonzero"/></clipPath></defs><path fill="#000000" d="M 282.433594 105.109375 C 282.011719 105.109375 281.597656 104.921875 281.3125 104.570312 C 277.980469 100.394531 274.367188 96.375 270.566406 92.621094 C 270.003906 92.066406 269.996094 91.15625 270.550781 90.59375 C 271.109375 90.03125 272.015625 90.023438 272.582031 90.582031 C 276.460938 94.410156 280.152344 98.515625 283.554688 102.78125 C 284.046875 103.398438 283.945312 104.300781 283.328125 104.796875 C 283.0625 105.007812 282.746094 105.109375 282.433594 105.109375 Z M 259.363281 82.328125 C 259.054688 82.328125 258.746094 82.226562 258.484375 82.023438 C 254.265625 78.742188 249.804688 75.683594 245.234375 72.933594 C 244.554688 72.523438 244.335938 71.644531 244.746094 70.964844 C 245.152344 70.285156 246.035156 70.066406 246.714844 70.476562 C 251.382812 73.285156 255.933594 76.410156 260.242188 79.761719 C 260.867188 80.246094 260.980469 81.148438 260.496094 81.773438 C 260.214844 82.136719 259.789062 82.328125 259.363281 82.328125 Z M 231.585938 65.609375 C 231.390625 65.609375 231.1875 65.566406 231 65.480469 C 226.128906 63.292969 221.074219 61.378906 215.976562 59.785156 C 215.21875 59.550781 214.796875 58.746094 215.03125 57.988281 C 215.269531 57.234375 216.074219 56.8125 216.828125 57.046875 C 222.035156 58.671875 227.199219 60.628906 232.171875 62.867188 C 232.894531 63.191406 233.21875 64.039062 232.894531 64.761719 C 232.65625 65.292969 232.132812 65.609375 231.585938 65.609375 Z M 200.640625 55.949219 C 200.554688 55.949219 200.464844 55.941406 200.378906 55.925781 C 195.144531 54.957031 189.777344 54.285156 184.433594 53.9375 C 183.640625 53.882812 183.042969 53.203125 183.09375 52.410156 C 183.148438 51.621094 183.828125 51.023438 184.621094 51.074219 C 190.078125 51.433594 195.554688 52.113281 200.898438 53.105469 C 201.679688 53.25 202.191406 53.996094 202.046875 54.777344 C 201.921875 55.464844 201.316406 55.949219 200.640625 55.949219 Z M 152.152344 55.648438 C 151.46875 55.648438 150.863281 55.15625 150.742188 54.460938 C 150.605469 53.679688 151.125 52.9375 151.90625 52.800781 C 157.269531 51.867188 162.753906 51.25 168.214844 50.964844 C 169 50.921875 169.679688 51.527344 169.71875 52.320312 C 169.761719 53.109375 169.152344 53.785156 168.363281 53.828125 C 163.019531 54.105469 157.648438 54.710938 152.398438 55.625 C 152.316406 55.640625 152.234375 55.648438 152.152344 55.648438 Z M 152.152344 55.648438 " fill-opacity="1" fill-rule="nonzero"/><g clip-path="url(#cf5c355f37)"><path fill="#000000" d="M 44.804688 230.042969 C 44.1875 230.042969 43.621094 229.644531 43.433594 229.023438 C 41.90625 223.976562 40.65625 218.78125 39.71875 213.585938 C 39.578125 212.804688 40.097656 212.058594 40.875 211.917969 C 41.65625 211.777344 42.402344 212.296875 42.542969 213.074219 C 43.460938 218.164062 44.683594 223.253906 46.175781 228.191406 C 46.40625 228.949219 45.976562 229.75 45.21875 229.980469 C 45.082031 230.023438 44.941406 230.042969 44.804688 230.042969 Z M 39.226562 199.164062 C 38.476562 199.164062 37.847656 198.582031 37.796875 197.824219 C 37.601562 194.792969 37.5 191.734375 37.5 188.726562 C 37.5 186.46875 37.558594 184.1875 37.667969 181.945312 C 37.707031 181.152344 38.382812 180.542969 39.171875 180.582031 C 39.960938 180.621094 40.570312 181.296875 40.53125 182.085938 C 40.425781 184.28125 40.367188 186.515625 40.367188 188.726562 C 40.367188 191.671875 40.464844 194.667969 40.660156 197.636719 C 40.710938 198.425781 40.109375 199.109375 39.320312 199.160156 C 39.289062 199.164062 39.257812 199.164062 39.226562 199.164062 Z M 39.226562 199.164062 " fill-opacity="1" fill-rule="nonzero"/></g><path fill="#000000" d="M 196.863281 325.382812 C 196.171875 325.382812 195.5625 324.875 195.449219 324.167969 C 195.328125 323.386719 195.863281 322.652344 196.644531 322.53125 C 201.753906 321.730469 206.867188 320.628906 211.839844 319.246094 C 212.605469 319.035156 213.394531 319.480469 213.605469 320.246094 C 213.816406 321.007812 213.371094 321.796875 212.609375 322.011719 C 207.527344 323.421875 202.308594 324.546875 197.089844 325.363281 C 197.011719 325.375 196.9375 325.382812 196.863281 325.382812 Z M 227.09375 316.988281 C 226.53125 316.988281 225.992188 316.652344 225.765625 316.097656 C 225.46875 315.363281 225.820312 314.527344 226.554688 314.226562 C 231.335938 312.28125 236.058594 310.03125 240.589844 307.542969 C 241.28125 307.160156 242.152344 307.414062 242.535156 308.109375 C 242.917969 308.800781 242.664062 309.675781 241.96875 310.054688 C 237.339844 312.597656 232.519531 314.894531 227.636719 316.882812 C 227.457031 316.957031 227.273438 316.988281 227.09375 316.988281 Z M 254.59375 301.886719 C 254.144531 301.886719 253.703125 301.679688 253.421875 301.285156 C 252.964844 300.636719 253.117188 299.742188 253.761719 299.285156 C 257.972656 296.296875 262.058594 293.027344 265.902344 289.574219 C 266.492188 289.046875 267.398438 289.09375 267.925781 289.683594 C 268.457031 290.273438 268.40625 291.179688 267.820312 291.707031 C 263.890625 295.234375 259.722656 298.570312 255.421875 301.625 C 255.167969 301.800781 254.878906 301.886719 254.59375 301.886719 Z M 277.929688 280.925781 C 277.59375 280.925781 277.253906 280.808594 276.980469 280.566406 C 276.386719 280.042969 276.332031 279.136719 276.859375 278.542969 C 279.75 275.277344 282.515625 271.832031 285.078125 268.304688 C 285.542969 267.664062 286.4375 267.519531 287.078125 267.988281 C 287.71875 268.453125 287.863281 269.347656 287.394531 269.988281 C 284.78125 273.589844 281.957031 277.109375 279.003906 280.445312 C 278.71875 280.765625 278.328125 280.925781 277.929688 280.925781 Z M 277.929688 280.925781 " fill-opacity="1" fill-rule="nonzero"/><path fill="#7bcafa" d="M 275.917969 188.902344 C 275.917969 190.546875 275.878906 192.1875 275.796875 193.828125 C 275.71875 195.46875 275.597656 197.105469 275.4375 198.742188 C 275.273438 200.375 275.074219 202.003906 274.832031 203.628906 C 274.59375 205.253906 274.3125 206.871094 273.992188 208.484375 C 273.671875 210.09375 273.3125 211.695312 272.914062 213.289062 C 272.511719 214.882812 272.074219 216.464844 271.597656 218.035156 C 271.121094 219.609375 270.609375 221.167969 270.054688 222.714844 C 269.5 224.261719 268.910156 225.792969 268.28125 227.308594 C 267.652344 228.828125 266.988281 230.328125 266.285156 231.8125 C 265.585938 233.296875 264.847656 234.765625 264.074219 236.214844 C 263.296875 237.664062 262.488281 239.089844 261.644531 240.5 C 260.800781 241.910156 259.921875 243.296875 259.011719 244.660156 C 258.097656 246.027344 257.152344 247.371094 256.175781 248.6875 C 255.195312 250.007812 254.1875 251.304688 253.144531 252.574219 C 252.105469 253.84375 251.03125 255.085938 249.929688 256.300781 C 248.828125 257.519531 247.695312 258.707031 246.535156 259.871094 C 245.371094 261.03125 244.183594 262.164062 242.96875 263.265625 C 241.75 264.371094 240.507812 265.441406 239.238281 266.484375 C 237.96875 267.527344 236.675781 268.535156 235.355469 269.515625 C 234.035156 270.492188 232.695312 271.4375 231.328125 272.351562 C 229.964844 273.265625 228.578125 274.144531 227.167969 274.988281 C 225.761719 275.832031 224.332031 276.640625 222.882812 277.414062 C 221.4375 278.1875 219.96875 278.925781 218.484375 279.628906 C 217 280.332031 215.5 280.996094 213.984375 281.625 C 212.46875 282.253906 210.933594 282.84375 209.390625 283.398438 C 207.84375 283.953125 206.285156 284.46875 204.714844 284.945312 C 203.140625 285.421875 201.558594 285.859375 199.96875 286.257812 C 198.375 286.65625 196.773438 287.015625 195.164062 287.335938 C 193.550781 287.65625 191.933594 287.9375 190.3125 288.179688 C 188.6875 288.421875 187.058594 288.621094 185.421875 288.78125 C 183.789062 288.945312 182.152344 289.0625 180.511719 289.144531 C 178.871094 289.226562 177.230469 289.265625 175.589844 289.265625 C 173.949219 289.265625 172.304688 289.226562 170.667969 289.144531 C 169.027344 289.0625 167.390625 288.945312 165.753906 288.78125 C 164.121094 288.621094 162.492188 288.421875 160.867188 288.179688 C 159.242188 287.9375 157.625 287.65625 156.015625 287.335938 C 154.40625 287.015625 152.804688 286.65625 151.210938 286.257812 C 149.617188 285.859375 148.035156 285.421875 146.464844 284.945312 C 144.894531 284.46875 143.335938 283.953125 141.789062 283.398438 C 140.242188 282.84375 138.710938 282.253906 137.195312 281.625 C 135.679688 280.996094 134.175781 280.332031 132.691406 279.628906 C 131.207031 278.925781 129.742188 278.1875 128.292969 277.414062 C 126.847656 276.640625 125.417969 275.832031 124.007812 274.988281 C 122.601562 274.144531 121.214844 273.265625 119.847656 272.351562 C 118.484375 271.4375 117.140625 270.492188 115.824219 269.515625 C 114.503906 268.535156 113.210938 267.527344 111.941406 266.484375 C 110.671875 265.441406 109.429688 264.371094 108.210938 263.265625 C 106.996094 262.164062 105.808594 261.03125 104.644531 259.871094 C 103.484375 258.707031 102.351562 257.519531 101.25 256.300781 C 100.148438 255.085938 99.074219 253.84375 98.035156 252.574219 C 96.992188 251.304688 95.980469 250.007812 95.003906 248.6875 C 94.027344 247.371094 93.082031 246.027344 92.167969 244.660156 C 91.257812 243.296875 90.378906 241.910156 89.535156 240.5 C 88.691406 239.089844 87.878906 237.664062 87.105469 236.214844 C 86.332031 234.765625 85.59375 233.296875 84.890625 231.8125 C 84.191406 230.328125 83.523438 228.828125 82.898438 227.308594 C 82.269531 225.792969 81.679688 224.261719 81.125 222.714844 C 80.570312 221.167969 80.054688 219.609375 79.578125 218.035156 C 79.101562 216.464844 78.664062 214.882812 78.265625 213.289062 C 77.867188 211.695312 77.507812 210.09375 77.1875 208.484375 C 76.867188 206.871094 76.585938 205.253906 76.34375 203.628906 C 76.105469 202.003906 75.902344 200.375 75.742188 198.742188 C 75.582031 197.105469 75.460938 195.46875 75.378906 193.828125 C 75.300781 192.1875 75.257812 190.546875 75.257812 188.902344 C 75.257812 187.261719 75.300781 185.621094 75.378906 183.980469 C 75.460938 182.339844 75.582031 180.699219 75.742188 179.066406 C 75.902344 177.429688 76.105469 175.800781 76.34375 174.175781 C 76.585938 172.550781 76.867188 170.933594 77.1875 169.324219 C 77.507812 167.710938 77.867188 166.109375 78.265625 164.515625 C 78.664062 162.925781 79.101562 161.339844 79.578125 159.769531 C 80.054688 158.199219 80.570312 156.636719 81.125 155.09375 C 81.679688 153.546875 82.269531 152.011719 82.898438 150.496094 C 83.523438 148.980469 84.191406 147.476562 84.890625 145.992188 C 85.59375 144.507812 86.332031 143.042969 87.105469 141.59375 C 87.878906 140.144531 88.691406 138.714844 89.535156 137.304688 C 90.378906 135.898438 91.257812 134.511719 92.167969 133.144531 C 93.082031 131.777344 94.027344 130.4375 95.003906 129.117188 C 95.980469 127.796875 96.992188 126.503906 98.035156 125.234375 C 99.074219 123.964844 100.148438 122.722656 101.25 121.503906 C 102.351562 120.285156 103.484375 119.097656 104.644531 117.9375 C 105.808594 116.773438 106.996094 115.640625 108.210938 114.539062 C 109.429688 113.4375 110.671875 112.363281 111.941406 111.320312 C 113.210938 110.28125 114.503906 109.269531 115.824219 108.292969 C 117.140625 107.3125 118.484375 106.367188 119.847656 105.453125 C 121.214844 104.542969 122.601562 103.664062 124.007812 102.820312 C 125.417969 101.976562 126.847656 101.164062 128.292969 100.390625 C 129.742188 99.617188 131.207031 98.878906 132.691406 98.175781 C 134.175781 97.472656 135.679688 96.808594 137.195312 96.179688 C 138.710938 95.550781 140.242188 94.960938 141.789062 94.40625 C 143.335938 93.855469 144.894531 93.339844 146.464844 92.863281 C 148.035156 92.386719 149.617188 91.949219 151.210938 91.546875 C 152.804688 91.148438 154.40625 90.789062 156.015625 90.46875 C 157.625 90.148438 159.242188 89.867188 160.867188 89.625 C 162.492188 89.386719 164.121094 89.183594 165.753906 89.023438 C 167.390625 88.863281 169.027344 88.742188 170.667969 88.660156 C 172.304688 88.582031 173.949219 88.539062 175.589844 88.539062 C 177.230469 88.539062 178.871094 88.582031 180.511719 88.660156 C 182.152344 88.742188 183.789062 88.863281 185.421875 89.023438 C 187.058594 89.183594 188.6875 89.386719 190.3125 89.625 C 191.933594 89.867188 193.550781 90.148438 195.164062 90.46875 C 196.773438 90.789062 198.375 91.148438 199.96875 91.546875 C 201.558594 91.949219 203.140625 92.386719 204.714844 92.863281 C 206.285156 93.339844 207.84375 93.855469 209.390625 94.40625 C 210.9375 94.960938 212.46875 95.550781 213.984375 96.179688 C 215.5 96.808594 217 97.472656 218.484375 98.175781 C 219.96875 98.878906 221.4375 99.617188 222.882812 100.390625 C 224.332031 101.164062 225.761719 101.976562 227.167969 102.820312 C 228.578125 103.664062 229.964844 104.542969 231.328125 105.453125 C 232.695312 106.367188 234.035156 107.3125 235.355469 108.292969 C 236.675781 109.269531 237.96875 110.28125 239.238281 111.320312 C 240.507812 112.363281 241.75 113.4375 242.96875 114.539062 C 244.183594 115.640625 245.371094 116.773438 246.535156 117.9375 C 247.695312 119.097656 248.828125 120.285156 249.929688 121.503906 C 251.03125 122.722656 252.105469 123.964844 253.144531 125.234375 C 254.1875 126.503906 255.195312 127.796875 256.175781 129.117188 C 257.152344 130.4375 258.097656 131.777344 259.011719 133.144531 C 259.921875 134.511719 260.800781 135.898438 261.644531 137.304688 C 262.488281 138.714844 263.296875 140.144531 264.074219 141.59375 C 264.847656 143.042969 265.585938 144.507812 266.285156 145.992188 C 266.988281 147.476562 267.652344 148.980469 268.28125 150.496094 C 268.910156 152.011719 269.5 153.546875 270.054688 155.09375 C 270.609375 156.636719 271.121094 158.199219 271.597656 159.769531 C 272.074219 161.339844 272.511719 162.925781 272.914062 164.515625 C 273.3125 166.109375 273.671875 167.710938 273.992188 169.324219 C 274.3125 170.933594 274.59375 172.550781 274.832031 174.175781 C 275.074219 175.800781 275.273438 177.429688 275.4375 179.066406 C 275.597656 180.699219 275.71875 182.339844 275.796875 183.980469 C 275.878906 185.621094 275.917969 187.261719 275.917969 188.902344 Z M 275.917969 188.902344 " fill-opacity="1" fill-rule="nonzero"/><path fill="#ffffff" d="M 178.265625 158.480469 L 178.265625 87.867188 L 117.132812 52.558594 L 56 87.867188 L 56 158.480469 L 117.132812 193.789062 Z M 178.265625 158.480469 " fill-opacity="1" fill-rule="nonzero"/><path fill="#000000" d="M 117.132812 195.222656 C 116.886719 195.222656 116.640625 195.15625 116.417969 195.027344 L 55.285156 159.722656 C 54.839844 159.464844 54.566406 158.992188 54.566406 158.480469 L 54.566406 87.867188 C 54.566406 87.355469 54.839844 86.882812 55.285156 86.625 L 116.417969 51.320312 C 116.859375 51.0625 117.40625 51.0625 117.851562 51.320312 L 178.984375 86.625 C 179.425781 86.882812 179.699219 87.355469 179.699219 87.867188 L 179.699219 158.480469 C 179.699219 158.992188 179.425781 159.464844 178.984375 159.722656 L 117.851562 195.027344 C 117.628906 195.15625 117.382812 195.222656 117.132812 195.222656 Z M 57.433594 157.652344 L 117.132812 192.132812 L 176.832031 157.652344 L 176.832031 88.695312 L 117.132812 54.214844 L 57.433594 88.695312 Z M 178.265625 158.480469 L 178.269531 158.480469 Z M 178.265625 158.480469 " fill-opacity="1" fill-rule="nonzero"/><path fill="#000000" d="M 178.265625 160.257812 C 178.019531 160.257812 177.773438 160.195312 177.546875 160.0625 L 55.28125 88.859375 C 54.59375 88.460938 54.363281 87.582031 54.761719 86.898438 C 55.160156 86.210938 56.039062 85.980469 56.722656 86.378906 L 178.988281 157.582031 C 179.671875 157.980469 179.90625 158.859375 179.507812 159.542969 C 179.238281 160 178.757812 160.257812 178.265625 160.257812 Z M 178.265625 160.257812 " fill-opacity="1" fill-rule="nonzero"/><path fill="#000000" d="M 56.003906 160.257812 C 55.507812 160.257812 55.027344 160 54.761719 159.542969 C 54.363281 158.859375 54.59375 157.980469 55.28125 157.582031 L 177.546875 86.378906 C 178.230469 85.980469 179.109375 86.210938 179.507812 86.898438 C 179.90625 87.582031 179.671875 88.460938 178.988281 88.859375 L 56.722656 160.0625 C 56.496094 160.195312 56.246094 160.257812 56.003906 160.257812 Z M 56.003906 160.257812 " fill-opacity="1" fill-rule="nonzero"/><path fill="#000000" d="M 117.132812 195.222656 C 116.34375 195.222656 115.699219 194.578125 115.699219 193.789062 L 115.699219 52.558594 C 115.699219 51.769531 116.34375 51.125 117.132812 51.125 C 117.925781 51.125 118.566406 51.769531 118.566406 52.558594 L 118.566406 193.789062 C 118.566406 194.578125 117.925781 195.222656 117.132812 195.222656 Z M 117.132812 195.222656 " fill-opacity="1" fill-rule="nonzero"/><path fill="#ffffff" d="M 124.65625 45.03125 C 125.152344 45.527344 125.59375 46.066406 125.980469 46.644531 C 126.371094 47.226562 126.699219 47.839844 126.964844 48.488281 C 127.230469 49.132812 127.433594 49.796875 127.570312 50.484375 C 127.707031 51.167969 127.773438 51.863281 127.773438 52.5625 C 127.773438 53.257812 127.707031 53.953125 127.570312 54.636719 C 127.433594 55.324219 127.230469 55.988281 126.964844 56.632812 C 126.699219 57.28125 126.371094 57.894531 125.980469 58.476562 C 125.59375 59.054688 125.152344 59.59375 124.65625 60.089844 C 124.164062 60.582031 123.625 61.023438 123.046875 61.414062 C 122.464844 61.800781 121.851562 62.128906 121.207031 62.394531 C 120.558594 62.664062 119.894531 62.867188 119.207031 63.003906 C 118.523438 63.140625 117.832031 63.207031 117.132812 63.207031 C 116.433594 63.207031 115.742188 63.140625 115.054688 63.003906 C 114.371094 62.867188 113.707031 62.664062 113.058594 62.398438 C 112.414062 62.128906 111.800781 61.800781 111.21875 61.414062 C 110.640625 61.023438 110.101562 60.582031 109.605469 60.089844 C 109.113281 59.59375 108.671875 59.058594 108.285156 58.476562 C 107.894531 57.894531 107.566406 57.28125 107.300781 56.636719 C 107.03125 55.988281 106.832031 55.324219 106.695312 54.636719 C 106.558594 53.953125 106.488281 53.261719 106.488281 52.5625 C 106.488281 51.863281 106.558594 51.167969 106.695312 50.484375 C 106.832031 49.796875 107.03125 49.132812 107.300781 48.488281 C 107.566406 47.839844 107.894531 47.226562 108.285156 46.644531 C 108.671875 46.066406 109.113281 45.527344 109.605469 45.03125 C 110.101562 44.539062 110.636719 44.097656 111.21875 43.710938 C 111.800781 43.320312 112.414062 42.992188 113.058594 42.726562 C 113.707031 42.457031 114.371094 42.257812 115.054688 42.121094 C 115.742188 41.984375 116.433594 41.914062 117.132812 41.914062 C 117.832031 41.914062 118.523438 41.984375 119.207031 42.121094 C 119.894531 42.253906 120.558594 42.457031 121.203125 42.726562 C 121.851562 42.992188 122.464844 43.320312 123.042969 43.707031 C 123.625 44.097656 124.164062 44.539062 124.65625 45.03125 Z M 124.65625 45.03125 " fill-opacity="1" fill-rule="nonzero"/><path fill="#000000" d="M 117.132812 64.640625 C 110.476562 64.640625 105.058594 59.222656 105.058594 52.558594 C 105.058594 45.898438 110.476562 40.480469 117.132812 40.480469 C 123.792969 40.480469 129.210938 45.898438 129.210938 52.558594 C 129.210938 59.222656 123.792969 64.640625 117.132812 64.640625 Z M 117.132812 43.347656 C 112.054688 43.347656 107.925781 47.480469 107.925781 52.558594 C 107.925781 57.640625 112.054688 61.773438 117.132812 61.773438 C 122.210938 61.773438 126.34375 57.640625 126.34375 52.558594 C 126.34375 47.480469 122.210938 43.347656 117.132812 43.347656 Z M 117.132812 43.347656 " fill-opacity="1" fill-rule="nonzero"/><path fill="#026bbf" d="M 185.789062 80.089844 C 186.285156 80.585938 186.726562 81.125 187.113281 81.703125 C 187.503906 82.285156 187.828125 82.898438 188.097656 83.542969 C 188.363281 84.191406 188.566406 84.855469 188.703125 85.542969 C 188.839844 86.226562 188.90625 86.917969 188.90625 87.617188 C 188.90625 88.316406 188.839844 89.011719 188.703125 89.695312 C 188.566406 90.382812 188.363281 91.046875 188.097656 91.691406 C 187.828125 92.339844 187.503906 92.953125 187.113281 93.535156 C 186.726562 94.113281 186.285156 94.652344 185.789062 95.148438 C 185.296875 95.640625 184.757812 96.082031 184.175781 96.472656 C 183.597656 96.859375 182.984375 97.1875 182.335938 97.453125 C 181.691406 97.722656 181.027344 97.925781 180.339844 98.058594 C 179.65625 98.195312 178.964844 98.265625 178.265625 98.265625 C 177.566406 98.265625 176.875 98.195312 176.1875 98.058594 C 175.503906 97.925781 174.839844 97.722656 174.191406 97.453125 C 173.546875 97.1875 172.933594 96.859375 172.351562 96.472656 C 171.769531 96.082031 171.234375 95.640625 170.738281 95.148438 C 170.246094 94.652344 169.804688 94.113281 169.417969 93.535156 C 169.027344 92.953125 168.699219 92.339844 168.433594 91.691406 C 168.164062 91.046875 167.964844 90.382812 167.828125 89.695312 C 167.691406 89.011719 167.621094 88.316406 167.621094 87.621094 C 167.621094 86.921875 167.691406 86.226562 167.828125 85.542969 C 167.964844 84.855469 168.164062 84.191406 168.433594 83.546875 C 168.699219 82.898438 169.027344 82.285156 169.414062 81.703125 C 169.804688 81.125 170.246094 80.585938 170.738281 80.089844 C 171.234375 79.597656 171.769531 79.15625 172.351562 78.765625 C 172.933594 78.378906 173.546875 78.050781 174.191406 77.785156 C 174.835938 77.515625 175.503906 77.3125 176.1875 77.175781 C 176.875 77.042969 177.566406 76.972656 178.265625 76.972656 C 178.964844 76.972656 179.65625 77.042969 180.339844 77.175781 C 181.027344 77.3125 181.691406 77.515625 182.335938 77.785156 C 182.984375 78.050781 183.597656 78.378906 184.175781 78.765625 C 184.757812 79.15625 185.296875 79.597656 185.789062 80.089844 Z M 185.789062 80.089844 " fill-opacity="1" fill-rule="nonzero"/><path fill="#000000" d="M 178.265625 99.699219 C 171.609375 99.699219 166.191406 94.277344 166.191406 87.617188 C 166.191406 80.957031 171.609375 75.539062 178.265625 75.539062 C 184.925781 75.539062 190.34375 80.957031 190.34375 87.617188 C 190.34375 94.28125 184.925781 99.699219 178.265625 99.699219 Z M 178.265625 78.40625 C 173.1875 78.40625 169.058594 82.539062 169.058594 87.617188 C 169.058594 92.699219 173.1875 96.832031 178.265625 96.832031 C 183.34375 96.832031 187.476562 92.699219 187.476562 87.617188 C 187.476562 82.539062 183.34375 78.40625 178.265625 78.40625 Z M 178.265625 78.40625 " fill-opacity="1" fill-rule="nonzero"/><path fill="#ffc180" d="M 188.910156 158.824219 C 188.910156 159.523438 188.839844 160.214844 188.707031 160.898438 C 188.570312 161.585938 188.367188 162.25 188.101562 162.898438 C 187.832031 163.542969 187.503906 164.15625 187.117188 164.738281 C 186.726562 165.320312 186.285156 165.855469 185.792969 166.351562 C 185.296875 166.84375 184.761719 167.285156 184.179688 167.675781 C 183.597656 168.0625 182.984375 168.390625 182.339844 168.660156 C 181.695312 168.925781 181.027344 169.128906 180.34375 169.265625 C 179.65625 169.402344 178.964844 169.46875 178.265625 169.46875 C 177.570312 169.46875 176.875 169.402344 176.191406 169.265625 C 175.503906 169.128906 174.839844 168.925781 174.195312 168.660156 C 173.550781 168.390625 172.9375 168.0625 172.355469 167.675781 C 171.773438 167.285156 171.234375 166.84375 170.742188 166.351562 C 170.246094 165.855469 169.804688 165.320312 169.417969 164.738281 C 169.03125 164.15625 168.703125 163.542969 168.433594 162.898438 C 168.167969 162.25 167.964844 161.585938 167.828125 160.898438 C 167.691406 160.214844 167.625 159.523438 167.625 158.824219 C 167.625 158.125 167.691406 157.429688 167.828125 156.746094 C 167.964844 156.058594 168.167969 155.394531 168.433594 154.75 C 168.703125 154.101562 169.03125 153.488281 169.417969 152.90625 C 169.804688 152.328125 170.246094 151.789062 170.742188 151.292969 C 171.234375 150.800781 171.773438 150.359375 172.355469 149.972656 C 172.9375 149.582031 173.550781 149.253906 174.195312 148.988281 C 174.839844 148.71875 175.503906 148.519531 176.191406 148.382812 C 176.875 148.246094 177.570312 148.175781 178.265625 148.175781 C 178.964844 148.175781 179.65625 148.246094 180.34375 148.382812 C 181.027344 148.519531 181.695312 148.71875 182.339844 148.988281 C 182.984375 149.253906 183.597656 149.582031 184.179688 149.972656 C 184.761719 150.359375 185.296875 150.800781 185.792969 151.292969 C 186.285156 151.789062 186.726562 152.328125 187.117188 152.90625 C 187.503906 153.488281 187.832031 154.101562 188.101562 154.75 C 188.367188 155.394531 188.570312 156.058594 188.707031 156.746094 C 188.839844 157.429688 188.910156 158.125 188.910156 158.824219 Z M 188.910156 158.824219 " fill-opacity="1" fill-rule="nonzero"/><path fill="#000000" d="M 178.265625 170.902344 C 171.609375 170.902344 166.191406 165.484375 166.191406 158.824219 C 166.191406 152.160156 171.609375 146.742188 178.265625 146.742188 C 184.925781 146.742188 190.34375 152.160156 190.34375 158.824219 C 190.34375 165.484375 184.925781 170.902344 178.265625 170.902344 Z M 178.265625 149.609375 C 173.1875 149.609375 169.058594 153.742188 169.058594 158.824219 C 169.058594 163.902344 173.1875 168.035156 178.265625 168.035156 C 183.34375 168.035156 187.476562 163.902344 187.476562 158.824219 C 187.476562 153.742188 183.34375 149.609375 178.265625 149.609375 Z M 178.265625 149.609375 " fill-opacity="1" fill-rule="nonzero"/><path fill="#ffffff" d="M 124.652344 186.257812 C 125.148438 186.753906 125.589844 187.289062 125.976562 187.871094 C 126.363281 188.453125 126.691406 189.066406 126.960938 189.710938 C 127.226562 190.359375 127.429688 191.023438 127.566406 191.710938 C 127.703125 192.394531 127.769531 193.085938 127.769531 193.785156 C 127.769531 194.484375 127.703125 195.179688 127.566406 195.863281 C 127.429688 196.550781 127.226562 197.214844 126.960938 197.859375 C 126.691406 198.507812 126.363281 199.121094 125.976562 199.703125 C 125.589844 200.28125 125.148438 200.820312 124.652344 201.316406 C 124.160156 201.808594 123.621094 202.25 123.039062 202.636719 C 122.460938 203.027344 121.847656 203.355469 121.199219 203.621094 C 120.554688 203.890625 119.890625 204.09375 119.203125 204.226562 C 118.519531 204.363281 117.828125 204.433594 117.128906 204.433594 C 116.429688 204.433594 115.738281 204.363281 115.050781 204.226562 C 114.367188 204.09375 113.699219 203.890625 113.054688 203.621094 C 112.410156 203.355469 111.796875 203.027344 111.214844 202.640625 C 110.632812 202.25 110.097656 201.808594 109.601562 201.316406 C 109.109375 200.820312 108.667969 200.28125 108.277344 199.703125 C 107.890625 199.121094 107.5625 198.507812 107.296875 197.859375 C 107.027344 197.214844 106.824219 196.550781 106.691406 195.863281 C 106.554688 195.179688 106.484375 194.484375 106.484375 193.785156 C 106.484375 193.089844 106.554688 192.394531 106.691406 191.710938 C 106.824219 191.023438 107.027344 190.359375 107.296875 189.714844 C 107.5625 189.066406 107.890625 188.453125 108.277344 187.871094 C 108.667969 187.292969 109.109375 186.753906 109.601562 186.257812 C 110.097656 185.765625 110.632812 185.324219 111.214844 184.933594 C 111.796875 184.546875 112.410156 184.21875 113.054688 183.953125 C 113.699219 183.683594 114.367188 183.480469 115.050781 183.34375 C 115.738281 183.210938 116.429688 183.140625 117.128906 183.140625 C 117.828125 183.140625 118.519531 183.210938 119.203125 183.34375 C 119.890625 183.480469 120.554688 183.683594 121.199219 183.949219 C 121.847656 184.21875 122.460938 184.546875 123.039062 184.933594 C 123.621094 185.324219 124.160156 185.765625 124.652344 186.257812 Z M 124.652344 186.257812 " fill-opacity="1" fill-rule="nonzero"/><path fill="#000000" d="M 117.128906 205.867188 C 110.472656 205.867188 105.054688 200.449219 105.054688 193.789062 C 105.054688 187.125 110.472656 181.707031 117.128906 181.707031 C 123.789062 181.707031 129.207031 187.125 129.207031 193.789062 C 129.207031 200.449219 123.789062 205.867188 117.128906 205.867188 Z M 117.128906 184.574219 C 112.050781 184.574219 107.921875 188.707031 107.921875 193.789062 C 107.921875 198.867188 112.050781 203 117.128906 203 C 122.207031 203 126.339844 198.867188 126.339844 193.789062 C 126.339844 188.707031 122.207031 184.574219 117.128906 184.574219 Z M 117.128906 184.574219 " fill-opacity="1" fill-rule="nonzero"/><path fill="#026bbf" d="M 66.644531 158.824219 C 66.644531 159.523438 66.574219 160.214844 66.4375 160.898438 C 66.304688 161.585938 66.101562 162.25 65.832031 162.898438 C 65.566406 163.542969 65.238281 164.15625 64.851562 164.738281 C 64.460938 165.320312 64.019531 165.855469 63.527344 166.351562 C 63.03125 166.84375 62.496094 167.285156 61.914062 167.675781 C 61.332031 168.0625 60.71875 168.390625 60.074219 168.660156 C 59.429688 168.925781 58.761719 169.128906 58.078125 169.265625 C 57.390625 169.402344 56.699219 169.46875 56 169.46875 C 55.300781 169.46875 54.609375 169.402344 53.925781 169.265625 C 53.238281 169.128906 52.574219 168.925781 51.929688 168.660156 C 51.28125 168.390625 50.667969 168.0625 50.089844 167.675781 C 49.507812 167.285156 48.96875 166.84375 48.476562 166.351562 C 47.980469 165.855469 47.539062 165.320312 47.152344 164.738281 C 46.765625 164.15625 46.4375 163.542969 46.167969 162.898438 C 45.902344 162.25 45.699219 161.585938 45.5625 160.898438 C 45.425781 160.214844 45.359375 159.523438 45.359375 158.824219 C 45.359375 158.125 45.425781 157.429688 45.5625 156.746094 C 45.699219 156.058594 45.902344 155.394531 46.167969 154.75 C 46.4375 154.101562 46.765625 153.488281 47.152344 152.90625 C 47.539062 152.328125 47.980469 151.789062 48.476562 151.292969 C 48.96875 150.800781 49.507812 150.359375 50.089844 149.972656 C 50.667969 149.582031 51.28125 149.253906 51.929688 148.988281 C 52.574219 148.71875 53.238281 148.519531 53.925781 148.382812 C 54.609375 148.246094 55.300781 148.175781 56 148.175781 C 56.699219 148.175781 57.390625 148.246094 58.078125 148.382812 C 58.761719 148.519531 59.429688 148.71875 60.074219 148.988281 C 60.71875 149.253906 61.332031 149.582031 61.914062 149.972656 C 62.496094 150.359375 63.03125 150.800781 63.527344 151.292969 C 64.019531 151.789062 64.460938 152.328125 64.851562 152.90625 C 65.238281 153.488281 65.566406 154.101562 65.832031 154.75 C 66.101562 155.394531 66.304688 156.058594 66.4375 156.746094 C 66.574219 157.429688 66.644531 158.125 66.644531 158.824219 Z M 66.644531 158.824219 " fill-opacity="1" fill-rule="nonzero"/><path fill="#000000" d="M 56 170.902344 C 49.34375 170.902344 43.925781 165.484375 43.925781 158.824219 C 43.925781 152.160156 49.34375 146.742188 56 146.742188 C 62.660156 146.742188 68.078125 152.160156 68.078125 158.824219 C 68.078125 165.484375 62.660156 170.902344 56 170.902344 Z M 56 149.609375 C 50.921875 149.609375 46.792969 153.742188 46.792969 158.824219 C 46.792969 163.902344 50.921875 168.035156 56 168.035156 C 61.078125 168.035156 65.210938 163.902344 65.210938 158.824219 C 65.210938 153.742188 61.078125 149.609375 56 149.609375 Z M 56 149.609375 " fill-opacity="1" fill-rule="nonzero"/><path fill="#ffc180" d="M 63.523438 80.089844 C 64.019531 80.585938 64.460938 81.121094 64.847656 81.703125 C 65.238281 82.285156 65.566406 82.898438 65.832031 83.542969 C 66.097656 84.191406 66.300781 84.855469 66.4375 85.542969 C 66.574219 86.226562 66.640625 86.917969 66.640625 87.617188 C 66.640625 88.316406 66.574219 89.007812 66.4375 89.695312 C 66.300781 90.378906 66.097656 91.046875 65.832031 91.691406 C 65.566406 92.335938 65.238281 92.953125 64.847656 93.53125 C 64.460938 94.113281 64.019531 94.652344 63.523438 95.144531 C 63.03125 95.640625 62.492188 96.082031 61.914062 96.46875 C 61.332031 96.859375 60.71875 97.1875 60.074219 97.453125 C 59.425781 97.722656 58.761719 97.921875 58.074219 98.058594 C 57.390625 98.195312 56.699219 98.265625 56 98.265625 C 55.300781 98.265625 54.609375 98.195312 53.921875 98.058594 C 53.238281 97.921875 52.574219 97.722656 51.925781 97.453125 C 51.28125 97.1875 50.667969 96.859375 50.085938 96.46875 C 49.507812 96.082031 48.96875 95.640625 48.472656 95.144531 C 47.980469 94.652344 47.539062 94.113281 47.152344 93.53125 C 46.761719 92.953125 46.433594 92.339844 46.167969 91.691406 C 45.898438 91.046875 45.699219 90.382812 45.5625 89.695312 C 45.425781 89.007812 45.355469 88.316406 45.355469 87.617188 C 45.355469 86.917969 45.425781 86.226562 45.5625 85.542969 C 45.699219 84.855469 45.898438 84.191406 46.167969 83.542969 C 46.433594 82.898438 46.761719 82.285156 47.152344 81.703125 C 47.539062 81.121094 47.980469 80.585938 48.472656 80.089844 C 48.96875 79.597656 49.503906 79.15625 50.085938 78.765625 C 50.667969 78.378906 51.28125 78.050781 51.925781 77.78125 C 52.574219 77.515625 53.238281 77.3125 53.921875 77.175781 C 54.609375 77.039062 55.300781 76.972656 56 76.972656 C 56.699219 76.972656 57.390625 77.039062 58.074219 77.175781 C 58.761719 77.3125 59.425781 77.515625 60.070312 77.78125 C 60.71875 78.050781 61.332031 78.378906 61.914062 78.765625 C 62.492188 79.15625 63.03125 79.597656 63.523438 80.089844 Z M 63.523438 80.089844 " fill-opacity="1" fill-rule="nonzero"/><path fill="#000000" d="M 56 99.699219 C 49.34375 99.699219 43.925781 94.277344 43.925781 87.617188 C 43.925781 80.957031 49.34375 75.539062 56 75.539062 C 62.660156 75.539062 68.078125 80.957031 68.078125 87.617188 C 68.078125 94.28125 62.660156 99.699219 56 99.699219 Z M 56 78.40625 C 50.921875 78.40625 46.792969 82.539062 46.792969 87.617188 C 46.792969 92.699219 50.921875 96.832031 56 96.832031 C 61.078125 96.832031 65.210938 92.699219 65.210938 87.617188 C 65.210938 82.539062 61.078125 78.40625 56 78.40625 Z M 56 78.40625 " fill-opacity="1" fill-rule="nonzero"/><path fill="#026bbf" d="M 144.683594 115.472656 L 144.683594 139.824219 C 144.683594 142.472656 142.992188 144.859375 140.464844 145.660156 C 125.1875 150.5 109.445312 150.203125 93.304688 145.558594 C 90.691406 144.804688 88.910156 142.382812 88.910156 139.664062 L 88.910156 115.472656 Z M 144.683594 115.472656 " fill-opacity="1" fill-rule="nonzero"/><path fill="#000000" d="M 117.695312 150.601562 C 117.527344 150.601562 117.363281 150.601562 117.199219 150.597656 C 109.355469 150.550781 101.183594 149.316406 92.910156 146.933594 C 89.710938 146.015625 87.476562 143.023438 87.476562 139.664062 L 87.476562 115.472656 C 87.476562 114.679688 88.121094 114.035156 88.910156 114.035156 C 89.703125 114.035156 90.34375 114.679688 90.34375 115.472656 L 90.34375 139.664062 C 90.34375 141.753906 91.726562 143.609375 93.703125 144.179688 C 109.929688 148.851562 125.519531 148.890625 140.03125 144.292969 C 141.957031 143.683594 143.25 141.886719 143.25 139.824219 L 143.25 115.472656 C 143.25 114.679688 143.890625 114.035156 144.683594 114.035156 C 145.472656 114.035156 146.117188 114.679688 146.117188 115.472656 L 146.117188 139.824219 C 146.117188 143.144531 144.019531 146.039062 140.898438 147.027344 C 133.410156 149.398438 125.605469 150.601562 117.695312 150.601562 Z M 117.695312 150.601562 " fill-opacity="1" fill-rule="nonzero"/><path fill="#000000" d="M 72.84375 132.605469 C 72.054688 132.605469 71.410156 131.964844 71.410156 131.171875 L 71.410156 109.679688 C 71.410156 108.886719 72.054688 108.246094 72.84375 108.246094 C 73.636719 108.246094 74.277344 108.886719 74.277344 109.679688 L 74.277344 131.171875 C 74.277344 131.964844 73.636719 132.605469 72.84375 132.605469 Z M 72.84375 132.605469 " fill-opacity="1" fill-rule="nonzero"/><path fill="#026bbf" d="M 73.859375 108.320312 L 115.160156 96.152344 C 116.230469 95.839844 117.363281 95.839844 118.433594 96.152344 L 159.734375 108.320312 C 161.085938 108.71875 161.085938 110.636719 159.734375 111.039062 L 118.433594 123.203125 C 117.363281 123.519531 116.226562 123.519531 115.160156 123.203125 L 73.859375 111.039062 C 72.507812 110.636719 72.507812 108.71875 73.859375 108.320312 Z M 73.859375 108.320312 " fill-opacity="1" fill-rule="nonzero"/><path fill="#000000" d="M 116.796875 124.875 C 116.109375 124.875 115.421875 124.777344 114.753906 124.578125 L 73.457031 112.414062 C 72.234375 112.050781 71.410156 110.953125 71.410156 109.679688 C 71.410156 108.402344 72.234375 107.304688 73.457031 106.945312 L 114.753906 94.777344 C 116.089844 94.386719 117.503906 94.386719 118.839844 94.777344 L 160.136719 106.945312 C 161.359375 107.304688 162.183594 108.402344 162.183594 109.679688 C 162.183594 110.953125 161.359375 112.050781 160.136719 112.414062 L 118.839844 124.578125 C 118.171875 124.777344 117.484375 124.875 116.796875 124.875 Z M 74.324219 109.679688 L 115.566406 121.828125 C 116.371094 122.066406 117.222656 122.066406 118.027344 121.828125 L 159.269531 109.679688 L 118.027344 97.53125 C 117.222656 97.292969 116.371094 97.292969 115.566406 97.53125 Z M 73.859375 108.320312 L 73.863281 108.320312 Z M 73.859375 108.320312 " fill-opacity="1" fill-rule="nonzero"/><path fill="#026bbf" d="M 284.230469 182.511719 L 306.105469 194.011719 C 310.386719 196.316406 313.683594 200.09375 315.390625 204.648438 L 327.5625 237.253906 C 329.929688 243.566406 327.980469 250.6875 322.730469 254.914062 L 319.609375 257.433594 C 318.648438 258.207031 317.453125 258.628906 316.21875 258.628906 L 213.476562 258.628906 C 212.242188 258.628906 211.046875 258.207031 210.085938 257.433594 L 206.964844 254.914062 C 201.714844 250.6875 199.773438 243.566406 202.132812 237.253906 L 214.304688 204.648438 C 216.011719 200.09375 219.308594 196.316406 223.589844 194.011719 L 245.464844 182.511719 Z M 284.230469 182.511719 " fill-opacity="1" fill-rule="nonzero"/><path fill="#000000" d="M 316.21875 260.0625 L 213.476562 260.0625 C 211.921875 260.0625 210.398438 259.523438 209.1875 258.550781 L 206.0625 256.03125 C 200.328125 251.410156 198.210938 243.664062 200.789062 236.75 L 212.964844 204.144531 C 214.792969 199.265625 218.328125 195.21875 222.910156 192.75 C 222.917969 192.75 222.921875 192.746094 222.925781 192.742188 L 244.800781 181.242188 C 245.5 180.875 246.367188 181.144531 246.734375 181.84375 C 247.101562 182.546875 246.832031 183.414062 246.132812 183.78125 L 224.265625 195.277344 C 220.292969 197.417969 217.234375 200.921875 215.648438 205.152344 L 203.476562 237.753906 C 201.328125 243.507812 203.089844 249.953125 207.863281 253.796875 L 210.984375 256.316406 C 211.6875 256.882812 212.574219 257.195312 213.476562 257.195312 L 316.21875 257.195312 C 317.121094 257.195312 318.007812 256.882812 318.710938 256.316406 L 321.832031 253.800781 C 326.609375 249.949219 328.375 243.5 326.222656 237.757812 L 314.046875 205.148438 C 312.460938 200.921875 309.402344 197.417969 305.429688 195.277344 L 283.5625 183.78125 C 282.863281 183.414062 282.59375 182.546875 282.960938 181.84375 C 283.328125 181.144531 284.195312 180.875 284.898438 181.242188 L 306.769531 192.742188 C 306.773438 192.746094 306.78125 192.75 306.785156 192.75 C 311.367188 195.21875 314.902344 199.265625 316.730469 204.144531 L 328.90625 236.75 C 331.492188 243.65625 329.375 251.40625 323.628906 256.03125 L 320.507812 258.550781 C 319.296875 259.523438 317.773438 260.0625 316.21875 260.0625 Z M 316.21875 260.0625 " fill-opacity="1" fill-rule="nonzero"/><path fill="#ffffff" d="M 307.136719 258.628906 L 222.6875 258.628906 L 222.6875 210.234375 C 222.6875 207.25 225.105469 204.832031 228.089844 204.832031 L 301.734375 204.832031 C 304.71875 204.832031 307.136719 207.25 307.136719 210.234375 Z M 307.136719 258.628906 " fill-opacity="1" fill-rule="nonzero"/><path fill="#000000" d="M 307.136719 260.0625 L 222.6875 260.0625 C 221.898438 260.0625 221.253906 259.421875 221.253906 258.628906 L 221.253906 210.234375 C 221.253906 206.464844 224.320312 203.398438 228.089844 203.398438 L 301.734375 203.398438 C 305.503906 203.398438 308.570312 206.464844 308.570312 210.234375 L 308.570312 258.628906 C 308.570312 259.421875 307.925781 260.0625 307.136719 260.0625 Z M 224.121094 257.195312 L 305.703125 257.195312 L 305.703125 210.234375 C 305.703125 208.046875 303.921875 206.265625 301.734375 206.265625 L 228.089844 206.265625 C 225.902344 206.265625 224.121094 208.046875 224.121094 210.234375 Z M 224.121094 257.195312 " fill-opacity="1" fill-rule="nonzero"/><path fill="#000000" d="M 222.6875 239.277344 C 222.433594 239.277344 222.175781 239.210938 221.945312 239.070312 L 214.214844 234.382812 C 213.535156 233.972656 213.320312 233.089844 213.730469 232.414062 C 214.140625 231.734375 215.023438 231.519531 215.699219 231.929688 L 223.429688 236.617188 C 224.109375 237.027344 224.324219 237.910156 223.914062 238.589844 C 223.644531 239.035156 223.171875 239.277344 222.6875 239.277344 Z M 222.6875 239.277344 " fill-opacity="1" fill-rule="nonzero"/><path fill="#000000" d="M 307.136719 239.277344 C 306.648438 239.277344 306.175781 239.035156 305.90625 238.589844 C 305.496094 237.910156 305.714844 237.027344 306.390625 236.617188 L 314.121094 231.929688 C 314.796875 231.519531 315.679688 231.734375 316.089844 232.414062 C 316.5 233.089844 316.285156 233.972656 315.609375 234.382812 L 307.875 239.070312 C 307.644531 239.210938 307.386719 239.277344 307.136719 239.277344 Z M 307.136719 239.277344 " fill-opacity="1" fill-rule="nonzero"/><path fill="#ffc180" d="M 295.617188 154.675781 L 295.617188 137.019531 C 295.617188 129.960938 291.644531 125.019531 286.429688 123.378906 L 260.195312 123.378906 L 288.621094 157.523438 Z M 295.617188 154.675781 " fill-opacity="1" fill-rule="nonzero"/><path fill="#000000" d="M 288.621094 158.957031 C 288.210938 158.957031 287.804688 158.78125 287.519531 158.441406 L 259.09375 124.296875 C 258.738281 123.871094 258.664062 123.273438 258.898438 122.773438 C 259.132812 122.269531 259.640625 121.945312 260.195312 121.945312 L 286.429688 121.945312 C 286.574219 121.945312 286.71875 121.96875 286.859375 122.011719 C 289.816406 122.941406 292.339844 124.78125 294.148438 127.339844 C 296.046875 130.019531 297.050781 133.367188 297.050781 137.019531 L 297.050781 154.675781 C 297.050781 155.464844 296.410156 156.109375 295.617188 156.109375 C 294.828125 156.109375 294.183594 155.464844 294.183594 154.675781 L 294.183594 137.019531 C 294.183594 131.117188 291.132812 126.460938 286.203125 124.8125 L 263.257812 124.8125 L 289.722656 156.605469 C 290.230469 157.214844 290.148438 158.117188 289.539062 158.625 C 289.273438 158.847656 288.945312 158.957031 288.621094 158.957031 Z M 288.621094 158.957031 " fill-opacity="1" fill-rule="nonzero"/><path fill="#ffc180" d="M 263.484375 129.292969 L 276.339844 129.292969 C 282.726562 129.292969 287.90625 124.109375 287.90625 117.71875 L 253.273438 117.71875 C 242.585938 117.71875 233.917969 126.390625 233.917969 137.082031 L 233.917969 154.867188 Z M 263.484375 129.292969 " fill-opacity="1" fill-rule="nonzero"/><path fill="#000000" d="M 233.917969 156.300781 C 233.125 156.300781 232.484375 155.660156 232.484375 154.867188 L 232.484375 137.082031 C 232.484375 125.613281 241.8125 116.285156 253.273438 116.285156 L 287.90625 116.285156 C 288.699219 116.285156 289.339844 116.925781 289.339844 117.71875 C 289.339844 124.890625 283.507812 130.726562 276.339844 130.726562 L 263.484375 130.726562 C 262.691406 130.726562 262.050781 130.082031 262.050781 129.292969 C 262.050781 128.5 262.691406 127.859375 263.484375 127.859375 L 276.339844 127.859375 C 281.441406 127.859375 285.671875 124.066406 286.371094 119.152344 L 253.273438 119.152344 C 243.390625 119.152344 235.351562 127.195312 235.351562 137.082031 L 235.351562 154.867188 C 235.351562 155.660156 234.710938 156.300781 233.917969 156.300781 Z M 233.917969 156.300781 " fill-opacity="1" fill-rule="nonzero"/><path fill="#ffffff" d="M 288.28125 151.367188 L 288.28125 148.765625 C 288.28125 138 279.558594 129.277344 268.800781 129.277344 L 260.761719 129.277344 C 250.003906 129.277344 241.28125 138 241.28125 148.765625 L 241.28125 151.375 C 235.933594 151.445312 231.625 155.800781 231.625 161.164062 C 231.625 166.527344 235.933594 170.878906 241.28125 170.953125 L 241.28125 171.75 C 241.28125 183.515625 250.8125 193.050781 262.574219 193.050781 L 266.988281 193.050781 C 278.75 193.050781 288.28125 183.515625 288.28125 171.75 L 288.28125 170.960938 C 293.691406 170.960938 298.074219 166.574219 298.074219 161.164062 C 298.074219 155.75 293.691406 151.367188 288.28125 151.367188 Z M 288.28125 151.367188 " fill-opacity="1" fill-rule="nonzero"/><path fill="#000000" d="M 266.988281 194.484375 L 262.574219 194.484375 C 250.21875 194.484375 240.132812 184.570312 239.851562 172.28125 C 237.421875 171.941406 235.179688 170.824219 233.425781 169.050781 C 231.339844 166.933594 230.191406 164.132812 230.191406 161.164062 C 230.191406 158.191406 231.339844 155.390625 233.425781 153.277344 C 235.175781 151.503906 237.417969 150.386719 239.847656 150.046875 L 239.847656 148.765625 C 239.847656 137.226562 249.230469 127.839844 260.761719 127.839844 L 268.800781 127.839844 C 280.332031 127.839844 289.714844 137.226562 289.714844 148.765625 L 289.714844 150.023438 C 295.230469 150.730469 299.507812 155.457031 299.507812 161.164062 C 299.507812 166.871094 295.230469 171.601562 289.710938 172.304688 C 289.414062 184.585938 279.335938 194.484375 266.988281 194.484375 Z M 260.761719 130.710938 C 250.808594 130.710938 242.714844 138.808594 242.714844 148.765625 L 242.714844 151.375 C 242.714844 152.15625 242.082031 152.796875 241.300781 152.808594 C 236.753906 152.871094 233.058594 156.617188 233.058594 161.164062 C 233.058594 165.707031 236.753906 169.457031 241.300781 169.519531 C 242.082031 169.53125 242.714844 170.167969 242.714844 170.953125 L 242.714844 171.75 C 242.714844 182.703125 251.621094 191.617188 262.574219 191.617188 L 266.988281 191.617188 C 277.941406 191.617188 286.847656 182.703125 286.847656 171.75 L 286.847656 170.960938 C 286.847656 170.167969 287.492188 169.527344 288.28125 169.527344 C 292.890625 169.527344 296.640625 165.773438 296.640625 161.164062 C 296.640625 156.550781 292.890625 152.800781 288.28125 152.800781 C 287.492188 152.800781 286.847656 152.15625 286.847656 151.367188 L 286.847656 148.765625 C 286.847656 138.808594 278.753906 130.710938 268.800781 130.710938 Z M 260.761719 130.710938 " fill-opacity="1" fill-rule="nonzero"/><path fill="#000000" d="M 281.679688 163.933594 L 272.773438 163.933594 C 270.851562 163.933594 269.140625 162.707031 268.519531 160.886719 C 268.515625 160.875 268.511719 160.867188 268.507812 160.855469 L 266.535156 154.589844 L 263.203125 154.589844 L 261.519531 160.640625 C 260.980469 162.578125 259.199219 163.933594 257.1875 163.933594 L 248.285156 163.933594 C 246.359375 163.933594 244.648438 162.707031 244.027344 160.886719 C 244.023438 160.875 244.019531 160.867188 244.015625 160.855469 L 241.726562 153.585938 C 241.589844 153.152344 241.667969 152.675781 241.9375 152.308594 C 242.207031 151.9375 242.636719 151.722656 243.09375 151.722656 L 262.078125 151.722656 C 262.101562 151.71875 262.121094 151.71875 262.144531 151.722656 L 267.554688 151.722656 C 267.574219 151.71875 267.597656 151.71875 267.621094 151.722656 L 286.605469 151.722656 C 287.050781 151.722656 287.472656 151.929688 287.746094 152.289062 C 288.015625 152.644531 288.105469 153.105469 287.984375 153.539062 L 286.011719 160.640625 C 285.472656 162.578125 283.691406 163.933594 281.679688 163.933594 Z M 271.238281 159.976562 C 271.46875 160.628906 272.082031 161.0625 272.773438 161.0625 L 281.679688 161.0625 C 282.410156 161.0625 283.054688 160.574219 283.25 159.871094 L 284.71875 154.589844 L 269.542969 154.589844 Z M 246.746094 159.972656 C 246.976562 160.628906 247.589844 161.066406 248.285156 161.066406 L 257.1875 161.066406 C 257.917969 161.066406 258.5625 160.574219 258.757812 159.871094 L 260.226562 154.589844 L 245.050781 154.589844 Z M 246.746094 159.972656 " fill-opacity="1" fill-rule="nonzero"/><path fill="#026bbf" d="M 51.679688 287.890625 L 51.679688 240.683594 C 51.679688 239.109375 52.953125 237.835938 54.527344 237.835938 L 179.886719 237.835938 C 181.457031 237.835938 182.730469 239.109375 182.730469 240.683594 L 182.730469 287.890625 Z M 51.679688 287.890625 " fill-opacity="1" fill-rule="nonzero"/><path fill="#000000" d="M 182.730469 289.324219 L 51.679688 289.324219 C 50.890625 289.324219 50.246094 288.679688 50.246094 287.890625 L 50.246094 240.683594 C 50.246094 238.320312 52.167969 236.402344 54.527344 236.402344 L 179.886719 236.402344 C 182.246094 236.402344 184.164062 238.320312 184.164062 240.683594 L 184.164062 287.890625 C 184.164062 288.679688 183.523438 289.324219 182.730469 289.324219 Z M 53.113281 286.457031 L 181.296875 286.457031 L 181.296875 240.683594 C 181.296875 239.902344 180.664062 239.269531 179.886719 239.269531 L 54.527344 239.269531 C 53.746094 239.269531 53.113281 239.902344 53.113281 240.683594 Z M 53.113281 286.457031 " fill-opacity="1" fill-rule="nonzero"/><path fill="#ffffff" d="M 78.390625 342.816406 L 78.390625 339.644531 C 78.390625 338.253906 78.949219 336.917969 79.9375 335.9375 L 85.546875 330.371094 C 88.507812 326.492188 90.574219 322.011719 91.597656 317.242188 L 95.515625 298.75 C 95.949219 296.699219 94.675781 294.671875 92.640625 294.175781 C 90.507812 293.652344 88.363281 295.007812 87.917969 297.160156 L 86.320312 304.898438 C 86.058594 306.167969 85.480469 307.355469 84.648438 308.347656 L 83.6875 309.488281 C 83.253906 310.007812 82.421875 309.851562 82.203125 309.210938 L 81.425781 306.964844 C 81.144531 306.144531 81 305.28125 81 304.414062 L 81 272.628906 C 81 270.308594 79.121094 268.429688 76.800781 268.429688 C 74.484375 268.429688 72.601562 270.308594 72.601562 272.628906 L 72.601562 298.84375 L 72.601562 267.152344 C 72.601562 264.832031 70.722656 262.953125 68.40625 262.953125 C 66.085938 262.953125 64.207031 264.832031 64.207031 267.152344 L 64.207031 298.84375 L 64.207031 272.628906 C 64.207031 270.308594 62.328125 268.429688 60.007812 268.429688 C 57.691406 268.429688 55.8125 270.308594 55.8125 272.628906 L 55.8125 298.84375 L 55.8125 281.601562 C 55.8125 279.28125 53.933594 277.402344 51.613281 277.402344 C 49.296875 277.402344 47.414062 279.28125 47.414062 281.601562 L 47.414062 318.578125 C 47.414062 322.421875 48.59375 326.171875 50.789062 329.328125 L 55.074219 335.480469 C 55.976562 336.777344 56.460938 338.316406 56.460938 339.890625 L 56.460938 342.816406 Z M 78.390625 342.816406 " fill-opacity="1" fill-rule="nonzero"/><g clip-path="url(#3b33598b0c)"><path fill="#000000" d="M 78.390625 344.25 C 77.601562 344.25 76.957031 343.609375 76.957031 342.816406 L 76.957031 339.644531 C 76.957031 337.882812 77.675781 336.160156 78.925781 334.917969 L 84.46875 329.421875 C 87.25 325.753906 89.230469 321.4375 90.195312 316.9375 L 94.113281 298.453125 C 94.386719 297.152344 93.589844 295.882812 92.300781 295.570312 C 91.648438 295.410156 90.976562 295.519531 90.414062 295.878906 C 89.847656 296.234375 89.460938 296.792969 89.324219 297.449219 L 87.722656 305.1875 C 87.414062 306.683594 86.730469 308.097656 85.746094 309.269531 L 84.785156 310.410156 C 84.253906 311.046875 83.417969 311.34375 82.601562 311.195312 C 81.789062 311.042969 81.113281 310.460938 80.84375 309.675781 L 80.070312 307.429688 C 79.734375 306.457031 79.566406 305.441406 79.566406 304.414062 L 79.566406 272.628906 C 79.566406 271.105469 78.324219 269.863281 76.800781 269.863281 C 75.277344 269.863281 74.035156 271.105469 74.035156 272.628906 L 74.035156 298.84375 C 74.035156 299.632812 73.394531 300.277344 72.601562 300.277344 C 71.8125 300.277344 71.167969 299.632812 71.167969 298.84375 L 71.167969 267.152344 C 71.167969 265.628906 69.929688 264.386719 68.40625 264.386719 C 66.878906 264.386719 65.640625 265.628906 65.640625 267.152344 L 65.640625 298.84375 C 65.640625 299.632812 65 300.277344 64.207031 300.277344 C 63.414062 300.277344 62.773438 299.632812 62.773438 298.84375 L 62.773438 272.628906 C 62.773438 271.105469 61.53125 269.863281 60.007812 269.863281 C 58.484375 269.863281 57.246094 271.105469 57.246094 272.628906 L 57.246094 298.84375 C 57.246094 299.632812 56.601562 300.277344 55.8125 300.277344 C 55.019531 300.277344 54.378906 299.632812 54.378906 298.84375 L 54.378906 281.601562 C 54.378906 280.078125 53.136719 278.835938 51.613281 278.835938 C 50.089844 278.835938 48.847656 280.078125 48.847656 281.601562 L 48.847656 318.578125 C 48.847656 322.144531 49.925781 325.578125 51.964844 328.507812 L 56.25 334.664062 C 57.324219 336.207031 57.894531 338.015625 57.894531 339.890625 L 57.894531 342.816406 C 57.894531 343.609375 57.25 344.25 56.460938 344.25 C 55.667969 344.25 55.027344 343.609375 55.027344 342.816406 L 55.027344 339.890625 C 55.027344 338.601562 54.636719 337.363281 53.898438 336.300781 L 49.613281 330.148438 C 47.238281 326.734375 45.980469 322.734375 45.980469 318.578125 L 45.980469 281.601562 C 45.980469 278.496094 48.507812 275.96875 51.613281 275.96875 C 52.617188 275.96875 53.5625 276.230469 54.378906 276.695312 L 54.378906 272.628906 C 54.378906 269.523438 56.902344 266.996094 60.007812 266.996094 C 61.011719 266.996094 61.957031 267.257812 62.773438 267.722656 L 62.773438 267.152344 C 62.773438 264.046875 65.300781 261.519531 68.40625 261.519531 C 71.511719 261.519531 74.035156 264.046875 74.035156 267.152344 L 74.035156 267.722656 C 74.855469 267.257812 75.796875 266.996094 76.800781 266.996094 C 79.90625 266.996094 82.433594 269.523438 82.433594 272.628906 L 82.433594 304.414062 C 82.433594 305.125 82.550781 305.824219 82.78125 306.496094 L 83.230469 307.804688 L 83.550781 307.425781 C 84.230469 306.613281 84.703125 305.640625 84.914062 304.609375 L 86.515625 296.867188 C 86.808594 295.441406 87.648438 294.230469 88.878906 293.453125 C 90.109375 292.675781 91.566406 292.4375 92.980469 292.78125 C 95.785156 293.46875 97.515625 296.21875 96.917969 299.046875 L 93 317.539062 C 91.9375 322.484375 89.753906 327.222656 86.6875 331.242188 C 86.648438 331.292969 86.601562 331.34375 86.558594 331.390625 L 80.945312 336.953125 C 80.234375 337.660156 79.824219 338.640625 79.824219 339.644531 L 79.824219 342.816406 C 79.824219 343.609375 79.183594 344.25 78.390625 344.25 Z M 78.390625 344.25 " fill-opacity="1" fill-rule="nonzero"/></g><path fill="#ffffff" d="M 155.875 342.816406 L 155.875 339.644531 C 155.875 338.253906 155.320312 336.917969 154.332031 335.9375 L 148.722656 330.371094 C 145.761719 326.492188 143.695312 322.011719 142.671875 317.242188 L 138.753906 298.75 C 138.320312 296.699219 139.59375 294.671875 141.628906 294.175781 C 143.761719 293.652344 145.902344 295.007812 146.347656 297.160156 L 147.949219 304.898438 C 148.210938 306.167969 148.789062 307.355469 149.621094 308.347656 L 150.582031 309.488281 C 151.015625 310.007812 151.847656 309.851562 152.066406 309.210938 L 152.84375 306.964844 C 153.125 306.144531 153.269531 305.28125 153.269531 304.414062 L 153.269531 272.628906 C 153.269531 270.308594 155.148438 268.429688 157.46875 268.429688 C 159.785156 268.429688 161.664062 270.308594 161.664062 272.628906 L 161.664062 298.84375 L 161.664062 267.152344 C 161.664062 264.832031 163.546875 262.953125 165.863281 262.953125 C 168.183594 262.953125 170.0625 264.832031 170.0625 267.152344 L 170.0625 298.84375 L 170.0625 272.628906 C 170.0625 270.308594 171.941406 268.429688 174.257812 268.429688 C 176.578125 268.429688 178.457031 270.308594 178.457031 272.628906 L 178.457031 298.84375 L 178.457031 281.601562 C 178.457031 279.28125 180.335938 277.402344 182.65625 277.402344 C 184.972656 277.402344 186.851562 279.28125 186.851562 281.601562 L 186.851562 318.578125 C 186.851562 322.421875 185.675781 326.171875 183.480469 329.328125 L 179.191406 335.480469 C 178.292969 336.777344 177.808594 338.316406 177.808594 339.890625 L 177.808594 342.816406 Z M 155.875 342.816406 " fill-opacity="1" fill-rule="nonzero"/><g clip-path="url(#b7817f29bb)"><path fill="#000000" d="M 155.875 344.25 C 155.085938 344.25 154.441406 343.609375 154.441406 342.816406 L 154.441406 339.644531 C 154.441406 338.640625 154.035156 337.660156 153.320312 336.957031 L 147.710938 331.390625 C 147.664062 331.34375 147.621094 331.292969 147.582031 331.242188 C 144.515625 327.222656 142.332031 322.484375 141.269531 317.542969 L 137.351562 299.046875 C 136.753906 296.21875 138.484375 293.46875 141.289062 292.78125 C 142.703125 292.4375 144.15625 292.675781 145.386719 293.453125 C 146.617188 294.230469 147.457031 295.445312 147.753906 296.867188 L 149.355469 304.609375 C 149.566406 305.640625 150.039062 306.617188 150.71875 307.425781 L 151.035156 307.804688 L 151.488281 306.496094 C 151.71875 305.824219 151.835938 305.125 151.835938 304.414062 L 151.835938 272.628906 C 151.835938 269.523438 154.363281 266.996094 157.46875 266.996094 C 158.472656 266.996094 159.414062 267.261719 160.230469 267.722656 L 160.230469 267.152344 C 160.230469 264.046875 162.757812 261.519531 165.863281 261.519531 C 168.96875 261.519531 171.496094 264.046875 171.496094 267.152344 L 171.496094 267.722656 C 172.3125 267.257812 173.253906 266.996094 174.257812 266.996094 C 177.363281 266.996094 179.890625 269.523438 179.890625 272.628906 L 179.890625 276.695312 C 180.707031 276.230469 181.652344 275.96875 182.65625 275.96875 C 185.761719 275.96875 188.285156 278.496094 188.285156 281.601562 L 188.285156 318.578125 C 188.285156 322.734375 187.03125 326.734375 184.65625 330.148438 L 180.371094 336.300781 C 179.632812 337.359375 179.242188 338.601562 179.242188 339.890625 L 179.242188 342.816406 C 179.242188 343.609375 178.601562 344.25 177.808594 344.25 C 177.019531 344.25 176.375 343.609375 176.375 342.816406 L 176.375 339.890625 C 176.375 338.011719 176.945312 336.207031 178.015625 334.664062 L 182.304688 328.507812 C 184.34375 325.578125 185.417969 322.144531 185.417969 318.578125 L 185.417969 281.601562 C 185.417969 280.078125 184.179688 278.835938 182.65625 278.835938 C 181.132812 278.835938 179.890625 280.078125 179.890625 281.601562 L 179.890625 298.84375 C 179.890625 299.636719 179.25 300.277344 178.457031 300.277344 C 177.664062 300.277344 177.023438 299.636719 177.023438 298.84375 L 177.023438 272.628906 C 177.023438 271.105469 175.785156 269.863281 174.257812 269.863281 C 172.734375 269.863281 171.496094 271.105469 171.496094 272.628906 L 171.496094 298.84375 C 171.496094 299.636719 170.851562 300.277344 170.0625 300.277344 C 169.269531 300.277344 168.628906 299.636719 168.628906 298.84375 L 168.628906 267.152344 C 168.628906 265.628906 167.386719 264.386719 165.863281 264.386719 C 164.339844 264.386719 163.097656 265.628906 163.097656 267.152344 L 163.097656 298.84375 C 163.097656 299.636719 162.457031 300.277344 161.664062 300.277344 C 160.875 300.277344 160.230469 299.636719 160.230469 298.84375 L 160.230469 272.628906 C 160.230469 271.105469 158.992188 269.863281 157.46875 269.863281 C 155.941406 269.863281 154.703125 271.105469 154.703125 272.628906 L 154.703125 304.414062 C 154.703125 305.441406 154.53125 306.457031 154.199219 307.429688 L 153.421875 309.679688 C 153.152344 310.460938 152.480469 311.042969 151.667969 311.195312 C 150.851562 311.34375 150.015625 311.046875 149.484375 310.414062 L 148.523438 309.269531 C 147.539062 308.097656 146.855469 306.683594 146.546875 305.1875 L 144.945312 297.449219 C 144.808594 296.792969 144.421875 296.234375 143.855469 295.878906 C 143.289062 295.519531 142.621094 295.410156 141.96875 295.570312 C 140.675781 295.882812 139.882812 297.152344 140.15625 298.453125 L 144.074219 316.945312 C 145.039062 321.441406 147.019531 325.753906 149.800781 329.421875 L 155.339844 334.917969 C 156.59375 336.160156 157.308594 337.882812 157.308594 339.644531 L 157.308594 342.816406 C 157.308594 343.609375 156.667969 344.25 155.875 344.25 Z M 155.875 344.25 " fill-opacity="1" fill-rule="nonzero"/></g><path fill="#000000" d="M 160.847656 251.601562 L 155.503906 251.601562 C 154.710938 251.601562 154.070312 250.960938 154.070312 250.167969 C 154.070312 249.375 154.710938 248.734375 155.503906 248.734375 L 160.847656 248.734375 C 161.640625 248.734375 162.28125 249.375 162.28125 250.167969 C 162.28125 250.960938 161.640625 251.601562 160.847656 251.601562 Z M 160.847656 251.601562 " fill-opacity="1" fill-rule="nonzero"/><path fill="#000000" d="M 147.503906 251.601562 L 142.15625 251.601562 C 141.363281 251.601562 140.722656 250.960938 140.722656 250.167969 C 140.722656 249.375 141.363281 248.734375 142.15625 248.734375 L 147.503906 248.734375 C 148.292969 248.734375 148.9375 249.375 148.9375 250.167969 C 148.9375 250.960938 148.292969 251.601562 147.503906 251.601562 Z M 147.503906 251.601562 " fill-opacity="1" fill-rule="nonzero"/><path fill="#000000" d="M 173.25 251.601562 L 167.902344 251.601562 C 167.109375 251.601562 166.46875 250.960938 166.46875 250.167969 C 166.46875 249.375 167.109375 248.734375 167.902344 248.734375 L 173.25 248.734375 C 174.039062 248.734375 174.683594 249.375 174.683594 250.167969 C 174.683594 250.960938 174.039062 251.601562 173.25 251.601562 Z M 173.25 251.601562 " fill-opacity="1" fill-rule="nonzero"/><path fill="#000000" d="M 147.503906 276.992188 L 142.15625 276.992188 C 141.363281 276.992188 140.722656 276.351562 140.722656 275.558594 C 140.722656 274.765625 141.363281 274.125 142.15625 274.125 L 147.503906 274.125 C 148.292969 274.125 148.9375 274.765625 148.9375 275.558594 C 148.9375 276.351562 148.292969 276.992188 147.503906 276.992188 Z M 147.503906 276.992188 " fill-opacity="1" fill-rule="nonzero"/><path fill="#000000" d="M 147.503906 264.296875 L 142.15625 264.296875 C 141.363281 264.296875 140.722656 263.65625 140.722656 262.863281 C 140.722656 262.070312 141.363281 261.429688 142.15625 261.429688 L 147.503906 261.429688 C 148.292969 261.429688 148.9375 262.070312 148.9375 262.863281 C 148.9375 263.65625 148.292969 264.296875 147.503906 264.296875 Z M 147.503906 264.296875 " fill-opacity="1" fill-rule="nonzero"/><path fill="#000000" d="M 67.460938 251.601562 L 61.164062 251.601562 C 60.371094 251.601562 59.730469 250.960938 59.730469 250.167969 C 59.730469 249.375 60.371094 248.734375 61.164062 248.734375 L 67.460938 248.734375 C 68.25 248.734375 68.894531 249.375 68.894531 250.167969 C 68.894531 250.960938 68.25 251.601562 67.460938 251.601562 Z M 67.460938 251.601562 " fill-opacity="1" fill-rule="nonzero"/><path fill="#000000" d="M 81.710938 251.601562 L 75.417969 251.601562 C 74.625 251.601562 73.984375 250.960938 73.984375 250.167969 C 73.984375 249.375 74.625 248.734375 75.417969 248.734375 L 81.710938 248.734375 C 82.503906 248.734375 83.144531 249.375 83.144531 250.167969 C 83.144531 250.960938 82.503906 251.601562 81.710938 251.601562 Z M 81.710938 251.601562 " fill-opacity="1" fill-rule="nonzero"/><path fill="#000000" d="M 81.710938 264.296875 L 75.417969 264.296875 C 74.625 264.296875 73.984375 263.65625 73.984375 262.863281 C 73.984375 262.070312 74.625 261.429688 75.417969 261.429688 L 81.710938 261.429688 C 82.503906 261.429688 83.144531 262.070312 83.144531 262.863281 C 83.144531 263.65625 82.503906 264.296875 81.710938 264.296875 Z M 81.710938 264.296875 " fill-opacity="1" fill-rule="nonzero"/><path fill="#000000" d="M 95.964844 251.601562 L 89.667969 251.601562 C 88.878906 251.601562 88.234375 250.960938 88.234375 250.167969 C 88.234375 249.375 88.878906 248.734375 89.667969 248.734375 L 95.964844 248.734375 C 96.753906 248.734375 97.398438 249.375 97.398438 250.167969 C 97.398438 250.960938 96.753906 251.601562 95.964844 251.601562 Z M 95.964844 251.601562 " fill-opacity="1" fill-rule="nonzero"/><path fill="#000000" d="M 95.964844 264.296875 L 89.667969 264.296875 C 88.878906 264.296875 88.234375 263.65625 88.234375 262.863281 C 88.234375 262.070312 88.878906 261.429688 89.667969 261.429688 L 95.964844 261.429688 C 96.753906 261.429688 97.398438 262.070312 97.398438 262.863281 C 97.398438 263.65625 96.753906 264.296875 95.964844 264.296875 Z M 95.964844 264.296875 " fill-opacity="1" fill-rule="nonzero"/><path fill="#000000" d="M 110.21875 251.601562 L 103.921875 251.601562 C 103.128906 251.601562 102.488281 250.960938 102.488281 250.167969 C 102.488281 249.375 103.128906 248.734375 103.921875 248.734375 L 110.21875 248.734375 C 111.007812 248.734375 111.652344 249.375 111.652344 250.167969 C 111.652344 250.960938 111.007812 251.601562 110.21875 251.601562 Z M 110.21875 251.601562 " fill-opacity="1" fill-rule="nonzero"/><path fill="#000000" d="M 110.21875 264.296875 L 103.921875 264.296875 C 103.128906 264.296875 102.488281 263.65625 102.488281 262.863281 C 102.488281 262.070312 103.128906 261.429688 103.921875 261.429688 L 110.21875 261.429688 C 111.007812 261.429688 111.652344 262.070312 111.652344 262.863281 C 111.652344 263.65625 111.007812 264.296875 110.21875 264.296875 Z M 110.21875 264.296875 " fill-opacity="1" fill-rule="nonzero"/><path fill="#000000" d="M 124.46875 251.601562 L 118.175781 251.601562 C 117.382812 251.601562 116.742188 250.960938 116.742188 250.167969 C 116.742188 249.375 117.382812 248.734375 118.175781 248.734375 L 124.46875 248.734375 C 125.261719 248.734375 125.902344 249.375 125.902344 250.167969 C 125.902344 250.960938 125.261719 251.601562 124.46875 251.601562 Z M 124.46875 251.601562 " fill-opacity="1" fill-rule="nonzero"/><path fill="#000000" d="M 124.46875 264.296875 L 118.175781 264.296875 C 117.382812 264.296875 116.742188 263.65625 116.742188 262.863281 C 116.742188 262.070312 117.382812 261.429688 118.175781 261.429688 L 124.46875 261.429688 C 125.261719 261.429688 125.902344 262.070312 125.902344 262.863281 C 125.902344 263.65625 125.261719 264.296875 124.46875 264.296875 Z M 124.46875 264.296875 " fill-opacity="1" fill-rule="nonzero"/><path fill="#000000" d="M 124.46875 276.992188 L 91.453125 276.992188 C 90.664062 276.992188 90.019531 276.351562 90.019531 275.558594 C 90.019531 274.765625 90.664062 274.125 91.453125 274.125 L 124.46875 274.125 C 125.261719 274.125 125.902344 274.765625 125.902344 275.558594 C 125.902344 276.351562 125.261719 276.992188 124.46875 276.992188 Z M 124.46875 276.992188 " fill-opacity="1" fill-rule="nonzero"/><path fill="#ffffff" d="M 71.910156 237.835938 L 63.144531 237.835938 L 63.144531 232.476562 C 63.144531 231.625 63.832031 230.933594 64.683594 230.933594 L 70.371094 230.933594 C 71.222656 230.933594 71.910156 231.625 71.910156 232.476562 Z M 71.910156 237.835938 " fill-opacity="1" fill-rule="nonzero"/><path fill="#000000" d="M 71.910156 239.269531 L 63.144531 239.269531 C 62.351562 239.269531 61.710938 238.628906 61.710938 237.835938 L 61.710938 232.476562 C 61.710938 230.835938 63.042969 229.5 64.683594 229.5 L 70.371094 229.5 C 72.011719 229.5 73.34375 230.835938 73.34375 232.476562 L 73.34375 237.835938 C 73.34375 238.628906 72.703125 239.269531 71.910156 239.269531 Z M 64.578125 236.402344 L 70.476562 236.402344 L 70.476562 232.476562 C 70.476562 232.417969 70.429688 232.367188 70.371094 232.367188 L 64.683594 232.367188 C 64.625 232.367188 64.578125 232.417969 64.578125 232.476562 Z M 64.578125 236.402344 " fill-opacity="1" fill-rule="nonzero"/><path fill="#000000" d="M 67.527344 232.371094 C 66.734375 232.371094 66.09375 231.726562 66.09375 230.933594 L 66.09375 228.082031 C 66.09375 223.382812 69.914062 219.558594 74.613281 219.558594 L 151.089844 219.558594 C 154.207031 219.558594 156.742188 217.023438 156.742188 213.90625 C 156.742188 213.113281 157.382812 212.472656 158.175781 212.472656 C 158.96875 212.472656 159.609375 213.113281 159.609375 213.90625 C 159.609375 218.605469 155.789062 222.425781 151.089844 222.425781 L 74.613281 222.425781 C 71.496094 222.425781 68.960938 224.960938 68.960938 228.082031 L 68.960938 230.933594 C 68.960938 231.726562 68.320312 232.371094 67.527344 232.371094 Z M 67.527344 232.371094 " fill-opacity="1" fill-rule="nonzero"/><path fill="#000000" d="M 158.535156 264.386719 L 155.503906 264.386719 C 154.710938 264.386719 154.070312 263.746094 154.070312 262.953125 C 154.070312 262.160156 154.710938 261.519531 155.503906 261.519531 L 158.535156 261.519531 C 159.328125 261.519531 159.96875 262.160156 159.96875 262.953125 C 159.96875 263.746094 159.328125 264.386719 158.535156 264.386719 Z M 158.535156 264.386719 " fill-opacity="1" fill-rule="nonzero"/></svg>