<svg xmlns="http://www.w3.org/2000/svg" xmlns:xlink="http://www.w3.org/1999/xlink" width="500" zoomAndPan="magnify" viewBox="0 0 375 374.999991" height="500" preserveAspectRatio="xMidYMid meet" version="1.0"><defs><clipPath id="48417412f8"><path d="M 228 104.128906 L 347.960938 104.128906 L 347.960938 204 L 228 204 Z M 228 104.128906 " clip-rule="nonzero"/></clipPath><clipPath id="cb670d56fc"><path d="M 78 191 L 147 191 L 147 270.628906 L 78 270.628906 Z M 78 191 " clip-rule="nonzero"/></clipPath></defs><g clip-path="url(#48417412f8)"><path fill="#e25a1c" d="M 319.828125 188.070312 C 319.550781 187.480469 319.425781 187.183594 319.277344 186.898438 C 315.265625 179.277344 311.261719 171.652344 307.210938 164.03125 C 306.804688 163.269531 306.855469 162.816406 307.410156 162.15625 C 313.792969 154.710938 320.09375 147.222656 326.488281 139.808594 C 326.714844 139.546875 326.914062 139.269531 327 138.800781 C 325.144531 139.285156 323.289062 139.761719 321.421875 140.253906 C 313.71875 142.292969 305.953125 144.324219 298.324219 146.394531 C 297.605469 146.585938 297.28125 146.375 296.921875 145.78125 C 292.546875 138.476562 288.144531 131.15625 283.722656 123.945312 C 283.496094 123.566406 283.25 123.199219 282.765625 122.882812 C 282.410156 124.832031 282.050781 126.765625 281.703125 128.714844 C 280.476562 135.585938 279.25 142.414062 278.03125 149.3125 C 277.898438 150.054688 277.71875 150.796875 277.65625 151.539062 C 277.59375 152.246094 277.226562 152.507812 276.582031 152.710938 C 267.496094 155.566406 258.433594 158.4375 249.359375 161.3125 C 248.960938 161.4375 248.570312 161.601562 248.140625 161.988281 C 255.566406 164.933594 262.992188 167.878906 270.519531 170.878906 C 270.246094 171.09375 270.0625 171.261719 269.863281 171.390625 C 265.222656 174.390625 260.570312 177.386719 255.941406 180.394531 C 255.382812 180.757812 254.945312 180.808594 254.320312 180.527344 C 248.773438 178.035156 243.183594 175.582031 237.617188 173.109375 C 235.121094 172 232.882812 170.527344 231.140625 168.382812 C 227.191406 163.5625 227.972656 158.082031 233.234375 154.683594 C 234.957031 153.582031 236.914062 152.769531 238.863281 152.128906 C 247.761719 149.238281 256.703125 146.445312 265.570312 143.644531 C 266.320312 143.40625 266.664062 143.070312 266.808594 142.261719 C 268.003906 135.382812 269.234375 128.460938 270.480469 121.664062 C 271.144531 117.988281 271.496094 114.226562 273.285156 110.847656 C 273.972656 109.550781 274.789062 108.285156 275.78125 107.203125 C 279.328125 103.269531 284.265625 103.125 288.050781 106.863281 C 289.320312 108.132812 290.402344 109.617188 291.339844 111.148438 C 295.464844 117.875 299.53125 124.644531 303.613281 131.441406 C 304.09375 132.242188 304.523438 132.402344 305.40625 132.167969 C 315.359375 129.5 325.308594 126.875 335.3125 124.25 C 337.375 123.707031 339.445312 123.507812 341.5625 123.902344 C 346.148438 124.761719 348.160156 128.25 346.605469 132.6875 C 345.898438 134.707031 344.675781 136.40625 343.304688 138.023438 C 336.351562 146.191406 329.382812 154.402344 322.472656 162.539062 C 321.90625 163.203125 321.894531 163.679688 322.289062 164.433594 C 326.453125 172.269531 330.578125 180.089844 334.765625 188.019531 C 335.757812 189.894531 336.519531 191.851562 336.539062 194.003906 C 336.585938 198.90625 332.992188 202.921875 328.113281 203.644531 C 325.382812 204.042969 322.84375 203.460938 320.277344 202.671875 C 314.039062 200.746094 307.800781 198.847656 301.507812 196.964844 C 300.929688 196.792969 300.707031 196.5625 300.601562 195.9375 C 299.886719 191.539062 299.097656 187.152344 298.335938 182.753906 C 298.316406 182.632812 298.351562 182.503906 298.371094 182.234375 C 305.496094 184.203125 312.601562 186.140625 319.921875 188.167969 " fill-opacity="1" fill-rule="evenodd"/></g><path fill="#3c3a3e" d="M 307.453125 252.445312 C 301.824219 252.4375 296.214844 252.410156 290.542969 252.433594 C 289.796875 252.433594 289.375 252.222656 288.964844 251.589844 C 282.300781 241.453125 275.558594 231.296875 268.957031 221.203125 C 268.746094 220.882812 268.519531 220.574219 268.140625 220.03125 C 266.707031 230.949219 265.292969 241.660156 263.882812 252.371094 L 249.136719 252.371094 C 249.308594 250.9375 249.460938 249.550781 249.644531 248.167969 C 251.078125 237.148438 252.53125 226.230469 253.976562 215.210938 C 255.355469 204.703125 256.726562 194.199219 258.128906 183.691406 C 258.171875 183.382812 258.378906 182.984375 258.632812 182.820312 C 263.707031 179.511719 268.800781 176.238281 273.894531 172.960938 C 273.96875 172.914062 274.074219 172.910156 274.335938 172.832031 C 272.796875 184.574219 271.273438 196.214844 269.734375 207.851562 C 269.796875 207.890625 269.855469 207.9375 269.917969 207.976562 C 277.910156 199.140625 285.902344 190.261719 294.046875 181.300781 C 294.28125 182.660156 294.488281 183.824219 294.6875 184.988281 C 295.261719 188.316406 295.8125 191.664062 296.421875 194.988281 C 296.546875 195.660156 296.363281 196.070312 295.917969 196.542969 C 290.75 201.941406 285.605469 207.359375 280.449219 212.816406 C 280.222656 213.054688 280.007812 213.300781 279.75 213.582031 C 279.917969 213.84375 280.058594 214.097656 280.222656 214.332031 C 289.101562 226.792969 297.960938 239.257812 306.828125 251.71875 C 306.988281 251.945312 307.222656 252.121094 307.421875 252.324219 L 307.421875 252.519531 " fill-opacity="1" fill-rule="evenodd"/><g clip-path="url(#cb670d56fc)"><path fill="#3c3a3e" d="M 133.179688 219.484375 C 132.953125 218.34375 132.792969 216.652344 132.28125 215.078125 C 129.808594 207.464844 122 203.335938 113.925781 205.179688 C 105.046875 207.238281 98.664062 214.210938 97.839844 223.308594 C 97.160156 230.003906 100.769531 236.492188 107.472656 238.859375 C 112.875 240.804688 118.09375 239.992188 122.9375 237.097656 C 129.34375 233.265625 132.808594 227.570312 133.25 219.484375 Z M 94.199219 247.808594 C 93.765625 251.085938 93.347656 254.164062 92.941406 257.253906 C 92.402344 261.355469 91.859375 265.464844 91.34375 269.613281 C 91.285156 270.09375 91.140625 270.308594 90.625 270.304688 C 86.570312 270.289062 82.519531 270.292969 78.457031 270.285156 C 78.363281 270.285156 78.269531 270.234375 78.050781 270.171875 C 78.296875 268.234375 78.535156 266.289062 78.789062 264.351562 C 79.683594 257.554688 80.574219 250.757812 81.480469 243.957031 C 82.523438 236.171875 83.335938 228.40625 84.667969 220.679688 C 87.019531 206.980469 98.691406 195.242188 112.304688 192.253906 C 120.210938 190.542969 127.769531 191.335938 134.679688 195.785156 C 141.570312 200.214844 145.507812 206.703125 146.4375 214.738281 C 147.714844 226.171875 143.496094 235.644531 135.402344 243.578125 C 130.0625 248.738281 123.648438 252.011719 116.324219 253.125 C 108.726562 254.269531 101.578125 253.003906 95.183594 248.53125 C 94.953125 248.367188 94.699219 248.222656 94.296875 247.96875 " fill-opacity="1" fill-rule="evenodd"/></g><path fill="#3c3a3e" d="M 87.394531 182.921875 C 82.859375 186.300781 78.476562 189.554688 74.09375 192.820312 C 73.382812 191.707031 72.75 190.59375 72.007812 189.554688 C 70.101562 186.886719 67.730469 184.898438 64.285156 184.664062 C 61.417969 184.460938 58.964844 185.402344 57.015625 187.515625 C 55.273438 189.398438 55.046875 192.089844 56.671875 194.21875 C 58.46875 196.570312 60.425781 198.792969 62.4375 200.96875 C 65.769531 204.570312 69.242188 208.03125 72.542969 211.679688 C 75.542969 214.976562 77.945312 218.660156 78.6875 223.214844 C 79.570312 228.570312 78.5 233.617188 75.96875 238.355469 C 71.273438 247.058594 63.902344 252.15625 54.105469 253.703125 C 49.796875 254.398438 45.503906 254.261719 41.320312 253.023438 C 35.738281 251.386719 31.851562 247.730469 29.355469 242.621094 C 28.476562 240.800781 27.800781 238.875 27.003906 236.917969 C 31.882812 234.308594 36.636719 231.765625 41.441406 229.203125 C 41.609375 229.601562 41.726562 229.933594 41.882812 230.253906 C 42.703125 231.890625 43.378906 233.628906 44.386719 235.144531 C 47.410156 239.625 52.277344 240.984375 57.175781 238.769531 C 58.441406 238.199219 59.671875 237.398438 60.710938 236.472656 C 63.886719 233.652344 64.484375 229.714844 62.132812 226.171875 C 60.785156 224.132812 59.09375 222.300781 57.441406 220.476562 C 53.503906 216.109375 49.398438 211.878906 45.582031 207.398438 C 42.933594 204.328125 41.128906 200.765625 40.550781 196.683594 C 39.925781 192.195312 40.824219 187.972656 43.160156 184.222656 C 48.964844 174.839844 57.390625 170.007812 68.527344 170.316406 C 74.890625 170.546875 79.972656 173.519531 83.894531 178.464844 C 85.058594 179.925781 86.152344 181.441406 87.335938 183.027344 " fill-opacity="1" fill-rule="evenodd"/><path fill="#3c3a3e" d="M 195.050781 232.875 C 194.3125 238.53125 193.609375 243.894531 192.886719 249.253906 C 192.847656 249.527344 192.632812 249.894531 192.402344 250 C 181.371094 255.089844 166.933594 254.378906 157.960938 244.140625 C 153.113281 238.640625 151.082031 232.089844 151.382812 224.878906 C 152.085938 208.089844 166.023438 193.363281 182.730469 191.300781 C 192.476562 190.109375 200.984375 192.734375 207.582031 200.304688 C 212.078125 205.453125 214.160156 211.632812 213.851562 218.433594 C 213.652344 222.921875 212.945312 227.382812 212.386719 231.820312 C 211.59375 238.144531 210.726562 244.492188 209.890625 250.773438 C 209.859375 250.992188 209.816406 251.21875 209.761719 251.507812 L 196.667969 251.507812 C 196.839844 250.054688 197 248.632812 197.1875 247.210938 C 198.136719 239.910156 199.1875 232.585938 200.023438 225.273438 C 200.542969 220.71875 200.214844 216.199219 198.125 211.984375 C 195.90625 207.503906 192.195312 205.125 187.296875 204.609375 C 177.171875 203.539062 167.5 210.5625 165.4375 220.472656 C 164.011719 227.042969 166.257812 233.347656 171.5 236.847656 C 176.605469 240.238281 182.019531 240.25 187.585938 238.054688 C 190.410156 236.941406 192.804688 235.171875 195.09375 232.792969 " fill-opacity="1" fill-rule="evenodd"/><path fill="#3c3a3e" d="M 250.738281 193.015625 C 250.136719 197.566406 249.539062 202.046875 248.941406 206.609375 C 246.160156 206.609375 243.4375 206.597656 240.714844 206.617188 C 238.507812 206.632812 236.496094 208.058594 235.824219 210.117188 C 235.566406 210.921875 235.472656 211.785156 235.359375 212.628906 C 233.976562 223.136719 232.605469 233.539062 231.234375 243.941406 C 230.886719 246.578125 230.554688 249.214844 230.207031 251.894531 L 216.492188 251.894531 C 216.746094 249.882812 216.988281 247.9375 217.242188 245.992188 C 218.128906 239.214844 219.023438 232.394531 219.921875 225.699219 C 220.699219 219.839844 221.394531 213.960938 222.3125 208.089844 C 223.542969 200.261719 231.335938 193.257812 239.226562 192.949219 C 243 192.78125 246.785156 192.917969 250.671875 192.917969 " fill-opacity="1" fill-rule="evenodd"/><path fill="#3c3a3e" d="M 323.953125 252.445312 L 323.953125 246.675781 L 323.921875 246.675781 L 321.652344 252.445312 L 320.929688 252.445312 L 318.664062 246.675781 L 318.625 246.675781 L 318.625 252.445312 L 317.492188 252.445312 L 317.492188 245.535156 L 319.253906 245.535156 L 321.316406 250.785156 L 323.347656 245.535156 L 325.101562 245.535156 L 325.101562 252.445312 Z M 313.910156 246.460938 L 313.910156 252.445312 L 312.773438 252.445312 L 312.773438 246.460938 L 310.609375 246.460938 L 310.609375 245.535156 L 316.085938 245.535156 L 316.085938 246.460938 L 313.917969 246.460938 " fill-opacity="1" fill-rule="nonzero"/><path fill="#3c3a3e" d="M 105.648438 173.238281 L 109.039062 173.238281 L 108.238281 168.109375 Z M 109.574219 176.554688 L 103.933594 176.554688 L 102.140625 180.070312 L 98.140625 180.070312 L 106.957031 163.589844 L 110.8125 163.589844 L 113.8125 180.070312 L 110.113281 180.070312 L 109.578125 176.554688 " fill-opacity="1" fill-rule="nonzero"/><path fill="#3c3a3e" d="M 129.777344 166.957031 L 127.765625 166.957031 L 127.089844 170.757812 L 129.101562 170.757812 C 130.316406 170.757812 131.277344 169.960938 131.277344 168.460938 C 131.277344 167.46875 130.671875 166.957031 129.769531 166.957031 Z M 124.910156 163.640625 L 130.191406 163.640625 C 132.953125 163.640625 134.882812 165.289062 134.882812 168.109375 C 134.882812 171.675781 132.367188 174.0625 128.777344 174.0625 L 126.496094 174.0625 L 125.425781 180.089844 L 121.980469 180.089844 L 124.890625 163.609375 " fill-opacity="1" fill-rule="nonzero"/><path fill="#3c3a3e" d="M 146.585938 173.238281 L 149.976562 173.238281 L 149.175781 168.109375 Z M 150.503906 176.554688 L 144.863281 176.554688 L 143.070312 180.070312 L 139.066406 180.070312 L 147.886719 163.589844 L 151.742188 163.589844 L 154.742188 180.070312 L 151.039062 180.070312 L 150.507812 176.554688 " fill-opacity="1" fill-rule="nonzero"/><path fill="#3c3a3e" d="M 172.367188 179.523438 C 171.199219 180.054688 169.921875 180.371094 168.632812 180.371094 C 164.269531 180.371094 161.539062 177.105469 161.539062 173.015625 C 161.539062 167.785156 165.941406 163.386719 171.179688 163.386719 C 172.488281 163.386719 173.675781 163.703125 174.644531 164.230469 L 174.160156 168.175781 C 173.4375 167.375 172.265625 166.816406 170.820312 166.816406 C 167.820312 166.816406 165.148438 169.527344 165.148438 172.667969 C 165.148438 175.058594 166.652344 176.929688 169.027344 176.929688 C 170.480469 176.929688 171.882812 176.371094 172.832031 175.601562 L 172.371094 179.515625 " fill-opacity="1" fill-rule="nonzero"/><path fill="#3c3a3e" d="M 194.019531 173.445312 L 186.855469 173.445312 L 185.6875 180.070312 L 182.253906 180.070312 L 185.164062 163.589844 L 188.605469 163.589844 L 187.453125 170.097656 L 194.617188 170.097656 L 195.785156 163.589844 L 199.230469 163.589844 L 196.320312 180.070312 L 192.875 180.070312 L 194.03125 173.445312 " fill-opacity="1" fill-rule="nonzero"/><path fill="#3c3a3e" d="M 206.394531 180.039062 L 209.304688 163.558594 L 218.441406 163.558594 L 217.859375 166.875 L 212.167969 166.875 L 211.585938 170.066406 L 216.816406 170.066406 L 216.234375 173.382812 L 211.003906 173.382812 L 210.425781 176.699219 L 216.117188 176.699219 L 215.535156 180.015625 L 206.402344 180.015625 " fill-opacity="1" fill-rule="nonzero"/></svg>