<svg xmlns="http://www.w3.org/2000/svg" xmlns:xlink="http://www.w3.org/1999/xlink" width="500" zoomAndPan="magnify" viewBox="0 0 375 374.999991" height="500" preserveAspectRatio="xMidYMid meet" version="1.0"><defs><clipPath id="9054f27ffc"><path d="M 37.253906 28 L 338 28 L 338 225 L 37.253906 225 Z M 37.253906 28 " clip-rule="nonzero"/></clipPath><clipPath id="3db73fb872"><path d="M 37.253906 77 L 295 77 L 295 347 L 37.253906 347 Z M 37.253906 77 " clip-rule="nonzero"/></clipPath></defs><g clip-path="url(#9054f27ffc)"><path fill="#f6bd3a" d="M 166.382812 199.683594 L 209.40625 174.746094 L 251.894531 199.683594 L 209.40625 224.089844 L 166.382812 200.214844 Z M 37.320312 125.933594 L 209.40625 28.304688 L 337.40625 100.992188 L 294.917969 174.746094 L 209.410156 125.933594 L 80.347656 199.15625 Z M 37.320312 125.933594 " fill-opacity="1" fill-rule="nonzero"/></g><path fill="#eb8c23" d="M 166.382812 297.3125 L 166.382812 248.5 L 208.871094 224.089844 L 251.894531 199.683594 L 251.894531 248.496094 L 209.40625 272.90625 L 209.40625 321.71875 L 166.382812 346.660156 Z M 166.382812 199.683594 L 123.363281 175.273438 L 80.339844 199.152344 L 80.339844 150.335938 L 209.40625 77.117188 L 209.40625 174.746094 Z M 294.386719 150.335938 L 294.386719 125.929688 L 337.40625 100.992188 L 337.941406 149.804688 L 294.917969 174.742188 Z M 294.386719 150.335938 " fill-opacity="1" fill-rule="nonzero"/><g clip-path="url(#3db73fb872)"><path fill="#e35a2b" d="M 123.363281 320.65625 L 123.363281 175.277344 L 165.851562 151.402344 L 166.382812 199.6875 L 209.40625 223.5625 L 209.40625 272.910156 L 166.382812 250.09375 L 166.382812 346.660156 Z M 58.566406 186.421875 L 37.320312 173.6875 L 37.320312 125.933594 L 80.339844 150.34375 L 80.339844 199.15625 Z M 209.40625 125.933594 L 209.40625 77.117188 L 294.386719 125.929688 L 294.917969 174.742188 L 209.410156 125.929688 Z M 209.40625 125.933594 " fill-opacity="1" fill-rule="nonzero"/></g></svg>