<svg xmlns="http://www.w3.org/2000/svg" xmlns:xlink="http://www.w3.org/1999/xlink" width="512" zoomAndPan="magnify" viewBox="0 0 384 383.999986" height="512" preserveAspectRatio="xMidYMid meet" version="1.0"><defs><g/></defs><rect x="-38.4" width="460.8" fill="#ffffff" y="-38.399999" height="460.799983" fill-opacity="1"/><rect x="-38.4" width="460.8" fill="#ffffff" y="-38.399999" height="460.799983" fill-opacity="1"/><g fill="#000000" fill-opacity="1"><g transform="translate(91.802291, 235.323994)"><g><path d="M 155.765625 -32.203125 C 156.421875 -31.992188 156.992188 -31.710938 157.484375 -31.359375 C 157.984375 -31.015625 158.273438 -30.429688 158.359375 -29.609375 C 158.359375 -28.796875 158.109375 -28.179688 157.609375 -27.765625 C 157.117188 -27.359375 156.546875 -27.113281 155.890625 -27.03125 C 148.953125 -25.59375 142.097656 -23.601562 135.328125 -21.0625 C 132.703125 -20.070312 130.078125 -19.164062 127.453125 -18.34375 C 124.410156 -17.363281 121.390625 -16.296875 118.390625 -15.140625 C 116.222656 -14.328125 114.050781 -13.550781 111.875 -12.8125 C 109.820312 -11.988281 108.609375 -10.445312 108.234375 -8.1875 C 106.796875 -1.082031 105.21875 6.035156 103.5 13.171875 C 100.875 23.640625 96.625 34.117188 90.75 44.609375 C 84.882812 55.097656 77.679688 64.578125 69.140625 73.046875 C 60.597656 81.523438 51.050781 87.976562 40.5 92.40625 C 29.957031 96.84375 18.675781 98.203125 6.65625 96.484375 C -0.0390625 95.492188 -5.875 92.742188 -10.84375 88.234375 C -17.238281 81.992188 -19.164062 74.539062 -16.625 65.875 C -14.195312 58.125 -9.28125 50.519531 -1.875 43.0625 C 5.53125 35.613281 14.109375 28.632812 23.859375 22.125 C 33.609375 15.625 43.265625 9.890625 52.828125 4.921875 C 62.390625 -0.046875 70.617188 -3.960938 77.515625 -6.828125 C 83.097656 -9.296875 88.679688 -11.617188 94.265625 -13.796875 C 96.972656 -14.691406 98.46875 -16.535156 98.75 -19.328125 C 99.820312 -26.796875 100.675781 -36 101.3125 -46.9375 C 101.945312 -57.882812 102.035156 -69.316406 101.578125 -81.234375 C 101.128906 -93.160156 99.753906 -104.335938 97.453125 -114.765625 C 95.160156 -125.191406 91.613281 -133.609375 86.8125 -140.015625 C 79.507812 -149.492188 70.03125 -153.25 58.375 -151.28125 C 50.238281 -149.632812 42.332031 -146.570312 34.65625 -142.09375 C 26.988281 -137.625 20.195312 -132.132812 14.28125 -125.625 C 8.375 -119.125 3.972656 -112.015625 1.078125 -104.296875 C -1.816406 -96.578125 -2.554688 -88.632812 -1.140625 -80.46875 C 0.273438 -72.300781 4.492188 -64.335938 11.515625 -56.578125 C 14.515625 -53.128906 17.726562 -50.050781 21.15625 -47.34375 C 24.582031 -44.632812 28.550781 -42.707031 33.0625 -41.5625 C 33.59375 -41.4375 34.0625 -41.175781 34.46875 -40.78125 C 34.882812 -40.394531 35.09375 -39.914062 35.09375 -39.34375 C 35.175781 -38.644531 34.96875 -38.066406 34.46875 -37.609375 C 33.976562 -37.160156 33.425781 -36.835938 32.8125 -36.640625 C 31.789062 -36.304688 30.742188 -36.140625 29.671875 -36.140625 C 28.691406 -36.140625 27.707031 -36.265625 26.71875 -36.515625 C 26.59375 -36.515625 26.488281 -36.515625 26.40625 -36.515625 C 24.976562 -36.878906 23.582031 -37.429688 22.21875 -38.171875 C 9.75 -45.191406 0.859375 -53.21875 -4.453125 -62.25 C -9.773438 -71.28125 -12.171875 -80.644531 -11.640625 -90.34375 C -11.109375 -100.050781 -8.171875 -109.359375 -2.828125 -118.265625 C 2.503906 -127.179688 9.632812 -134.972656 18.5625 -141.640625 C 27.488281 -148.304688 37.597656 -153.140625 48.890625 -156.140625 C 56.316406 -158.109375 63.867188 -158.601562 71.546875 -157.625 C 84.347656 -155.8125 93.910156 -149.265625 100.234375 -137.984375 C 104.046875 -131.203125 106.9375 -122.9375 108.90625 -113.1875 C 110.882812 -103.445312 112.171875 -93.132812 112.765625 -82.25 C 113.359375 -71.375 113.425781 -60.878906 112.96875 -50.765625 C 112.519531 -40.648438 111.765625 -31.875 110.703125 -24.4375 C 110.410156 -22.757812 110.507812 -21.660156 111 -21.140625 C 111.5 -20.628906 112.25 -20.488281 113.25 -20.71875 C 114.257812 -20.945312 115.296875 -21.285156 116.359375 -21.734375 C 117.179688 -22.097656 117.941406 -22.382812 118.640625 -22.59375 C 128.703125 -25.550781 138.738281 -28.566406 148.75 -31.640625 C 151.09375 -32.546875 153.429688 -32.734375 155.765625 -32.203125 Z M 95.796875 -2.53125 C 96.253906 -5.519531 95.066406 -6.421875 92.234375 -5.234375 C 85.128906 -2.359375 76.742188 1.445312 67.078125 6.1875 C 57.410156 10.925781 47.628906 16.375 37.734375 22.53125 C 27.847656 28.6875 19.023438 35.328125 11.265625 42.453125 C 3.503906 49.578125 -2.054688 56.972656 -5.421875 64.640625 C -7.597656 69.816406 -7.84375 74.519531 -6.15625 78.75 C -4.46875 82.976562 -1.0625 86.28125 4.0625 88.65625 C 11.738281 91.976562 19.1875 92.867188 26.40625 91.328125 C 33.632812 89.796875 40.476562 86.546875 46.9375 81.578125 C 53.40625 76.609375 59.367188 70.53125 64.828125 63.34375 C 70.285156 56.164062 75.140625 48.5625 79.390625 40.53125 C 83.640625 32.507812 87.140625 24.753906 89.890625 17.265625 C 92.640625 9.773438 94.609375 3.175781 95.796875 -2.53125 Z M 95.796875 -2.53125 "/></g></g></g><g fill="#000000" fill-opacity="1"><g transform="translate(243.617849, 235.323994)"><g><path d="M 54.296875 -30.84375 C 55.859375 -30.5625 56.722656 -29.722656 56.890625 -28.328125 C 57.054688 -26.929688 56.335938 -25.515625 54.734375 -24.078125 C 53.171875 -22.722656 51.671875 -21.445312 50.234375 -20.25 C 46.628906 -17.300781 42.753906 -14.144531 38.609375 -10.78125 C 35.359375 -8.144531 32.378906 -5.25 29.671875 -2.09375 C 27.660156 0.0390625 26.164062 2.460938 25.1875 5.171875 C 24.113281 8.703125 22.304688 11.863281 19.765625 14.65625 C 18.328125 16.289062 16.679688 17.289062 14.828125 17.65625 C 12.984375 18.03125 11.054688 17.929688 9.046875 17.359375 C 8.066406 17.117188 7.328125 16.609375 6.828125 15.828125 C 6.335938 15.046875 6.238281 14.160156 6.53125 13.171875 C 6.851562 11.648438 7.425781 10.210938 8.25 8.859375 C 9.4375 7.140625 10.707031 5.457031 12.0625 3.8125 C 12.144531 3.65625 12.269531 3.492188 12.4375 3.328125 C 17.15625 -2.546875 17.441406 -8.5625 13.296875 -14.71875 C 12.273438 -16.070312 11.144531 -17.382812 9.90625 -18.65625 C 9.539062 -19.101562 9.132812 -19.554688 8.6875 -20.015625 C 7.945312 -20.910156 7.164062 -21.769531 6.34375 -22.59375 C 4.820312 -24.195312 3.34375 -25.898438 1.90625 -27.703125 C -2.15625 -33.410156 -1.890625 -38.867188 2.703125 -44.078125 C 6.691406 -48.796875 11.660156 -52.0625 17.609375 -53.875 C 21.304688 -54.9375 24.878906 -54.609375 28.328125 -52.890625 C 31.648438 -51.078125 33.1875 -48.285156 32.9375 -44.515625 C 32.570312 -41.972656 31.300781 -40.472656 29.125 -40.015625 C 26.332031 -39.484375 24.34375 -40.347656 23.15625 -42.609375 C 22.78125 -43.503906 22.507812 -44.285156 22.34375 -44.953125 C 22.1875 -45.648438 21.960938 -46.179688 21.671875 -46.546875 C 21.378906 -46.910156 20.925781 -47.019531 20.3125 -46.875 C 19.695312 -46.738281 18.710938 -46.257812 17.359375 -45.4375 C 15.265625 -44.207031 13.457031 -42.585938 11.9375 -40.578125 C 9.476562 -37.617188 9.335938 -34.457031 11.515625 -31.09375 C 12.253906 -30.019531 13.070312 -29.035156 13.96875 -28.140625 C 14.957031 -27.023438 15.90625 -25.9375 16.8125 -24.875 C 18.613281 -23.070312 20.320312 -21.222656 21.9375 -19.328125 C 23.5625 -17.441406 24.972656 -15.410156 26.171875 -13.234375 C 27.066406 -13.398438 28.644531 -14.25 30.90625 -15.78125 C 33.164062 -17.320312 35.617188 -19.109375 38.265625 -21.140625 C 40.910156 -23.179688 43.320312 -25.019531 45.5 -26.65625 C 47.300781 -28.09375 48.570312 -29.078125 49.3125 -29.609375 C 49.925781 -30.066406 50.6875 -30.40625 51.59375 -30.625 C 52.5 -30.851562 53.398438 -30.925781 54.296875 -30.84375 Z M 54.296875 -30.84375 "/></g></g></g></svg>