<svg xmlns="http://www.w3.org/2000/svg" xmlns:xlink="http://www.w3.org/1999/xlink" width="500" zoomAndPan="magnify" viewBox="0 0 375 374.999991" height="500" preserveAspectRatio="xMidYMid meet" version="1.0"><path fill="#00549d" d="M 179.292969 33.667969 C 184.332031 30.835938 190.539062 30.835938 195.574219 33.667969 C 220.476562 47.65625 295.421875 89.761719 320.335938 103.75 C 325.375 106.574219 328.480469 111.804688 328.480469 117.464844 C 328.480469 145.441406 328.480469 229.648438 328.480469 257.625 C 328.480469 263.289062 325.375 268.515625 320.335938 271.347656 C 295.429688 285.335938 220.484375 327.445312 195.574219 341.433594 C 190.53125 344.261719 184.324219 344.261719 179.292969 341.433594 C 154.386719 327.445312 79.441406 285.335938 54.527344 271.347656 C 49.496094 268.515625 46.394531 263.296875 46.394531 257.632812 C 46.394531 229.65625 46.394531 145.449219 46.394531 117.472656 C 46.394531 111.8125 49.496094 106.582031 54.535156 103.75 C 79.433594 89.761719 154.394531 47.65625 179.292969 33.667969 Z M 179.292969 33.667969 " fill-opacity="1" fill-rule="evenodd"/><path fill="#0086d4" d="M 48.648438 264.839844 C 46.675781 262.195312 46.394531 259.683594 46.394531 256.304688 C 46.394531 228.492188 46.394531 144.765625 46.394531 116.945312 C 46.394531 111.3125 49.488281 106.113281 54.515625 103.304688 C 79.332031 89.398438 154.023438 47.539062 178.839844 33.621094 C 183.867188 30.808594 190.671875 30.867188 195.699219 33.683594 C 220.515625 47.589844 294.957031 89.09375 319.773438 103 C 321.777344 104.128906 323.304688 105.488281 324.671875 107.28125 Z M 48.648438 264.839844 " fill-opacity="1" fill-rule="evenodd"/><path fill="#ffffff" d="M 187.4375 83.546875 C 244.796875 83.546875 291.363281 130.148438 291.363281 187.550781 C 291.363281 244.953125 244.796875 291.554688 187.4375 291.554688 C 130.074219 291.554688 83.507812 244.953125 83.507812 187.550781 C 83.507812 130.148438 130.078125 83.546875 187.4375 83.546875 Z M 187.4375 135.546875 C 216.113281 135.546875 239.398438 158.84375 239.398438 187.550781 C 239.398438 216.246094 216.113281 239.550781 187.4375 239.550781 C 158.761719 239.550781 135.472656 216.246094 135.472656 187.550781 C 135.472656 158.84375 158.753906 135.546875 187.4375 135.546875 Z M 187.4375 135.546875 " fill-opacity="1" fill-rule="evenodd"/><path fill="#0075c0" d="M 324.65625 107.355469 C 328.488281 110.941406 328.414062 116.351562 328.414062 120.609375 C 328.414062 148.800781 328.175781 228.988281 328.480469 257.179688 C 328.507812 260.121094 327.535156 263.21875 326.082031 265.554688 L 184.414062 187.550781 Z M 324.65625 107.355469 " fill-opacity="1" fill-rule="evenodd"/><path fill="#ffffff" d="M 239.398438 165.261719 L 254.246094 165.261719 L 254.246094 209.835938 L 239.398438 209.835938 Z M 291.363281 165.261719 L 306.210938 165.261719 L 306.210938 209.835938 L 291.363281 209.835938 Z M 291.363281 165.261719 " fill-opacity="1" fill-rule="evenodd"/><path fill="#ffffff" d="M 224.554688 180.121094 L 269.09375 180.121094 L 269.09375 194.980469 L 224.554688 194.980469 Z M 276.515625 180.121094 L 321.054688 180.121094 L 321.054688 194.980469 L 276.515625 194.980469 Z M 276.515625 180.121094 " fill-opacity="1" fill-rule="evenodd"/></svg>