<svg xmlns="http://www.w3.org/2000/svg" xmlns:xlink="http://www.w3.org/1999/xlink" width="500" zoomAndPan="magnify" viewBox="0 0 375 374.999991" height="500" preserveAspectRatio="xMidYMid meet" version="1.0"><defs><clipPath id="1ad35fcd16"><path d="M 73 66.796875 L 265 66.796875 L 265 154 L 73 154 Z M 73 66.796875 " clip-rule="nonzero"/></clipPath><clipPath id="4acee91cf2"><path d="M 180 96 L 337.5 96 L 337.5 308.296875 L 180 308.296875 Z M 180 96 " clip-rule="nonzero"/></clipPath><clipPath id="fc30fb0170"><path d="M 37.5 138 L 190 138 L 190 291 L 37.5 291 Z M 37.5 138 " clip-rule="nonzero"/></clipPath></defs><g clip-path="url(#1ad35fcd16)"><path fill="#ea4335" d="M 227.855469 133.300781 L 237.007812 133.300781 L 263.089844 107.210938 L 264.371094 96.140625 C 215.847656 53.300781 141.773438 57.914062 98.949219 106.457031 C 87.039062 119.941406 78.402344 135.980469 73.699219 153.339844 C 76.605469 152.144531 79.824219 151.953125 82.855469 152.785156 L 134.996094 144.179688 C 134.996094 144.179688 137.652344 139.789062 139.019531 140.066406 C 162.21875 114.582031 201.261719 111.613281 228.042969 133.300781 Z M 227.855469 133.300781 " fill-opacity="1" fill-rule="nonzero"/></g><g clip-path="url(#4acee91cf2)"><path fill="#4285f4" d="M 300.230469 153.339844 C 294.234375 131.261719 281.9375 111.414062 264.824219 96.230469 L 228.234375 132.835938 C 243.6875 145.464844 252.488281 164.496094 252.109375 184.457031 L 252.109375 190.960938 C 270.105469 190.960938 284.675781 205.550781 284.675781 223.539062 C 284.675781 241.539062 270.089844 256.117188 252.109375 256.117188 L 186.964844 256.117188 L 180.464844 262.710938 L 180.464844 301.792969 L 186.964844 308.296875 L 252.109375 308.296875 C 289.457031 308.585938 322.585938 284.371094 333.679688 248.699219 C 344.742188 213.011719 331.164062 174.269531 300.230469 153.339844 Z M 300.230469 153.339844 " fill-opacity="1" fill-rule="nonzero"/></g><path fill="#34a853" d="M 121.730469 307.929688 L 186.878906 307.929688 L 186.878906 255.765625 L 121.730469 255.765625 C 117.09375 255.765625 112.503906 254.773438 108.277344 252.835938 L 99.125 255.667969 L 72.871094 281.753906 L 70.582031 290.910156 C 85.304688 302.03125 103.273438 308.007812 121.730469 307.929688 Z M 121.730469 307.929688 " fill-opacity="1" fill-rule="nonzero"/><g clip-path="url(#fc30fb0170)"><path fill="#fbbc05" d="M 121.730469 138.695312 C 85.542969 138.910156 53.492188 162.09375 41.949219 196.394531 C 30.40625 230.699219 41.914062 268.558594 70.59375 290.621094 L 108.378906 252.824219 C 91.980469 245.414062 84.703125 226.117188 92.109375 209.714844 C 99.515625 193.3125 118.800781 186.03125 135.199219 193.4375 C 142.417969 196.710938 148.199219 202.496094 151.46875 209.714844 L 189.253906 171.917969 C 173.171875 150.898438 148.1875 138.609375 121.730469 138.695312 Z M 121.730469 138.695312 " fill-opacity="1" fill-rule="nonzero"/></g></svg>