<svg xmlns="http://www.w3.org/2000/svg" xmlns:xlink="http://www.w3.org/1999/xlink" width="500" zoomAndPan="magnify" viewBox="0 0 375 374.999991" height="500" preserveAspectRatio="xMidYMid meet" version="1.0"><defs><clipPath id="ed51d7681f"><path d="M 324 81 L 342.277344 81 L 342.277344 100 L 324 100 Z M 324 81 " clip-rule="nonzero"/></clipPath><clipPath id="594504b9c1"><path d="M 324 122 L 342.277344 122 L 342.277344 141 L 324 141 Z M 324 122 " clip-rule="nonzero"/></clipPath><clipPath id="77bdf49ee2"><path d="M 324 166 L 342.277344 166 L 342.277344 185 L 324 185 Z M 324 166 " clip-rule="nonzero"/></clipPath><clipPath id="079e375580"><path d="M 93 43.375 L 137 43.375 L 137 76 L 93 76 Z M 93 43.375 " clip-rule="nonzero"/></clipPath><clipPath id="c8b89b0397"><path d="M 32.527344 104 L 65 104 L 65 147 L 32.527344 147 Z M 32.527344 104 " clip-rule="nonzero"/></clipPath></defs><path fill="#000000" d="M 264.058594 285.757812 C 263.644531 285.757812 263.238281 285.574219 262.96875 285.222656 C 262.503906 284.621094 262.617188 283.757812 263.222656 283.292969 C 267.148438 280.28125 270.949219 277.003906 274.511719 273.554688 C 275.054688 273.027344 275.925781 273.042969 276.457031 273.589844 C 276.984375 274.132812 276.96875 275.003906 276.421875 275.53125 C 272.785156 279.050781 268.90625 282.398438 264.894531 285.476562 C 264.644531 285.667969 264.351562 285.757812 264.058594 285.757812 Z M 285.675781 264.839844 C 285.371094 264.839844 285.0625 264.738281 284.804688 264.527344 C 284.21875 264.046875 284.132812 263.179688 284.613281 262.59375 C 287.761719 258.761719 290.714844 254.710938 293.398438 250.550781 C 293.8125 249.910156 294.664062 249.726562 295.300781 250.136719 C 295.9375 250.550781 296.121094 251.402344 295.710938 252.039062 C 292.96875 256.289062 289.953125 260.425781 286.738281 264.339844 C 286.46875 264.667969 286.074219 264.839844 285.675781 264.839844 Z M 301.980469 239.5625 C 301.773438 239.5625 301.566406 239.515625 301.371094 239.417969 C 300.691406 239.085938 300.410156 238.261719 300.746094 237.578125 C 302.9375 233.132812 304.890625 228.511719 306.550781 223.851562 C 306.804688 223.136719 307.59375 222.761719 308.308594 223.015625 C 309.023438 223.273438 309.398438 224.058594 309.140625 224.773438 C 307.445312 229.535156 305.453125 234.253906 303.214844 238.792969 C 302.972656 239.28125 302.488281 239.5625 301.980469 239.5625 Z M 312.074219 211.226562 C 311.96875 211.226562 311.867188 211.214844 311.761719 211.191406 C 311.023438 211.023438 310.5625 210.285156 310.730469 209.542969 C 311.839844 204.722656 312.683594 199.78125 313.230469 194.851562 C 313.3125 194.097656 313.992188 193.550781 314.746094 193.636719 C 315.503906 193.722656 316.046875 194.402344 315.960938 195.15625 C 315.402344 200.1875 314.546875 205.238281 313.410156 210.160156 C 313.265625 210.796875 312.699219 211.226562 312.074219 211.226562 Z M 312.074219 211.226562 " fill-opacity="1" fill-rule="nonzero"/><path fill="#000000" d="M 243.238281 64.5625 C 243.03125 64.5625 242.820312 64.515625 242.621094 64.414062 C 238.195312 62.183594 233.59375 60.191406 228.941406 58.488281 C 228.230469 58.226562 227.863281 57.4375 228.125 56.722656 C 228.386719 56.011719 229.175781 55.644531 229.886719 55.90625 C 234.636719 57.644531 239.339844 59.679688 243.859375 61.960938 C 244.539062 62.300781 244.8125 63.128906 244.46875 63.804688 C 244.226562 64.285156 243.742188 64.5625 243.238281 64.5625 Z M 140.726562 58.050781 C 140.160156 58.050781 139.628906 57.699219 139.429688 57.132812 C 139.175781 56.417969 139.550781 55.632812 140.269531 55.378906 C 145.039062 53.699219 149.960938 52.277344 154.894531 51.15625 C 155.636719 50.988281 156.375 51.453125 156.542969 52.191406 C 156.710938 52.933594 156.246094 53.667969 155.503906 53.835938 C 150.671875 54.933594 145.855469 56.328125 141.183594 57.972656 C 141.03125 58.027344 140.878906 58.050781 140.726562 58.050781 Z M 214.988281 54.21875 C 214.882812 54.21875 214.777344 54.207031 214.667969 54.179688 C 209.855469 53.027344 204.917969 52.144531 199.992188 51.550781 C 199.238281 51.460938 198.699219 50.777344 198.789062 50.023438 C 198.878906 49.269531 199.566406 48.730469 200.320312 48.820312 C 205.351562 49.425781 210.394531 50.332031 215.308594 51.507812 C 216.046875 51.683594 216.503906 52.425781 216.324219 53.164062 C 216.175781 53.796875 215.609375 54.21875 214.988281 54.21875 Z M 170.058594 51.386719 C 169.367188 51.386719 168.769531 50.867188 168.695312 50.160156 C 168.613281 49.40625 169.160156 48.730469 169.914062 48.648438 C 174.929688 48.101562 180.050781 47.84375 185.121094 47.871094 C 185.878906 47.875 186.492188 48.496094 186.488281 49.253906 C 186.484375 50.011719 185.867188 50.621094 185.113281 50.621094 C 185.109375 50.621094 185.109375 50.621094 185.105469 50.621094 C 180.140625 50.59375 175.121094 50.847656 170.210938 51.378906 C 170.160156 51.386719 170.109375 51.386719 170.058594 51.386719 Z M 170.058594 51.386719 " fill-opacity="1" fill-rule="nonzero"/><path fill="#000000" d="M 122.105469 297.019531 C 121.882812 297.019531 121.660156 296.964844 121.453125 296.855469 C 117.011719 294.453125 112.65625 291.765625 108.511719 288.867188 C 107.886719 288.433594 107.734375 287.578125 108.171875 286.953125 C 108.605469 286.332031 109.464844 286.179688 110.085938 286.617188 C 114.144531 289.453125 118.410156 292.085938 122.757812 294.433594 C 123.429688 294.796875 123.675781 295.628906 123.316406 296.296875 C 123.066406 296.757812 122.59375 297.019531 122.105469 297.019531 Z M 97.464844 279.792969 C 97.144531 279.792969 96.816406 279.679688 96.554688 279.445312 C 92.769531 276.09375 89.132812 272.484375 85.753906 268.71875 C 85.246094 268.15625 85.292969 267.285156 85.859375 266.777344 C 86.421875 266.269531 87.292969 266.316406 87.800781 266.882812 C 91.109375 270.570312 94.671875 274.101562 98.378906 277.386719 C 98.949219 277.890625 99 278.761719 98.496094 279.328125 C 98.226562 279.636719 97.847656 279.792969 97.464844 279.792969 Z M 77.371094 257.410156 C 76.9375 257.410156 76.515625 257.207031 76.246094 256.832031 C 73.316406 252.699219 70.597656 248.359375 68.164062 243.929688 C 67.796875 243.261719 68.039062 242.425781 68.707031 242.0625 C 69.371094 241.695312 70.207031 241.941406 70.574219 242.605469 C 72.957031 246.945312 75.621094 251.195312 78.488281 255.238281 C 78.929688 255.859375 78.78125 256.714844 78.164062 257.15625 C 77.921875 257.328125 77.644531 257.410156 77.371094 257.410156 Z M 62.890625 231.039062 C 62.347656 231.039062 61.832031 230.714844 61.613281 230.183594 C 59.707031 225.492188 58.050781 220.644531 56.699219 215.769531 C 56.496094 215.039062 56.925781 214.28125 57.65625 214.078125 C 58.386719 213.875 59.148438 214.300781 59.351562 215.035156 C 60.675781 219.808594 62.292969 224.554688 64.164062 229.144531 C 64.449219 229.847656 64.109375 230.652344 63.40625 230.9375 C 63.238281 231.007812 63.0625 231.039062 62.890625 231.039062 Z M 54.839844 202.046875 C 54.175781 202.046875 53.589844 201.558594 53.484375 200.882812 C 52.703125 195.898438 52.207031 190.800781 52 185.734375 C 51.96875 184.976562 52.5625 184.335938 53.320312 184.304688 C 54.078125 184.273438 54.71875 184.867188 54.75 185.625 C 54.949219 190.585938 55.4375 195.578125 56.199219 200.457031 C 56.316406 201.207031 55.804688 201.910156 55.054688 202.027344 C 54.984375 202.039062 54.910156 202.046875 54.839844 202.046875 Z M 53.617188 171.992188 C 53.585938 171.992188 53.550781 171.992188 53.515625 171.988281 C 52.757812 171.933594 52.191406 171.273438 52.246094 170.515625 C 52.613281 165.449219 53.28125 160.367188 54.226562 155.421875 C 54.367188 154.675781 55.089844 154.1875 55.835938 154.332031 C 56.582031 154.472656 57.070312 155.191406 56.925781 155.9375 C 56.003906 160.78125 55.351562 165.753906 54.988281 170.71875 C 54.9375 171.441406 54.332031 171.992188 53.617188 171.992188 Z M 53.617188 171.992188 " fill-opacity="1" fill-rule="nonzero"/><path fill="#7bcafa" d="M 280.585938 180.289062 C 280.585938 181.863281 280.550781 183.4375 280.472656 185.011719 C 280.394531 186.585938 280.277344 188.152344 280.125 189.722656 C 279.96875 191.289062 279.777344 192.851562 279.546875 194.410156 C 279.316406 195.964844 279.046875 197.515625 278.738281 199.0625 C 278.429688 200.605469 278.085938 202.140625 277.703125 203.667969 C 277.320312 205.195312 276.902344 206.714844 276.445312 208.21875 C 275.984375 209.726562 275.492188 211.222656 274.960938 212.703125 C 274.429688 214.1875 273.863281 215.65625 273.261719 217.109375 C 272.660156 218.566406 272.019531 220.003906 271.347656 221.429688 C 270.675781 222.851562 269.964844 224.257812 269.222656 225.644531 C 268.480469 227.035156 267.707031 228.40625 266.894531 229.753906 C 266.085938 231.105469 265.242188 232.4375 264.367188 233.746094 C 263.492188 235.054688 262.585938 236.339844 261.648438 237.605469 C 260.710938 238.871094 259.742188 240.113281 258.742188 241.328125 C 257.742188 242.546875 256.714844 243.738281 255.65625 244.90625 C 254.597656 246.070312 253.511719 247.210938 252.398438 248.324219 C 251.285156 249.4375 250.144531 250.523438 248.980469 251.582031 C 247.8125 252.640625 246.621094 253.667969 245.402344 254.664062 C 244.183594 255.664062 242.941406 256.632812 241.679688 257.570312 C 240.414062 258.507812 239.125 259.414062 237.816406 260.289062 C 236.507812 261.164062 235.175781 262.007812 233.824219 262.816406 C 232.472656 263.625 231.105469 264.402344 229.714844 265.144531 C 228.324219 265.886719 226.917969 266.59375 225.496094 267.269531 C 224.070312 267.941406 222.632812 268.578125 221.175781 269.183594 C 219.722656 269.785156 218.253906 270.351562 216.769531 270.882812 C 215.289062 271.410156 213.792969 271.90625 212.285156 272.363281 C 210.777344 272.820312 209.261719 273.238281 207.734375 273.621094 C 206.203125 274.003906 204.667969 274.351562 203.125 274.65625 C 201.578125 274.964844 200.027344 275.234375 198.46875 275.464844 C 196.910156 275.695312 195.347656 275.886719 193.78125 276.042969 C 192.214844 276.195312 190.644531 276.3125 189.070312 276.390625 C 187.496094 276.46875 185.921875 276.503906 184.347656 276.503906 C 182.773438 276.503906 181.199219 276.46875 179.625 276.390625 C 178.054688 276.3125 176.484375 276.195312 174.914062 276.042969 C 173.347656 275.886719 171.785156 275.695312 170.226562 275.464844 C 168.667969 275.234375 167.117188 274.964844 165.574219 274.65625 C 164.027344 274.351562 162.492188 274.003906 160.964844 273.621094 C 159.4375 273.238281 157.917969 272.820312 156.410156 272.363281 C 154.90625 271.90625 153.410156 271.410156 151.925781 270.882812 C 150.441406 270.351562 148.972656 269.785156 147.519531 269.183594 C 146.0625 268.578125 144.625 267.941406 143.199219 267.269531 C 141.777344 266.59375 140.371094 265.886719 138.980469 265.144531 C 137.59375 264.402344 136.222656 263.625 134.871094 262.816406 C 133.519531 262.007812 132.191406 261.164062 130.878906 260.289062 C 129.570312 259.414062 128.285156 258.507812 127.019531 257.570312 C 125.753906 256.632812 124.511719 255.664062 123.292969 254.664062 C 122.078125 253.667969 120.886719 252.640625 119.71875 251.582031 C 118.550781 250.523438 117.410156 249.4375 116.296875 248.324219 C 115.183594 247.210938 114.097656 246.070312 113.039062 244.90625 C 111.980469 243.738281 110.953125 242.546875 109.953125 241.328125 C 108.957031 240.113281 107.988281 238.871094 107.046875 237.605469 C 106.109375 236.339844 105.203125 235.054688 104.328125 233.746094 C 103.453125 232.4375 102.609375 231.105469 101.800781 229.753906 C 100.992188 228.40625 100.214844 227.035156 99.472656 225.644531 C 98.730469 224.257812 98.023438 222.851562 97.347656 221.429688 C 96.675781 220.003906 96.039062 218.566406 95.433594 217.109375 C 94.832031 215.65625 94.265625 214.1875 93.734375 212.703125 C 93.203125 211.222656 92.710938 209.726562 92.253906 208.21875 C 91.796875 206.714844 91.375 205.195312 90.992188 203.667969 C 90.609375 202.140625 90.265625 200.605469 89.957031 199.0625 C 89.652344 197.515625 89.382812 195.964844 89.152344 194.410156 C 88.917969 192.851562 88.726562 191.289062 88.574219 189.722656 C 88.417969 188.152344 88.300781 186.585938 88.226562 185.011719 C 88.148438 183.4375 88.109375 181.863281 88.109375 180.289062 C 88.109375 178.714844 88.148438 177.140625 88.226562 175.570312 C 88.300781 173.996094 88.417969 172.425781 88.574219 170.859375 C 88.726562 169.292969 88.917969 167.730469 89.152344 166.171875 C 89.382812 164.613281 89.652344 163.0625 89.957031 161.519531 C 90.265625 159.976562 90.609375 158.441406 90.992188 156.910156 C 91.375 155.382812 91.796875 153.867188 92.253906 152.359375 C 92.710938 150.855469 93.203125 149.359375 93.734375 147.875 C 94.265625 146.394531 94.832031 144.925781 95.433594 143.46875 C 96.039062 142.015625 96.675781 140.578125 97.347656 139.152344 C 98.023438 137.730469 98.730469 136.324219 99.472656 134.933594 C 100.214844 133.546875 100.992188 132.175781 101.800781 130.824219 C 102.609375 129.476562 103.453125 128.144531 104.328125 126.835938 C 105.203125 125.527344 106.109375 124.238281 107.046875 122.976562 C 107.988281 121.710938 108.957031 120.46875 109.953125 119.253906 C 110.953125 118.035156 111.980469 116.84375 113.039062 115.675781 C 114.097656 114.507812 115.183594 113.371094 116.296875 112.257812 C 117.410156 111.144531 118.550781 110.058594 119.71875 109 C 120.886719 107.941406 122.078125 106.914062 123.292969 105.914062 C 124.511719 104.917969 125.753906 103.949219 127.019531 103.007812 C 128.285156 102.070312 129.570312 101.164062 130.878906 100.289062 C 132.191406 99.414062 133.519531 98.574219 134.871094 97.765625 C 136.222656 96.953125 137.59375 96.179688 138.980469 95.4375 C 140.371094 94.695312 141.777344 93.984375 143.199219 93.3125 C 144.625 92.640625 146.0625 92 147.519531 91.398438 C 148.972656 90.796875 150.441406 90.230469 151.925781 89.699219 C 153.410156 89.167969 154.90625 88.675781 156.410156 88.21875 C 157.917969 87.761719 159.4375 87.339844 160.964844 86.957031 C 162.492188 86.574219 164.027344 86.230469 165.574219 85.925781 C 167.117188 85.617188 168.667969 85.347656 170.226562 85.117188 C 171.785156 84.886719 173.347656 84.691406 174.914062 84.539062 C 176.484375 84.382812 178.054688 84.269531 179.625 84.191406 C 181.199219 84.113281 182.773438 84.074219 184.347656 84.074219 C 185.921875 84.074219 187.496094 84.113281 189.070312 84.191406 C 190.644531 84.269531 192.214844 84.382812 193.78125 84.539062 C 195.347656 84.691406 196.910156 84.886719 198.46875 85.117188 C 200.027344 85.347656 201.578125 85.617188 203.125 85.925781 C 204.667969 86.230469 206.203125 86.574219 207.734375 86.957031 C 209.261719 87.339844 210.777344 87.761719 212.285156 88.21875 C 213.792969 88.675781 215.289062 89.167969 216.769531 89.699219 C 218.253906 90.230469 219.722656 90.796875 221.175781 91.398438 C 222.632812 92 224.070312 92.640625 225.496094 93.3125 C 226.917969 93.984375 228.324219 94.695312 229.714844 95.4375 C 231.105469 96.179688 232.472656 96.953125 233.824219 97.765625 C 235.175781 98.574219 236.507812 99.414062 237.816406 100.289062 C 239.125 101.164062 240.414062 102.070312 241.679688 103.007812 C 242.941406 103.949219 244.183594 104.917969 245.402344 105.914062 C 246.621094 106.914062 247.8125 107.941406 248.980469 109 C 250.144531 110.058594 251.285156 111.144531 252.398438 112.257812 C 253.511719 113.371094 254.597656 114.507812 255.65625 115.675781 C 256.714844 116.84375 257.742188 118.035156 258.742188 119.253906 C 259.742188 120.46875 260.710938 121.710938 261.648438 122.976562 C 262.585938 124.238281 263.492188 125.527344 264.367188 126.835938 C 265.242188 128.144531 266.085938 129.476562 266.894531 130.824219 C 267.707031 132.175781 268.480469 133.546875 269.222656 134.933594 C 269.964844 136.324219 270.675781 137.730469 271.347656 139.152344 C 272.019531 140.578125 272.660156 142.015625 273.261719 143.46875 C 273.863281 144.925781 274.429688 146.394531 274.960938 147.875 C 275.492188 149.359375 275.984375 150.855469 276.445312 152.359375 C 276.902344 153.867188 277.320312 155.382812 277.703125 156.910156 C 278.085938 158.441406 278.429688 159.976562 278.738281 161.519531 C 279.046875 163.0625 279.316406 164.613281 279.546875 166.171875 C 279.777344 167.730469 279.96875 169.292969 280.125 170.859375 C 280.277344 172.425781 280.394531 173.996094 280.472656 175.570312 C 280.550781 177.140625 280.585938 178.714844 280.585938 180.289062 Z M 280.585938 180.289062 " fill-opacity="1" fill-rule="nonzero"/><path fill="#ffffff" d="M 231.832031 303.546875 C 239.617188 303.546875 245.933594 297.234375 245.933594 289.449219 C 245.933594 281.65625 239.621094 275.339844 231.832031 275.339844 C 229.234375 275.339844 226.804688 276.046875 224.714844 277.257812 C 226.539062 274.296875 227.582031 270.8125 227.582031 267.097656 C 227.582031 256.339844 218.863281 247.632812 208.113281 247.632812 C 204.191406 247.632812 200.535156 248.785156 197.472656 250.789062 C 195.3125 239.703125 185.546875 231.347656 173.828125 231.347656 C 160.527344 231.347656 149.742188 242.132812 149.742188 255.425781 C 149.742188 258.195312 150.203125 260.855469 151.066406 263.320312 C 150.628906 263.285156 150.191406 263.269531 149.742188 263.269531 C 138.617188 263.269531 129.59375 272.292969 129.59375 283.414062 C 129.59375 294.539062 138.617188 303.546875 149.742188 303.546875 L 149.738281 303.550781 L 231.832031 303.550781 Z M 231.832031 303.546875 " fill-opacity="1" fill-rule="nonzero"/><path fill="#000000" d="M 231.832031 304.925781 L 149.738281 304.925781 C 149.710938 304.925781 149.6875 304.925781 149.660156 304.921875 C 137.828125 304.878906 128.214844 295.246094 128.214844 283.414062 C 128.214844 271.734375 137.578125 262.195312 149.195312 261.902344 C 148.644531 259.8125 148.367188 257.640625 148.367188 255.425781 C 148.367188 241.390625 159.789062 229.972656 173.824219 229.972656 C 185.34375 229.972656 195.378906 237.722656 198.386719 248.65625 C 201.363281 247.082031 204.691406 246.257812 208.113281 246.257812 C 213.679688 246.257812 218.914062 248.421875 222.851562 252.355469 C 226.789062 256.292969 228.957031 261.527344 228.957031 267.097656 C 228.957031 269.664062 228.484375 272.195312 227.578125 274.5625 C 228.957031 274.167969 230.390625 273.964844 231.832031 273.964844 C 240.367188 273.964844 247.308594 280.914062 247.308594 289.449219 C 247.308594 297.957031 240.410156 304.878906 231.910156 304.921875 C 231.882812 304.925781 231.859375 304.925781 231.832031 304.925781 Z M 149.816406 302.175781 L 231.757812 302.175781 C 231.78125 302.175781 231.808594 302.171875 231.832031 302.171875 C 238.851562 302.171875 244.558594 296.464844 244.558594 289.449219 C 244.558594 282.429688 238.851562 276.714844 231.832031 276.714844 C 229.578125 276.714844 227.355469 277.316406 225.40625 278.449219 C 224.863281 278.765625 224.171875 278.671875 223.730469 278.21875 C 223.292969 277.769531 223.214844 277.078125 223.546875 276.539062 C 225.285156 273.707031 226.207031 270.441406 226.207031 267.097656 C 226.207031 257.121094 218.089844 249.007812 208.113281 249.007812 C 204.578125 249.007812 201.15625 250.019531 198.226562 251.9375 C 197.84375 252.191406 197.363281 252.234375 196.9375 252.054688 C 196.515625 251.878906 196.210938 251.5 196.125 251.050781 C 194.054688 240.429688 184.675781 232.722656 173.828125 232.722656 C 161.304688 232.722656 151.117188 242.90625 151.117188 255.425781 C 151.117188 258 151.535156 260.5 152.363281 262.867188 C 152.515625 263.304688 152.4375 263.792969 152.152344 264.160156 C 151.867188 264.53125 151.414062 264.726562 150.953125 264.691406 C 150.59375 264.660156 150.207031 264.644531 149.742188 264.644531 C 139.390625 264.644531 130.96875 273.066406 130.96875 283.414062 C 130.96875 293.757812 139.390625 302.171875 149.742188 302.171875 C 149.765625 302.171875 149.792969 302.175781 149.816406 302.175781 Z M 149.816406 302.175781 " fill-opacity="1" fill-rule="nonzero"/><path fill="#000000" d="M 249.925781 282.820312 L 243.445312 282.820312 C 242.683594 282.820312 242.070312 282.203125 242.070312 281.445312 C 242.070312 280.683594 242.683594 280.070312 243.445312 280.070312 L 248.550781 280.070312 L 248.550781 261.683594 C 248.550781 260.921875 249.167969 260.308594 249.925781 260.308594 C 250.6875 260.308594 251.300781 260.921875 251.300781 261.683594 L 251.300781 281.445312 C 251.300781 282.203125 250.6875 282.820312 249.925781 282.820312 Z M 249.925781 282.820312 " fill-opacity="1" fill-rule="nonzero"/><path fill="#000000" d="M 129.59375 279.410156 L 120.046875 279.410156 C 119.289062 279.410156 118.671875 278.792969 118.671875 278.035156 L 118.671875 258.363281 C 118.671875 257.605469 119.289062 256.988281 120.046875 256.988281 C 120.804688 256.988281 121.421875 257.605469 121.421875 258.363281 L 121.421875 276.660156 L 129.59375 276.660156 C 130.351562 276.660156 130.96875 277.273438 130.96875 278.035156 C 130.96875 278.792969 130.351562 279.410156 129.59375 279.410156 Z M 129.59375 279.410156 " fill-opacity="1" fill-rule="nonzero"/><path fill="#000000" d="M 185.613281 235.773438 C 184.851562 235.773438 184.238281 235.160156 184.238281 234.398438 L 184.238281 220.675781 C 184.238281 219.917969 184.851562 219.300781 185.613281 219.300781 C 186.371094 219.300781 186.988281 219.917969 186.988281 220.675781 L 186.988281 234.398438 C 186.988281 235.160156 186.371094 235.773438 185.613281 235.773438 Z M 185.613281 235.773438 " fill-opacity="1" fill-rule="nonzero"/><path fill="#ffc180" d="M 136.511719 250.253906 L 136.511719 230.804688 C 136.511719 229.476562 135.433594 228.398438 134.105469 228.398438 L 119.855469 228.398438 L 117.289062 225.832031 C 116.464844 225.007812 115.34375 224.542969 114.175781 224.542969 L 105.15625 224.542969 C 103.828125 224.542969 102.75 225.621094 102.75 226.949219 L 102.75 250.132812 C 102.75 251.460938 103.828125 252.539062 105.15625 252.539062 L 134.226562 252.539062 C 135.488281 252.539062 136.511719 251.515625 136.511719 250.253906 Z M 136.511719 250.253906 " fill-opacity="1" fill-rule="nonzero"/><path fill="#000000" d="M 134.226562 253.914062 L 105.15625 253.914062 C 103.070312 253.914062 101.375 252.21875 101.375 250.132812 L 101.375 226.949219 C 101.375 224.867188 103.070312 223.167969 105.15625 223.167969 L 114.175781 223.167969 C 115.71875 223.167969 117.171875 223.769531 118.261719 224.863281 L 120.421875 227.023438 L 134.105469 227.023438 C 136.1875 227.023438 137.886719 228.71875 137.886719 230.804688 L 137.886719 250.253906 C 137.886719 252.273438 136.242188 253.914062 134.226562 253.914062 Z M 105.15625 225.917969 C 104.585938 225.917969 104.125 226.382812 104.125 226.949219 L 104.125 250.132812 C 104.125 250.703125 104.585938 251.164062 105.15625 251.164062 L 134.226562 251.164062 C 134.726562 251.164062 135.136719 250.757812 135.136719 250.253906 L 135.136719 230.804688 C 135.136719 230.234375 134.671875 229.773438 134.105469 229.773438 L 119.855469 229.773438 C 119.488281 229.773438 119.140625 229.628906 118.882812 229.371094 L 116.316406 226.804688 C 115.746094 226.234375 114.984375 225.917969 114.175781 225.917969 Z M 105.15625 225.917969 " fill-opacity="1" fill-rule="nonzero"/><path fill="#ffc180" d="M 203.210938 213.238281 L 203.210938 193.789062 C 203.210938 192.457031 202.132812 191.382812 200.800781 191.382812 L 186.550781 191.382812 L 183.988281 188.816406 C 183.164062 187.992188 182.042969 187.527344 180.875 187.527344 L 171.855469 187.527344 C 170.527344 187.527344 169.449219 188.605469 169.449219 189.933594 L 169.449219 213.117188 C 169.449219 214.445312 170.527344 215.523438 171.855469 215.523438 L 200.925781 215.523438 C 202.1875 215.523438 203.210938 214.5 203.210938 213.238281 Z M 203.210938 213.238281 " fill-opacity="1" fill-rule="nonzero"/><path fill="#000000" d="M 200.925781 216.898438 L 171.855469 216.898438 C 169.769531 216.898438 168.074219 215.199219 168.074219 213.117188 L 168.074219 189.933594 C 168.074219 187.847656 169.769531 186.152344 171.855469 186.152344 L 180.875 186.152344 C 182.417969 186.152344 183.867188 186.753906 184.960938 187.84375 L 187.121094 190.007812 L 200.800781 190.007812 C 202.886719 190.007812 204.585938 191.703125 204.585938 193.789062 L 204.585938 213.238281 C 204.585938 215.253906 202.941406 216.898438 200.925781 216.898438 Z M 171.855469 188.902344 C 171.285156 188.902344 170.824219 189.363281 170.824219 189.933594 L 170.824219 213.117188 C 170.824219 213.683594 171.285156 214.148438 171.855469 214.148438 L 200.925781 214.148438 C 201.425781 214.148438 201.835938 213.738281 201.835938 213.238281 L 201.835938 193.789062 C 201.835938 193.21875 201.371094 192.753906 200.800781 192.753906 L 186.550781 192.753906 C 186.1875 192.753906 185.839844 192.609375 185.582031 192.351562 L 183.015625 189.789062 C 182.445312 189.21875 181.683594 188.902344 180.875 188.902344 Z M 171.855469 188.902344 " fill-opacity="1" fill-rule="nonzero"/><path fill="#ffc180" d="M 265.761719 252.003906 L 265.761719 232.554688 C 265.761719 231.226562 264.683594 230.148438 263.355469 230.148438 L 249.105469 230.148438 L 246.542969 227.582031 C 245.714844 226.757812 244.597656 226.292969 243.429688 226.292969 L 234.40625 226.292969 C 233.078125 226.292969 232 227.371094 232 228.699219 L 232 251.882812 C 232 253.210938 233.078125 254.289062 234.40625 254.289062 L 263.476562 254.289062 C 264.738281 254.289062 265.761719 253.265625 265.761719 252.003906 Z M 265.761719 252.003906 " fill-opacity="1" fill-rule="nonzero"/><path fill="#000000" d="M 263.476562 255.664062 L 234.40625 255.664062 C 232.324219 255.664062 230.625 253.96875 230.625 251.882812 L 230.625 228.699219 C 230.625 226.613281 232.324219 224.917969 234.40625 224.917969 L 243.429688 224.917969 C 244.972656 224.917969 246.421875 225.519531 247.515625 226.609375 L 249.675781 228.773438 L 263.355469 228.773438 C 265.441406 228.773438 267.136719 230.46875 267.136719 232.554688 L 267.136719 252.003906 C 267.136719 254.023438 265.496094 255.664062 263.476562 255.664062 Z M 234.40625 227.667969 C 233.839844 227.667969 233.375 228.132812 233.375 228.699219 L 233.375 251.882812 C 233.375 252.453125 233.839844 252.914062 234.40625 252.914062 L 263.476562 252.914062 C 263.980469 252.914062 264.386719 252.503906 264.386719 252.003906 L 264.386719 232.554688 C 264.386719 231.984375 263.925781 231.523438 263.355469 231.523438 L 249.105469 231.523438 C 248.742188 231.523438 248.390625 231.378906 248.132812 231.121094 L 245.570312 228.554688 C 244.996094 227.984375 244.238281 227.667969 243.429688 227.667969 Z M 234.40625 227.667969 " fill-opacity="1" fill-rule="nonzero"/><path fill="#026bbf" d="M 211.574219 301.59375 C 211.574219 299.207031 212.941406 297.144531 214.960938 296.066406 C 216.386719 295.304688 217.054688 293.625 216.527344 292.132812 C 216.101562 290.933594 215.597656 289.765625 215.019531 288.636719 C 214.296875 287.234375 212.605469 286.507812 211.042969 286.941406 C 208.824219 287.554688 206.347656 287.027344 204.601562 285.34375 C 202.855469 283.65625 202.308594 281.265625 202.945312 279.125 C 203.394531 277.617188 202.640625 275.984375 201.183594 275.289062 C 200.019531 274.730469 198.808594 274.242188 197.5625 273.832031 C 196.019531 273.324219 194.28125 273.96875 193.488281 275.34375 C 192.371094 277.292969 190.234375 278.609375 187.761719 278.609375 C 185.292969 278.609375 183.15625 277.292969 182.039062 275.34375 C 181.246094 273.96875 179.507812 273.324219 177.964844 273.832031 C 176.71875 274.242188 175.507812 274.730469 174.339844 275.289062 C 172.882812 275.984375 172.132812 277.617188 172.582031 279.125 C 173.21875 281.265625 172.671875 283.65625 170.925781 285.34375 C 169.175781 287.027344 166.699219 287.554688 164.484375 286.941406 C 162.921875 286.507812 161.226562 287.234375 160.507812 288.636719 C 159.929688 289.765625 159.425781 290.933594 159 292.132812 C 158.472656 293.625 159.140625 295.304688 160.566406 296.066406 C 162.582031 297.144531 163.949219 299.207031 163.949219 301.59375 C 163.949219 303.976562 162.582031 306.039062 160.566406 307.117188 C 159.140625 307.878906 158.46875 309.558594 159 311.050781 C 159.425781 312.253906 159.929688 313.417969 160.507812 314.546875 C 161.226562 315.953125 162.921875 316.675781 164.484375 316.242188 C 166.699219 315.628906 169.175781 316.15625 170.925781 317.84375 C 172.671875 319.527344 173.214844 321.917969 172.582031 324.058594 C 172.132812 325.566406 172.882812 327.199219 174.339844 327.894531 C 175.507812 328.453125 176.71875 328.941406 177.964844 329.351562 C 179.507812 329.863281 181.246094 329.214844 182.039062 327.839844 C 183.15625 325.890625 185.292969 324.574219 187.761719 324.574219 C 190.234375 324.574219 192.371094 325.890625 193.488281 327.839844 C 194.277344 329.214844 196.019531 329.863281 197.5625 329.351562 C 198.808594 328.941406 200.019531 328.453125 201.183594 327.894531 C 202.640625 327.199219 203.394531 325.566406 202.945312 324.058594 C 202.308594 321.917969 202.855469 319.527344 204.601562 317.84375 C 206.347656 316.15625 208.824219 315.628906 211.042969 316.242188 C 212.605469 316.675781 214.296875 315.953125 215.019531 314.546875 C 215.597656 313.417969 216.101562 312.25 216.527344 311.050781 C 217.054688 309.558594 216.386719 307.878906 214.957031 307.117188 C 212.941406 306.039062 211.574219 303.976562 211.574219 301.59375 Z M 211.574219 301.59375 " fill-opacity="1" fill-rule="nonzero"/><path fill="#000000" d="M 179.0625 330.902344 C 178.554688 330.902344 178.039062 330.824219 177.53125 330.65625 C 176.246094 330.234375 174.972656 329.722656 173.75 329.136719 C 171.695312 328.15625 170.628906 325.804688 171.261719 323.664062 C 171.773438 321.945312 171.277344 320.09375 169.96875 318.832031 C 168.640625 317.546875 166.679688 317.0625 164.851562 317.570312 C 162.648438 318.179688 160.308594 317.171875 159.285156 315.171875 C 158.675781 313.988281 158.144531 312.753906 157.703125 311.507812 C 156.953125 309.390625 157.90625 306.980469 159.917969 305.90625 C 161.558594 305.027344 162.574219 303.375 162.574219 301.589844 C 162.574219 299.808594 161.558594 298.15625 159.917969 297.277344 C 157.90625 296.203125 156.953125 293.792969 157.703125 291.675781 C 158.144531 290.429688 158.675781 289.195312 159.285156 288.011719 C 160.308594 286.011719 162.652344 285.003906 164.851562 285.613281 C 166.679688 286.121094 168.640625 285.636719 169.96875 284.351562 C 171.277344 283.089844 171.773438 281.238281 171.261719 279.519531 C 170.628906 277.378906 171.695312 275.027344 173.75 274.046875 C 174.972656 273.460938 176.246094 272.949219 177.53125 272.527344 C 179.710938 271.808594 182.109375 272.707031 183.230469 274.660156 C 184.144531 276.25 185.878906 277.234375 187.761719 277.234375 C 189.648438 277.234375 191.382812 276.25 192.296875 274.660156 C 193.417969 272.707031 195.816406 271.808594 197.992188 272.527344 C 199.28125 272.949219 200.554688 273.460938 201.777344 274.046875 C 203.832031 275.027344 204.898438 277.378906 204.261719 279.519531 C 203.753906 281.238281 204.246094 283.089844 205.554688 284.351562 C 206.886719 285.636719 208.847656 286.121094 210.675781 285.613281 C 212.875 285.003906 215.21875 286.011719 216.242188 288.011719 C 216.851562 289.195312 217.382812 290.429688 217.824219 291.675781 C 218.574219 293.792969 217.621094 296.203125 215.609375 297.277344 C 213.96875 298.15625 212.949219 299.808594 212.949219 301.589844 C 212.949219 303.375 213.96875 305.027344 215.609375 305.90625 C 217.621094 306.980469 218.574219 309.390625 217.824219 311.507812 C 217.382812 312.753906 216.851562 313.988281 216.242188 315.171875 C 215.21875 317.171875 212.875 318.179688 210.675781 317.570312 C 208.847656 317.0625 206.886719 317.546875 205.554688 318.832031 C 204.246094 320.09375 203.753906 321.945312 204.261719 323.664062 C 204.898438 325.804688 203.832031 328.15625 201.777344 329.136719 C 200.554688 329.722656 199.28125 330.234375 197.992188 330.65625 C 195.816406 331.375 193.417969 330.476562 192.296875 328.523438 C 191.382812 326.933594 189.648438 325.949219 187.761719 325.949219 C 185.878906 325.949219 184.140625 326.933594 183.230469 328.523438 C 182.367188 330.023438 180.753906 330.902344 179.0625 330.902344 Z M 166.296875 314.621094 C 168.363281 314.621094 170.378906 315.40625 171.878906 316.851562 C 173.929688 318.832031 174.703125 321.742188 173.898438 324.449219 C 173.644531 325.304688 174.089844 326.253906 174.933594 326.65625 C 176.054688 327.191406 177.21875 327.660156 178.394531 328.046875 C 179.324219 328.351562 180.378906 327.96875 180.84375 327.152344 C 182.246094 324.714844 184.898438 323.199219 187.761719 323.199219 C 190.628906 323.199219 193.28125 324.714844 194.679688 327.152344 C 195.148438 327.96875 196.203125 328.351562 197.132812 328.046875 C 198.308594 327.65625 199.472656 327.191406 200.59375 326.65625 C 201.4375 326.253906 201.882812 325.304688 201.628906 324.449219 C 200.824219 321.742188 201.597656 318.832031 203.644531 316.851562 C 205.675781 314.894531 208.648438 314.15625 211.410156 314.917969 C 212.34375 315.179688 213.371094 314.746094 213.796875 313.917969 C 214.347656 312.839844 214.832031 311.722656 215.230469 310.589844 C 215.53125 309.742188 215.136719 308.769531 214.3125 308.328125 C 211.777344 306.972656 210.199219 304.390625 210.199219 301.589844 C 210.199219 298.792969 211.777344 296.210938 214.3125 294.855469 C 215.136719 294.414062 215.53125 293.441406 215.230469 292.59375 C 214.832031 291.460938 214.347656 290.34375 213.796875 289.265625 C 213.371094 288.4375 212.34375 288.003906 211.410156 288.265625 C 208.648438 289.027344 205.675781 288.289062 203.644531 286.332031 C 201.597656 284.351562 200.824219 281.441406 201.628906 278.734375 C 201.882812 277.878906 201.4375 276.929688 200.59375 276.527344 C 199.472656 275.992188 198.308594 275.527344 197.132812 275.136719 C 196.203125 274.832031 195.148438 275.214844 194.679688 276.03125 C 193.28125 278.46875 190.628906 279.984375 187.761719 279.984375 C 184.898438 279.984375 182.246094 278.46875 180.84375 276.03125 C 180.378906 275.214844 179.324219 274.832031 178.394531 275.136719 C 177.21875 275.523438 176.054688 275.992188 174.933594 276.527344 C 174.089844 276.929688 173.644531 277.878906 173.898438 278.734375 C 174.703125 281.441406 173.929688 284.351562 171.878906 286.332031 C 169.851562 288.289062 166.878906 289.027344 164.117188 288.265625 C 163.183594 288.003906 162.15625 288.4375 161.730469 289.265625 C 161.179688 290.34375 160.695312 291.460938 160.296875 292.59375 C 159.996094 293.441406 160.390625 294.414062 161.214844 294.855469 C 163.75 296.210938 165.324219 298.792969 165.324219 301.589844 C 165.324219 304.390625 163.75 306.972656 161.214844 308.328125 C 160.390625 308.769531 159.996094 309.742188 160.296875 310.589844 C 160.695312 311.722656 161.179688 312.839844 161.730469 313.917969 C 162.15625 314.746094 163.183594 315.179688 164.117188 314.917969 C 164.835938 314.71875 165.570312 314.621094 166.296875 314.621094 Z M 166.296875 314.621094 " fill-opacity="1" fill-rule="nonzero"/><path fill="#ffffff" d="M 200.890625 301.59375 C 200.890625 302.453125 200.804688 303.308594 200.636719 304.152344 C 200.46875 304.996094 200.21875 305.816406 199.890625 306.613281 C 199.5625 307.410156 199.15625 308.167969 198.675781 308.882812 C 198.199219 309.597656 197.65625 310.261719 197.046875 310.871094 C 196.4375 311.480469 195.773438 312.023438 195.054688 312.503906 C 194.339844 312.980469 193.582031 313.386719 192.785156 313.714844 C 191.992188 314.046875 191.167969 314.292969 190.324219 314.464844 C 189.480469 314.632812 188.625 314.714844 187.761719 314.714844 C 186.902344 314.714844 186.046875 314.632812 185.203125 314.464844 C 184.355469 314.292969 183.535156 314.046875 182.738281 313.714844 C 181.945312 313.386719 181.1875 312.980469 180.46875 312.503906 C 179.753906 312.023438 179.089844 311.480469 178.480469 310.871094 C 177.871094 310.261719 177.328125 309.597656 176.847656 308.882812 C 176.371094 308.167969 175.964844 307.410156 175.636719 306.613281 C 175.304688 305.816406 175.058594 304.996094 174.890625 304.152344 C 174.722656 303.308594 174.636719 302.453125 174.636719 301.59375 C 174.636719 300.730469 174.722656 299.875 174.890625 299.03125 C 175.058594 298.1875 175.304688 297.367188 175.636719 296.570312 C 175.964844 295.773438 176.371094 295.015625 176.847656 294.300781 C 177.328125 293.585938 177.871094 292.921875 178.480469 292.3125 C 179.089844 291.703125 179.753906 291.160156 180.46875 290.679688 C 181.1875 290.203125 181.945312 289.796875 182.738281 289.46875 C 183.535156 289.136719 184.355469 288.890625 185.203125 288.722656 C 186.046875 288.550781 186.902344 288.46875 187.761719 288.46875 C 188.625 288.46875 189.480469 288.550781 190.324219 288.71875 C 191.167969 288.890625 191.992188 289.136719 192.785156 289.46875 C 193.582031 289.796875 194.339844 290.203125 195.054688 290.679688 C 195.773438 291.160156 196.4375 291.703125 197.046875 292.3125 C 197.65625 292.921875 198.199219 293.585938 198.675781 294.300781 C 199.15625 295.015625 199.5625 295.773438 199.890625 296.570312 C 200.21875 297.367188 200.46875 298.1875 200.636719 299.03125 C 200.804688 299.875 200.890625 300.730469 200.890625 301.59375 Z M 200.890625 301.59375 " fill-opacity="1" fill-rule="nonzero"/><path fill="#000000" d="M 187.761719 316.089844 C 179.765625 316.089844 173.261719 309.585938 173.261719 301.59375 C 173.261719 293.597656 179.765625 287.09375 187.761719 287.09375 C 195.757812 287.09375 202.265625 293.597656 202.265625 301.59375 C 202.265625 309.585938 195.757812 316.089844 187.761719 316.089844 Z M 187.761719 289.84375 C 181.285156 289.84375 176.011719 295.113281 176.011719 301.59375 C 176.011719 308.070312 181.285156 313.339844 187.761719 313.339844 C 194.242188 313.339844 199.515625 308.070312 199.515625 301.59375 C 199.515625 295.113281 194.242188 289.84375 187.761719 289.84375 Z M 187.761719 289.84375 " fill-opacity="1" fill-rule="nonzero"/><path fill="#026bbf" d="M 293.273438 88.605469 C 293.273438 80.65625 276.023438 74.210938 254.742188 74.210938 C 233.460938 74.210938 216.210938 80.65625 216.210938 88.605469 C 216.210938 91.953125 216.210938 114.050781 216.210938 117.398438 C 216.210938 120.742188 216.210938 142.847656 216.210938 146.1875 C 216.210938 149.539062 216.210938 171.632812 216.210938 174.980469 C 216.210938 182.933594 233.460938 189.378906 254.742188 189.378906 C 276.023438 189.378906 293.273438 182.933594 293.273438 174.980469 C 293.273438 171.632812 293.273438 149.539062 293.273438 146.1875 C 293.273438 142.847656 293.273438 120.742188 293.273438 117.398438 C 293.273438 114.050781 293.273438 91.953125 293.273438 88.605469 Z M 293.273438 88.605469 " fill-opacity="1" fill-rule="nonzero"/><path fill="#000000" d="M 254.742188 190.75 C 244.289062 190.75 234.441406 189.222656 227.015625 186.449219 C 219.160156 183.515625 214.835938 179.441406 214.835938 174.980469 L 214.835938 88.605469 C 214.835938 84.144531 219.160156 80.074219 227.015625 77.136719 C 234.441406 74.363281 244.289062 72.835938 254.742188 72.835938 C 265.195312 72.835938 275.042969 74.363281 282.46875 77.136719 C 290.324219 80.074219 294.648438 84.144531 294.648438 88.605469 L 294.648438 174.980469 C 294.648438 179.441406 290.324219 183.515625 282.46875 186.449219 C 275.042969 189.222656 265.195312 190.75 254.742188 190.75 Z M 254.742188 75.585938 C 244.609375 75.585938 235.105469 77.050781 227.976562 79.714844 C 221.371094 82.183594 217.585938 85.421875 217.585938 88.605469 L 217.585938 174.980469 C 217.585938 178.164062 221.371094 181.40625 227.976562 183.871094 C 235.105469 186.535156 244.609375 188.003906 254.742188 188.003906 C 264.875 188.003906 274.378906 186.535156 281.507812 183.871094 C 288.109375 181.40625 291.898438 178.164062 291.898438 174.980469 L 291.898438 88.605469 C 291.898438 85.421875 288.109375 82.183594 281.507812 79.714844 C 274.378906 77.050781 264.875 75.585938 254.742188 75.585938 Z M 254.742188 75.585938 " fill-opacity="1" fill-rule="nonzero"/><path fill="#026bbf" d="M 293.273438 88.605469 C 293.273438 89.078125 293.210938 89.546875 293.085938 90.015625 C 292.964844 90.484375 292.777344 90.953125 292.53125 91.414062 C 292.285156 91.875 291.980469 92.332031 291.613281 92.785156 C 291.246094 93.234375 290.824219 93.679688 290.339844 94.113281 C 289.855469 94.550781 289.320312 94.976562 288.722656 95.390625 C 288.128906 95.808594 287.480469 96.210938 286.78125 96.605469 C 286.078125 96.996094 285.328125 97.375 284.527344 97.738281 C 283.726562 98.101562 282.878906 98.453125 281.988281 98.785156 C 281.09375 99.117188 280.160156 99.433594 279.1875 99.734375 C 278.210938 100.03125 277.199219 100.3125 276.148438 100.574219 C 275.097656 100.835938 274.019531 101.078125 272.90625 101.300781 C 271.792969 101.523438 270.652344 101.726562 269.488281 101.90625 C 268.320312 102.085938 267.132812 102.246094 265.925781 102.382812 C 264.71875 102.519531 263.496094 102.632812 262.257812 102.726562 C 261.019531 102.816406 259.773438 102.886719 258.519531 102.933594 C 257.261719 102.980469 256.003906 103 254.742188 103 C 253.480469 103 252.21875 102.980469 250.964844 102.933594 C 249.707031 102.886719 248.460938 102.816406 247.222656 102.726562 C 245.988281 102.632812 244.765625 102.519531 243.554688 102.382812 C 242.347656 102.246094 241.160156 102.085938 239.996094 101.90625 C 238.832031 101.726562 237.691406 101.523438 236.578125 101.300781 C 235.464844 101.078125 234.382812 100.835938 233.335938 100.574219 C 232.285156 100.3125 231.273438 100.03125 230.296875 99.734375 C 229.320312 99.433594 228.386719 99.117188 227.496094 98.785156 C 226.601562 98.453125 225.757812 98.101562 224.957031 97.738281 C 224.15625 97.375 223.40625 96.996094 222.703125 96.605469 C 222.003906 96.210938 221.355469 95.808594 220.757812 95.390625 C 220.164062 94.976562 219.625 94.550781 219.144531 94.113281 C 218.660156 93.679688 218.234375 93.234375 217.867188 92.785156 C 217.503906 92.332031 217.195312 91.875 216.949219 91.414062 C 216.703125 90.953125 216.519531 90.484375 216.394531 90.015625 C 216.273438 89.546875 216.210938 89.078125 216.210938 88.605469 C 216.210938 88.132812 216.273438 87.664062 216.394531 87.195312 C 216.519531 86.726562 216.703125 86.261719 216.949219 85.796875 C 217.195312 85.335938 217.503906 84.878906 217.867188 84.425781 C 218.234375 83.976562 218.660156 83.53125 219.144531 83.097656 C 219.625 82.660156 220.164062 82.234375 220.757812 81.820312 C 221.355469 81.402344 222.003906 81 222.703125 80.609375 C 223.40625 80.214844 224.15625 79.835938 224.957031 79.472656 C 225.757812 79.109375 226.601562 78.761719 227.496094 78.425781 C 228.386719 78.09375 229.320312 77.777344 230.296875 77.476562 C 231.273438 77.179688 232.285156 76.898438 233.335938 76.636719 C 234.382812 76.375 235.464844 76.132812 236.578125 75.910156 C 237.691406 75.6875 238.832031 75.484375 239.996094 75.304688 C 241.160156 75.125 242.347656 74.96875 243.554688 74.828125 C 244.765625 74.691406 245.988281 74.578125 247.222656 74.488281 C 248.460938 74.394531 249.707031 74.324219 250.964844 74.28125 C 252.21875 74.234375 253.480469 74.210938 254.742188 74.210938 C 256.003906 74.210938 257.261719 74.234375 258.519531 74.28125 C 259.773438 74.324219 261.019531 74.394531 262.257812 74.488281 C 263.496094 74.578125 264.71875 74.691406 265.925781 74.828125 C 267.132812 74.96875 268.320312 75.125 269.488281 75.304688 C 270.652344 75.484375 271.792969 75.6875 272.90625 75.910156 C 274.019531 76.132812 275.097656 76.375 276.148438 76.636719 C 277.199219 76.898438 278.210938 77.179688 279.1875 77.476562 C 280.160156 77.777344 281.09375 78.09375 281.988281 78.425781 C 282.878906 78.761719 283.726562 79.109375 284.527344 79.472656 C 285.328125 79.835938 286.078125 80.214844 286.78125 80.609375 C 287.480469 81 288.128906 81.402344 288.722656 81.820312 C 289.316406 82.234375 289.855469 82.660156 290.339844 83.097656 C 290.824219 83.53125 291.246094 83.976562 291.613281 84.425781 C 291.980469 84.878906 292.285156 85.335938 292.53125 85.796875 C 292.777344 86.261719 292.964844 86.726562 293.085938 87.195312 C 293.210938 87.664062 293.273438 88.132812 293.273438 88.605469 Z M 293.273438 88.605469 " fill-opacity="1" fill-rule="nonzero"/><path fill="#000000" d="M 254.742188 104.375 C 244.289062 104.375 234.441406 102.847656 227.015625 100.074219 C 219.160156 97.140625 214.835938 93.066406 214.835938 88.605469 C 214.835938 84.144531 219.160156 80.074219 227.015625 77.136719 C 234.441406 74.363281 244.289062 72.835938 254.742188 72.835938 C 265.195312 72.835938 275.042969 74.363281 282.46875 77.136719 C 290.324219 80.074219 294.648438 84.144531 294.648438 88.605469 C 294.648438 93.066406 290.324219 97.136719 282.46875 100.074219 C 275.042969 102.847656 265.195312 104.375 254.742188 104.375 Z M 254.742188 75.585938 C 244.609375 75.585938 235.105469 77.050781 227.976562 79.714844 C 221.371094 82.183594 217.585938 85.421875 217.585938 88.605469 C 217.585938 91.789062 221.371094 95.03125 227.976562 97.496094 C 235.105469 100.160156 244.609375 101.628906 254.742188 101.628906 C 264.875 101.628906 274.378906 100.160156 281.507812 97.496094 C 288.109375 95.03125 291.898438 91.789062 291.898438 88.605469 C 291.898438 85.421875 288.109375 82.183594 281.507812 79.714844 C 274.378906 77.050781 264.875 75.585938 254.742188 75.585938 Z M 254.742188 75.585938 " fill-opacity="1" fill-rule="nonzero"/><path fill="#026bbf" d="M 293.273438 117.398438 C 293.273438 125.347656 276.023438 131.792969 254.742188 131.792969 C 233.460938 131.792969 216.210938 125.347656 216.210938 117.398438 Z M 293.273438 117.398438 " fill-opacity="1" fill-rule="nonzero"/><path fill="#000000" d="M 254.742188 133.167969 C 244.289062 133.167969 234.441406 131.640625 227.015625 128.863281 C 219.160156 125.929688 214.835938 121.859375 214.835938 117.398438 C 214.835938 116.636719 215.449219 116.023438 216.210938 116.023438 C 216.96875 116.023438 217.585938 116.636719 217.585938 117.398438 C 217.585938 120.582031 221.371094 123.820312 227.976562 126.289062 C 235.105469 128.953125 244.609375 130.417969 254.742188 130.417969 C 264.875 130.417969 274.378906 128.953125 281.507812 126.289062 C 288.109375 123.820312 291.898438 120.582031 291.898438 117.398438 C 291.898438 116.636719 292.515625 116.023438 293.273438 116.023438 C 294.03125 116.023438 294.648438 116.636719 294.648438 117.398438 C 294.648438 121.859375 290.324219 125.929688 282.46875 128.863281 C 275.042969 131.640625 265.195312 133.167969 254.742188 133.167969 Z M 254.742188 133.167969 " fill-opacity="1" fill-rule="nonzero"/><path fill="#026bbf" d="M 293.273438 146.1875 C 293.273438 154.140625 276.023438 160.585938 254.742188 160.585938 C 233.460938 160.585938 216.210938 154.140625 216.210938 146.1875 Z M 293.273438 146.1875 " fill-opacity="1" fill-rule="nonzero"/><path fill="#000000" d="M 254.742188 161.960938 C 244.289062 161.960938 234.441406 160.433594 227.015625 157.65625 C 219.160156 154.722656 214.835938 150.648438 214.835938 146.1875 C 214.835938 145.429688 215.449219 144.816406 216.210938 144.816406 C 216.96875 144.816406 217.585938 145.429688 217.585938 146.1875 C 217.585938 149.371094 221.371094 152.613281 227.976562 155.082031 C 235.105469 157.742188 244.609375 159.210938 254.742188 159.210938 C 264.875 159.210938 274.378906 157.742188 281.507812 155.082031 C 288.109375 152.613281 291.898438 149.371094 291.898438 146.1875 C 291.898438 145.429688 292.515625 144.816406 293.273438 144.816406 C 294.03125 144.816406 294.648438 145.429688 294.648438 146.1875 C 294.648438 150.648438 290.324219 154.722656 282.46875 157.65625 C 275.042969 160.433594 265.195312 161.960938 254.742188 161.960938 Z M 254.742188 161.960938 " fill-opacity="1" fill-rule="nonzero"/><path fill="#ffffff" d="M 300.957031 131.847656 L 310.550781 131.652344 Z M 300.957031 131.847656 " fill-opacity="1" fill-rule="nonzero"/><path fill="#000000" d="M 300.957031 133.222656 C 300.210938 133.222656 299.597656 132.628906 299.582031 131.878906 C 299.566406 131.117188 300.167969 130.492188 300.925781 130.476562 L 310.523438 130.277344 C 310.53125 130.277344 310.542969 130.277344 310.550781 130.277344 C 311.296875 130.277344 311.910156 130.875 311.925781 131.621094 C 311.941406 132.382812 311.339844 133.011719 310.578125 133.027344 L 300.984375 133.222656 C 300.976562 133.222656 300.964844 133.222656 300.957031 133.222656 Z M 300.957031 133.222656 " fill-opacity="1" fill-rule="nonzero"/><path fill="#000000" d="M 328.125 91.824219 L 310.550781 91.824219 C 309.792969 91.824219 309.175781 91.210938 309.175781 90.449219 C 309.175781 89.691406 309.792969 89.078125 310.550781 89.078125 L 328.125 89.078125 C 328.882812 89.078125 329.5 89.691406 329.5 90.449219 C 329.5 91.210938 328.882812 91.824219 328.125 91.824219 Z M 328.125 91.824219 " fill-opacity="1" fill-rule="nonzero"/><path fill="#000000" d="M 328.125 133.027344 L 310.550781 133.027344 C 309.792969 133.027344 309.175781 132.410156 309.175781 131.652344 C 309.175781 130.890625 309.792969 130.277344 310.550781 130.277344 L 328.125 130.277344 C 328.882812 130.277344 329.5 130.890625 329.5 131.652344 C 329.5 132.410156 328.882812 133.027344 328.125 133.027344 Z M 328.125 133.027344 " fill-opacity="1" fill-rule="nonzero"/><path fill="#000000" d="M 328.125 176.949219 L 310.550781 176.949219 C 309.792969 176.949219 309.175781 176.332031 309.175781 175.574219 C 309.175781 174.8125 309.792969 174.199219 310.550781 174.199219 L 328.125 174.199219 C 328.882812 174.199219 329.5 174.8125 329.5 175.574219 C 329.5 176.332031 328.882812 176.949219 328.125 176.949219 Z M 328.125 176.949219 " fill-opacity="1" fill-rule="nonzero"/><path fill="#000000" d="M 310.550781 176.949219 C 309.792969 176.949219 309.175781 176.332031 309.175781 175.574219 L 309.175781 90.449219 C 309.175781 89.691406 309.792969 89.078125 310.550781 89.078125 C 311.3125 89.078125 311.925781 89.691406 311.925781 90.449219 L 311.925781 175.574219 C 311.925781 176.332031 311.3125 176.949219 310.550781 176.949219 Z M 310.550781 176.949219 " fill-opacity="1" fill-rule="nonzero"/><path fill="#ffc180" d="M 340.90625 90.449219 C 340.90625 90.957031 340.855469 91.460938 340.757812 91.957031 C 340.660156 92.453125 340.511719 92.933594 340.320312 93.402344 C 340.125 93.871094 339.886719 94.316406 339.605469 94.738281 C 339.324219 95.160156 339.003906 95.546875 338.644531 95.90625 C 338.289062 96.265625 337.898438 96.585938 337.476562 96.867188 C 337.054688 97.148438 336.609375 97.386719 336.140625 97.578125 C 335.675781 97.773438 335.191406 97.917969 334.695312 98.019531 C 334.199219 98.117188 333.695312 98.167969 333.1875 98.167969 C 332.683594 98.167969 332.179688 98.117188 331.683594 98.019531 C 331.1875 97.917969 330.703125 97.773438 330.234375 97.578125 C 329.769531 97.386719 329.324219 97.148438 328.902344 96.867188 C 328.480469 96.585938 328.089844 96.265625 327.730469 95.90625 C 327.375 95.546875 327.054688 95.160156 326.773438 94.738281 C 326.492188 94.316406 326.253906 93.871094 326.058594 93.402344 C 325.863281 92.933594 325.71875 92.453125 325.621094 91.957031 C 325.519531 91.460938 325.472656 90.957031 325.472656 90.449219 C 325.472656 89.945312 325.519531 89.441406 325.621094 88.945312 C 325.71875 88.449219 325.863281 87.964844 326.058594 87.5 C 326.253906 87.03125 326.492188 86.585938 326.773438 86.164062 C 327.054688 85.742188 327.375 85.355469 327.730469 84.996094 C 328.089844 84.636719 328.480469 84.316406 328.902344 84.035156 C 329.324219 83.753906 329.769531 83.515625 330.234375 83.324219 C 330.703125 83.128906 331.1875 82.984375 331.683594 82.882812 C 332.179688 82.785156 332.683594 82.734375 333.1875 82.734375 C 333.695312 82.734375 334.199219 82.785156 334.695312 82.882812 C 335.191406 82.984375 335.675781 83.128906 336.140625 83.324219 C 336.609375 83.515625 337.054688 83.753906 337.476562 84.035156 C 337.898438 84.316406 338.289062 84.636719 338.644531 84.996094 C 339.003906 85.355469 339.324219 85.742188 339.605469 86.164062 C 339.886719 86.585938 340.125 87.03125 340.320312 87.5 C 340.511719 87.964844 340.660156 88.449219 340.757812 88.945312 C 340.855469 89.441406 340.90625 89.945312 340.90625 90.449219 Z M 340.90625 90.449219 " fill-opacity="1" fill-rule="nonzero"/><g clip-path="url(#ed51d7681f)"><path fill="#000000" d="M 333.1875 99.542969 C 328.175781 99.542969 324.097656 95.464844 324.097656 90.449219 C 324.097656 85.4375 328.175781 81.359375 333.1875 81.359375 C 338.203125 81.359375 342.28125 85.4375 342.28125 90.449219 C 342.28125 95.464844 338.203125 99.542969 333.1875 99.542969 Z M 333.1875 84.109375 C 329.691406 84.109375 326.847656 86.953125 326.847656 90.449219 C 326.847656 93.945312 329.691406 96.792969 333.1875 96.792969 C 336.6875 96.792969 339.53125 93.945312 339.53125 90.449219 C 339.53125 86.953125 336.6875 84.109375 333.1875 84.109375 Z M 333.1875 84.109375 " fill-opacity="1" fill-rule="nonzero"/></g><path fill="#ffc180" d="M 334.433594 124.035156 C 334.933594 124.113281 335.421875 124.242188 335.898438 124.421875 C 336.371094 124.597656 336.824219 124.820312 337.253906 125.085938 C 337.6875 125.351562 338.085938 125.660156 338.457031 126.003906 C 338.828125 126.347656 339.164062 126.726562 339.457031 127.136719 C 339.753906 127.550781 340.007812 127.984375 340.21875 128.445312 C 340.429688 128.90625 340.59375 129.382812 340.707031 129.875 C 340.824219 130.371094 340.890625 130.871094 340.910156 131.375 C 340.929688 131.882812 340.898438 132.386719 340.816406 132.886719 C 340.734375 133.386719 340.605469 133.871094 340.429688 134.347656 C 340.25 134.820312 340.027344 135.273438 339.761719 135.707031 C 339.496094 136.136719 339.191406 136.539062 338.84375 136.910156 C 338.5 137.277344 338.121094 137.613281 337.710938 137.910156 C 337.300781 138.203125 336.863281 138.457031 336.402344 138.667969 C 335.941406 138.878906 335.464844 139.042969 334.96875 139.160156 C 334.476562 139.273438 333.976562 139.34375 333.472656 139.359375 C 332.964844 139.378906 332.460938 139.347656 331.960938 139.265625 C 331.460938 139.183594 330.972656 139.054688 330.5 138.878906 C 330.023438 138.699219 329.570312 138.480469 329.140625 138.210938 C 328.710938 137.945312 328.308594 137.640625 327.9375 137.296875 C 327.566406 136.949219 327.234375 136.570312 326.9375 136.160156 C 326.640625 135.75 326.386719 135.3125 326.175781 134.851562 C 325.964844 134.390625 325.804688 133.914062 325.6875 133.421875 C 325.570312 132.929688 325.503906 132.429688 325.484375 131.921875 C 325.46875 131.417969 325.5 130.914062 325.578125 130.414062 C 325.660156 129.914062 325.789062 129.425781 325.96875 128.953125 C 326.144531 128.476562 326.367188 128.023438 326.632812 127.59375 C 326.898438 127.160156 327.207031 126.761719 327.550781 126.390625 C 327.894531 126.019531 328.273438 125.6875 328.683594 125.390625 C 329.097656 125.09375 329.53125 124.839844 329.992188 124.628906 C 330.453125 124.417969 330.933594 124.257812 331.425781 124.140625 C 331.917969 124.023438 332.417969 123.957031 332.925781 123.9375 C 333.429688 123.921875 333.933594 123.953125 334.433594 124.035156 Z M 334.433594 124.035156 " fill-opacity="1" fill-rule="nonzero"/><g clip-path="url(#594504b9c1)"><path fill="#000000" d="M 333.1875 140.742188 C 328.175781 140.742188 324.097656 136.664062 324.097656 131.652344 C 324.097656 126.640625 328.175781 122.5625 333.1875 122.5625 C 338.203125 122.5625 342.28125 126.640625 342.28125 131.652344 C 342.28125 136.664062 338.203125 140.742188 333.1875 140.742188 Z M 333.1875 125.308594 C 329.691406 125.308594 326.847656 128.15625 326.847656 131.652344 C 326.847656 135.148438 329.691406 137.992188 333.1875 137.992188 C 336.6875 137.992188 339.53125 135.148438 339.53125 131.652344 C 339.53125 128.15625 336.6875 125.308594 333.1875 125.308594 Z M 333.1875 125.308594 " fill-opacity="1" fill-rule="nonzero"/></g><path fill="#ffc180" d="M 340.90625 175.574219 C 340.90625 176.078125 340.855469 176.582031 340.757812 177.078125 C 340.660156 177.574219 340.511719 178.058594 340.320312 178.523438 C 340.125 178.992188 339.886719 179.4375 339.605469 179.859375 C 339.324219 180.28125 339.003906 180.671875 338.644531 181.027344 C 338.289062 181.386719 337.898438 181.707031 337.476562 181.988281 C 337.054688 182.269531 336.609375 182.507812 336.140625 182.699219 C 335.675781 182.894531 335.191406 183.042969 334.695312 183.140625 C 334.199219 183.238281 333.695312 183.289062 333.1875 183.289062 C 332.683594 183.289062 332.179688 183.238281 331.683594 183.140625 C 331.1875 183.042969 330.703125 182.894531 330.234375 182.699219 C 329.769531 182.507812 329.324219 182.269531 328.902344 181.988281 C 328.480469 181.707031 328.089844 181.386719 327.730469 181.027344 C 327.375 180.671875 327.054688 180.28125 326.773438 179.859375 C 326.492188 179.4375 326.253906 178.992188 326.058594 178.523438 C 325.863281 178.058594 325.71875 177.574219 325.621094 177.078125 C 325.519531 176.582031 325.472656 176.078125 325.472656 175.574219 C 325.472656 175.066406 325.519531 174.5625 325.621094 174.066406 C 325.71875 173.570312 325.863281 173.089844 326.058594 172.621094 C 326.253906 172.152344 326.492188 171.707031 326.773438 171.285156 C 327.054688 170.863281 327.375 170.476562 327.730469 170.117188 C 328.089844 169.757812 328.480469 169.4375 328.902344 169.15625 C 329.324219 168.875 329.769531 168.636719 330.234375 168.445312 C 330.703125 168.25 331.1875 168.105469 331.683594 168.003906 C 332.179688 167.90625 332.683594 167.855469 333.1875 167.855469 C 333.695312 167.855469 334.199219 167.90625 334.695312 168.003906 C 335.191406 168.105469 335.675781 168.25 336.140625 168.445312 C 336.609375 168.636719 337.054688 168.875 337.476562 169.15625 C 337.898438 169.4375 338.289062 169.757812 338.644531 170.117188 C 339.003906 170.476562 339.324219 170.863281 339.605469 171.285156 C 339.886719 171.707031 340.125 172.152344 340.320312 172.621094 C 340.511719 173.089844 340.660156 173.570312 340.757812 174.066406 C 340.855469 174.5625 340.90625 175.066406 340.90625 175.574219 Z M 340.90625 175.574219 " fill-opacity="1" fill-rule="nonzero"/><g clip-path="url(#77bdf49ee2)"><path fill="#000000" d="M 333.1875 184.664062 C 328.175781 184.664062 324.097656 180.585938 324.097656 175.574219 C 324.097656 170.558594 328.175781 166.480469 333.1875 166.480469 C 338.203125 166.480469 342.28125 170.558594 342.28125 175.574219 C 342.28125 180.585938 338.203125 184.664062 333.1875 184.664062 Z M 333.1875 169.230469 C 329.691406 169.230469 326.847656 172.078125 326.847656 175.574219 C 326.847656 179.070312 329.691406 181.914062 333.1875 181.914062 C 336.6875 181.914062 339.53125 179.070312 339.53125 175.574219 C 339.53125 172.078125 336.6875 169.230469 333.1875 169.230469 Z M 333.1875 169.230469 " fill-opacity="1" fill-rule="nonzero"/></g><path fill="#ffc180" d="M 123.90625 73.75 L 123.90625 68.652344 C 123.90625 67.832031 124.574219 67.164062 125.398438 67.164062 L 133.308594 67.164062 C 134.617188 67.164062 135.292969 65.59375 134.386719 64.644531 L 115.855469 45.21875 C 115.265625 44.601562 114.285156 44.601562 113.699219 45.21875 L 95.164062 64.644531 C 94.261719 65.59375 94.933594 67.164062 96.242188 67.164062 L 104.152344 67.164062 C 104.976562 67.164062 105.644531 67.832031 105.644531 68.652344 L 105.644531 73.75 Z M 123.90625 73.75 " fill-opacity="1" fill-rule="nonzero"/><g clip-path="url(#079e375580)"><path fill="#000000" d="M 123.90625 75.125 C 123.148438 75.125 122.53125 74.507812 122.53125 73.75 L 122.53125 68.652344 C 122.53125 67.074219 123.816406 65.789062 125.398438 65.789062 L 133.308594 65.789062 C 133.34375 65.789062 133.382812 65.789062 133.414062 65.71875 C 133.445312 65.648438 133.414062 65.617188 133.390625 65.59375 L 114.859375 46.164062 C 114.851562 46.15625 114.824219 46.128906 114.777344 46.128906 C 114.726562 46.128906 114.703125 46.15625 114.691406 46.164062 L 96.160156 65.59375 C 96.136719 65.621094 96.109375 65.648438 96.136719 65.71875 C 96.167969 65.789062 96.210938 65.789062 96.242188 65.789062 L 104.152344 65.789062 C 105.734375 65.789062 107.019531 67.074219 107.019531 68.652344 L 107.019531 73.75 C 107.019531 74.507812 106.402344 75.125 105.644531 75.125 C 104.882812 75.125 104.269531 74.507812 104.269531 73.75 L 104.269531 68.652344 C 104.269531 68.589844 104.21875 68.539062 104.152344 68.539062 L 96.242188 68.539062 C 95.09375 68.539062 94.0625 67.855469 93.609375 66.800781 C 93.15625 65.746094 93.378906 64.527344 94.167969 63.695312 L 112.703125 44.269531 C 113.242188 43.703125 113.996094 43.378906 114.777344 43.378906 C 115.554688 43.378906 116.3125 43.703125 116.851562 44.269531 L 135.382812 63.695312 C 136.175781 64.527344 136.394531 65.746094 135.941406 66.800781 C 135.492188 67.855469 134.457031 68.539062 133.308594 68.539062 L 125.398438 68.539062 C 125.335938 68.539062 125.28125 68.589844 125.28125 68.652344 L 125.28125 73.75 C 125.28125 74.507812 124.667969 75.125 123.90625 75.125 Z M 123.90625 75.125 " fill-opacity="1" fill-rule="nonzero"/></g><path fill="#ffc180" d="M 105.644531 173.910156 L 105.644531 179.007812 C 105.644531 179.832031 104.976562 180.496094 104.152344 180.496094 L 96.242188 180.496094 C 94.933594 180.496094 94.261719 182.066406 95.164062 183.015625 L 113.699219 202.445312 C 114.285156 203.0625 115.265625 203.0625 115.855469 202.445312 L 134.386719 183.015625 C 135.292969 182.066406 134.621094 180.496094 133.308594 180.496094 L 125.398438 180.496094 C 124.574219 180.496094 123.90625 179.832031 123.90625 179.007812 L 123.90625 173.910156 Z M 105.644531 173.910156 " fill-opacity="1" fill-rule="nonzero"/><path fill="#000000" d="M 114.777344 204.28125 C 113.996094 204.28125 113.242188 203.957031 112.703125 203.394531 L 94.167969 183.964844 C 93.378906 183.132812 93.15625 181.914062 93.609375 180.859375 C 94.0625 179.804688 95.09375 179.121094 96.242188 179.121094 L 104.152344 179.121094 C 104.21875 179.121094 104.269531 179.070312 104.269531 179.007812 L 104.269531 173.910156 C 104.269531 173.152344 104.886719 172.535156 105.644531 172.535156 C 106.402344 172.535156 107.019531 173.152344 107.019531 173.910156 L 107.019531 179.007812 C 107.019531 180.585938 105.734375 181.871094 104.152344 181.871094 L 96.242188 181.871094 C 96.210938 181.871094 96.167969 181.871094 96.136719 181.941406 C 96.109375 182.011719 96.136719 182.042969 96.160156 182.066406 L 114.691406 201.496094 C 114.699219 201.503906 114.726562 201.53125 114.777344 201.53125 C 114.824219 201.53125 114.851562 201.503906 114.859375 201.496094 L 133.390625 182.066406 C 133.414062 182.042969 133.445312 182.011719 133.414062 181.941406 C 133.382812 181.871094 133.34375 181.871094 133.308594 181.871094 L 125.398438 181.871094 C 123.820312 181.871094 122.53125 180.585938 122.53125 179.007812 L 122.53125 173.910156 C 122.53125 173.152344 123.148438 172.535156 123.90625 172.535156 C 124.667969 172.535156 125.285156 173.152344 125.285156 173.910156 L 125.285156 179.007812 C 125.285156 179.070312 125.335938 179.125 125.398438 179.125 L 133.308594 179.125 C 134.457031 179.125 135.492188 179.804688 135.941406 180.859375 C 136.394531 181.914062 136.175781 183.132812 135.382812 183.964844 L 116.851562 203.394531 C 116.3125 203.957031 115.554688 204.28125 114.777344 204.28125 Z M 114.777344 204.28125 " fill-opacity="1" fill-rule="nonzero"/><path fill="#ffc180" d="M 62.910156 116.472656 L 57.8125 116.472656 C 56.988281 116.472656 56.324219 115.804688 56.324219 114.984375 L 56.324219 107.074219 C 56.324219 105.765625 54.753906 105.09375 53.804688 105.996094 L 34.371094 124.523438 C 33.753906 125.113281 33.753906 126.09375 34.371094 126.679688 L 53.804688 145.207031 C 54.753906 146.113281 56.324219 145.441406 56.324219 144.128906 L 56.324219 136.222656 C 56.324219 135.398438 56.988281 134.734375 57.8125 134.734375 L 62.910156 134.734375 Z M 62.910156 116.472656 " fill-opacity="1" fill-rule="nonzero"/><g clip-path="url(#c8b89b0397)"><path fill="#000000" d="M 54.832031 146.996094 C 54.109375 146.996094 53.398438 146.722656 52.855469 146.203125 L 33.421875 127.675781 C 32.855469 127.136719 32.535156 126.382812 32.535156 125.601562 C 32.535156 124.824219 32.855469 124.066406 33.421875 123.53125 L 52.855469 105 C 53.6875 104.210938 54.90625 103.988281 55.960938 104.441406 C 57.015625 104.894531 57.699219 105.925781 57.699219 107.074219 L 57.699219 114.984375 C 57.699219 115.046875 57.75 115.097656 57.8125 115.097656 L 62.910156 115.097656 C 63.671875 115.097656 64.285156 115.714844 64.285156 116.472656 C 64.285156 117.234375 63.671875 117.847656 62.910156 117.847656 L 57.8125 117.847656 C 56.234375 117.847656 54.949219 116.5625 54.949219 114.984375 L 54.949219 107.074219 C 54.949219 107.042969 54.949219 107 54.878906 106.96875 C 54.808594 106.9375 54.777344 106.96875 54.753906 106.992188 L 35.320312 125.519531 C 35.3125 125.527344 35.285156 125.554688 35.285156 125.601562 C 35.285156 125.652344 35.3125 125.675781 35.320312 125.6875 L 54.753906 144.214844 C 54.777344 144.238281 54.808594 144.265625 54.878906 144.238281 C 54.949219 144.207031 54.949219 144.164062 54.949219 144.128906 L 54.949219 136.222656 C 54.949219 134.644531 56.234375 133.359375 57.8125 133.359375 L 62.910156 133.359375 C 63.671875 133.359375 64.285156 133.972656 64.285156 134.734375 C 64.285156 135.492188 63.671875 136.109375 62.910156 136.109375 L 57.8125 136.109375 C 57.75 136.109375 57.699219 136.160156 57.699219 136.222656 L 57.699219 144.128906 C 57.699219 145.277344 57.015625 146.3125 55.960938 146.765625 C 55.597656 146.921875 55.210938 146.996094 54.832031 146.996094 Z M 54.832031 146.996094 " fill-opacity="1" fill-rule="nonzero"/></g><path fill="#ffc180" d="M 166.640625 134.730469 L 171.738281 134.730469 C 172.5625 134.730469 173.230469 135.398438 173.230469 136.222656 L 173.230469 144.128906 C 173.230469 145.441406 174.800781 146.113281 175.746094 145.207031 L 195.179688 126.679688 C 195.796875 126.09375 195.796875 125.113281 195.179688 124.523438 L 175.746094 105.996094 C 174.800781 105.09375 173.230469 105.765625 173.230469 107.074219 L 173.230469 114.984375 C 173.230469 115.804688 172.5625 116.472656 171.738281 116.472656 L 166.640625 116.472656 Z M 166.640625 134.730469 " fill-opacity="1" fill-rule="nonzero"/><path fill="#000000" d="M 174.71875 146.996094 C 174.339844 146.996094 173.957031 146.921875 173.589844 146.765625 C 172.535156 146.3125 171.855469 145.277344 171.855469 144.128906 L 171.855469 136.222656 C 171.855469 136.160156 171.800781 136.105469 171.738281 136.105469 L 166.640625 136.105469 C 165.882812 136.105469 165.265625 135.492188 165.265625 134.730469 C 165.265625 133.972656 165.882812 133.355469 166.640625 133.355469 L 171.738281 133.355469 C 173.320312 133.355469 174.605469 134.640625 174.605469 136.222656 L 174.605469 144.128906 C 174.605469 144.164062 174.605469 144.207031 174.675781 144.238281 C 174.742188 144.265625 174.773438 144.238281 174.800781 144.214844 L 194.234375 125.6875 C 194.242188 125.679688 194.269531 125.652344 194.269531 125.601562 C 194.269531 125.554688 194.242188 125.527344 194.234375 125.519531 L 174.800781 106.992188 C 174.773438 106.96875 174.742188 106.9375 174.675781 106.96875 C 174.605469 107 174.605469 107.042969 174.605469 107.074219 L 174.605469 114.984375 C 174.605469 116.5625 173.320312 117.847656 171.738281 117.847656 L 166.640625 117.847656 C 165.882812 117.847656 165.265625 117.230469 165.265625 116.472656 C 165.265625 115.714844 165.882812 115.097656 166.640625 115.097656 L 171.738281 115.097656 C 171.800781 115.097656 171.855469 115.046875 171.855469 114.984375 L 171.855469 107.074219 C 171.855469 105.925781 172.535156 104.894531 173.589844 104.441406 C 174.648438 103.988281 175.867188 104.210938 176.695312 105 L 196.128906 123.53125 C 196.695312 124.066406 197.019531 124.824219 197.019531 125.601562 C 197.019531 126.382812 196.695312 127.136719 196.128906 127.675781 L 176.695312 146.203125 C 176.152344 146.722656 175.441406 146.996094 174.71875 146.996094 Z M 174.71875 146.996094 " fill-opacity="1" fill-rule="nonzero"/><path fill="#026bbf" d="M 158.660156 124.027344 C 158.660156 125.464844 158.589844 126.898438 158.449219 128.328125 C 158.308594 129.757812 158.097656 131.175781 157.816406 132.585938 C 157.535156 133.996094 157.1875 135.386719 156.769531 136.761719 C 156.351562 138.136719 155.867188 139.488281 155.320312 140.816406 C 154.769531 142.144531 154.15625 143.441406 153.476562 144.710938 C 152.800781 145.976562 152.0625 147.207031 151.261719 148.402344 C 150.464844 149.597656 149.609375 150.75 148.699219 151.859375 C 147.785156 152.972656 146.824219 154.035156 145.804688 155.050781 C 144.789062 156.066406 143.726562 157.03125 142.613281 157.941406 C 141.503906 158.851562 140.351562 159.707031 139.15625 160.507812 C 137.960938 161.304688 136.730469 162.042969 135.460938 162.71875 C 134.195312 163.398438 132.898438 164.011719 131.570312 164.558594 C 130.242188 165.109375 128.890625 165.59375 127.515625 166.011719 C 126.140625 166.429688 124.746094 166.777344 123.335938 167.058594 C 121.925781 167.335938 120.507812 167.546875 119.078125 167.6875 C 117.648438 167.828125 116.214844 167.898438 114.777344 167.898438 C 113.339844 167.898438 111.90625 167.828125 110.476562 167.6875 C 109.042969 167.546875 107.625 167.335938 106.214844 167.058594 C 104.804688 166.777344 103.414062 166.429688 102.039062 166.011719 C 100.660156 165.59375 99.308594 165.109375 97.984375 164.558594 C 96.65625 164.011719 95.355469 163.398438 94.089844 162.71875 C 92.820312 162.042969 91.589844 161.304688 90.394531 160.507812 C 89.199219 159.707031 88.046875 158.851562 86.9375 157.941406 C 85.824219 157.03125 84.761719 156.066406 83.746094 155.050781 C 82.730469 154.035156 81.765625 152.972656 80.855469 151.859375 C 79.941406 150.75 79.085938 149.597656 78.289062 148.402344 C 77.488281 147.207031 76.75 145.976562 76.074219 144.710938 C 75.398438 143.441406 74.78125 142.144531 74.234375 140.816406 C 73.683594 139.488281 73.199219 138.136719 72.78125 136.761719 C 72.363281 135.386719 72.015625 133.996094 71.734375 132.585938 C 71.457031 131.175781 71.246094 129.757812 71.105469 128.328125 C 70.964844 126.898438 70.894531 125.464844 70.894531 124.027344 C 70.894531 122.589844 70.964844 121.15625 71.105469 119.726562 C 71.246094 118.296875 71.457031 116.878906 71.734375 115.46875 C 72.015625 114.058594 72.363281 112.667969 72.78125 111.292969 C 73.199219 109.917969 73.683594 108.566406 74.234375 107.238281 C 74.78125 105.910156 75.398438 104.613281 76.074219 103.347656 C 76.75 102.078125 77.488281 100.847656 78.289062 99.652344 C 79.085938 98.460938 79.941406 97.304688 80.855469 96.195312 C 81.765625 95.085938 82.730469 94.023438 83.746094 93.003906 C 84.761719 91.988281 85.824219 91.027344 86.9375 90.113281 C 88.046875 89.203125 89.199219 88.347656 90.394531 87.550781 C 91.589844 86.75 92.820312 86.011719 94.089844 85.335938 C 95.355469 84.660156 96.65625 84.046875 97.984375 83.496094 C 99.308594 82.945312 100.660156 82.460938 102.039062 82.042969 C 103.414062 81.628906 104.804688 81.277344 106.214844 81 C 107.625 80.71875 109.042969 80.507812 110.476562 80.367188 C 111.90625 80.226562 113.339844 80.15625 114.777344 80.15625 C 116.214844 80.15625 117.648438 80.226562 119.078125 80.367188 C 120.507812 80.507812 121.925781 80.71875 123.335938 81 C 124.746094 81.277344 126.140625 81.628906 127.515625 82.042969 C 128.890625 82.460938 130.242188 82.945312 131.570312 83.496094 C 132.898438 84.046875 134.195312 84.660156 135.460938 85.335938 C 136.730469 86.011719 137.960938 86.75 139.15625 87.550781 C 140.351562 88.347656 141.503906 89.203125 142.613281 90.113281 C 143.726562 91.027344 144.789062 91.988281 145.804688 93.003906 C 146.824219 94.023438 147.785156 95.085938 148.699219 96.195312 C 149.609375 97.304688 150.464844 98.460938 151.261719 99.652344 C 152.0625 100.847656 152.800781 102.078125 153.476562 103.347656 C 154.15625 104.613281 154.769531 105.910156 155.320312 107.238281 C 155.867188 108.566406 156.351562 109.917969 156.769531 111.292969 C 157.1875 112.667969 157.535156 114.058594 157.816406 115.46875 C 158.097656 116.878906 158.308594 118.296875 158.449219 119.726562 C 158.589844 121.15625 158.660156 122.589844 158.660156 124.027344 Z M 158.660156 124.027344 " fill-opacity="1" fill-rule="nonzero"/><path fill="#000000" d="M 114.777344 169.273438 C 108.667969 169.273438 102.738281 168.078125 97.160156 165.71875 C 91.769531 163.441406 86.929688 160.175781 82.773438 156.023438 C 78.617188 151.867188 75.355469 147.027344 73.074219 141.640625 C 70.714844 136.0625 69.519531 130.136719 69.519531 124.027344 C 69.519531 117.921875 70.714844 111.996094 73.074219 106.414062 C 75.355469 101.027344 78.617188 96.1875 82.773438 92.035156 C 86.929688 87.878906 91.769531 84.617188 97.160156 82.335938 C 102.738281 79.976562 108.667969 78.78125 114.777344 78.78125 C 120.886719 78.78125 126.8125 79.976562 132.394531 82.335938 C 137.78125 84.617188 142.621094 87.878906 146.777344 92.035156 C 150.933594 96.1875 154.199219 101.027344 156.476562 106.414062 C 158.835938 111.996094 160.035156 117.921875 160.035156 124.027344 C 160.035156 130.136719 158.835938 136.0625 156.476562 141.640625 C 154.199219 147.027344 150.933594 151.867188 146.777344 156.023438 C 142.621094 160.175781 137.78125 163.441406 132.394531 165.71875 C 126.8125 168.078125 120.886719 169.273438 114.777344 169.273438 Z M 114.777344 81.53125 C 91.335938 81.53125 72.269531 100.59375 72.269531 124.027344 C 72.269531 147.460938 91.335938 166.523438 114.777344 166.523438 C 138.214844 166.523438 157.285156 147.460938 157.285156 124.027344 C 157.285156 100.59375 138.214844 81.53125 114.777344 81.53125 Z M 114.777344 81.53125 " fill-opacity="1" fill-rule="nonzero"/><path fill="#ffffff" d="M 121.578125 145.019531 L 121.578125 112.25 L 100.644531 112.25 C 99.664062 112.25 98.867188 113.046875 98.867188 114.027344 L 98.867188 117.867188 C 98.867188 118.847656 99.664062 119.644531 100.644531 119.644531 L 107.976562 119.644531 L 107.976562 145.019531 L 100.644531 145.019531 C 99.664062 145.019531 98.867188 145.816406 98.867188 146.796875 L 98.867188 150.640625 C 98.867188 151.621094 99.664062 152.414062 100.644531 152.414062 L 128.90625 152.414062 C 129.886719 152.414062 130.683594 151.621094 130.683594 150.640625 L 130.683594 146.796875 C 130.683594 145.816406 129.886719 145.019531 128.90625 145.019531 Z M 121.578125 145.019531 " fill-opacity="1" fill-rule="nonzero"/><path fill="#000000" d="M 128.90625 153.789062 L 100.644531 153.789062 C 98.90625 153.789062 97.492188 152.375 97.492188 150.640625 L 97.492188 146.796875 C 97.492188 145.058594 98.90625 143.644531 100.644531 143.644531 L 106.597656 143.644531 L 106.597656 121.019531 L 100.644531 121.019531 C 98.90625 121.019531 97.492188 119.605469 97.492188 117.867188 L 97.492188 114.027344 C 97.492188 112.289062 98.90625 110.875 100.644531 110.875 L 121.578125 110.875 C 122.335938 110.875 122.953125 111.492188 122.953125 112.25 L 122.953125 143.644531 L 128.90625 143.644531 C 130.644531 143.644531 132.058594 145.058594 132.058594 146.796875 L 132.058594 150.640625 C 132.058594 152.375 130.644531 153.789062 128.90625 153.789062 Z M 100.644531 146.394531 C 100.421875 146.394531 100.242188 146.574219 100.242188 146.796875 L 100.242188 150.640625 C 100.242188 150.859375 100.421875 151.039062 100.644531 151.039062 L 128.90625 151.039062 C 129.128906 151.039062 129.308594 150.859375 129.308594 150.640625 L 129.308594 146.796875 C 129.308594 146.574219 129.128906 146.394531 128.90625 146.394531 L 121.578125 146.394531 C 120.816406 146.394531 120.203125 145.78125 120.203125 145.019531 L 120.203125 113.625 L 100.644531 113.625 C 100.421875 113.625 100.242188 113.804688 100.242188 114.027344 L 100.242188 117.867188 C 100.242188 118.089844 100.421875 118.269531 100.644531 118.269531 L 107.976562 118.269531 C 108.734375 118.269531 109.351562 118.886719 109.351562 119.644531 L 109.351562 145.019531 C 109.351562 145.78125 108.734375 146.394531 107.976562 146.394531 Z M 100.644531 146.394531 " fill-opacity="1" fill-rule="nonzero"/><path fill="#ffffff" d="M 116.519531 90.691406 C 117.003906 90.808594 117.472656 90.96875 117.925781 91.171875 C 118.375 91.378906 118.804688 91.628906 119.207031 91.917969 C 119.609375 92.210938 119.980469 92.535156 120.320312 92.898438 C 120.65625 93.261719 120.957031 93.65625 121.21875 94.078125 C 121.480469 94.5 121.695312 94.945312 121.871094 95.410156 C 122.042969 95.875 122.171875 96.355469 122.25 96.84375 C 122.332031 97.335938 122.359375 97.828125 122.34375 98.324219 C 122.324219 98.820312 122.261719 99.308594 122.144531 99.792969 C 122.03125 100.277344 121.871094 100.746094 121.664062 101.195312 C 121.457031 101.648438 121.210938 102.074219 120.917969 102.480469 C 120.628906 102.882812 120.300781 103.253906 119.9375 103.589844 C 119.574219 103.929688 119.183594 104.230469 118.757812 104.488281 C 118.335938 104.75 117.894531 104.96875 117.425781 105.140625 C 116.960938 105.316406 116.484375 105.441406 115.992188 105.523438 C 115.503906 105.601562 115.007812 105.632812 114.511719 105.613281 C 114.015625 105.597656 113.527344 105.53125 113.042969 105.417969 C 112.558594 105.304688 112.089844 105.144531 111.640625 104.9375 C 111.1875 104.730469 110.761719 104.480469 110.355469 104.191406 C 109.953125 103.902344 109.582031 103.574219 109.246094 103.210938 C 108.90625 102.847656 108.605469 102.453125 108.34375 102.03125 C 108.082031 101.609375 107.867188 101.164062 107.691406 100.699219 C 107.519531 100.234375 107.390625 99.757812 107.3125 99.265625 C 107.234375 98.777344 107.203125 98.28125 107.21875 97.785156 C 107.238281 97.289062 107.304688 96.800781 107.417969 96.316406 C 107.53125 95.832031 107.691406 95.367188 107.898438 94.914062 C 108.105469 94.460938 108.351562 94.035156 108.644531 93.632812 C 108.933594 93.230469 109.261719 92.859375 109.625 92.519531 C 109.988281 92.179688 110.382812 91.882812 110.804688 91.621094 C 111.226562 91.359375 111.671875 91.140625 112.136719 90.96875 C 112.601562 90.792969 113.078125 90.667969 113.570312 90.589844 C 114.0625 90.507812 114.554688 90.476562 115.050781 90.496094 C 115.546875 90.511719 116.039062 90.578125 116.519531 90.691406 Z M 116.519531 90.691406 " fill-opacity="1" fill-rule="nonzero"/><path fill="#000000" d="M 114.777344 106.976562 C 109.84375 106.976562 105.835938 102.964844 105.835938 98.039062 C 105.835938 93.109375 109.84375 89.097656 114.777344 89.097656 C 119.707031 89.097656 123.71875 93.109375 123.71875 98.039062 C 123.71875 102.964844 119.707031 106.976562 114.777344 106.976562 Z M 114.777344 91.847656 C 111.363281 91.847656 108.585938 94.625 108.585938 98.039062 C 108.585938 101.449219 111.363281 104.226562 114.777344 104.226562 C 118.191406 104.226562 120.96875 101.449219 120.96875 98.039062 C 120.96875 94.625 118.191406 91.847656 114.777344 91.847656 Z M 114.777344 91.847656 " fill-opacity="1" fill-rule="nonzero"/></svg>